<?xml version="1.0" encoding="utf-8"?>
<!-- Generator: Adobe Illustrator 15.0.0, SVG Export Plug-In  -->
<!DOCTYPE svg PUBLIC "-//W3C//DTD SVG 1.1//EN" "http://www.w3.org/Graphics/SVG/1.1/DTD/svg11.dtd" [
	<!ENTITY ns_flows "http://ns.adobe.com/Flows/1.0/">
]>
<svg version="1.1"
	 xmlns="http://www.w3.org/2000/svg" xmlns:xlink="http://www.w3.org/1999/xlink" xmlns:a="http://ns.adobe.com/AdobeSVGViewerExtensions/3.0/"
	 x="0px" y="0px" width="52px" height="52px" viewBox="0.239 0.5 52 52"
	 overflow="visible" enable-background="new 0.239 0.5 52 52" xml:space="preserve">
<defs>
</defs>
<rect x="0.239" y="0.5" fill-rule="evenodd" clip-rule="evenodd" fill="#092630" width="52" height="52"/>
<path fill-rule="evenodd" clip-rule="evenodd" fill="#134D61" d="M14.747,29.048c1.27,0,2.446-0.001,3.552-0.007
	c1.036,0.095,1.861-0.151,2.426-0.825l4.453,9.345l1.061-5.872l-0.75-0.345l0.027-0.835h3.211l0.023,0.835L28,31.688l1.016,5.619
	l3.808-8.737c0.57,0.289,1.325,0.363,2.215,0.296c1.029-0.005,2.121-0.007,3.293-0.007c3.031,2.866,4.978,9.624,4.498,14.033
	c-0.938,0.652-2.546,1.188-4.567,1.606l-0.639-2.135l-1.405,2.496c-5.902,0.892-14.049,0.956-19.771,0.117l-1.47-2.613l-0.671,2.234
	c-1.974-0.425-3.475-0.992-4.207-1.706C10.181,39.021,10.893,32.409,14.747,29.048L14.747,29.048z M19.668,22.075
	c-0.511-0.258-0.891-0.707-1.146-1.321c-0.28-0.666-0.406-1.542-0.388-2.578l0.005-0.329l0.272-0.185
	c0.051-0.036,0.103-0.07,0.156-0.103c-0.604-4.394-0.097-6.424,1.815-7.991C23.356,7.134,29,7.113,32.011,9.321
	c2.046,1.498,2.775,4.158,2.235,8.149c0.105,0.059,0.208,0.12,0.313,0.192l0.272,0.185l0.006,0.329
	c0.015,1.016-0.108,1.876-0.376,2.54c-0.243,0.609-0.612,1.061-1.103,1.331c-0.789,2.582-3.51,5.35-6.272,5.624
	c-0.486,0.05-1.039,0.04-1.521-0.132C22.554,26.46,20.637,25.215,19.668,22.075z"/>
<circle display="none" fill-rule="evenodd" clip-rule="evenodd" fill="none" stroke="#CE1D6F" stroke-miterlimit="10" cx="26.5" cy="26.5" r="26"/>
</svg>
