<?xml version="1.0" encoding="utf-8"?>
<!-- Generator: Adobe Illustrator 15.0.0, SVG Export Plug-In  -->
<!DOCTYPE svg PUBLIC "-//W3C//DTD SVG 1.1//EN" "http://www.w3.org/Graphics/SVG/1.1/DTD/svg11.dtd" [
	<!ENTITY ns_flows "http://ns.adobe.com/Flows/1.0/">
]>
<svg version="1.1"
	 xmlns="http://www.w3.org/2000/svg" xmlns:xlink="http://www.w3.org/1999/xlink" xmlns:a="http://ns.adobe.com/AdobeSVGViewerExtensions/3.0/"
	 x="0px" y="0px" width="52px" height="52px" viewBox="0 0 52 52" overflow="visible" enable-background="new 0 0 52 52"
	 xml:space="preserve">
<defs>
</defs>
<rect fill-rule="evenodd" clip-rule="evenodd" fill="#092630" width="52" height="52"/>
<path fill-rule="evenodd" clip-rule="evenodd" fill="#134D61" d="M13.22,28.812c1.409,0,2.714-0.002,3.941-0.008
	c1.149,0.105,2.065-0.168,2.692-0.916l4.941,10.369l1.178-6.516l-0.833-0.382l0.029-0.927h3.563l0.026,0.927l-0.833,0.382
	l1.127,6.235l4.226-9.695c0.633,0.32,1.471,0.403,2.458,0.328c1.143-0.005,2.353-0.008,3.653-0.008
	c3.364,3.182,5.523,10.681,4.992,15.572c-1.041,0.724-2.825,1.319-5.069,1.782l-0.708-2.368l-1.56,2.77
	c-6.55,0.989-15.589,1.062-21.939,0.131l-1.631-2.9l-0.744,2.479c-2.19-0.472-3.855-1.102-4.668-1.894
	C8.153,39.879,8.942,32.542,13.22,28.812L13.22,28.812z M18.681,21.074c-0.567-0.286-0.989-0.784-1.272-1.466
	c-0.311-0.738-0.45-1.71-0.431-2.86l0.006-0.365l0.302-0.205c0.057-0.04,0.114-0.077,0.174-0.114
	c-0.67-4.876-0.108-7.128,2.014-8.868c3.299-2.701,9.562-2.724,12.903-0.274c2.271,1.663,3.08,4.614,2.481,9.042
	c0.117,0.065,0.23,0.134,0.348,0.214l0.302,0.205l0.007,0.365c0.017,1.127-0.121,2.082-0.417,2.818
	c-0.271,0.676-0.679,1.178-1.224,1.477c-0.875,2.866-3.895,5.937-6.96,6.241c-0.539,0.055-1.152,0.043-1.688-0.147
	C21.883,25.941,19.755,24.559,18.681,21.074z"/>
</svg>
