<?xml version="1.0" encoding="utf-8"?>
<!-- Generator: Adobe Illustrator 15.0.0, SVG Export Plug-In  -->
<!DOCTYPE svg PUBLIC "-//W3C//DTD SVG 1.1//EN" "http://www.w3.org/Graphics/SVG/1.1/DTD/svg11.dtd" [
	<!ENTITY ns_flows "http://ns.adobe.com/Flows/1.0/">
]>
<svg version="1.1"
	 xmlns="http://www.w3.org/2000/svg" xmlns:xlink="http://www.w3.org/1999/xlink" xmlns:a="http://ns.adobe.com/AdobeSVGViewerExtensions/3.0/"
	 x="0px" y="0px" width="202px" height="62px" viewBox="-1 -1.171 202 62"
	 overflow="visible" enable-background="new -1 -1.171 202 62" xml:space="preserve">
<defs>
</defs>
<path fill-rule="evenodd" clip-rule="evenodd" fill="#0098C3" d="M67.443,59.658H51.518L46.645,47.91H20.102l-4.439,11.749H0
	L23.932,0.307h17.143L67.443,59.658L67.443,59.658z M32.721,14.493l-8.703,23.061h18.274L32.721,14.493L32.721,14.493z"/>
<path fill-rule="evenodd" clip-rule="evenodd" fill="#0098C3" d="M97.403,0.307c12.183,0,19.406,8.181,19.406,17.056
	c0,6.528-3.392,11.402-10.181,14.536c6.092,3.044,7.919,10.354,16.274,27.759h-16.274c-6.353-12.705-8.702-24.105-16.708-24.105
	h-4.265v24.105H70.86V0.307H97.403L97.403,0.307z M85.654,24.674h7.833c4.089,0,8.093-1.74,8.093-6.788
	c0-4.438-2.873-6.701-8.441-6.701h-7.485V24.674L85.654,24.674z"/>
<polygon fill-rule="evenodd" clip-rule="evenodd" fill="#0098C3" points="177.983,0.307 190.862,0.307 190.862,59.658 
	176.067,59.658 176.067,22.587 160.054,41.209 157.792,41.209 141.78,22.587 141.78,59.658 126.985,59.658 126.985,0.307 
	139.865,0.307 158.924,22.324 177.983,0.307 "/>
<path fill-rule="evenodd" clip-rule="evenodd" fill="#0098C3" d="M197.23,5.087c-1.273,0-2.305-1.033-2.305-2.31
	c0-1.256,1.032-2.291,2.305-2.291c1.27,0,2.28,1.035,2.28,2.291C199.51,4.054,198.5,5.087,197.23,5.087L197.23,5.087z M197.23,5.576
	c1.54,0,2.77-1.248,2.77-2.798C200,1.25,198.77,0,197.23,0c-1.548,0-2.792,1.25-2.792,2.777
	C194.438,4.328,195.682,5.576,197.23,5.576L197.23,5.576z M197.074,2.961c0.177,0.015,0.347,0,0.473,0.132
	c0.147,0.155,0.147,0.415,0.186,0.696c0.021,0.193,0.072,0.401,0.109,0.584h0.647c-0.112-0.296-0.148-0.637-0.193-0.947
	c-0.051-0.355-0.104-0.554-0.549-0.643V2.77c0.436-0.088,0.665-0.381,0.665-0.76c0-0.738-0.621-0.899-1.225-0.899h-1.058v3.264
	h0.505V2.961H197.074L197.074,2.961z M196.633,2.456V1.617h0.62c0.41,0,0.521,0.125,0.521,0.37c0,0.252-0.11,0.454-0.596,0.468
	H196.633L196.633,2.456z"/>
</svg>
