<?xml version="1.0" encoding="utf-8"?>
<!-- Generator: Adobe Illustrator 15.0.0, SVG Export Plug-In  -->
<!DOCTYPE svg PUBLIC "-//W3C//DTD SVG 1.1//EN" "http://www.w3.org/Graphics/SVG/1.1/DTD/svg11.dtd" [
	<!ENTITY ns_flows "http://ns.adobe.com/Flows/1.0/">
]>
<svg version="1.1"
	 xmlns="http://www.w3.org/2000/svg" xmlns:xlink="http://www.w3.org/1999/xlink" xmlns:a="http://ns.adobe.com/AdobeSVGViewerExtensions/3.0/"
	 x="0px" y="0px" width="320px" height="274px" viewBox="-2.453 0 320 274"
	 overflow="visible" enable-background="new -2.453 0 320 274" xml:space="preserve">
<defs>
</defs>
<g>
	<polygon fill="#141414" points="81.892,268.685 5.773,136.843 81.892,5 234.13,5 310.248,136.843 234.13,268.685 	"/>
	<g>
		<path d="M231.243,10l73.231,126.843l-73.231,126.842H84.778L11.547,136.843L84.778,10H231.243 M237.017,0h-5.773H84.778h-5.773
			l-2.887,5L2.887,131.843l-2.887,5l2.887,5l73.231,126.842l2.887,5h5.773h146.465h5.773l2.887-5l73.231-126.842l2.887-5l-2.887-5
			L239.903,5L237.017,0L237.017,0z"/>
	</g>
</g>
<circle fill="none" cx="158.011" cy="140.842" r="92.852"/>
<text transform="matrix(0.8002 -0.5998 0.5991 0.8007 211.3867 217.7676)" fill="#670F38" font-family="'HelveticaNeue-Bold'" font-size="30">|</text>
<text transform="matrix(0.7458 -0.6662 0.6659 0.746 215.5029 207.7627)" fill="#670F38" font-family="'HelveticaNeue-Bold'" font-size="15">|</text>
<text transform="matrix(0.7184 -0.6957 0.6956 0.7184 217.8672 205.6641)" fill="#670F38" font-family="'HelveticaNeue-Bold'" font-size="15"> </text>
<text transform="matrix(0.6898 -0.724 0.7241 0.6896 220.7305 202.8867)" fill="#670F38" font-family="'HelveticaNeue-Bold'" font-size="15">|</text>
<text transform="matrix(0.6601 -0.7512 0.7515 0.6597 222.9209 200.6055)" fill="#670F38" font-family="'HelveticaNeue-Bold'" font-size="15"> </text>
<text transform="matrix(0.6293 -0.7772 0.7776 0.6287 225.5488 197.6055)" fill="#670F38" font-family="'HelveticaNeue-Bold'" font-size="15">|</text>
<text transform="matrix(0.5974 -0.8019 0.8025 0.5967 227.5508 195.1514)" fill="#670F38" font-family="'HelveticaNeue-Bold'" font-size="15"> </text>
<text transform="matrix(0.5648 -0.8252 0.8258 0.5639 229.915 191.9727)" fill="#670F38" font-family="'HelveticaNeue-Bold'" font-size="15">|</text>
<text transform="matrix(0.5308 -0.8475 0.8481 0.5299 231.7168 189.3584)" fill="#670F38" font-family="'HelveticaNeue-Bold'" font-size="15"> </text>
<text transform="matrix(0.4962 -0.8682 0.8687 0.4953 233.8213 185.9902)" fill="#670F38" font-family="'HelveticaNeue-Bold'" font-size="15">|</text>
<text transform="matrix(0.4606 -0.8876 0.888 0.4598 235.3965 183.2578)" fill="#670F38" font-family="'HelveticaNeue-Bold'" font-size="15"> </text>
<text transform="matrix(0.4241 -0.9056 0.9059 0.4234 237.2295 179.7168)" fill="#670F38" font-family="'HelveticaNeue-Bold'" font-size="15">|</text>
<text transform="matrix(0.3867 -0.9222 0.9224 0.3863 238.5859 176.8496)" fill="#670F38" font-family="'HelveticaNeue-Bold'" font-size="15"> </text>
<text transform="matrix(0.3489 -0.9372 0.9372 0.3487 240.1182 173.1816)" fill="#670F38" font-family="'HelveticaNeue-Bold'" font-size="15">|</text>
<text transform="matrix(0.3106 -0.9505 0.9505 0.3108 241.2227 170.252)" fill="#670F38" font-family="'HelveticaNeue-Bold'" font-size="15"> </text>
<text transform="matrix(0.2713 -0.9625 0.9623 0.2719 242.4619 166.4434)" fill="#670F38" font-family="'HelveticaNeue-Bold'" font-size="15">|</text>
<text transform="matrix(0.2322 -0.9727 0.9725 0.2331 243.3232 163.4346)" fill="#670F38" font-family="'HelveticaNeue-Bold'" font-size="15"> </text>
<text transform="matrix(0.1924 -0.9813 0.9811 0.1936 244.2422 159.5674)" fill="#670F38" font-family="'HelveticaNeue-Bold'" font-size="15">|</text>
<text transform="matrix(0.1522 -0.9883 0.9881 0.1536 244.8652 156.4551)" fill="#CE1D6F" font-family="'HelveticaNeue-Bold'" font-size="15"> </text>
<text transform="matrix(0.0944 -0.9955 0.9954 0.0957 250.832 153.1289)" fill="#CE1D6F" font-family="'HelveticaNeue-Bold'" font-size="30">|</text>
<text transform="matrix(0.0162 -0.9999 0.9999 0.0157 246.1777 143.8994)" fill="#CE1D6F" font-family="'HelveticaNeue-Bold'" font-size="15">|</text>
<text transform="matrix(-0.0241 -0.9997 0.9997 -0.0247 246.2402 140.7529)" fill="#CE1D6F" font-family="'HelveticaNeue-Bold'" font-size="15"> </text>
<text transform="matrix(-0.064 -0.9979 0.9979 -0.0651 246.1396 136.7666)" fill="#CE1D6F" font-family="'HelveticaNeue-Bold'" font-size="15">|</text>
<text transform="matrix(-0.1042 -0.9946 0.9944 -0.1055 245.9473 133.6074)" fill="#CE1D6F" font-family="'HelveticaNeue-Bold'" font-size="15"> </text>
<text transform="matrix(-0.1444 -0.9895 0.9893 -0.1458 245.5273 129.6338)" fill="#CE1D6F" font-family="'HelveticaNeue-Bold'" font-size="15">|</text>
<text transform="matrix(-0.1843 -0.9829 0.9826 -0.1856 245.084 126.5205)" fill="#CE1D6F" font-family="'HelveticaNeue-Bold'" font-size="15"> </text>
<text transform="matrix(-0.2242 -0.9745 0.9743 -0.2251 244.3467 122.6104)" fill="#CE1D6F" font-family="'HelveticaNeue-Bold'" font-size="15">|</text>
<text transform="matrix(-0.2638 -0.9646 0.9644 -0.2645 243.6484 119.52)" fill="#CE1D6F" font-family="'HelveticaNeue-Bold'" font-size="15"> </text>
<text transform="matrix(-0.3029 -0.953 0.9529 -0.3032 242.5947 115.688)" fill="#CE1D6F" font-family="'HelveticaNeue-Bold'" font-size="15">|</text>
<text transform="matrix(-0.3417 -0.9398 0.9399 -0.3416 241.6465 112.666)" fill="#CE1D6F" font-family="'HelveticaNeue-Bold'" font-size="15"> </text>
<text transform="matrix(-0.3796 -0.9251 0.9253 -0.3793 240.2842 108.9287)" fill="#CE1D6F" font-family="'HelveticaNeue-Bold'" font-size="15">|</text>
<text transform="matrix(-0.4168 -0.909 0.9093 -0.4162 239.1035 106.0186)" fill="#CE1D6F" font-family="'HelveticaNeue-Bold'" font-size="15"> </text>
<text transform="matrix(-0.4535 -0.8912 0.8917 -0.4527 237.4355 102.395)" fill="#CE1D6F" font-family="'HelveticaNeue-Bold'" font-size="15">|</text>
<text transform="matrix(-0.4893 -0.8721 0.8726 -0.4884 236.0166 99.5767)" fill="#CE1D6F" font-family="'HelveticaNeue-Bold'" font-size="15"> </text>
<text transform="matrix(-0.5241 -0.8517 0.8522 -0.5232 234.0684 96.1133)" fill="#CE1D6F" font-family="'HelveticaNeue-Bold'" font-size="15">|</text>
<text transform="matrix(-0.5581 -0.8298 0.8304 -0.5572 232.4229 93.4175)" fill="#CE1D6F" font-family="'HelveticaNeue-Bold'" font-size="15"> </text>
<text transform="matrix(-0.5911 -0.8066 0.8072 -0.5903 230.1992 90.1177)" fill="#CE1D6F" font-family="'HelveticaNeue-Bold'" font-size="15">|</text>
<text transform="matrix(-0.6232 -0.7821 0.7826 -0.6226 228.3379 87.5557)" fill="#FFFFFF" font-family="'HelveticaNeue-Bold'" font-size="15"> </text>
<text transform="matrix(-0.6676 -0.7445 0.7448 -0.6673 229.9238 80.8979)" fill="#FFFFFF" font-family="'HelveticaNeue-Bold'" font-size="30">|</text>
<text transform="matrix(-0.7097 -0.7045 0.7044 -0.7098 221.625 79.708)" fill="#FFFFFF" font-family="'HelveticaNeue-Bold'" font-size="15"> </text>
<text transform="matrix(-0.7375 -0.6753 0.6751 -0.7377 218.792 76.9014)" fill="#FFFFFF" font-family="'HelveticaNeue-Bold'" font-size="15">|</text>
<text transform="matrix(-0.7641 -0.6451 0.6447 -0.7645 216.4668 74.7563)" fill="#FFFFFF" font-family="'HelveticaNeue-Bold'" font-size="15"> </text>
<text transform="matrix(-0.7893 -0.6141 0.6134 -0.7897 213.4414 72.207)" fill="#FFFFFF" font-family="'HelveticaNeue-Bold'" font-size="15">|</text>
<text transform="matrix(-0.8134 -0.5817 0.5809 -0.814 210.9473 70.2524)" fill="#FFFFFF" font-family="'HelveticaNeue-Bold'" font-size="15"> </text>
<text transform="matrix(-0.8363 -0.5482 0.5474 -0.8369 207.6934 67.9312)" fill="#FFFFFF" font-family="'HelveticaNeue-Bold'" font-size="15">|</text>
<text transform="matrix(-0.8577 -0.5141 0.5132 -0.8583 205.0713 66.1978)" fill="#FFFFFF" font-family="'HelveticaNeue-Bold'" font-size="15"> </text>
<text transform="matrix(-0.8778 -0.479 0.4781 -0.8783 201.6582 64.1582)" fill="#FFFFFF" font-family="'HelveticaNeue-Bold'" font-size="15">|</text>
<text transform="matrix(-0.8965 -0.443 0.4422 -0.8969 198.8926 62.6353)" fill="#FFFFFF" font-family="'HelveticaNeue-Bold'" font-size="15"> </text>
<text transform="matrix(-0.9139 -0.406 0.4055 -0.9141 195.3125 60.8711)" fill="#FFFFFF" font-family="'HelveticaNeue-Bold'" font-size="15">|</text>
<text transform="matrix(-0.9296 -0.3686 0.3683 -0.9297 192.4434 59.583)" fill="#FFFFFF" font-family="'HelveticaNeue-Bold'" font-size="15"> </text>
<text transform="matrix(-0.9438 -0.3304 0.3304 -0.9438 188.7402 58.1196)" fill="#FFFFFF" font-family="'HelveticaNeue-Bold'" font-size="15">|</text>
<text transform="matrix(-0.9566 -0.2915 0.2918 -0.9565 185.752 57.0601)" fill="#FFFFFF" font-family="'HelveticaNeue-Bold'" font-size="15"> </text>
<text transform="matrix(-0.9677 -0.2522 0.2529 -0.9675 181.9434 55.9048)" fill="#FFFFFF" font-family="'HelveticaNeue-Bold'" font-size="15">|</text>
<text transform="matrix(-0.9771 -0.2127 0.2138 -0.9769 178.9072 55.1006)" fill="#FFFFFF" font-family="'HelveticaNeue-Bold'" font-size="15"> </text>
<text transform="matrix(-0.985 -0.1728 0.174 -0.9847 175.0107 54.2563)" fill="#FFFFFF" font-family="'HelveticaNeue-Bold'" font-size="15">|</text>
<text transform="matrix(-0.9911 -0.1328 0.1341 -0.991 171.9092 53.6997)" fill="#FFFFFF" font-family="'HelveticaNeue-Bold'" font-size="15"> </text>
<text transform="matrix(-0.9957 -0.0928 0.0941 -0.9956 167.9746 53.1768)" fill="#FFFFFF" font-family="'HelveticaNeue-Bold'" font-size="15">|</text>
<text transform="matrix(-0.9986 -0.0526 0.0536 -0.9986 164.8154 52.8706)" fill="#FFFFFF" font-family="'HelveticaNeue-Bold'" font-size="15"> </text>
<text transform="matrix(-0.9999 0.0162 -0.0032 -1.0001 161.0508 47.2266)" fill="#FFFFFF" font-family="'HelveticaNeue-Bold'" font-size="30">|</text>
<text transform="matrix(-0.9965 0.0837 -0.085 -0.9964 152.1758 52.8105)" fill="#FFFFFF" font-family="'HelveticaNeue-Bold'" font-size="15">|</text>
<text transform="matrix(-0.9923 0.1238 -0.1252 -0.9921 149.0342 53.0625)" fill="#FFFFFF" font-family="'HelveticaNeue-Bold'" font-size="15"> </text>
<text transform="matrix(-0.9865 0.1639 -0.1652 -0.9863 145.084 53.5601)" fill="#FFFFFF" font-family="'HelveticaNeue-Bold'" font-size="15">|</text>
<text transform="matrix(-0.979 0.2039 -0.2051 -0.9787 141.957 54.0679)" fill="#FFFFFF" font-family="'HelveticaNeue-Bold'" font-size="15"> </text>
<text transform="matrix(-0.9699 0.2435 -0.2443 -0.9697 138.0723 54.8818)" fill="#FFFFFF" font-family="'HelveticaNeue-Bold'" font-size="15">|</text>
<text transform="matrix(-0.9591 0.2829 -0.2834 -0.959 135.0068 55.6387)" fill="#FFFFFF" font-family="'HelveticaNeue-Bold'" font-size="15"> </text>
<text transform="matrix(-0.9469 0.3216 -0.3218 -0.9468 131.2031 56.7651)" fill="#FFFFFF" font-family="'HelveticaNeue-Bold'" font-size="15">|</text>
<text transform="matrix(-0.9329 0.36 -0.3598 -0.933 128.207 57.7705)" fill="#FFFFFF" font-family="'HelveticaNeue-Bold'" font-size="15"> </text>
<text transform="matrix(-0.9175 0.3976 -0.3971 -0.9178 124.5029 59.2041)" fill="#FFFFFF" font-family="'HelveticaNeue-Bold'" font-size="15">|</text>
<text transform="matrix(-0.9005 0.4348 -0.434 -0.9009 121.5908 60.4531)" fill="#FFFFFF" font-family="'HelveticaNeue-Bold'" font-size="15"> </text>
<text transform="matrix(-0.8821 0.471 -0.4701 -0.8826 118.0049 62.1895)" fill="#FFFFFF" font-family="'HelveticaNeue-Bold'" font-size="15">|</text>
<text transform="matrix(-0.8623 0.5063 -0.5054 -0.8629 115.2188 63.6631)" fill="#FFFFFF" font-family="'HelveticaNeue-Bold'" font-size="15"> </text>
<text transform="matrix(-0.8412 0.5407 -0.5398 -0.8418 111.7969 65.6768)" fill="#FFFFFF" font-family="'HelveticaNeue-Bold'" font-size="15">|</text>
<text transform="matrix(-0.8186 0.5743 -0.5735 -0.8192 109.1211 67.3818)" fill="#FFFFFF" font-family="'HelveticaNeue-Bold'" font-size="15"> </text>
<text transform="matrix(-0.7947 0.607 -0.6063 -0.7952 105.8545 69.6797)" fill="#FFFFFF" font-family="'HelveticaNeue-Bold'" font-size="15">|</text>
<text transform="matrix(-0.7698 0.6383 -0.6378 -0.7702 103.3574 71.5708)" fill="#FFFFFF" font-family="'HelveticaNeue-Bold'" font-size="15"> </text>
<text transform="matrix(-0.7435 0.6687 -0.6685 -0.7437 100.2881 74.1201)" fill="#FFFFFF" font-family="'HelveticaNeue-Bold'" font-size="15">|</text>
<text transform="matrix(-0.716 0.6981 -0.698 -0.7161 97.9297 76.2256)" fill="#FFFFFF" font-family="'HelveticaNeue-Bold'" font-size="15"> </text>
<text transform="matrix(-0.6742 0.7385 -0.7387 -0.674 91.1455 75.312)" fill="#FFFFFF" font-family="'HelveticaNeue-Bold'" font-size="30">|</text>
<text transform="matrix(-0.6301 0.7765 -0.7769 -0.6296 90.791 83.6865)" fill="#FFFFFF" font-family="'HelveticaNeue-Bold'" font-size="15"> </text>
<text transform="matrix(-0.5983 0.8013 -0.8018 -0.5976 88.2793 86.7886)" fill="#FFFFFF" font-family="'HelveticaNeue-Bold'" font-size="15">|</text>
<text transform="matrix(-0.5654 0.8248 -0.8254 -0.5645 86.373 89.3218)" fill="#FFFFFF" font-family="'HelveticaNeue-Bold'" font-size="15"> </text>
<text transform="matrix(-0.5318 0.8469 -0.8475 -0.5309 84.1348 92.5957)" fill="#FFFFFF" font-family="'HelveticaNeue-Bold'" font-size="15">|</text>
<text transform="matrix(-0.4972 0.8677 -0.8682 -0.4962 82.4512 95.2539)" fill="#FFFFFF" font-family="'HelveticaNeue-Bold'" font-size="15"> </text>
<text transform="matrix(-0.4616 0.8871 -0.8875 -0.4608 80.4775 98.7085)" fill="#FFFFFF" font-family="'HelveticaNeue-Bold'" font-size="15">|</text>
<text transform="matrix(-0.4251 0.9051 -0.9055 -0.4244 79.0078 101.5078)" fill="#FFFFFF" font-family="'HelveticaNeue-Bold'" font-size="15"> </text>
<text transform="matrix(-0.3878 0.9218 -0.9219 -0.3873 77.3135 105.1274)" fill="#FFFFFF" font-family="'HelveticaNeue-Bold'" font-size="15">|</text>
<text transform="matrix(-0.35 0.9368 -0.9368 -0.3498 76.0811 108.0264)" fill="#FFFFFF" font-family="'HelveticaNeue-Bold'" font-size="15"> </text>
<text transform="matrix(-0.3114 0.9503 -0.9502 -0.3116 74.6875 111.7642)" fill="#FFFFFF" font-family="'HelveticaNeue-Bold'" font-size="15">|</text>
<text transform="matrix(-0.2725 0.9622 -0.962 -0.273 73.6982 114.75)" fill="#FFFFFF" font-family="'HelveticaNeue-Bold'" font-size="15"> </text>
<text transform="matrix(-0.2329 0.9725 -0.9723 -0.2338 72.6152 118.5894)" fill="#FFFFFF" font-family="'HelveticaNeue-Bold'" font-size="15">|</text>
<text transform="matrix(-0.1932 0.9812 -0.9809 -0.1944 71.8691 121.6484)" fill="#FFFFFF" font-family="'HelveticaNeue-Bold'" font-size="15"> </text>
<text transform="matrix(-0.1534 0.9882 -0.988 -0.1548 71.1074 125.5386)" fill="#FFFFFF" font-family="'HelveticaNeue-Bold'" font-size="15">|</text>
<text transform="matrix(-0.1132 0.9936 -0.9934 -0.1146 70.6104 128.6641)" fill="#FFFFFF" font-family="'HelveticaNeue-Bold'" font-size="15"> </text>
<text transform="matrix(-0.0731 0.9973 -0.9972 -0.0743 70.1631 132.623)" fill="#FFFFFF" font-family="'HelveticaNeue-Bold'" font-size="15">|</text>
<text transform="matrix(-0.0332 0.9994 -0.9994 -0.0339 69.9209 135.7676)" fill="#FFFFFF" font-family="'HelveticaNeue-Bold'" font-size="15"> </text>
<text transform="matrix(0.0162 0.9999 -1 0.0056 69.7744 139.668)" fill="#FFFFFF" font-family="'HelveticaNeue-Bold'" font-size="15">|</text>
<text transform="matrix(0.0463 0.9989 -0.9989 0.0472 69.8018 142.9219)" fill="#FFFFFF" font-family="'HelveticaNeue-Bold'" font-size="15"> </text>
<text transform="matrix(0.1042 0.9946 -0.9944 0.1056 64.6133 147.3945)" fill="#FFFFFF" font-family="'HelveticaNeue-Bold'" font-size="30">|</text>
<text transform="matrix(0.1962 0.9806 -0.9803 0.1974 71.1924 156.623)" fill="#FFFFFF" font-family="'HelveticaNeue-Bold'" font-size="15">|</text>
<text transform="matrix(0.2359 0.9718 -0.9716 0.2368 71.7979 159.7129)" fill="#FFFFFF" font-family="'HelveticaNeue-Bold'" font-size="15"> </text>
<text transform="matrix(0.2754 0.9613 -0.9612 0.276 72.7432 163.5859)" fill="#FFFFFF" font-family="'HelveticaNeue-Bold'" font-size="15">|</text>
<text transform="matrix(0.3143 0.9493 -0.9493 0.3145 73.5967 166.6113)" fill="#FFFFFF" font-family="'HelveticaNeue-Bold'" font-size="15"> </text>
<text transform="matrix(0.3528 0.9357 -0.9357 0.3527 74.8555 170.3965)" fill="#FFFFFF" font-family="'HelveticaNeue-Bold'" font-size="15">|</text>
<text transform="matrix(0.3906 0.9206 -0.9208 0.3901 75.9541 173.3477)" fill="#FFFFFF" font-family="'HelveticaNeue-Bold'" font-size="15"> </text>
<text transform="matrix(0.4275 0.904 -0.9043 0.4269 77.5059 176.9922)" fill="#FFFFFF" font-family="'HelveticaNeue-Bold'" font-size="15">|</text>
<text transform="matrix(0.464 0.8859 -0.8863 0.4631 78.8457 179.8564)" fill="#FFFFFF" font-family="'HelveticaNeue-Bold'" font-size="15"> </text>
<text transform="matrix(0.4995 0.8663 -0.8669 0.4985 80.6963 183.3789)" fill="#FFFFFF" font-family="'HelveticaNeue-Bold'" font-size="15">|</text>
<text transform="matrix(0.5343 0.8453 -0.8459 0.5334 82.2734 186.1387)" fill="#FFFFFF" font-family="'HelveticaNeue-Bold'" font-size="15"> </text>
<text transform="matrix(0.5679 0.8231 -0.8237 0.567 84.3965 189.4883)" fill="#FFFFFF" font-family="'HelveticaNeue-Bold'" font-size="15">|</text>
<text transform="matrix(0.6007 0.7995 -0.8 0.6 86.1855 192.1045)" fill="#FFFFFF" font-family="'HelveticaNeue-Bold'" font-size="15"> </text>
<text transform="matrix(0.6325 0.7746 -0.775 0.632 88.5879 195.293)" fill="#FFFFFF" font-family="'HelveticaNeue-Bold'" font-size="15">|</text>
<text transform="matrix(0.6629 0.7487 -0.749 0.6626 90.5576 197.7266)" fill="#FFFFFF" font-family="'HelveticaNeue-Bold'" font-size="15"> </text>
<text transform="matrix(0.6925 0.7214 -0.7215 0.6924 93.2041 200.709)" fill="#FFFFFF" font-family="'HelveticaNeue-Bold'" font-size="15">|</text>
<text transform="matrix(0.7209 0.693 -0.6929 0.721 95.3857 202.998)" fill="#FFFFFF" font-family="'HelveticaNeue-Bold'" font-size="15"> </text>
<text transform="matrix(0.7482 0.6634 -0.6631 0.7485 98.2637 205.7588)" fill="#FFFFFF" font-family="'HelveticaNeue-Bold'" font-size="15">|</text>
<text transform="matrix(0.7744 0.6328 -0.6322 0.7748 100.624 207.8672)" fill="#FFFFFF" font-family="'HelveticaNeue-Bold'" font-size="15"> </text>
<text transform="matrix(0.8099 0.5865 -0.5858 0.8105 100.4893 214.7168)" fill="#FFFFFF" font-family="'HelveticaNeue-Bold'" font-size="30">|</text>
<circle fill="#134D61" cx="158.011" cy="145.843" r="16.37"/>
<text transform="matrix(1 0 0 1 132.6006 228.0938)" display="none"><tspan x="0" y="0" display="inline" fill="#FFFFFF" font-family="'HelveticaNeue-Bold'" font-size="24.5494">450 </tspan><tspan x="47.773" y="-10" display="inline" fill="#FFFFFF" font-family="'HelveticaNeue-Bold'" font-size="15">W</tspan></text>
</svg>
