<?xml version="1.0" encoding="utf-8"?>
<!-- Generator: Adobe Illustrator 15.0.0, SVG Export Plug-In  -->
<!DOCTYPE svg PUBLIC "-//W3C//DTD SVG 1.1//EN" "http://www.w3.org/Graphics/SVG/1.1/DTD/svg11.dtd" [
	<!ENTITY ns_flows "http://ns.adobe.com/Flows/1.0/">
]>
<svg version="1.1"
	 xmlns="http://www.w3.org/2000/svg" xmlns:xlink="http://www.w3.org/1999/xlink" xmlns:a="http://ns.adobe.com/AdobeSVGViewerExtensions/3.0/"
	 x="0px" y="0px" width="376px" height="224px" viewBox="115.052 112 376 224"
	 overflow="visible" enable-background="new 115.052 112 376 224" xml:space="preserve">
<defs>
</defs>
<rect x="12" y="82" fill="#141414" width="594" height="301"/>
<polygon fill="#141414" points="60.417,306 5.776,211.5 60.417,117 169.686,117 224.327,211.5 169.686,306 "/>
<path fill="#092630" d="M166.801,122l51.751,89.5L166.801,301H63.302l-51.75-89.5l51.75-89.5H166.801 M172.57,112h-5.77H63.302
	h-5.77l-2.888,4.995l-51.75,89.5L0,211.5l2.895,5.006l51.75,89.5L57.532,311h5.77h103.499h5.77l2.888-4.994l51.751-89.5l2.895-5.006
	l-2.895-5.006l-51.751-89.5L172.57,112L172.57,112z"/>
<polygon fill="#141414" points="436.417,306 381.776,211.5 436.417,117 545.686,117 600.327,211.5 545.686,306 "/>
<path fill="#092630" d="M542.801,122l51.751,89.5L542.801,301H439.302l-51.75-89.5l51.75-89.5H542.801 M548.57,112h-5.77H439.302
	h-5.77l-2.888,4.995l-51.75,89.5L376,211.5l2.895,5.006l51.75,89.5l2.888,4.994h5.77h103.499h5.77l2.888-4.994l51.751-89.5
	l2.895-5.006l-2.895-5.006l-51.751-89.5L548.57,112L548.57,112z"/>
<polygon fill="#141414" points="248.521,418 193.881,323.5 248.521,229 357.789,229 412.432,323.5 357.789,418 "/>
<path fill="#092630" d="M354.904,234l51.752,89.5L354.904,413H251.406l-51.75-89.5l51.75-89.5H354.904 M360.674,224h-5.77H251.406
	h-5.77l-2.889,4.994l-51.75,89.5l-2.895,5.006l2.895,5.006l51.75,89.5l2.889,4.994h5.77h103.498h5.77l2.889-4.994l51.75-89.5
	l2.895-5.006l-2.895-5.006l-51.75-89.5L360.674,224L360.674,224z"/>
<polygon fill="#141414" points="248.521,194 193.881,99.5 248.521,5 357.789,5 412.432,99.5 357.789,194 "/>
<path fill="#092630" d="M354.904,10l51.752,89.5L354.904,189H251.406l-51.75-89.5l51.75-89.5H354.904 M360.674,0h-5.77H251.406
	h-5.77l-2.889,4.994l-51.75,89.5l-2.895,5.006l2.895,5.006l51.75,89.5l2.889,4.994h5.77h103.498h5.77l2.889-4.994l51.75-89.5
	l2.895-5.006l-2.895-5.006l-51.75-89.5L360.674,0L360.674,0z"/>
<g display="none">
	<path display="inline" fill="#FF1F60" d="M490,113v222H116V113H490 M491,112H115v224h376V112L491,112z"/>
</g>
</svg>
