<?xml version="1.0" encoding="utf-8"?>
<!-- Generator: Adobe Illustrator 15.0.0, SVG Export Plug-In  -->
<!DOCTYPE svg PUBLIC "-//W3C//DTD SVG 1.1//EN" "http://www.w3.org/Graphics/SVG/1.1/DTD/svg11.dtd" [
	<!ENTITY ns_flows "http://ns.adobe.com/Flows/1.0/">
]>
<svg version="1.1"
	 xmlns="http://www.w3.org/2000/svg" xmlns:xlink="http://www.w3.org/1999/xlink" xmlns:a="http://ns.adobe.com/AdobeSVGViewerExtensions/3.0/"
	 x="0px" y="0px" width="232px" height="200px" viewBox="-0.449 0 232 200"
	 overflow="visible" enable-background="new -0.449 0 232 200" xml:space="preserve">
<defs>
</defs>
<g display="none">
	<polygon display="inline" fill="#141414" points="60.667,194 6.026,99.5 60.667,5 169.935,5 224.577,99.5 169.935,194 	"/>
	<path display="inline" fill="#092630" d="M167.05,10l51.751,89.5L167.05,189H63.551l-51.75-89.5L63.551,10H167.05 M172.82,0h-5.77
		H63.551h-5.77l-2.888,4.995L3.144,94.494L0.25,99.5l2.894,5.006l51.75,89.5L57.782,199h5.77H167.05h5.77l2.888-4.994l51.751-89.5
		l2.895-5.006l-2.895-5.006l-51.751-89.5L172.82,0L172.82,0z"/>
</g>
<g display="none">
	<polygon display="inline" fill="#092630" points="60.417,194 5.775,99.5 60.417,5 169.685,5 224.327,99.5 169.685,194 	"/>
	<path display="inline" fill="#134D61" d="M166.8,10l51.751,89.5L166.8,189H63.301l-51.75-89.5L63.301,10H166.8 M172.57,0h-5.77
		H63.301h-5.769l-2.888,4.995L2.894,94.494L0,99.5l2.894,5.006l51.75,89.5L57.532,199h5.769H166.8h5.77l2.888-4.994l51.751-89.5
		l2.895-5.006l-2.895-5.006l-51.751-89.5L172.57,0L172.57,0z"/>
</g>
<g display="none">
	<polygon display="inline" fill="#2599C1" points="60.417,194 5.775,99.5 60.417,5 169.685,5 224.327,99.5 169.685,194 	"/>
	<path display="inline" fill="#134D61" d="M166.8,10l51.751,89.5L166.8,189H63.301l-51.75-89.5L63.301,10H166.8 M172.57,0h-5.77
		H63.301h-5.769l-2.888,4.995L2.894,94.494L0,99.5l2.894,5.006l51.75,89.5L57.532,199h5.769H166.8h5.77l2.888-4.994l51.751-89.5
		l2.895-5.006l-2.895-5.006l-51.751-89.5L172.57,0L172.57,0z"/>
</g>
<g display="none">
	<polygon display="inline" fill="#CE1D6F" points="60.417,194 5.775,99.5 60.417,5 169.685,5 224.327,99.5 169.685,194 	"/>
	<path display="inline" fill="#134D61" d="M166.8,10l51.751,89.5L166.8,189H63.301l-51.75-89.5L63.301,10H166.8 M172.57,0h-5.77
		H63.301h-5.769l-2.888,4.995L2.894,94.494L0,99.5l2.894,5.006l51.75,89.5L57.532,199h5.769H166.8h5.77l2.888-4.994l51.751-89.5
		l2.895-5.006l-2.895-5.006l-51.751-89.5L172.57,0L172.57,0z"/>
</g>
<g>
	<polygon fill="#FFFFFF" points="60.51,194.598 5.778,99.799 60.51,5 169.974,5 224.707,99.799 169.974,194.598 	"/>
	<path fill="#134D61" d="M167.087,10l51.846,89.799l-51.846,89.799H63.397L11.551,99.799L63.397,10H167.087 M172.861,0h-5.773
		H63.397h-5.773l-2.887,5L2.891,94.799l-2.887,5l2.887,5l51.846,89.799l2.887,5h5.773h103.69h5.773l2.887-5l51.846-89.799l2.887-5
		l-2.887-5L175.748,5L172.861,0L172.861,0z"/>
</g>
<text transform="matrix(1 0 0 1 74.812 177.3271)" font-family="'HelveticaNeue-CondensedBold'" font-size="19.7754">MEETINGS</text>
<path d="M171.85,98.635c0.472,1.629-0.461,3.332-2.09,3.805l-17.985,5.23c-1.626,0.474-3.33-0.462-3.803-2.09l-7.305-25.109
	c-0.473-1.628,0.461-3.33,2.09-3.805l17.983-5.23c1.628-0.473,3.332,0.462,3.804,2.09L171.85,98.635z"/>
<path d="M139.245,81.011c0,0-2.367,0.552-4.681,0.606c-2.312,0.055-6.113-0.369-7.008-0.786c-0.896-0.418-1.471-0.686-2.179-1.017
	c-3.519-1.641-6.446-3.006-6.446-3.006c-0.098-0.047-0.199-0.069-0.301-0.107c-0.023-0.008-0.047-0.012-0.068-0.021
	c-0.363-0.143-0.75-0.24-1.158-0.277l-8.557-0.762c-1.016-0.092-1.98,0.186-2.761,0.725c-0.017,0.01-0.042,0.029-0.077,0.057
	c-0.189,0.138-0.369,0.287-0.534,0.455c-2.132,1.854-8.935,8.021-8.935,8.021c0.182,0.182,0.453,0.402,0.803,0.629
	c0.227,0.145,0.487,0.289,0.778,0.426c0.255,0.119,0.53,0.23,0.83,0.328c0.128,0.041,0.258,0.084,0.394,0.119
	c1.576,0.414,3.924,0.457,6.57-1.363c0.248-0.17,1.682-1.166,2.118-1.485c0.696-0.509,1.95-0.985,3.827-0.846
	c1.879,0.142,4.852,0.981,4.852,0.981l28.369,17.404L139.245,81.011z"/>
<path d="M108.126,110.75c0.479-1.614,2.174-2.534,3.785-2.055l0,0c1.613,0.477,2.533,2.174,2.054,3.788l-1.985,6.578
	c-0.478,1.61-2.174,2.532-3.785,2.054l0,0c-1.613-0.479-2.533-2.173-2.054-3.787L108.126,110.75z"/>
<path d="M101.445,106.342c0.479-1.614,2.172-2.533,3.785-2.054l0,0c1.614,0.478,2.533,2.173,2.055,3.785l-2.381,7.735
	c-0.479,1.613-2.172,2.533-3.785,2.055l0,0c-1.612-0.48-2.532-2.174-2.055-3.787L101.445,106.342z"/>
<path d="M93.691,105.58c0.479-1.613,2.174-2.533,3.785-2.055l0,0c1.613,0.478,2.533,2.174,2.055,3.787l-1.558,5.058
	c-0.479,1.612-2.173,2.532-3.786,2.055l0,0c-1.613-0.478-2.532-2.175-2.055-3.786L93.691,105.58z"/>
<path d="M86.298,103.633c0.479-1.614,2.174-2.533,3.787-2.054l0,0c1.613,0.478,2.533,2.173,2.054,3.785l-0.485,1.545
	c-0.479,1.612-2.174,2.532-3.786,2.054l0,0c-1.612-0.477-2.532-2.172-2.054-3.785L86.298,103.633z"/>
<path d="M79.298,106.432c-0.596,1.588-2.364,2.392-3.951,1.801l-17.54-6.569c-1.588-0.596-2.393-2.364-1.797-3.952l9.171-24.49
	c0.595-1.588,2.363-2.391,3.951-1.798l17.539,6.569c1.588,0.594,2.393,2.363,1.797,3.951L79.298,106.432z"/>
<path d="M122.693,116.102l-3.727-2.289c-0.004-0.002-0.006-0.002-0.011-0.004l-3.337-2.048c-0.012,0.388-0.07,0.774-0.181,1.155
	l-1.497,4.959l5.564,3.416c1.432,0.881,3.311,0.432,4.189-1.002S124.126,116.982,122.693,116.102z"/>
<path d="M143.291,101.771l-16.544-10.154c-0.064-0.04-0.13-0.074-0.198-0.107l-10.459-6.432c-0.818-0.215-2.994-0.738-4.344-0.84
	c-0.097-0.008-0.191-0.013-0.282-0.016c-1.499-0.057-2.267,0.379-2.525,0.568c-0.459,0.336-1.929,1.356-2.155,1.513
	c-1.907,1.311-3.908,1.937-5.946,1.86c-0.634-0.024-1.265-0.117-1.88-0.279c-0.129-0.033-0.255-0.072-0.381-0.111l-0.083-0.027
	c-0.358-0.115-0.698-0.249-1.025-0.403c-0.333-0.155-0.653-0.331-0.954-0.522c-0.418-0.271-0.784-0.56-1.062-0.84l-1.133-1.14
	l1.189-1.079c0.166-0.15,2.549-2.312,4.9-4.428c-0.998,0.072-1.953,0.178-2.717,0.329c-2.955,0.583-7.712,2.804-7.712,2.804
	l-7.335,19.641c0,0,1.653,2.773,1.693,2.633l0.494-1.568c0.588-1.982,2.464-3.33,4.553-3.25c0.383,0.013,0.766,0.075,1.134,0.186
	c1.174,0.348,2.142,1.132,2.725,2.205c0.126,0.234,0.228,0.475,0.311,0.721c0.86-0.77,2.005-1.211,3.224-1.166
	c0.383,0.014,0.765,0.076,1.135,0.186c1.172,0.349,2.14,1.133,2.725,2.207c0.029,0.059,0.055,0.117,0.083,0.174
	c0.88-1.158,2.288-1.861,3.813-1.806c0.383,0.014,0.764,0.077,1.134,0.187c1.173,0.348,2.14,1.132,2.724,2.205
	c0.426,0.787,0.607,1.66,0.54,2.531c0.687-0.358,1.468-0.547,2.285-0.516c0.382,0.014,0.763,0.076,1.133,0.187
	c1.173,0.347,2.14,1.13,2.724,2.206c0.072,0.129,0.133,0.261,0.189,0.393c0.111,0.014,0.217,0.046,0.319,0.107l4.182,2.566
	c0.005,0.003,0.007,0.006,0.009,0.008l7.315,4.492c1.433,0.878,3.308,0.43,4.187-1.003c0.882-1.433,0.433-3.308-1-4.189l-8.193-5.03
	h0.001l-2.778-1.706c-0.362-0.224-0.477-0.698-0.254-1.062c0.221-0.36,0.697-0.475,1.061-0.254l4.191,2.573
	c0.01,0.007,0.018,0.016,0.025,0.021l9.382,5.76c1.433,0.881,3.308,0.43,4.187-1.002c0.881-1.434,0.434-3.309-1.001-4.188
	l-10.125-6.216c-0.001,0-0.003,0-0.003-0.003l-4.442-2.727c-0.386-0.236-0.505-0.739-0.269-1.125
	c0.236-0.385,0.74-0.505,1.125-0.268l4.057,2.488l0,0l12.867,7.9c1.433,0.88,3.309,0.432,4.188-1.002
	C145.171,104.528,144.722,102.652,143.291,101.771z"/>
</svg>
