<?xml version="1.0" encoding="utf-8"?>
<!-- Generator: Adobe Illustrator 15.0.0, SVG Export Plug-In  -->
<!DOCTYPE svg PUBLIC "-//W3C//DTD SVG 1.1//EN" "http://www.w3.org/Graphics/SVG/1.1/DTD/svg11.dtd" [
	<!ENTITY ns_flows "http://ns.adobe.com/Flows/1.0/">
]>
<svg version="1.1"
	 xmlns="http://www.w3.org/2000/svg" xmlns:xlink="http://www.w3.org/1999/xlink" xmlns:a="http://ns.adobe.com/AdobeSVGViewerExtensions/3.0/"
	 x="0px" y="0px" width="232px" height="200px" viewBox="-0.449 0 232 200"
	 overflow="visible" enable-background="new -0.449 0 232 200" xml:space="preserve">
<defs>
</defs>
<g display="none">
	<polygon display="inline" fill="#141414" points="60.417,194 5.775,99.5 60.417,5 169.685,5 224.327,99.5 169.685,194 	"/>
	<path display="inline" fill="#092630" d="M166.8,10l51.751,89.5L166.8,189H63.301l-51.75-89.5L63.301,10H166.8 M172.57,0h-5.77
		H63.301h-5.769l-2.888,4.995L2.894,94.494L0,99.5l2.894,5.006l51.75,89.5L57.532,199h5.769H166.8h5.77l2.888-4.994l51.751-89.5
		l2.895-5.006l-2.895-5.006l-51.751-89.5L172.57,0L172.57,0z"/>
</g>
<g display="none">
	<polygon display="inline" fill="#092630" points="60.417,194 5.775,99.5 60.417,5 169.685,5 224.327,99.5 169.685,194 	"/>
	<path display="inline" fill="#134D61" d="M166.8,10l51.751,89.5L166.8,189H63.301l-51.75-89.5L63.301,10H166.8 M172.57,0h-5.77
		H63.301h-5.769l-2.888,4.995L2.894,94.494L0,99.5l2.894,5.006l51.75,89.5L57.532,199h5.769H166.8h5.77l2.888-4.994l51.751-89.5
		l2.895-5.006l-2.895-5.006l-51.751-89.5L172.57,0L172.57,0z"/>
</g>
<g display="none">
	<polygon display="inline" fill="#2599C1" points="60.417,194 5.775,99.5 60.417,5 169.685,5 224.327,99.5 169.685,194 	"/>
	<path display="inline" fill="#134D61" d="M166.8,10l51.751,89.5L166.8,189H63.301l-51.75-89.5L63.301,10H166.8 M172.57,0h-5.77
		H63.301h-5.769l-2.888,4.995L2.894,94.494L0,99.5l2.894,5.006l51.75,89.5L57.532,199h5.769H166.8h5.77l2.888-4.994l51.751-89.5
		l2.895-5.006l-2.895-5.006l-51.751-89.5L172.57,0L172.57,0z"/>
</g>
<g>
	<polygon fill="#CE1D6F" points="60.417,194 5.775,99.5 60.417,5 169.685,5 224.327,99.5 169.685,194 	"/>
	<path fill="#134D61" d="M166.8,10l51.751,89.5L166.8,189H63.301l-51.75-89.5L63.301,10H166.8 M172.57,0h-5.77H63.301h-5.769
		l-2.888,4.995L2.894,94.494L0,99.5l2.894,5.006l51.75,89.5L57.532,199h5.769H166.8h5.77l2.888-4.994l51.751-89.5l2.895-5.006
		l-2.895-5.006l-51.751-89.5L172.57,0L172.57,0z"/>
</g>
</svg>
