<?xml version="1.0" encoding="utf-8"?>
<!-- Generator: Adobe Illustrator 15.0.0, SVG Export Plug-In  -->
<!DOCTYPE svg PUBLIC "-//W3C//DTD SVG 1.1//EN" "http://www.w3.org/Graphics/SVG/1.1/DTD/svg11.dtd" [
	<!ENTITY ns_flows "http://ns.adobe.com/Flows/1.0/">
]>
<svg version="1.1"
	 xmlns="http://www.w3.org/2000/svg" xmlns:xlink="http://www.w3.org/1999/xlink" xmlns:a="http://ns.adobe.com/AdobeSVGViewerExtensions/3.0/"
	 x="0px" y="0px" width="232px" height="200px" viewBox="-0.449 0 232 200"
	 overflow="visible" enable-background="new -0.449 0 232 200" xml:space="preserve">
<defs>
</defs>
<g>
	<polygon fill="#141414" points="60.667,194 6.026,99.5 60.667,5 169.935,5 224.577,99.5 169.935,194 	"/>
	<path fill="#092630" d="M167.05,10l51.751,89.5L167.05,189H63.551l-51.75-89.5L63.551,10H167.05 M172.82,0h-5.77H63.551h-5.77
		l-2.888,4.995L3.144,94.494L0.25,99.5l2.894,5.006l51.75,89.5L57.782,199h5.77H167.05h5.77l2.888-4.994l51.751-89.5l2.895-5.006
		l-2.895-5.006l-51.751-89.5L172.82,0L172.82,0z"/>
</g>
<g display="none">
	<polygon display="inline" fill="#092630" points="60.417,194 5.775,99.5 60.417,5 169.685,5 224.327,99.5 169.685,194 	"/>
	<path display="inline" fill="#134D61" d="M166.8,10l51.751,89.5L166.8,189H63.301l-51.75-89.5L63.301,10H166.8 M172.57,0h-5.77
		H63.301h-5.769l-2.888,4.995L2.894,94.494L0,99.5l2.894,5.006l51.75,89.5L57.532,199h5.769H166.8h5.77l2.888-4.994l51.751-89.5
		l2.895-5.006l-2.895-5.006l-51.751-89.5L172.57,0L172.57,0z"/>
</g>
<g display="none">
	<polygon display="inline" fill="#2599C1" points="60.417,194 5.775,99.5 60.417,5 169.685,5 224.327,99.5 169.685,194 	"/>
	<path display="inline" fill="#134D61" d="M166.8,10l51.751,89.5L166.8,189H63.301l-51.75-89.5L63.301,10H166.8 M172.57,0h-5.77
		H63.301h-5.769l-2.888,4.995L2.894,94.494L0,99.5l2.894,5.006l51.75,89.5L57.532,199h5.769H166.8h5.77l2.888-4.994l51.751-89.5
		l2.895-5.006l-2.895-5.006l-51.751-89.5L172.57,0L172.57,0z"/>
</g>
<g display="none">
	<polygon display="inline" fill="#1C7391" points="60.417,194 5.775,99.5 60.417,5 169.685,5 224.327,99.5 169.685,194 	"/>
	<path display="inline" fill="#134D61" d="M166.8,10l51.751,89.5L166.8,189H63.301l-51.75-89.5L63.301,10H166.8 M172.57,0h-5.77
		H63.301h-5.769l-2.888,4.995L2.894,94.494L0,99.5l2.894,5.006l51.75,89.5L57.532,199h5.769H166.8h5.77l2.888-4.994l51.751-89.5
		l2.895-5.006l-2.895-5.006l-51.751-89.5L172.57,0L172.57,0z"/>
</g>
<g display="none">
	<polygon display="inline" fill="#CE1D6F" points="60.417,194 5.775,99.5 60.417,5 169.685,5 224.327,99.5 169.685,194 	"/>
	<path display="inline" fill="#134D61" d="M166.8,10l51.751,89.5L166.8,189H63.301l-51.75-89.5L63.301,10H166.8 M172.57,0h-5.77
		H63.301h-5.769l-2.888,4.995L2.894,94.494L0,99.5l2.894,5.006l51.75,89.5L57.532,199h5.769H166.8h5.77l2.888-4.994l51.751-89.5
		l2.895-5.006l-2.895-5.006l-51.751-89.5L172.57,0L172.57,0z"/>
</g>
<g display="none">
	<polygon display="inline" fill="#9B1653" points="60.417,194 5.775,99.5 60.417,5 169.685,5 224.327,99.5 169.685,194 	"/>
	<path display="inline" fill="#134D61" d="M166.8,10l51.751,89.5L166.8,189H63.301l-51.75-89.5L63.301,10H166.8 M172.57,0h-5.77
		H63.301h-5.769l-2.888,4.995L2.894,94.494L0,99.5l2.894,5.006l51.75,89.5L57.532,199h5.769H166.8h5.77l2.888-4.994l51.751-89.5
		l2.895-5.006l-2.895-5.006l-51.751-89.5L172.57,0L172.57,0z"/>
</g>
<g display="none">
	<polygon display="inline" fill="#FFFFFF" points="60.51,194.598 5.778,99.799 60.51,5 169.974,5 224.707,99.799 169.974,194.598 	
		"/>
	<path display="inline" fill="#134D61" d="M167.087,10l51.846,89.799l-51.846,89.799H63.397L11.551,99.799L63.397,10H167.087
		 M172.861,0h-5.773H63.397h-5.773l-2.887,5L2.891,94.799l-2.887,5l2.887,5l51.846,89.799l2.887,5h5.773h103.69h5.773l2.887-5
		l51.846-89.799l2.887-5l-2.887-5L175.748,5L172.861,0L172.861,0z"/>
</g>
<path display="none" d="M80.092,163.207l2.017,9.967h0.04l2.037-9.967h4.212v14.12h-2.61v-11.272h-0.04l-2.512,11.272h-2.215
	l-2.511-11.272h-0.04v11.272h-2.61v-14.12H80.092z"/>
<path display="none" d="M98.325,165.541h-5.043v3.322h4.746v2.334h-4.746v3.797h5.241v2.333h-8.088v-14.12h7.891V165.541z"/>
<path display="none" d="M107.837,165.541h-5.043v3.322h4.746v2.334h-4.746v3.797h5.241v2.333h-8.088v-14.12h7.891V165.541z"/>
<path display="none" d="M117.724,165.541h-3.085v11.786h-2.848v-11.786h-3.085v-2.334h9.018V165.541z"/>
<path display="none" d="M119.089,163.207h2.848v14.12h-2.848V163.207z"/>
<path display="none" d="M130.776,172.877h0.039v-9.67h2.611v14.12h-3.244l-3.48-9.888h-0.039v9.888h-2.61v-14.12h3.282
	L130.776,172.877z"/>
<path display="none" d="M141.583,166.589c-0.059-0.276-0.154-0.53-0.286-0.761s-0.3-0.422-0.505-0.574
	c-0.204-0.15-0.451-0.227-0.74-0.227c-0.687,0-1.181,0.382-1.484,1.146c-0.303,0.765-0.454,2.03-0.454,3.797
	c0,0.844,0.026,1.608,0.079,2.294s0.148,1.269,0.287,1.75c0.138,0.481,0.336,0.851,0.593,1.107s0.59,0.386,0.999,0.386
	c0.171,0,0.358-0.046,0.562-0.139c0.205-0.092,0.396-0.23,0.574-0.415s0.326-0.419,0.445-0.702c0.118-0.283,0.178-0.616,0.178-0.998
	v-1.444h-1.879v-2.097h4.607v7.614h-2.096v-1.306h-0.039c-0.344,0.555-0.756,0.947-1.236,1.178c-0.482,0.23-1.059,0.346-1.73,0.346
	c-0.87,0-1.579-0.152-2.126-0.455c-0.548-0.303-0.976-0.771-1.286-1.404c-0.309-0.633-0.518-1.414-0.622-2.344
	c-0.106-0.929-0.158-2.007-0.158-3.232c0-1.188,0.075-2.229,0.228-3.125c0.15-0.896,0.412-1.645,0.781-2.244
	s0.856-1.051,1.463-1.355c0.606-0.303,1.365-0.454,2.274-0.454c1.556,0,2.676,0.386,3.362,1.157
	c0.685,0.771,1.027,1.875,1.027,3.312h-2.729C141.672,167.137,141.643,166.865,141.583,166.589z"/>
<path display="none" d="M148.692,173.332c0,0.33,0.027,0.631,0.08,0.9s0.15,0.498,0.297,0.682c0.145,0.186,0.338,0.33,0.582,0.436
	s0.551,0.158,0.92,0.158c0.436,0,0.828-0.142,1.177-0.426c0.349-0.283,0.524-0.721,0.524-1.314c0-0.316-0.043-0.59-0.129-0.82
	s-0.227-0.438-0.425-0.623s-0.458-0.354-0.781-0.504c-0.323-0.152-0.722-0.307-1.196-0.465c-0.633-0.211-1.18-0.441-1.642-0.693
	c-0.462-0.25-0.847-0.543-1.157-0.879c-0.31-0.336-0.537-0.725-0.682-1.167c-0.146-0.442-0.218-0.952-0.218-1.532
	c0-1.398,0.389-2.439,1.167-3.125c0.777-0.686,1.846-1.028,3.203-1.028c0.633,0,1.217,0.069,1.75,0.208
	c0.534,0.139,0.996,0.362,1.385,0.672c0.389,0.311,0.691,0.705,0.91,1.187c0.217,0.481,0.326,1.058,0.326,1.73v0.396h-2.729
	c0-0.672-0.118-1.189-0.356-1.553c-0.236-0.362-0.633-0.543-1.186-0.543c-0.316,0-0.58,0.046-0.791,0.138
	c-0.211,0.093-0.379,0.215-0.505,0.366s-0.211,0.326-0.257,0.523c-0.047,0.198-0.069,0.402-0.069,0.613
	c0,0.436,0.093,0.801,0.276,1.098c0.186,0.297,0.58,0.57,1.188,0.82l2.195,0.949c0.539,0.238,0.981,0.484,1.324,0.742
	c0.343,0.257,0.616,0.533,0.82,0.83c0.205,0.297,0.347,0.623,0.426,0.979c0.079,0.356,0.119,0.752,0.119,1.188
	c0,1.49-0.433,2.574-1.296,3.253c-0.864,0.679-2.066,1.019-3.608,1.019c-1.609,0-2.76-0.35-3.451-1.049
	c-0.692-0.698-1.039-1.7-1.039-3.006v-0.573h2.848V173.332z"/>
<path display="none" d="M171.85,98.635c0.472,1.629-0.461,3.332-2.09,3.805l-17.985,5.23c-1.626,0.474-3.33-0.462-3.803-2.09
	l-7.305-25.109c-0.473-1.628,0.461-3.33,2.09-3.805l17.983-5.23c1.628-0.473,3.332,0.462,3.804,2.09L171.85,98.635z"/>
<path display="none" d="M139.245,81.011c0,0-2.367,0.552-4.681,0.606c-2.312,0.055-6.113-0.369-7.008-0.786
	c-0.896-0.418-1.471-0.686-2.179-1.017c-3.519-1.641-6.446-3.006-6.446-3.006c-0.098-0.047-0.199-0.069-0.301-0.107
	c-0.023-0.008-0.047-0.012-0.068-0.021c-0.363-0.143-0.75-0.24-1.158-0.277l-8.557-0.762c-1.016-0.092-1.98,0.186-2.761,0.725
	c-0.017,0.01-0.042,0.029-0.077,0.057c-0.189,0.138-0.369,0.287-0.534,0.455c-2.132,1.854-8.935,8.021-8.935,8.021
	c0.182,0.182,0.453,0.402,0.803,0.629c0.227,0.145,0.487,0.289,0.778,0.426c0.255,0.119,0.53,0.23,0.83,0.328
	c0.128,0.041,0.258,0.084,0.394,0.119c1.576,0.414,3.924,0.457,6.57-1.363c0.248-0.17,1.682-1.166,2.118-1.485
	c0.696-0.509,1.95-0.985,3.827-0.846c1.879,0.142,4.852,0.981,4.852,0.981l28.369,17.404L139.245,81.011z"/>
<path display="none" d="M108.126,110.75c0.479-1.614,2.174-2.534,3.785-2.055l0,0c1.613,0.477,2.533,2.174,2.054,3.788l-1.985,6.578
	c-0.478,1.61-2.174,2.532-3.785,2.054l0,0c-1.613-0.479-2.533-2.173-2.054-3.787L108.126,110.75z"/>
<path display="none" d="M101.445,106.342c0.479-1.614,2.172-2.533,3.785-2.054l0,0c1.614,0.478,2.533,2.173,2.055,3.785
	l-2.381,7.735c-0.479,1.613-2.172,2.533-3.785,2.055l0,0c-1.612-0.48-2.532-2.174-2.055-3.787L101.445,106.342z"/>
<path display="none" d="M93.691,105.58c0.479-1.613,2.174-2.533,3.785-2.055l0,0c1.613,0.478,2.533,2.174,2.055,3.787l-1.558,5.058
	c-0.479,1.612-2.173,2.532-3.786,2.055l0,0c-1.613-0.478-2.532-2.175-2.055-3.786L93.691,105.58z"/>
<path display="none" d="M86.298,103.633c0.479-1.614,2.174-2.533,3.787-2.054l0,0c1.613,0.478,2.533,2.173,2.054,3.785l-0.485,1.545
	c-0.479,1.612-2.174,2.532-3.786,2.054l0,0c-1.612-0.477-2.532-2.172-2.054-3.785L86.298,103.633z"/>
<path display="none" d="M79.298,106.432c-0.596,1.588-2.364,2.392-3.951,1.801l-17.54-6.569c-1.588-0.596-2.393-2.364-1.797-3.952
	l9.171-24.49c0.595-1.588,2.363-2.391,3.951-1.798l17.539,6.569c1.588,0.594,2.393,2.363,1.797,3.951L79.298,106.432z"/>
<path display="none" d="M122.693,116.102l-3.727-2.289c-0.004-0.002-0.006-0.002-0.011-0.004l-3.337-2.048
	c-0.012,0.388-0.07,0.774-0.181,1.155l-1.497,4.959l5.564,3.416c1.432,0.881,3.311,0.432,4.189-1.002
	S124.126,116.982,122.693,116.102z"/>
<path display="none" d="M143.291,101.771l-16.544-10.154c-0.064-0.04-0.13-0.074-0.198-0.107l-10.459-6.432
	c-0.818-0.215-2.994-0.738-4.344-0.84c-0.097-0.008-0.191-0.013-0.282-0.016c-1.499-0.057-2.267,0.379-2.525,0.568
	c-0.459,0.336-1.929,1.356-2.155,1.513c-1.907,1.311-3.908,1.937-5.946,1.86c-0.634-0.024-1.265-0.117-1.88-0.279
	c-0.129-0.033-0.255-0.072-0.381-0.111l-0.083-0.027c-0.358-0.115-0.698-0.249-1.025-0.403c-0.333-0.155-0.653-0.331-0.954-0.522
	c-0.418-0.271-0.784-0.56-1.062-0.84l-1.133-1.14l1.189-1.079c0.166-0.15,2.549-2.312,4.9-4.428
	c-0.998,0.072-1.953,0.178-2.717,0.329c-2.955,0.583-7.712,2.804-7.712,2.804l-7.335,19.641c0,0,1.653,2.773,1.693,2.633
	l0.494-1.568c0.588-1.982,2.464-3.33,4.553-3.25c0.383,0.013,0.766,0.075,1.134,0.186c1.174,0.348,2.142,1.132,2.725,2.205
	c0.126,0.234,0.228,0.475,0.311,0.721c0.86-0.77,2.005-1.211,3.224-1.166c0.383,0.014,0.765,0.076,1.135,0.186
	c1.172,0.349,2.14,1.133,2.725,2.207c0.029,0.059,0.055,0.117,0.083,0.174c0.88-1.158,2.288-1.861,3.813-1.806
	c0.383,0.014,0.764,0.077,1.134,0.187c1.173,0.348,2.14,1.132,2.724,2.205c0.426,0.787,0.607,1.66,0.54,2.531
	c0.687-0.358,1.468-0.547,2.285-0.516c0.382,0.014,0.763,0.076,1.133,0.187c1.173,0.347,2.14,1.13,2.724,2.206
	c0.072,0.129,0.133,0.261,0.189,0.393c0.111,0.014,0.217,0.046,0.319,0.107l4.182,2.566c0.005,0.003,0.007,0.006,0.009,0.008
	l7.315,4.492c1.433,0.878,3.308,0.43,4.187-1.003c0.882-1.433,0.433-3.308-1-4.189l-8.193-5.03h0.001l-2.778-1.706
	c-0.362-0.224-0.477-0.698-0.254-1.062c0.221-0.36,0.697-0.475,1.061-0.254l4.191,2.573c0.01,0.007,0.018,0.016,0.025,0.021
	l9.382,5.76c1.433,0.881,3.308,0.43,4.187-1.002c0.881-1.434,0.434-3.309-1.001-4.188l-10.125-6.216c-0.001,0-0.003,0-0.003-0.003
	l-4.442-2.727c-0.386-0.236-0.505-0.739-0.269-1.125c0.236-0.385,0.74-0.505,1.125-0.268l4.057,2.488l0,0l12.867,7.9
	c1.433,0.88,3.309,0.432,4.188-1.002C145.171,104.528,144.722,102.652,143.291,101.771z"/>
<g display="none">
	<polygon display="inline" fill="#FFFFFF" points="60.51,194.598 5.778,99.799 60.51,5 169.974,5 224.707,99.799 169.974,194.598 	
		"/>
	<path display="inline" fill="#134D61" d="M167.087,10l51.846,89.799l-51.846,89.799H63.397L11.551,99.799L63.397,10H167.087
		 M172.861,0h-5.773H63.397h-5.773l-2.887,5L2.891,94.799l-2.887,5l2.887,5l51.846,89.799l2.887,5h5.773h103.69h5.773l2.887-5
		l51.846-89.799l2.887-5l-2.887-5L175.748,5L172.861,0L172.861,0z"/>
</g>
<path display="none" d="M92.798,165.541h-5.043v3.322h4.746v2.334h-4.746v3.797h5.241v2.333h-8.088v-14.12h7.891V165.541z"/>
<path display="none" d="M101.143,172.877h0.04v-9.67h2.61v14.12h-3.243l-3.48-9.888h-0.04v9.888h-2.61v-14.12h3.283L101.143,172.877
	z"/>
<path display="none" d="M113.661,165.541h-5.043v3.322h4.746v2.334h-4.746v3.797h5.241v2.333h-8.088v-14.12h7.891V165.541z"/>
<path display="none" d="M120.542,163.207c1.187,0,2.109,0.301,2.769,0.9s0.989,1.513,0.989,2.738c0,0.949-0.191,1.725-0.573,2.324
	c-0.383,0.6-0.976,0.985-1.78,1.156v0.04c0.712,0.105,1.232,0.336,1.562,0.692c0.33,0.355,0.534,0.93,0.613,1.721
	c0.026,0.264,0.046,0.551,0.059,0.859c0.013,0.311,0.026,0.656,0.04,1.039c0.026,0.751,0.066,1.324,0.119,1.72
	c0.079,0.396,0.25,0.666,0.514,0.812v0.118h-3.085c-0.145-0.198-0.237-0.425-0.277-0.683c-0.04-0.257-0.066-0.523-0.079-0.801
	l-0.079-2.709c-0.026-0.554-0.165-0.988-0.415-1.305c-0.251-0.316-0.672-0.475-1.266-0.475h-1.523v5.972h-2.848v-14.12H120.542z
	 M119.316,169.377c0.686,0,1.213-0.16,1.582-0.484c0.369-0.322,0.554-0.866,0.554-1.631c0-1.306-0.659-1.958-1.978-1.958h-1.345
	v4.073H119.316z"/>
<path display="none" d="M132.457,166.589c-0.06-0.276-0.155-0.53-0.286-0.761c-0.133-0.23-0.301-0.422-0.505-0.574
	c-0.204-0.15-0.452-0.227-0.741-0.227c-0.686,0-1.18,0.382-1.483,1.146s-0.454,2.03-0.454,3.797c0,0.844,0.025,1.608,0.078,2.294
	s0.148,1.269,0.287,1.75s0.336,0.851,0.594,1.107c0.256,0.257,0.59,0.386,0.998,0.386c0.172,0,0.359-0.046,0.563-0.139
	c0.204-0.092,0.396-0.23,0.573-0.415s0.326-0.419,0.445-0.702s0.178-0.616,0.178-0.998v-1.444h-1.879v-2.097h4.608v7.614h-2.097
	v-1.306h-0.039c-0.344,0.555-0.755,0.947-1.236,1.178s-1.058,0.346-1.73,0.346c-0.869,0-1.578-0.152-2.125-0.455
	c-0.548-0.303-0.977-0.771-1.286-1.404s-0.518-1.414-0.622-2.344c-0.106-0.929-0.158-2.007-0.158-3.232
	c0-1.188,0.075-2.229,0.227-3.125s0.412-1.645,0.781-2.244s0.857-1.051,1.463-1.355c0.607-0.303,1.365-0.454,2.275-0.454
	c1.555,0,2.676,0.386,3.361,1.157s1.028,1.875,1.028,3.312h-2.729C132.545,167.137,132.516,166.865,132.457,166.589z"/>
<path display="none" d="M141.405,168.666h0.04l1.978-5.459h3.085l-3.659,8.562v5.558H140v-5.558l-3.658-8.562h3.204L141.405,168.666
	z"/>
<path display="none" fill="#141414" d="M131.333,123.549c-5.181,3.627-11.255,5.551-17.573,5.551h-0.428
	c-0.848-0.021-1.692-0.051-2.522-0.135l-1.022-0.127c-0.652-0.092-1.3-0.176-1.943-0.297c-0.361-0.078-0.715-0.156-1.161-0.271
	c-0.62-0.145-1.243-0.283-1.853-0.467l-0.871-0.291c-0.699-0.242-1.403-0.479-2.092-0.768l-0.445-0.203
	c-0.795-0.34-1.584-0.723-2.443-1.18c-2.572-1.414-4.93-3.168-7.102-5.355c-0.637-0.643-1.252-1.318-1.834-2.014l-0.357-0.467
	c-4.052-5.061-6.354-11.064-6.699-17.447h9.981l-16.86-25.294l-16.861,25.294h10.061c0.319,8.408,3.008,16.477,7.784,23.398
	l0.212,0.363c0.394,0.561,0.819,1.092,1.244,1.619l1.002,1.285c0.812,0.975,1.668,1.9,2.552,2.801l0.245,0.264
	c2.95,2.951,6.31,5.463,9.973,7.467l0.307,0.178c1.055,0.566,2.133,1.082,3.243,1.57l0.81,0.367
	c0.941,0.379,1.908,0.723,2.912,1.059c0.443,0.158,0.887,0.311,1.333,0.434c0.848,0.262,1.716,0.465,2.608,0.688l0.531,0.121
	c0.393,0.088,0.786,0.176,1.424,0.312c0.165,0.047,0.331,0.084,0.493,0.115c0.68,0.115,1.358,0.199,2.041,0.27l1.323,0.182
	c1.48,0.133,2.957,0.238,4.432,0.238c9.092,0,17.873-2.791,25.4-8.057c1.494-1.049,2.492-2.619,2.806-4.416
	c0.322-1.795-0.085-3.607-1.126-5.098C138.772,122.26,134.319,121.463,131.333,123.549z"/>
<path display="none" fill="#141414" d="M158.081,96.658c-0.322-8.387-2.998-16.451-7.757-23.357l-0.233-0.407
	c-0.563-0.8-1.167-1.559-1.941-2.506l-0.235-0.303c-4.501-5.46-10.081-9.66-16.586-12.459l-0.532-0.239
	c-1.016-0.426-2.066-0.8-3.406-1.235l-0.855-0.28c-0.919-0.282-1.847-0.511-2.801-0.726l-0.475-0.114
	c-0.357-0.085-0.715-0.169-1.359-0.306l-0.485-0.115c-0.476-0.08-0.95-0.133-1.421-0.184l-1.137-0.133
	c-0.33-0.053-0.656-0.096-1.002-0.127c-1.178-0.113-2.351-0.164-3.715-0.19l-0.553-0.008c-9.113,0.008-17.892,2.775-25.362,8.014
	c-1.494,1.049-2.495,2.614-2.814,4.416c-0.316,1.796,0.085,3.616,1.131,5.102c2.083,2.98,6.534,3.784,9.524,1.685
	c5.18-3.625,11.247-5.549,17.85-5.549c0.006,0,0.009,0,0.009,0c0.909,0.008,1.813,0.054,2.688,0.134l0.834,0.114
	c0.729,0.08,1.455,0.184,2.155,0.326l0.951,0.214c0.7,0.156,1.395,0.325,2.074,0.527l0.652,0.218
	c0.783,0.264,1.551,0.533,2.532,0.952c4.478,1.93,8.489,4.935,11.652,8.764c4.139,5.044,6.566,11.298,6.938,17.773h-9.983
	l16.866,25.285l16.855-25.285H158.081z"/>
<g>
	<polygon fill="#FFFFFF" points="60.51,194.598 5.778,99.799 60.51,5 169.974,5 224.707,99.799 169.974,194.598 	"/>
	<path fill="#134D61" d="M167.087,10l51.846,89.799l-51.846,89.799H63.397L11.551,99.799L63.397,10H167.087 M172.861,0h-5.773
		H63.397h-5.773l-2.887,5L2.891,94.799l-2.887,5l2.887,5l51.846,89.799l2.887,5h5.773h103.69h5.773l2.887-5l51.846-89.799l2.887-5
		l-2.887-5L175.748,5L172.861,0L172.861,0z"/>
</g>
<text transform="matrix(1 0 0 1 81.021 177.3271)" font-family="'HelveticaNeue-CondensedBold'" font-size="19.7754">HEATING</text>
<path d="M116.444,143.941c0,0-31.9-6.254-31.643-30.452c0.203-19.007,16.84-22.45,23.662-39.827
	c6.822-17.376-0.386-18.277,0.129-19.307s27.029,15.019,25.228,33.724C130.475,122.832,110.652,115.817,116.444,143.941z"/>
<path d="M120.821,142.783c0,0-1.932-3.99-0.645-11.326c1.287-7.338,10.425-15.961,14.673-26.387
	c4.248-10.427,2.318-16.219,2.318-16.219s9.01,13.129,8.494,22.268s-3.732,15.961-9.268,20.08S122.108,141.496,120.821,142.783z"/>
</svg>
