<?xml version="1.0" encoding="utf-8"?>
<!-- Generator: Adobe Illustrator 15.0.0, SVG Export Plug-In  -->
<!DOCTYPE svg PUBLIC "-//W3C//DTD SVG 1.1//EN" "http://www.w3.org/Graphics/SVG/1.1/DTD/svg11.dtd" [
	<!ENTITY ns_flows "http://ns.adobe.com/Flows/1.0/">
]>
<svg version="1.1"
	 xmlns="http://www.w3.org/2000/svg" xmlns:xlink="http://www.w3.org/1999/xlink" xmlns:a="http://ns.adobe.com/AdobeSVGViewerExtensions/3.0/"
	 x="0px" y="0px" width="32px" height="32px" viewBox="-5.094 -6.973 32 32"
	 overflow="visible" enable-background="new -5.094 -6.973 32 32" xml:space="preserve">
<defs>
</defs>
<path display="none" fill="#FFFFFF" d="M3.164,1.535c0,0-0.957,4.921,4.835,10.922c0.054,0.057,0.105,0.107,0.159,0.161
	c0.052,0.054,0.101,0.109,0.155,0.164c5.792,6.003,10.744,5.223,10.744,5.223c1.681-0.118,2.572-4.167,0.085-4.848
	c-2.929-0.802-3.509-1.227-4.448-1.171c-0.993,0.06-0.646,1.47-1.501,1.645c-0.825,0.17-2.46-0.927-3.727-2.274
	c-1.3-1.314-2.338-2.986-2.14-3.806c0.205-0.847,1.604-0.449,1.699-1.44c0.088-0.937-0.315-1.532-1.012-4.488
	C7.419-0.885,3.342-0.141,3.164,1.535z"/>
<path display="none" fill="#FFFFFF" d="M8.857,17.518c-0.2,0-1-0.699-1.174-1.124c0.525-2.447,1.199-5.693,1.598-7.592L7.333,8.752
	c0-0.7,0-1.375,0.024-2.048c1.898-0.225,4.421-0.674,4.87-0.674c0.2,0,0.949,0.649,1.174,1.023
	c-0.449,2.098-1.548,7.093-1.748,8.017c-0.025,0.101-0.025,0.2,0.076,0.2c0.248,0,0.899-0.1,1.598-0.251
	c0.051,0.651,0.125,1.3,0.174,1.949C12.378,17.293,11.003,17.518,8.857,17.518z"/>
<path display="none" fill="#FFFFFF" d="M12.228,4.58c-1.297,0-2.098-1.023-2.098-2.022c0-1.124,0.975-2.073,2.273-2.073
	c1.499,0,2.024,1.024,2.024,1.874C14.427,3.756,13.378,4.58,12.228,4.58z"/>
<path fill="#FFFFFF" d="M11.161,8.275l10.078-5.348c0.008-0.004,0.016-0.008,0.023-0.013c-0.23-0.174-0.514-0.282-0.823-0.282H1.373
	c-0.331,0-0.632,0.123-0.869,0.319l9.851,5.32C10.575,8.391,10.938,8.393,11.161,8.275z"/>
<path fill="#FFFFFF" d="M11.48,9.66c-0.223,0.117-0.556,0.273-0.615,0.281c-0.062,0.008-0.162,0.007-0.224,0
	c-0.062-0.007-0.396-0.167-0.617-0.287L0,4.241v9.755c0,0.755,0.618,1.372,1.373,1.372h19.066c0.755,0,1.373-0.617,1.373-1.372
	V4.177L11.48,9.66z"/>
</svg>
