<?xml version="1.0" encoding="utf-8"?>
<!-- Generator: Adobe Illustrator 15.0.0, SVG Export Plug-In  -->
<!DOCTYPE svg PUBLIC "-//W3C//DTD SVG 1.1//EN" "http://www.w3.org/Graphics/SVG/1.1/DTD/svg11.dtd" [
	<!ENTITY ns_flows "http://ns.adobe.com/Flows/1.0/">
]>
<svg version="1.1"
	 xmlns="http://www.w3.org/2000/svg" xmlns:xlink="http://www.w3.org/1999/xlink" xmlns:a="http://ns.adobe.com/AdobeSVGViewerExtensions/3.0/"
	 x="0px" y="0px" width="32px" height="32px" viewBox="-8.198 -6.973 32 32"
	 overflow="visible" enable-background="new -8.198 -6.973 32 32" xml:space="preserve">
<defs>
</defs>
<path display="none" fill="#FFFFFF" d="M0.059,1.535c0,0-0.957,4.921,4.835,10.922C4.948,12.514,5,12.564,5.053,12.618
	c0.052,0.054,0.101,0.109,0.155,0.164c5.792,6.003,10.744,5.223,10.744,5.223c1.681-0.118,2.572-4.167,0.085-4.848
	c-2.929-0.802-3.509-1.227-4.448-1.171c-0.993,0.06-0.646,1.47-1.501,1.645c-0.825,0.17-2.46-0.927-3.727-2.274
	C5.06,10.042,4.022,8.37,4.22,7.55c0.205-0.847,1.604-0.449,1.699-1.44c0.088-0.937-0.315-1.532-1.012-4.488
	C4.314-0.885,0.237-0.141,0.059,1.535z"/>
<path fill="#FFFFFF" d="M5.752,17.518c-0.2,0-1-0.699-1.174-1.124c0.525-2.447,1.199-5.693,1.598-7.592L4.229,8.752
	c0-0.7,0-1.375,0.024-2.048C6.151,6.479,8.674,6.03,9.123,6.03c0.2,0,0.949,0.649,1.174,1.023c-0.449,2.098-1.548,7.093-1.748,8.017
	c-0.025,0.101-0.025,0.2,0.076,0.2c0.248,0,0.899-0.1,1.598-0.251c0.051,0.651,0.125,1.3,0.174,1.949
	C9.273,17.293,7.899,17.518,5.752,17.518z"/>
<path fill="#FFFFFF" d="M9.123,4.58c-1.297,0-2.098-1.023-2.098-2.022c0-1.124,0.975-2.073,2.273-2.073
	c1.499,0,2.024,1.024,2.024,1.874C11.322,3.756,10.273,4.58,9.123,4.58z"/>
</svg>
