<?xml version="1.0" encoding="utf-8"?>
<!-- Generator: Adobe Illustrator 15.0.0, SVG Export Plug-In  -->
<!DOCTYPE svg PUBLIC "-//W3C//DTD SVG 1.1//EN" "http://www.w3.org/Graphics/SVG/1.1/DTD/svg11.dtd" [
	<!ENTITY ns_flows "http://ns.adobe.com/Flows/1.0/">
]>
<svg version="1.1"
	 xmlns="http://www.w3.org/2000/svg" xmlns:xlink="http://www.w3.org/1999/xlink" xmlns:a="http://ns.adobe.com/AdobeSVGViewerExtensions/3.0/"
	 x="0px" y="0px" width="32px" height="32px" viewBox="0 0 32 32" overflow="visible" enable-background="new 0 0 32 32"
	 xml:space="preserve">
<defs>
</defs>
<path display="none" fill="#FFFFFF" d="M8.258,8.507c0,0-0.957,4.921,4.835,10.922c0.054,0.057,0.105,0.107,0.159,0.161
	c0.052,0.054,0.101,0.109,0.155,0.164c5.792,6.003,10.744,5.223,10.744,5.223c1.681-0.118,2.572-4.167,0.085-4.848
	c-2.929-0.802-3.509-1.227-4.448-1.171c-0.993,0.06-0.646,1.47-1.501,1.645c-0.825,0.17-2.46-0.927-3.727-2.274
	c-1.3-1.314-2.338-2.986-2.14-3.806c0.205-0.847,1.604-0.449,1.699-1.44c0.088-0.937-0.315-1.532-1.012-4.488
	C12.513,6.087,8.436,6.832,8.258,8.507z"/>
<path display="none" fill="#FFFFFF" d="M13.951,24.49c-0.2,0-1-0.699-1.174-1.124c0.525-2.447,1.199-5.693,1.598-7.592l-1.947-0.049
	c0-0.7,0-1.375,0.024-2.048c1.898-0.225,4.421-0.674,4.87-0.674c0.2,0,0.949,0.649,1.174,1.023
	c-0.449,2.098-1.548,7.093-1.748,8.017c-0.025,0.101-0.025,0.2,0.076,0.2c0.248,0,0.899-0.1,1.598-0.251
	c0.051,0.651,0.125,1.3,0.174,1.949C17.472,24.266,16.098,24.49,13.951,24.49z"/>
<path display="none" fill="#FFFFFF" d="M17.322,11.553c-1.297,0-2.098-1.023-2.098-2.022c0-1.124,0.975-2.073,2.273-2.073
	c1.499,0,2.024,1.024,2.024,1.874C19.521,10.729,18.472,11.553,17.322,11.553z"/>
<path display="none" fill="#FFFFFF" d="M16.255,15.248L26.333,9.9c0.008-0.004,0.016-0.008,0.023-0.013
	c-0.23-0.174-0.514-0.282-0.823-0.282H6.467c-0.331,0-0.632,0.123-0.869,0.319l9.851,5.32
	C15.669,15.364,16.033,15.365,16.255,15.248z"/>
<path display="none" fill="#FFFFFF" d="M16.575,16.632c-0.223,0.117-0.556,0.273-0.615,0.281c-0.062,0.008-0.162,0.007-0.224,0
	c-0.062-0.007-0.396-0.167-0.617-0.287L5.094,11.214v9.755c0,0.755,0.618,1.372,1.373,1.372h19.066c0.755,0,1.373-0.617,1.373-1.372
	V11.15L16.575,16.632z"/>
<path fill="#134D61" d="M31.1,24.361L18.321,2.068c-1.379-2.758-3.633-2.758-5.012,0L0.532,24.361
	c-1.378,2.756,0.016,5.013,3.098,5.013h24.373C31.083,29.374,32.477,27.117,31.1,24.361z"/>
<path fill="#2599C1" d="M14.022,13.6V7.57h3.586V13.6l-0.493,7.354h-2.599L14.022,13.6z M17.609,26.125h-3.586v-3.431h3.586V26.125z
	"/>
</svg>
