<?xml version="1.0" encoding="utf-8"?>
<!-- Generator: Adobe Illustrator 15.0.0, SVG Export Plug-In  -->
<!DOCTYPE svg PUBLIC "-//W3C//DTD SVG 1.1//EN" "http://www.w3.org/Graphics/SVG/1.1/DTD/svg11.dtd" [
	<!ENTITY ns_flows "http://ns.adobe.com/Flows/1.0/">
]>
<svg version="1.1"
	 xmlns="http://www.w3.org/2000/svg" xmlns:xlink="http://www.w3.org/1999/xlink" xmlns:a="http://ns.adobe.com/AdobeSVGViewerExtensions/3.0/"
	 x="0px" y="0px" width="260px" height="257px" viewBox="0 0 260 257" overflow="visible" enable-background="new 0 0 260 257"
	 xml:space="preserve">
<defs>
</defs>
<polygon fill="#231F20" points="111.99,69.787 103.189,54.565 102.709,53.712 101.731,53.712 84.154,53.712 83.174,53.712 
	82.674,54.565 73.896,69.787 73.396,70.64 73.896,71.496 82.674,86.716 83.174,87.571 84.154,87.571 101.731,87.571 102.709,87.571 
	103.189,86.716 111.99,71.496 112.469,70.64 "/>
<polygon fill="#231F20" points="47.875,66.847 48.377,67.68 49.354,67.68 66.932,67.68 67.911,67.68 68.412,66.847 77.189,51.604 
	77.689,50.771 77.189,49.917 68.412,34.696 67.911,33.841 66.932,33.841 49.354,33.841 48.377,33.841 47.875,34.696 39.096,49.917 
	38.595,50.771 39.096,51.604 "/>
<polygon fill="#231F20" points="68.412,74.436 67.911,73.601 66.932,73.601 49.354,73.601 48.377,73.601 47.875,74.436 
	39.096,89.678 38.595,90.511 39.096,91.366 47.875,106.586 48.377,107.441 49.354,107.441 66.932,107.441 67.911,107.441 
	68.412,106.586 77.189,91.366 77.689,90.511 77.189,89.678 "/>
<path fill="#231F20" d="M135.299,70.778l12.369,38.941h0.184l12.4-38.941h4.733v44.469h-3.634V95.73l0.366-18.172l-0.184-0.031
	l-12.553,37.72h-2.443l-12.522-37.659l-0.183,0.031l0.366,18.111v19.517h-3.604V70.778H135.299z"/>
<path fill="#231F20" d="M183.719,94.326h0.184l10.751-23.548h4.184l-13.225,28.16v16.31h-3.665V98.754l-13.163-27.977h4.245
	L183.719,94.326z"/>
<path fill="#231F20" d="M115.934,159.821h-11.728l-2.383,9.499h-8.766l12.522-44.469h9.041l12.491,44.469h-8.766L115.934,159.821z
	 M105.978,152.888h8.186l-4.002-15.729h-0.183L105.978,152.888z"/>
<path fill="#231F20" d="M139.269,151.635v17.685h-8.674v-44.439h14.507c4.378,0,7.813,1.156,10.309,3.467
	c2.493,2.311,3.741,5.523,3.741,9.635c0,2.322-0.52,4.322-1.558,6.002c-1.039,1.68-2.556,3.02-4.551,4.017
	c2.28,0.774,3.925,2.057,4.933,3.849c1.008,1.791,1.512,4.031,1.512,6.719v3.146c0,1.221,0.142,2.529,0.428,3.924
	c0.284,1.395,0.783,2.408,1.496,3.039v0.642h-8.979c-0.713-0.651-1.16-1.71-1.344-3.177c-0.183-1.466-0.274-2.963-0.274-4.489
	v-3.024c0-2.219-0.454-3.939-1.359-5.161c-0.906-1.222-2.204-1.833-3.895-1.833H139.269z M139.269,144.703h5.803
	c1.771,0,3.115-0.539,4.031-1.618c0.917-1.079,1.375-2.617,1.375-4.612c0-2.036-0.458-3.654-1.375-4.856
	c-0.916-1.201-2.25-1.802-4.001-1.802h-5.833V144.703z"/>
<path fill="#231F20" d="M177.171,124.851l7.972,32.65h0.184l8.063-32.65h11.331v44.469h-8.644v-12.919l0.732-17.287l-0.183-0.031
	l-8.491,30.237h-5.772l-8.398-29.992l-0.184,0.03l0.764,17.043v12.919h-8.644v-44.469H177.171z"/>
<path fill="#231F20" d="M154.961,211.191h-16.218l-3.787,12.339h-3.787l14.079-44.469h3.329l13.928,44.469h-3.787L154.961,211.191z
	 M139.781,207.831h14.172l-6.964-22.875h-0.183L139.781,207.831z"/>
<path fill="#231F20" d="M169.746,205.113v18.417h-3.665v-44.469h13.164c3.889,0,6.902,1.19,9.04,3.572
	c2.138,2.383,3.207,5.529,3.207,9.438c0,3.951-1.069,7.112-3.207,9.484c-2.138,2.371-5.151,3.558-9.04,3.558H169.746z
	 M169.746,201.906h9.499c2.851,0,4.988-0.931,6.413-2.794c1.426-1.863,2.139-4.189,2.139-6.979c0-2.829-0.713-5.177-2.139-7.04
	c-1.425-1.863-3.562-2.795-6.413-2.795h-9.499V201.906z"/>
<path fill="#231F20" d="M198.979,205.113v18.417h-3.665v-44.469h13.164c3.889,0,6.902,1.19,9.04,3.572
	c2.138,2.383,3.207,5.529,3.207,9.438c0,3.951-1.069,7.112-3.207,9.484c-2.138,2.371-5.151,3.558-9.04,3.558H198.979z
	 M198.979,201.906h9.499c2.851,0,4.988-0.931,6.413-2.794c1.426-1.863,2.139-4.189,2.139-6.979c0-2.829-0.713-5.177-2.139-7.04
	c-1.425-1.863-3.562-2.795-6.413-2.795h-9.499V201.906z"/>
<polygon display="none" fill="#EB008B" points="29.817,0.835 29.316,0 28.337,0 10.759,0 9.782,0 9.28,0.835 0.501,16.078 0,16.91 
	0.501,17.766 9.28,32.986 9.782,33.841 10.759,33.841 28.337,33.841 29.316,33.841 29.817,32.986 38.595,17.766 39.095,16.91 
	38.595,16.078 "/>
<polygon display="none" fill="#EB008B" points="250.541,224.365 250.041,223.53 249.061,223.53 231.482,223.53 230.506,223.53 
	230.004,224.365 221.225,239.608 220.725,240.44 221.225,241.295 230.004,256.516 230.506,257.371 231.482,257.371 249.061,257.371 
	250.041,257.371 250.541,256.516 259.318,241.295 259.818,240.44 259.318,239.608 "/>
</svg>
