<?xml version="1.0" encoding="utf-8"?>
<!-- Generator: Adobe Illustrator 15.0.0, SVG Export Plug-In  -->
<!DOCTYPE svg PUBLIC "-//W3C//DTD SVG 1.1//EN" "http://www.w3.org/Graphics/SVG/1.1/DTD/svg11.dtd" [
	<!ENTITY ns_flows "http://ns.adobe.com/Flows/1.0/">
]>
<svg version="1.1"
	 xmlns="http://www.w3.org/2000/svg" xmlns:xlink="http://www.w3.org/1999/xlink" xmlns:a="http://ns.adobe.com/AdobeSVGViewerExtensions/3.0/"
	 x="0px" y="0px" width="396px" height="132px" viewBox="-15 -14.908 396 132"
	 overflow="visible" enable-background="new -15 -14.908 396 132" xml:space="preserve">
<defs>
</defs>
<polygon fill="#442E60" points="95.635,13.637 95.635,3.455 89.818,3.455 89.818,7.82 84,2.002 68.001,17.998 70.91,17.998 
	70.91,33.999 97.09,33.999 97.09,17.998 99.999,17.998 "/>
<path fill-rule="evenodd" clip-rule="evenodd" fill="#442E60" d="M228.251,21.191c-0.962-4.874-5.999-8.591-12.072-8.591
	c-5.049,0-9.383,2.57-11.254,6.237h-0.859c-1.165,0-2.109,0.943-2.109,2.109v4.439c0,1.166,0.944,2.109,2.109,2.109h1.171
	c0.993,1.662,2.505,3.064,4.359,4.061c0.021,1.236,0.064,2.535,0.149,3.217c0.127,1.029,2.232,1.578,3.005,0.715
	c0.269-0.299,0.655-1.336,1.034-2.514c0.774,0.129,1.574,0.197,2.395,0.197s1.62-0.068,2.396-0.197
	c0.377,1.178,0.765,2.215,1.032,2.514c0.772,0.863,2.879,0.314,3.007-0.715c0.084-0.682,0.127-1.98,0.148-3.217
	c2.675-1.438,4.64-3.723,5.357-6.408c1.066-0.033,1.923-0.906,1.923-1.982C230.043,22.137,229.257,21.291,228.251,21.191z
	 M208.816,23.117c-0.758,0-1.371-0.615-1.371-1.371c0-0.758,0.613-1.373,1.371-1.373s1.372,0.615,1.372,1.373
	C210.188,22.502,209.574,23.117,208.816,23.117z M221.665,18.41c-0.21,0.318-0.555,0.494-0.911,0.496
	c-0.21,0.004-0.422-0.055-0.61-0.178c-4.224-2.759-7.854-0.309-7.891-0.285c-0.499,0.348-1.185,0.223-1.53-0.277
	c-0.346-0.498-0.221-1.185,0.278-1.532c0.197-0.135,4.896-3.305,10.345,0.252C221.854,17.217,221.996,17.9,221.665,18.41z"/>
<circle fill-rule="evenodd" clip-rule="evenodd" fill="#442E60" cx="216" cy="4.376" r="4.291"/>
<path fill="#442E60" d="M153.126,34.807c0,0.656-0.538,1.193-1.192,1.193h-3.869c-0.656,0-1.191-0.537-1.191-1.193l0,0
	c0-0.654,0.535-1.191,1.191-1.191h3.869C152.588,33.615,153.126,34.152,153.126,34.807L153.126,34.807z"/>
<path fill="#442E60" d="M141.503,7.553c0.237,0,0.479-0.035,0.718-0.109l8.844-2.783c1.257-0.396,1.954-1.736,1.559-2.992
	c-0.396-1.256-1.734-1.951-2.99-1.559l-8.846,2.783c-1.256,0.395-1.953,1.734-1.559,2.99C139.55,6.902,140.49,7.553,141.503,7.553z"
	/>
<path fill="#442E60" d="M141.504,14.031c0.242,0,0.489-0.039,0.732-0.117l16.992-5.484c1.252-0.404,1.941-1.748,1.537-3
	c-0.404-1.254-1.746-1.943-3.002-1.539l-16.992,5.484c-1.252,0.404-1.941,1.75-1.537,3.002
	C139.561,13.387,140.497,14.031,141.504,14.031z"/>
<path fill="#442E60" d="M157.764,10.283l-16.992,5.484c-1.252,0.402-1.941,1.75-1.537,3.002c0.326,1.01,1.263,1.654,2.27,1.654
	c0.242,0,0.489-0.041,0.732-0.117l16.992-5.484c1.252-0.402,1.941-1.748,1.537-3.002C160.361,10.568,159.02,9.881,157.764,10.283z"
	/>
<path fill="#442E60" d="M157.764,16.789l-16.992,5.482c-1.252,0.406-1.941,1.75-1.537,3.004c0.326,1.01,1.263,1.652,2.27,1.652
	c0.242,0,0.489-0.037,0.732-0.115l0.311-0.102l2.395,1.746c0.119,0.105,0.234,0.195,0.352,0.273l0.391,4.365h8.587l0.443-4.416
	h-0.022l2.351-3.193c0.005-0.004,1.56-1.52,1.56-1.979l0.317-2.08l0.31-0.1c1.252-0.404,1.941-1.748,1.537-3.002
	S159.02,16.387,157.764,16.789z M154.837,24.115l-1.606,2.545h-6.335l-0.974-1.037l8.418-2.717L154.837,24.115z"/>
<path fill="#442E60" d="M25.113,32.398c-0.412,0-0.75-0.227-0.75-0.502s-0.338-0.5-0.75-0.5H12.387c-0.412,0-0.749,0.225-0.749,0.5
	s-0.339,0.502-0.75,0.502H9.66c-0.412,0-0.75,0.336-0.75,0.748v1.41c0,0.412,0.338,0.748,0.75,0.748h16.68
	c0.413,0,0.751-0.336,0.751-0.748v-1.41c0-0.412-0.338-0.748-0.751-0.748H25.113z"/>
<rect x="14.728" y="22.943" fill="#442E60" width="6.545" height="6.727"/>
<path fill="#442E60" d="M35.999,4.109l-0.04-1.414h-7.655l0.15-1.818L18,0.695L7.546,0.877l0.15,1.818H0.042l-0.04,1.414
	c-0.005,0.223-0.115,5.473,3.051,8.729c1.477,1.518,3.393,2.34,5.689,2.467L8.82,16.24c0,0,0.818,4.182,9.18,4.182
	c8.363,0,9.182-4.182,9.182-4.182l0.078-0.936c2.297-0.127,4.213-0.949,5.688-2.467C36.114,9.582,36.003,4.332,35.999,4.109z
	 M5.148,10.82C3.677,9.316,3.171,7.057,2.999,5.605h4.939L8.5,12.371C7.127,12.225,6.023,11.715,5.148,10.82z M27.501,12.371
	l0.561-6.766h4.936c-0.176,1.453-0.684,3.711-2.137,5.207C29.985,11.713,28.877,12.223,27.501,12.371z"/>
<path fill="#442E60" d="M277.295,8.965h5.972v4.957h-5.972v8.002h-5.25v-8.002h-5.991V8.965h5.991V1.236h5.25V8.965z"/>
<path fill="#442E60" d="M298.357,34.765h-9.699v-4.43h9.699V34.765z"/>
<line fill="none" stroke="#442E60" stroke-width="2" stroke-miterlimit="10" x1="275.658" y1="31.863" x2="298.64" y2="8.881"/>
<polygon fill="#A344CD" points="95.635,79.637 95.635,69.455 89.818,69.455 89.818,73.82 84,68.002 68.001,83.998 70.91,83.998 
	70.91,99.999 97.09,99.999 97.09,83.998 99.999,83.998 "/>
<path fill-rule="evenodd" clip-rule="evenodd" fill="#A344CD" d="M228.251,87.191c-0.962-4.874-5.999-8.591-12.072-8.591
	c-5.049,0-9.383,2.57-11.254,6.237h-0.859c-1.165,0-2.109,0.943-2.109,2.109v4.439c0,1.166,0.944,2.109,2.109,2.109h1.171
	c0.993,1.662,2.505,3.064,4.359,4.061c0.021,1.236,0.064,2.535,0.149,3.217c0.127,1.029,2.232,1.578,3.005,0.715
	c0.269-0.299,0.655-1.336,1.034-2.514c0.774,0.129,1.574,0.197,2.395,0.197s1.62-0.068,2.396-0.197
	c0.377,1.178,0.765,2.215,1.032,2.514c0.772,0.863,2.879,0.314,3.007-0.715c0.084-0.682,0.127-1.98,0.148-3.217
	c2.675-1.438,4.64-3.723,5.357-6.408c1.066-0.033,1.923-0.906,1.923-1.982C230.043,88.137,229.257,87.291,228.251,87.191z
	 M208.816,89.117c-0.758,0-1.371-0.615-1.371-1.371c0-0.758,0.613-1.373,1.371-1.373s1.372,0.615,1.372,1.373
	C210.188,88.502,209.574,89.117,208.816,89.117z M221.665,84.41c-0.21,0.318-0.555,0.494-0.911,0.496
	c-0.21,0.004-0.422-0.055-0.61-0.178c-4.224-2.759-7.854-0.309-7.891-0.285c-0.499,0.348-1.185,0.223-1.53-0.277
	c-0.346-0.498-0.221-1.185,0.278-1.532c0.197-0.135,4.896-3.305,10.345,0.252C221.854,83.217,221.996,83.9,221.665,84.41z"/>
<circle fill-rule="evenodd" clip-rule="evenodd" fill="#A344CD" cx="216" cy="70.376" r="4.291"/>
<path fill="#A344CD" d="M153.126,100.807c0,0.656-0.538,1.193-1.192,1.193h-3.869c-0.656,0-1.191-0.537-1.191-1.193l0,0
	c0-0.654,0.535-1.191,1.191-1.191h3.869C152.588,99.615,153.126,100.152,153.126,100.807L153.126,100.807z"/>
<path fill="#A344CD" d="M141.503,73.553c0.237,0,0.479-0.035,0.718-0.109l8.844-2.783c1.257-0.396,1.954-1.736,1.559-2.992
	c-0.396-1.256-1.734-1.951-2.99-1.559l-8.846,2.783c-1.256,0.395-1.953,1.734-1.559,2.99
	C139.55,72.902,140.49,73.553,141.503,73.553z"/>
<path fill="#A344CD" d="M141.504,80.031c0.242,0,0.489-0.039,0.732-0.117l16.992-5.484c1.252-0.404,1.941-1.748,1.537-3
	c-0.404-1.254-1.746-1.943-3.002-1.539l-16.992,5.484c-1.252,0.404-1.941,1.75-1.537,3.002
	C139.561,79.387,140.497,80.031,141.504,80.031z"/>
<path fill="#A344CD" d="M157.764,76.283l-16.992,5.484c-1.252,0.402-1.941,1.75-1.537,3.002c0.326,1.01,1.263,1.654,2.27,1.654
	c0.242,0,0.489-0.041,0.732-0.117l16.992-5.484c1.252-0.402,1.941-1.748,1.537-3.002C160.361,76.568,159.02,75.881,157.764,76.283z"
	/>
<path fill="#A344CD" d="M157.764,82.789l-16.992,5.482c-1.252,0.406-1.941,1.75-1.537,3.004c0.326,1.01,1.263,1.652,2.27,1.652
	c0.242,0,0.489-0.037,0.732-0.115l0.311-0.102l2.395,1.746c0.119,0.105,0.234,0.195,0.352,0.273l0.391,4.365h8.587l0.443-4.416
	h-0.022l2.351-3.193c0.005-0.004,1.56-1.52,1.56-1.979l0.317-2.08l0.31-0.1c1.252-0.404,1.941-1.748,1.537-3.002
	S159.02,82.387,157.764,82.789z M154.837,90.115l-1.606,2.545h-6.335l-0.974-1.037l8.418-2.717L154.837,90.115z"/>
<path fill="#A344CD" d="M25.113,98.398c-0.412,0-0.75-0.227-0.75-0.502s-0.338-0.5-0.75-0.5H12.387c-0.412,0-0.749,0.225-0.749,0.5
	s-0.339,0.502-0.75,0.502H9.66c-0.412,0-0.75,0.336-0.75,0.748v1.41c0,0.412,0.338,0.748,0.75,0.748h16.68
	c0.413,0,0.751-0.336,0.751-0.748v-1.41c0-0.412-0.338-0.748-0.751-0.748H25.113z"/>
<rect x="14.728" y="88.943" fill="#A344CD" width="6.545" height="6.727"/>
<path fill="#A344CD" d="M35.999,70.109l-0.04-1.414h-7.655l0.15-1.818L18,66.695L7.546,66.877l0.15,1.818H0.042l-0.04,1.414
	c-0.005,0.223-0.115,5.473,3.051,8.729c1.477,1.518,3.393,2.34,5.689,2.467L8.82,82.24c0,0,0.818,4.182,9.18,4.182
	c8.363,0,9.182-4.182,9.182-4.182l0.078-0.936c2.297-0.127,4.213-0.949,5.688-2.467C36.114,75.582,36.003,70.332,35.999,70.109z
	 M5.148,76.82c-1.471-1.504-1.977-3.764-2.149-5.215h4.939L8.5,78.371C7.127,78.225,6.023,77.715,5.148,76.82z M27.501,78.371
	l0.561-6.766h4.936c-0.176,1.453-0.684,3.711-2.137,5.207C29.985,77.713,28.877,78.223,27.501,78.371z"/>
<path fill="#A344CD" d="M277.295,74.965h5.972v4.957h-5.972v8.002h-5.25v-8.002h-5.991v-4.957h5.991v-7.729h5.25V74.965z"/>
<path fill="#A344CD" d="M298.357,100.765h-9.699v-4.43h9.699V100.765z"/>
<rect x="286.149" y="70.121" transform="matrix(0.7071 0.7071 -0.7071 0.7071 145.1783 -177.7472)" fill="#A344CD" width="2" height="32.501"/>
<path fill="#442E60" d="M366.489,7.579l-17.404,11.104h-0.861L331,7.579V3.092l17.632,10.062l17.857-10.062V7.579z M366.489,19.771
	l-17.404,11.104h-0.861L331,19.771v-4.488l17.632,10.062l17.857-10.062V19.771z"/>
<path fill="#E6E6E6" d="M331,92.388l17.404-11.104h0.861l17.223,11.104v4.487l-17.631-10.062L331,96.875V92.388z M331,80.195
	l17.404-11.104h0.861l17.223,11.104v4.488l-17.631-10.062L331,84.684V80.195z"/>
</svg>
