<?xml version="1.0" encoding="utf-8"?>
<!-- Generator: Adobe Illustrator 15.0.0, SVG Export Plug-In . SVG Version: 6.00 Build 0)  -->
<!DOCTYPE svg PUBLIC "-//W3C//DTD SVG 1.1//EN" "http://www.w3.org/Graphics/SVG/1.1/DTD/svg11.dtd">
<svg version="1.1" id="Layer_1" xmlns="http://www.w3.org/2000/svg" xmlns:xlink="http://www.w3.org/1999/xlink" x="0px" y="0px"
	 width="1500px" height="1500px" viewBox="0 0 1500 1500" enable-background="new 0 0 1500 1500" xml:space="preserve">
<path fill="#09252E" d="M590.718,537.637c0,1.077,374.399,0.601,374.761,0.601c0.553,0,0.359-0.2,0.359-0.672
	c0-1.667,0-53.562,0-57.072c0-0.92-1.525,0.25-1.465-0.686c0.017-0.262,0.241-1.064-0.215-1.091
	c-1.137,0.252-1.693-0.303-1.44-1.439c-0.359,0-0.72,0-1.08,0c-0.562,0-0.358-0.241-0.358-0.721c0-0.905-0.193-0.914-1.021-0.968
	c-0.607-0.04-0.452-0.553-0.391-0.941c0.113-0.724-1.056-0.49-1.469-0.49c-0.119-0.365,0.071-0.773,0.026-1.147
	c-0.062-0.516-0.998-0.293-1.347-0.293c-0.843,0-0.055-1.06-0.404-1.583c-0.207-0.311-0.938-0.052-1.236-0.068
	c-0.61-0.036,0.396-1.468-0.52-1.468c-0.36,0-0.72,0-1.08,0c0-0.359,0-0.72,0-1.08c0-0.575-0.223-0.586-0.745-0.574
	c-0.747,0.015-0.6-0.223-0.688-0.848c-0.114-0.802-0.657-0.617-1.326-0.617c-0.979,0,0.257-1.44-0.72-1.44c-0.36,0-0.721,0-1.08,0
	c0-0.36,0-0.72,0-1.08c0-0.688-0.274-0.662-0.887-0.594c-0.801,0.089-0.457-0.354-0.582-0.987c-0.119-0.61-0.471-0.473-0.959-0.433
	c-1.05,0.087,0.202-1.466-1.054-1.466c-0.36,0-0.72,0-1.08,0c0-0.36,0-0.721,0-1.08c0-0.558-0.12-0.676-0.676-0.618
	c-0.785,0.081-0.764,0.042-0.764-0.782c0-1.108-0.989-0.247-1.44-0.88c-0.235-0.33,0.215-0.729-0.047-1.05
	c-0.356-0.438-1.446,0.237-1.413-0.444c0.054-1.121-0.074-1.403-1.208-1.485c-0.818-0.06-320.012,0.259-323.128,0.128
	c-0.322-0.014-1.021-0.229-1.266,0.078c-0.151,0.191-0.06,0.63-0.06,0.854c0,0.754,0.034,0.72-0.72,0.72
	c-0.48,0-0.72-0.204-0.72,0.36c0,0.48,0.234,1.08-0.336,1.08c-0.336,0-0.673,0-1.009,0c-0.57,0-0.336,0.599-0.336,1.08
	c0,0.563-0.239,0.359-0.72,0.359c-0.727,0-0.72-0.058-0.72,0.672c0,0.336-0.96,1.008-1.44,1.008c0,0.36,0,0.721,0,1.08
	c0,0.489-0.125,0.414-0.554,0.366c-0.917-0.102-0.886,0.146-0.886,1.034c0,0.595-0.164,0.4-0.672,0.4
	c-0.476,0-1.009-0.227-1.009,0.336c0,0.336,0,0.672,0,1.008c0,0.585-0.707,0.336-1.199,0.336c-0.457,0.024-0.232,0.829-0.216,1.091
	c0.039,0.605-0.563,0.331-0.99,0.316c-0.755-0.026-0.475,0.966-0.475,1.473c-0.413,0.135-0.896-0.176-1.295,0.012
	c-0.677,0.32,0.479,1.668-0.505,1.668c-0.44,0-0.88,0-1.32,0c0,0.48,0,0.96,0,1.44c-0.589-0.032-1.439-0.15-1.439,0.6
	c0,0.36,0,0.721,0,1.08c-0.36,0-0.72,0-1.08,0c-0.979,0,0.258,1.44-0.72,1.44c-0.36,0-0.721,0-1.08,0
	c-0.078,0.237-0.008,0.523,0.018,0.764c0.057,0.555-0.055,0.672-0.607,0.662c-0.291-0.006-0.615-0.003-0.889,0.119
	c-0.344,0.155-0.202,0.539-0.202,0.854c0,0.48,0.204,0.721-0.359,0.721c-0.36,0-0.721,0-1.08,0c0,0.359,0,0.72,0,1.079
	c0,0.603-0.572,0.36-1.08,0.36c-0.564,0-0.36,0.24-0.36,0.72c0,0.32,0,0.641,0,0.959"/>
<path fill="#09252E" d="M937.998,632.316c-3.224,0-6.468-0.106-9.688,0.015c-2.808,0.106-5.658-0.3-8.449,0.121
	c-0.612,0.092-1.156,0.069-1.768,0.059c-0.396-0.007-0.254,0.602-0.248,0.832c0.011,0.424-0.159,0.57-0.269,0.94
	c-0.195,0.656,0.021,1.727,0.021,2.427c0,3.321,0,6.643,0,9.964c0,13.287,0,26.573,0,39.859c0,6.643,0,13.286,0,19.93
	c0,3.321,0,6.643,0,9.965c0,1.594,0,3.188,0,4.782c0,0.798,0,1.595,0,2.392c0,0.398,0,0.799,0,1.196
	c0.134,0.397,0.001,0.53-0.396,0.398c-0.266,0-0.529,0-0.793,0c-6.611,0-13.224,0-19.834,0c-1.586,0-3.173,0-4.76,0
	c-0.794,0-1.587,0-2.381,0c-0.573,0-1.39-0.156-1.92,0.123c-0.314,0.165-0.826-0.116-1.057,0.297
	c-0.218,0.391-0.058,0.961-0.079,1.382c-0.079,1.588-0.135,3.178-0.175,4.768c-0.157,6.327-0.063,12.657-0.025,18.985
	c0.02,3.162,0.024,6.324-0.021,9.485c0,0.336,0,0.672,0,1.008c0,0.472-0.192,0.672,0.358,0.672c0.759,0,1.517,0,2.272,0
	c1.723,0,3.445,0,5.169,0c13.251,0,26.503,0,39.754,0c6.589,0,13.177,0,19.765,0c0.554,0,0.36-0.2,0.36-0.672
	c0-0.336,0-0.672,0-1.008c0-0.797,0-1.594,0-2.391c0-1.726,0-3.451,0-5.177c0-3.319,0-6.638,0-9.957c0-13.275,0-26.55,0-39.825
	c0-6.105,0-12.213,0-18.318c0-3.055,0-6.106,0-9.16c0-1.593,0-3.187,0-4.779c0-0.397,0-0.796,0-1.193
	c0-0.605,0.203-0.398,0.72-0.398c0.721,0,1.44,0,2.16,0c-0.348-1.314,0.542-1.629,1.68-1.44c0-9.338,0-18.676,0-28.014
	c0-2.198,0-4.396,0-6.594c0-0.704,0.032-0.672-0.672-0.672c-0.602,0-1.203,0-1.805,0c-1.194,0-2.39,0-3.584,0
	C947.557,632.316,942.777,632.316,937.998,632.316C934.878,632.316,944.238,632.316,937.998,632.316z"/>
<path fill="#09252E" d="M592.398,699.516c0-26.438,0-52.877,0-79.315c0-3.324,0-6.649,0-9.974c0-0.798,0-1.596,0-2.394
	c0-0.399,0-0.798,0-1.197c0.399,0,0.8,0,1.199,0c1.733,0,3.467,0,5.2,0c6.667,0,13.333,0,20,0c1.601,0,3.2,0,4.8,0
	c0.32,0,0.641,0,0.96,0c0.48,0,0.721,0.204,0.721-0.359c0-0.837,0-1.676,0-2.513c0-3.31,0-6.619,0-9.929c0-6.619,0-13.238,0-19.857
	c0-0.794,0-1.588,0-2.383c0-0.321,0.187-1.422-0.069-1.645c-0.539-0.47-1.371,0.56-1.371-0.575c0-0.3,0-0.6,0-0.9
	c-0.359,0-0.72,0-1.08,0c-0.784,0-1.567,0-2.353,0c-1.728,0-3.454,0-5.182,0c-6.642,0-13.283,0-19.926,0c-6.642,0-13.284,0-19.926,0
	c-3.321,0-6.643,0-9.963,0c-1.595,0-3.188,0-4.782,0c-0.797,0-1.594,0-2.391,0c-0.373,0-0.746,0-1.118,0
	c-0.754,0-0.72-0.033-0.72,0.721c0,12.977-0.282,25.955-0.28,38.936c0.001,13.118,0.063,26.237,0.073,39.355
	c0.002,3.271,0.001,6.544-0.005,9.815c-0.003,1.567-0.007,3.134-0.012,4.701c-0.003,0.783-0.006,1.564-0.009,2.348
	c-0.002,0.392-0.003,0.782-0.005,1.173c-0.003,0.64-0.54,0.392-1.082,0.392c-0.576,0-3.394-0.336-3.501,0.313
	c-0.066,0.398,0.077,0.802,0.048,1.201c-0.059,0.843-0.027,1.7-0.027,2.547c0,3.286,0,6.572,0,9.857c0,6.448,0,12.896,0,19.344
	c0,0.526,0.225,0.336,0.673,0.336c0.336,0,0.672,0,1.008,0c0.796,0,1.593,0,2.39,0c1.726,0,3.452,0,5.178,0c3.319,0,6.639,0,9.957,0
	C578.001,699.516,585.2,699.516,592.398,699.516C592.398,698.957,591.838,699.516,592.398,699.516z"/>
<path fill="#09252E" d="M1350.885,792.288c-26.631,0-116.512,0.094-116.5,0c0.083-0.654-0.25-30.334,0.083-30.334
	c0.25,0,38.771,0.221,38.833-0.291c0.125-1,0.25-189.849,0.25-193.125c-3.108,0-38.473,0.141-38.458,0.042
	c0.011-0.072-0.042-28.958-0.209-30.125c-0.057-0.396,116.497,0.042,116.5,0c0.042-0.667-0.225-45.485-0.225-58.814
	c0-26.658,0-53.317,0-79.977s0-53.317,0-79.976c0-13.33,0-26.659,0-39.988c0-6.58,0-13.159,0-19.739
	c0-0.538-0.265-0.336-0.719-0.336c-0.373,0-0.746,0-1.119,0c-0.799,0-1.597,0-2.394,0c-1.729,0-3.457,0-5.184,0
	c-3.324,0-6.646,0-9.969,0c-13.293,0-26.584,0-39.875,0c-3.322,0-6.646,0-9.969,0c-1.597,0-3.189,0-4.785,0
	c-0.797,0-1.597,0-2.394,0c-0.397,0-0.797,0-1.196,0c-0.396,0.133-0.529,0.001-0.398-0.396c0-0.264,0-0.528,0-0.792
	c0-6.598,0-13.195,0-19.792c0-2.375,0-4.75,0-7.125c0-1.152,0-2.303,0-3.455c0-0.602,0.572-0.36,1.08-0.36c0.5,0,1,0,1.5,0
	c0.859,0,0.479-0.67,0.514-1.28c0.029-0.503,1.16,0.139,1.424-0.256c0.17-0.258,0.043-0.924,0.043-1.224
	c-0.121-0.36,0-0.48,0.359-0.36c0.361,0,0.721,0,1.08,0c0.729,0,1.803,0.336,1.697-0.676c-0.023-0.24-0.095-0.526-0.019-0.764
	c0.48,0,0.961,0,1.441,0c0.479,0,0.959,0,1.438,0c0-0.56,0-1.12,0-1.68c0-0.48,0-0.96,0-1.44c0.24,0,0.48,0,0.722,0
	c0.479,0,0.719,0.204,0.719-0.36c0-0.508-0.24-1.08,0.36-1.08c0.269,0,1.091,0.155,1.285-0.069c0.254-0.294-0.09-0.864,0.021-1.212
	c0.072-0.226,0.383-0.159,0.553-0.159c0.199,0,0.4,0,0.6,0c0.486,0,0.302-0.261,0.302-0.672c0-0.501-0.232-1.008,0.358-1.008
	c0.24,0,0.48,0,0.722,0c0.562,0,0.358-0.24,0.358-0.72c0-0.24,0-0.479,0-0.72c0.359,0,0.721,0,1.08,0c0.359,0.12,0.48,0,0.359-0.36
	c0-0.36,0-0.72,0-1.08c0.805,0.159,1.69,0.038,1.746-0.943c0.032-0.595-0.066-1.216-0.066-1.817c0-0.946,1.125,0.138,1.43-0.505
	c0.156-0.333-0.037-0.784-0.016-1.135c0.035-0.611,0.027-1.226,0.027-1.84c0.358,0,0.719,0,1.08,0c0.562,0,0.358-0.24,0.358-0.72
	c0-0.352-0.149-2.168,0.158-2.187c0.352-0.021,0.803,0.172,1.137,0.016c0.342-0.162,0.146-1.349,0.146-1.668c0-0.36,0-0.72,0-1.08
	c0-0.564,0.239-0.36,0.721-0.36c0.662,0,1.057,0.089,0.977-0.676c-0.116-1.154-0.018-2.36-0.018-3.524c0-0.712,0-1.424,0-2.136
	c0-0.336,0-0.672,0-1.008c0-0.571,0.6-0.336,1.08-0.336c0.563,0,0.361-0.24,0.361-0.72c0-0.36,0-0.72,0-1.08c0-0.733,0-1.466,0-2.2
	c0-1.587,0-3.173,0-4.76c0-0.77,0-1.54,0-2.31c0-0.39,0-0.78,0-1.17c-0.361,0-0.722,0-1.08,0c-0.564,0-0.361-0.24-0.361-0.72
	c0-0.352,0-0.704,0-1.056c0-0.808,0-1.616,0-2.424c0-0.712,0-1.424,0-2.136c0-0.336,0-0.672,0-1.008
	c0-0.526-0.223-0.336-0.672-0.336c-0.336,0-0.672,0-1.008,0c0-0.36,0-0.72,0-1.081c0-0.824,0-1.648,0-2.472c0-1.296,0-2.592,0-3.888
	c-0.359,0-0.72,0-1.08,0c-0.564,0-0.359-0.24-0.359-0.72c0-0.662,0.088-1.056-0.676-0.977c-0.74,0.076-0.764,0.082-0.764-0.703
	c0-0.571,0.012-1.118,0.032-1.686c0.019-0.535-0.391-0.523-0.815-0.47c-0.775,0.097-0.658-0.285-0.658-0.964
	c0-0.455,0.201-0.72-0.336-0.72c-0.447,0-0.896,0-1.344,0c0-0.84,0-1.68,0-2.52c0-0.564-0.24-0.36-0.72-0.36
	c-0.756,0-0.721,0.035-0.721-0.72c0-0.662,0.088-1.057-0.676-0.978c-0.59,0.061-0.847,0.14-0.771-0.537
	c0.063-0.557,0.111-0.886-0.535-0.886c-0.299,0-0.6,0-0.899,0c0-0.48,0-0.96,0-1.44c0-0.336,0-0.672,0-1.008
	c0-0.704,0.032-0.672-0.672-0.672c-0.337,0-0.673,0-1.009,0c0-0.48,0-0.96,0-1.44c-0.84,0-1.68,0-2.52,0
	c-0.693,0-0.271-0.632-0.332-1.147c-0.064-0.52-1.107-0.293-1.469-0.293c0.16-0.804,0.039-1.691-0.941-1.745
	c-0.596-0.033-1.217,0.065-1.818,0.065c-0.563,0-0.358-0.24-0.358-0.72c0-0.754,0.032-0.72-0.722-0.72
	c-0.782,0-0.776-0.024-0.7-0.764c0.053-0.51-0.033-0.676-0.56-0.676c-0.619,0-1.24,0-1.858,0c-0.48,0-0.722,0.204-0.722-0.36
	c0-0.343,0.103-0.878-0.014-1.203c-0.176-0.495-1.236,0.261-1.412-0.234c-0.186-0.526,0.359-1.323-0.373-1.323
	c-0.74,0-1.479,0-2.221,0c-0.66,0-1.32,0-1.98,0c0-0.36,0-0.72,0-1.08c0-0.564-0.239-0.36-0.719-0.36c-1.521,0-3.041,0-4.561,0
	c-0.722,0-1.439,0-2.16,0c-0.359,0-0.721,0-1.08,0c-0.553,0-0.359-0.2-0.359-0.672c0-0.336,0-0.672,0-1.008c-0.36,0-0.721,0-1.08,0
	c-0.801,0-1.6,0-2.399,0c-2.961,0-5.92,0-8.881,0c-0.541,0-1.104,0.064-1.644,0.013c-0.279-0.026-0.846-0.175-1.059,0.093
	c-0.398,0.504,0.445,1.573-0.418,1.573c-0.809,0-1.615,0-2.424,0c-1.433,0-2.865,0-4.297,0c-0.681,0-1.359,0-2.039,0
	c0,0.36,0,0.72,0,1.08c0,0.574-0.412,0.36-0.9,0.36c-0.477,0-3.43-0.158-3.447,0.16c-0.02,0.33,0.095,0.658,0.056,0.987
	c-0.063,0.516-0.998,0.293-1.349,0.293c-0.352-0.12-0.473-0.008-0.358,0.336c0,0.336,0,0.672,0,1.008
	c0,0.509-0.166,0.336-0.601,0.336c-0.28,0-0.561,0-0.84,0c-0.36,0-0.721,0-1.08,0c-0.563,0-0.36,0.24-0.36,0.72
	c0,0.479,0.205,0.72-0.359,0.72c-0.358,0-0.721,0-1.08,0c0.125,0.567,0.15,1.351-0.565,1.49c-0.304,0.059-0.845-0.175-0.99,0.107
	c-0.232,0.443-0.121,1.045-0.123,1.523c-0.84,0-1.68,0-2.521,0c-0.602,0-0.36,0.572-0.36,1.08c0,0.602-0.572,0.36-1.08,0.36
	c-0.793,0-0.127,0.777-0.371,1.295c-0.184,0.388-1.861,0.126-2.26,0.136c-1.109,0.028-0.849,0.792-0.849,1.689
	c-0.114,0.352,0.263,1.157-0.098,1.396c-0.229,0.152-0.779,0.043-1.043,0.043c-0.522,0-0.301,0.639-0.301,1.08
	c0,0.602-0.572,0.36-1.08,0.36c-0.353-0.12-0.474-0.008-0.359,0.336c0,0.336,0,0.672,0,1.008c0,0.472,0,0.944,0,1.416
	c0,0.601-0.571,0.36-1.08,0.36c-0.809,0-0.616,0.442-0.573,1.091c0.051,0.822-1.465-0.14-1.465,0.948c0,0.706,0.11,1.53,0.026,2.228
	c-0.102,0.828-1.469-0.277-1.469,0.653c0,0.26,0.151,1.089-0.158,1.107c-0.271,0.016-0.539-0.05-0.807-0.06
	c-0.793-0.028-0.476,1.19-0.476,1.712c0,0.96,0,1.92,0,2.88c-0.487-0.097-1.164-0.163-1.52,0.272
	c-0.398,0.485-0.16,1.186-0.16,1.744c0,1.888,0,3.776,0,5.664c-0.807-0.182-1.453,0.07-1.49,0.962
	c-0.047,1.153,0.051,2.342,0.051,3.502c0,0.592,0,1.184,0,1.776c0,0.36,0,0.72,0,1.08c0,0.564-0.239,0.36-0.721,0.36
	c-0.24,0-0.479,0-0.721,0c0,0.36,0,0.72,0,1.08c0,0.45-0.207,1.568,0.045,1.943c0.154,0.234,0.623,0.115,0.842,0.091
	c0.787-0.087,0.556,0.428,0.556,1.086c0,1.28,0,2.56,0,3.84c0,1.288,0,2.576,0,3.864c0,1.054,0.383,2.182,0.237,3.216
	c0.302,0,0.603,0,0.9,0c0.461,0,0.301,0.181,0.301,0.6c0,0.539,0.064,1.101,0.006,1.634c-0.026,0.244-0.17,0.863,0.234,0.886
	c0.359,0,0.719,0,1.08,0c0.6,0,0.359,0.573,0.359,1.081c0,0.68,0,1.36,0,2.04c0.358,0,0.721,0,1.08,0c0.563,0,0.358,0.24,0.358,0.72
	c0,0.72,0,1.44,0,2.16c0.027,0.457,0.83,0.232,1.092,0.215c0.619-0.04,0.351,0.993,0.351,1.465c0.119,0.365-0.072,0.773-0.027,1.147
	c0.059,0.483,0.834,0.293,1.166,0.293c0.83,0-0.195,1.68,0.541,1.68c0,0.36,0,0.72,0,1.08c0,0.564,0.24,0.36,0.719,0.36
	c0.48,0,0.722-0.204,0.722,0.36c0,0.36,0,0.72,0,1.08c0.364,0.12,0.772-0.072,1.146-0.027c0.664,0.081,0.082,1.229,0.338,1.61
	c0.183,0.274,0.791,0.088,1.047,0.072c0.537-0.034,0.373,0.381,0.332,0.789c-0.053,0.51,0.033,0.676,0.558,0.676
	c0.301,0,0.6,0,0.899,0c0.078,0.238,0.009,0.524-0.018,0.764c-0.057,0.556,0.061,0.676,0.617,0.676c0.358,0,0.721,0,1.08,0
	c0,0.36,0,0.72,0,1.08c0,0.557,0.121,0.675,0.676,0.618c0.199-0.021,0.402-0.057,0.604-0.045c0.312,0.019,0.158,0.847,0.158,1.107
	c0,0.564,0.24,0.36,0.721,0.36c0.32,0,0.642,0,0.959,0c0,0.36,0,0.72,0,1.08c0,0.535,0.146,0.36,0.603,0.36c0.639,0,1.279,0,1.92,0
	c0.98,0-0.174,1.349,0.504,1.668c0.461,0.217,2.734-0.317,2.764,0.172c0.021,0.351-0.174,0.802-0.016,1.135
	c0.158,0.337,1.346,0.146,1.668,0.146c0.359,0,0.719,0,1.08,0c0.562,0,0.359,0.24,0.359,0.72c0,0.768,0,1.535,0,2.303
	c0,1.715,0,3.43,0,5.146c0,3.299,0,6.598,0,9.896s0,6.597,0,9.896c0,0.792,0,1.583,0,2.375c0,0.396,0,0.792,0,1.188
	c0,0.622-0.271,0.396-0.799,0.396c-1.732,0-3.466,0-5.195,0c-13.322,0-26.643,0-39.965,0c-26.646,0-53.289,0-79.933,0
	c-26.646,0-53.293,0-79.938,0c-26.648,0-53.295,0-79.943,0c-26.647,0-53.299,0-79.947,0c-26.649,0-53.299,0-79.948,0
	c-26.65,0-53.302,0-79.951,0c-26.65,0-53.301,0-79.951,0s-53.3,0-79.951,0c-26.648,0-53.299,0-79.948,0c-26.648,0-53.296,0-79.945,0
	c-26.647,0-53.294,0-79.941,0c-26.646,0-53.291,0-79.937,0c-5.195,0-10.391,0-15.586,0c-0.533,0-1.066,0-1.599,0
	c-0.398,0.133-0.532,0.001-0.4-0.396c0-0.396,0-0.792,0-1.188c0-1.319,0-2.639,0-3.958c0-2.639,0-5.278,0-7.917
	c0-5.146,0-10.292,0-15.438c0-0.528,0-1.056,0-1.583c0.24,0,0.48,0,0.72,0c0.479,0,0.72,0.204,0.72-0.36c0-0.24,0-0.48,0-0.72
	c0-0.564,0.24-0.36,0.72-0.36c0.24,0,0.48,0,0.72,0c0-0.36,0-0.72,0-1.08c-0.12-0.36,0-0.48,0.36-0.36c0.36,0,0.72,0,1.08,0
	c0.36,0.071,0.761,0.116,1.117-0.003c0.708-0.238,0.682-1.074,0.563-1.677c0.72,0,1.44,0,2.16,0c0.48,0,0.72,0.204,0.72-0.36
	c0-0.36,0-0.72,0-1.08c0.36,0,0.72,0,1.08,0c0.564,0,0.36-0.24,0.36-0.72c0-0.456-0.202-0.72,0.336-0.72c0.448,0,0.896,0,1.344,0
	c0-0.336,0-0.672,0-1.008c0-0.508-0.195-0.672,0.4-0.672c0.683,0,0.952,0.045,1.036-0.666c0.107-0.907,0.562-0.972,1.444-0.774
	c0-0.472-0.271-1.504,0.349-1.465c0.257,0.017,0.865,0.203,1.048-0.072c0.349-0.523-0.438-1.583,0.403-1.583
	c0.497,0,1.378,0.25,1.353-0.474c-0.019-0.532-0.307-0.966,0.367-0.966c0.492,0,0.8,0.222,0.8-0.36c0-0.36,0-0.72,0-1.08
	c0.377-0.073,0.275-0.642,0.249-0.904c-0.021-0.202-0.05-0.408-0.035-0.611c0.022-0.32,0.837-0.165,1.107-0.165
	c0.564,0,0.36-0.24,0.36-0.72c0-0.36,0-0.72,0-1.08c0-0.658-0.233-1.173,0.554-1.086c0.244,0.027,0.863,0.169,0.886-0.234
	c0-0.84,0-1.68,0-2.52c0-0.842,1.06-0.055,1.583-0.403c0.274-0.183,0.088-0.791,0.072-1.048c-0.035-0.552,0.025-1.135,0.025-1.693
	c0-0.538,0.265-0.336,0.72-0.336c0.754,0,0.72,0.034,0.72-0.72c0-0.688,0-1.376,0-2.064c0-0.352,0-0.704,0-1.056
	c0-0.479-0.204-0.72,0.36-0.72c0.36,0,0.72,0,1.08,0c0-0.336,0-0.672,0-1.008c0-0.736,0-1.472,0-2.208c0-1.308,0-2.616,0-3.924
	c0-0.66,0-1.32,0-1.98c0.36,0,0.72,0,1.08,0c0.602,0,0.36-0.572,0.36-1.08c0-1.4,0-5.601,0-4.2c0,1.996,0.07-0.188-0.822-4.044
	c-0.498-2.152-1.084-4.355-1.338-4.355c-0.754,0-0.72,0.034-0.72-0.72c0-1.64,0-3.28,0-4.92c0-1.13,0.15-2.399-1.44-2.04
	c0-0.928,0-1.856,0-2.784c0-0.562-0.534-0.336-1.008-0.336c-0.224,0-0.448,0-0.672,0c0-0.36,0-0.72,0-1.08c0-0.48,0-0.96,0-1.44
	c0.12-0.36,0-0.48-0.36-0.36c-0.36,0-0.72,0-1.08,0c0-0.728,0.336-1.802-0.676-1.698c-0.765,0.079-0.825,0.018-0.747-0.747
	c0.081-0.783-0.378-0.701-1.003-0.65c-0.832,0.068-0.454-1.637-0.454-2.186c0-0.425,0.136-0.785-0.357-0.912
	c-0.427-0.11-0.889-0.047-1.323-0.048c0-0.36,0-0.72,0-1.08c0-0.564-0.24-0.36-0.72-0.36s-0.72,0.204-0.72-0.36
	c0-0.36,0-0.72,0-1.08s0-0.72,0-1.08c0-0.564-0.24-0.36-0.72-0.36c-0.95,0-0.96-0.01-0.96-0.96c0-0.519,0.208-0.72-0.4-0.72
	c-0.347,0-0.693,0-1.04,0c-0.36,0-0.72,0-1.08,0c-0.564,0-0.36-0.24-0.36-0.72c0-0.479,0.204-0.72-0.36-0.72c-0.36,0-0.72,0-1.08,0
	c0-0.36,0-0.72,0-1.08c0-0.301-3.847-5.092-11.419-7.446c-7.573-2.355-18.871-2.273-19.661-2.273c-1.4,0-5.435-0.092-6.041,0.013
	c-0.592,0.103-1.149,0.278-1.759,0.227c0,0.48,0,0.96,0,1.44c-0.56,0-1.12,0-1.68,0c-1.173,0-2.347,0-3.52,0
	c-0.603,0-1.205,0-1.808,0c-0.224,0-0.448,0-0.672,0c0,0.36,0,0.72,0,1.08c0.12,0.36,0,0.48-0.36,0.36c-0.36,0-0.72,0-1.08,0
	c-0.56,0-1.12,0-1.68,0c-0.969,0-1.557-0.219-1.434,0.886c0.117,1.048-0.685,0.275-1.301,0.566
	c-0.093,0.046-0.142,0.122-0.145,0.228c-0.36,0-0.72,0-1.08,0c-0.36-0.12-0.48,0-0.36,0.36c0,0.36,0,0.72,0,1.08
	c-0.981,0-1.807-0.308-1.674,0.886c0.051,0.46,0.119,0.554-0.406,0.554c-0.586,0-1.173,0-1.76,0c-0.24,0-0.479,0-0.72,0
	c0,0.36,0,0.72,0,1.08c0,0.562-0.299,0.39-0.764,0.342c-0.225-0.023-0.657-0.077-0.676,0.258c0,0.24,0,0.48,0,0.72
	c0,0.479,0.204,0.72-0.36,0.72c-1.185,0-1.37-0.074-1.295,1.091c0.039,0.608-0.77,0.349-1.225,0.349c-0.56,0-1.12,0-1.68,0
	c0,0.291,0.149,1.449-0.16,1.467c-0.33,0.019-0.658-0.094-0.987-0.054c-0.455,0.055-0.293,0.672-0.293,0.987c0,0.24,0,0.48,0,0.72
	c-0.336,0-0.672,0-1.008,0c-0.224,0-0.448,0-0.672,0c0,0.36,0,0.72,0,1.08c0,0.6,0,1.2,0,1.8c-1.264-0.286-1.607,0.573-1.44,1.68
	c-0.36,0-0.72,0-1.08,0c-0.564,0-0.36,0.24-0.36,0.72s0.204,0.72-0.36,0.72c-0.36,0-0.72,0-1.08,0c0,0.68,0,1.36,0,2.04
	c0,0.36,0,0.72,0,1.081c-0.36,0-0.72,0-1.08,0c-0.557,0-0.675,0.121-0.618,0.676c0.081,0.786,0.042,0.764-0.782,0.764
	c-0.607,0-0.4,0.202-0.4,0.72c0,0.343,0.037,0.584-0.117,0.877c-0.232,0.443-0.121,1.045-0.123,1.523c-0.36,0-0.72,0-1.08,0
	c-0.564,0-0.36,0.24-0.36,0.72c0,0.72,0,1.44,0,2.16c0,0.68,0,1.36,0,2.04c0,0.36,0,0.72,0,1.08
	c-0.238,0.078-0.524,0.007-0.764-0.018c-0.555-0.057-0.676,0.061-0.676,0.618c0,0.84,0,1.68,0,2.52c0,1.52,0,3.04,0,4.56
	c-0.346,0-1.478-0.206-1.657,0.167c-0.162,0.334-0.009,0.806,0.005,1.158c0.059,1.424-0.028,2.885-0.028,4.316
	c0,1.496,0,2.992,0,4.488c0,0.589-0.078,1.184,0.041,1.766c0.123,0.604,0.286,1.161,0.2,1.786c0.36,0,0.72,0,1.08,0
	c0.564,0,0.36,0.24,0.36,0.72c0,0.72,0,1.439,0,2.16c0,1.48,0,2.96,0,4.44c0,0.978,1.44-0.258,1.44,0.72c0,0.72,0,1.44,0,2.161
	c0,0.557,0.121,0.674,0.676,0.617c0.2-0.021,0.403-0.057,0.604-0.045c0.311,0.019,0.16,0.847,0.16,1.107
	c0,0.449-0.017,0.877-0.033,1.326c-0.023,0.651,0.591,0.474,1.073,0.474c0.607,0,0.4,0.202,0.4,0.72c0,0.32,0,0.64,0,0.96
	c0.135,0.413-0.176,0.896,0.012,1.295c0.162,0.343,1.348,0.145,1.668,0.145c0,0.72,0,1.44,0,2.16c0,0.471-0.15,1.015,0.474,0.993
	c0.207-0.007,0.412-0.044,0.618-0.058c0.519-0.033,0.349,0.323,0.349,0.745c0,0.479-0.204,0.72,0.36,0.72c0.36,0,0.72,0,1.08,0
	c0.12,0.365-0.072,0.773-0.027,1.147c0.065,0.536,1.107,0.293,1.467,0.293c0,0.336,0,0.672,0,1.008c0,0.704-0.032,0.672,0.672,0.672
	c0.336,0,0.672,0,1.008,0c0,0.36,0,0.72,0,1.08c0,0.978,1.44-0.258,1.44,0.72c0,0.72,0,1.44,0,2.16c0,0.564,0.24,0.36,0.72,0.36
	c0.24,0,0.48,0,0.72,0c-0.015,0.175,0.065,0.255,0.24,0.24c0,0.36,0,0.72,0,1.08c0,0.582,0.308,0.36,0.8,0.36
	c0.693,0,1.387,0,2.08,0c0,0.36,0,0.72,0,1.08c0,0.564,0.24,0.36,0.72,0.36c0.36,0,0.72,0,1.08,0c0.481,0,1.08-0.235,1.08,0.336
	c0,0.336,0,0.672,0,1.008c0,0.538,0.265,0.336,0.72,0.336c0.32,0,0.64,0,0.96,0c0,0.36,0,0.72,0,1.08c0,0.564,0.24,0.36,0.72,0.36
	c0.36,0,0.72,0,1.08,0s0.72,0,1.08,0c0,0.48,0,0.96,0,1.44c0.36,0,0.72,0,1.08,0c0.58,0,0.36,0.301,0.36,0.792
	c0,0.792,0,1.583,0,2.375c0,1.715,0,3.431,0,5.146c0,3.299,0,6.598,0,9.896c0,3.299,0,6.598,0,9.896c0,0.792,0,1.583,0,2.375
	c-0.796,0-1.593,0-2.39,0c-1.726,0-3.452,0-5.178,0c-13.277,0-26.553,0-39.83,0c-6.638,0-13.276,0-19.915,0c-1.593,0-3.187,0-4.78,0
	c-0.796,0-1.593,0-2.39,0c-0.386,0-1.864-0.23-2.056,0.167c-0.162,0.334-0.009,0.806,0.005,1.158
	c0.027,0.643-0.028,1.308-0.028,1.955c0,1.733,0,3.466,0,5.199c0,13.33,0,26.659,0,39.989c0,26.659,0,53.318,0,79.978
	s0,53.316,0,79.977c0,13.329,0,26.659,0,39.988c0,6.665,0,13.329,0,19.994c0,3.332,0,6.665,0,9.997c0.316,1.1-0.574,1.68,1.04,1.68
	c1.732,0,3.465,0,5.198,0c26.654,0,53.309,0,79.964,0c26.653,0,53.307,0,79.96,0s53.307,0,79.96,0c26.654,0,53.309,0,79.963,0
	c3.332,0,6.664,0,9.996,0c0.399,0,0.8,0,1.199,0c0.626,0,0.4,0.267,0.4,0.8c0,0.799,0,1.6,0,2.399c0,1.732,0,3.465,0,5.197
	c0,6.664,0,13.328,0,19.993c0,13.329,0,26.658,0,39.987c0,26.659,0,53.317,0,79.977c0,26.658,0,53.316,0,79.977
	c0,6.664,0,13.328,0,19.993c0,1.599,0,3.197,0,4.798c0,0.533,0.227,0.8-0.399,0.8c-0.399,0-0.799,0-1.198,0
	c-0.934,0-1.865,0-2.798,0c-3.33,0-6.661,0-9.991,0c-13.321,0-26.642,0-39.963,0c-26.641,0-53.282,0-79.923,0
	c-26.642,0-53.283,0-79.925,0c-26.555,0-53.109,0-79.663,0c-13.121,0-26.241,0-39.362,0c-0.825,0-1.63,0.009-2.458-0.037
	c-0.6-0.032-1.565-0.123-1.949,0.467c-0.192,0.295-0.17,0.68-0.106,1.009c0.138,0.72,0.056,1.508,0.056,2.24c0,1.73,0,3.462,0,5.193
	c0,6.659,0,13.316,0,19.977c0,26.637,0,53.271,0,79.907s0,53.271,0,79.907s0,53.271,0,79.907c0,1.599,0,3.195,0,4.795
	c0,0.799,0,1.598,0,2.396c0,0.399,0,0.799,0,1.198c0.511,0.012,1.023,0.021,1.534,0.033c3.214,0.065,6.429,0.115,9.644,0.151
	c6.499,0.074,12.998,0.097,19.498,0.096c13.084-0.003,26.167-0.102,39.252-0.069c1.562,0.004,3.123,0.01,4.685,0.018
	c0.39,0.002,0.779,0.004,1.169,0.006c0.529,0.004,0.779-0.216,0.779,0.404c0,0.932,0,1.861,0,2.793c0,3.324,0,6.649,0,9.976
	c0,3.325,0,6.649,0,9.975c0,1.597,0,3.192,0,4.788c0,0.798,0,1.597,0,2.395c0,0.398,0,0.799,0,1.196c0,0.65-0.53,0.399-1.08,0.399
	c-0.36,0-0.72,0-1.08,0c-0.48,0-0.72-0.204-0.72,0.359c0,0.36,0,0.721,0,1.08c-0.36,0-0.72,0-1.08,0c-0.68,0-1.36,0-2.04,0
	c0,0.359,0,0.721,0,1.08c0,0.488-0.125,0.413-0.554,0.365c-0.243-0.026-0.863-0.169-0.886,0.234c0,0.359,0,0.721,0,1.079
	c0,0.564-0.24,0.36-0.72,0.36c-0.72,0-1.44,0-2.16,0c-0.457,0.025-0.232,0.828-0.215,1.091c0.049,0.771-0.926,0.099-1.368,0.394
	c-0.274,0.183-0.088,0.791-0.072,1.048c0.034,0.536-0.381,0.373-0.789,0.331c-0.765-0.078-0.676,0.315-0.676,0.978
	c0,0.479,0.204,0.72-0.36,0.72c-0.36,0-0.72,0-1.08,0c0,0.721,0,1.44,0,2.16c0,0.455,0.202,0.721-0.336,0.721
	c-0.336,0-0.672,0-1.008,0c-0.526,0-0.336,0.225-0.336,0.673c0,0.542,0.24,1.008-0.4,1.008c-1.09,0-1.079,0.09-1.015,1.091
	c0.048,0.747-0.869,0.148-1.32,0.36c-0.259,0.122-0.145,0.611-0.145,0.827c0,0.2,0,0.4,0,0.602c-0.36,0-0.72,0-1.08,0
	c-0.352-0.12-0.472-0.008-0.36,0.336c0,0.336,0,0.672,0,1.008c0,0.592,0,1.186,0,1.776c-0.483,0.002-1.303-0.163-1.68,0.239
	c0,0.848,0,1.695,0,2.544c0,0.888-1.51-0.241-1.473,0.811c0.024,0.687,0.033,1.355,0.033,2.046c0,0.793-0.777,0.128-1.295,0.372
	c-0.385,0.181-0.145,1.991-0.145,2.388c0,0.342,0.145,2.169-0.16,2.188c-0.286,0.017-1.252-0.283-1.28,0.213c0,3.521,0,7.04,0,10.56
	c-0.48,0-0.96,0-1.44,0c-0.075,0.173-0.13,0.354-0.175,0.534c-0.11,0.447-0.165,0.917-0.134,1.378
	c0.068,1.041,0.72,1.597,1.749,1.209c0,2.119,0,4.239,0,6.359c0,0.94-0.169,1.432,0.886,1.314c0.43-0.049,0.554-0.123,0.554,0.364
	c0,0.602,0,1.2,0,1.802c0,1.039,0,2.078,0,3.119c0,0.479,0,0.959,0,1.439c0,0.239,0,0.479,0,0.72c0.36,0,0.72,0,1.08,0
	c0.602,0,0.36,0.572,0.36,1.08c0,0.568,0,1.137,0,1.704c0,0.327-0.224,1.75,0.24,1.776c0.661,0.248,1.2-0.441,1.2,0.6
	c0,0.481-0.235,1.08,0.336,1.08c0.224,0,0.448,0,0.672,0c0.471,0,0.672-0.192,0.672,0.358c0,0.48,0,0.961,0,1.44
	c0,0.24,0,0.479,0,0.72c0,0.564,0.24,0.36,0.72,0.36c0.754,0,0.72-0.034,0.72,0.72c0,0.314-0.162,0.934,0.293,0.987
	c0.636,0.077,1.253-0.379,1.153,0.526c-0.123,1.104,0.465,0.887,1.434,0.887c0,1.479-0.519,3.554,1.68,3.12c0,0.479,0,0.96,0,1.438
	c0.48,0,0.96,0,1.44,0c0,0.48,0,0.96,0,1.44c0.24,0,0.48,0,0.72,0c0.456,0,0.72-0.201,0.72,0.336c0,0.448,0,0.896,0,1.344
	c0.48,0,0.96,0,1.44,0c0.103,0.313-0.293,1.41,0.24,1.44c0.96,0,1.92,0,2.88,0c0,0.728-0.336,1.801,0.676,1.696
	c0.24-0.023,0.526-0.095,0.764-0.018c-0.055,0.29-0.087,0.604-0.007,0.894c0.18,0.646,0.903,0.649,1.447,0.547
	c0.448,0,0.896,0,1.344,0c0.571,0,0.336,0.6,0.336,1.08c0,0.602,0.572,0.359,1.08,0.359c0.352-0.12,0.472-0.008,0.36,0.336
	c0,0.336,0,0.672,0,1.008c0,0.562,0.534,0.336,1.008,0.336c0.49,0,0.981,0,1.472,0c0.651,0,0.4,0.529,0.4,1.082
	c-0.12,0.352-0.008,0.472,0.336,0.358c0.336,0,0.672,0,1.008,0c0.952,0,1.904,0,2.856,0c0.602,0,0.36,0.572,0.36,1.08
	c-0.12,0.36,0,0.479,0.36,0.36c0.36,0,0.72,0,1.08,0c2,0,4,0,6,0c-0.218,1.104,0.208,1.877,1.412,1.724
	c1.682-0.215,3.491-0.044,5.188-0.044c1.76,0,3.52,0,5.28,0c0.708,0,1.447-0.07,2.148-0.025c0.648,0.042,1.091,0.233,1.091-0.573
	c0-0.36,0-0.722,0-1.08c0.448,0,0.896,0,1.344,0c0.952,0,1.904,0,2.856,0c0.84,0,1.68,0,2.52,0c0.855,0,1.051-0.016,0.955-0.888
	c-0.02-0.176-0.051-0.38,0.006-0.554c0.48,0,0.96,0,1.44,0c0.96,0,1.92,0,2.88,0c1.139,0.189,2.028-0.126,1.68-1.439
	c0.365-0.119,0.773,0.073,1.147,0.026c0.516-0.062,0.293-0.998,0.293-1.347c0-0.563,0.24-0.36,0.72-0.36c0.36,0,0.72,0,1.08,0
	s0.72,0,1.08,0c0-0.479,0-0.96,0-1.438c0.636,0,3.12,0.385,3.12-0.54c0-0.628-0.171-0.986,0.554-0.906
	c0.612,0.068,0.886,0.095,0.886-0.594c0-0.36,0-0.72,0-1.08c0.36,0,0.72,0,1.08,0c0.68,0,1.36,0,2.04,0c0-0.36,0-0.72,0-1.08
	c0-0.563,0.24-0.359,0.72-0.359c0.455,0,0.72,0.2,0.72-0.337c0-0.447,0-0.896,0-1.344c0.36,0,0.72,0,1.08,0
	c0.564,0,0.36-0.24,0.36-0.721c0-0.479-0.204-0.72,0.36-0.72c0.36,0,0.72,0,1.08,0c0-0.681,0-1.36,0-2.04c0-0.359,0-0.721,0-1.08
	c0.48,0,0.96,0,1.44,0c0.363-0.395,0.086-1.161,0.555-1.479c0.337-0.228,0.754,0.179,1.028-0.005
	c0.311-0.208,0.052-0.938,0.069-1.238c0.036-0.603,1.467,0.375,1.467-0.494c0-0.688,0-1.377,0-2.063c0-0.479-0.204-0.721,0.36-0.721
	c0.36,0,0.72,0,1.08,0c0-0.359,0-0.72,0-1.08c0-0.601,0.572-0.359,1.08-0.359c1.014,0,0.6-2.407,0.6-3.12
	c0.634,0,1.302,0.233,1.439-0.535c0.107-0.603-0.004-1.231-0.027-1.837s0.028-1.22,0.028-1.827c0-0.359,0-0.721,0-1.08
	c0-0.479-0.204-0.721,0.36-0.721c0.36,0,0.72,0,1.08,0c0-0.336,0-0.672,0-1.008c0-0.824,0-1.647,0-2.473c0-1.399,0-2.801,0-4.199
	c0.36,0,0.72,0,1.08,0c0.553,0,0.36-0.201,0.36-0.673c0-0.815,0-1.631,0-2.447c0-2.92,0-5.841,0-8.761
	c0-0.449,0.207-1.568-0.043-1.942c-0.183-0.273-0.791-0.089-1.048-0.071c-0.619,0.038-0.349-0.992-0.349-1.466
	c0-0.84,0-1.68,0-2.521c0-0.68,0-1.36,0-2.04c0-0.359,0-0.72,0-1.079c0-0.564-0.24-0.36-0.72-0.36s-0.72,0.204-0.72-0.359
	c0-0.36,0-0.72,0-1.08c0-0.319,0-0.64,0-0.96c0-0.754,0.034-0.72-0.72-0.72c-0.48,0-0.72,0.204-0.72-0.359c0-0.36,0-0.721,0-1.081
	c0-0.336,0-0.672,0-1.008c0-0.447,0.19-0.672-0.336-0.672c-0.336,0-0.672,0-1.008,0c-0.509,0-0.336-0.165-0.336-0.601
	c0-0.76,0-1.521,0-2.28c-0.36,0-0.72,0-1.08,0c-0.564,0-0.36-0.239-0.36-0.72c0-0.62,0-1.239,0-1.859
	c0-0.822-0.765-0.363-1.242-0.604c-0.587-0.296,0.067-0.845-0.245-1.228c-0.276-0.34-0.763-0.098-1.123-0.12
	c-0.493-0.031-0.27-1.028-0.27-1.351c0-0.553-0.2-0.359-0.672-0.359c-0.336,0-0.672,0-1.008,0c0-0.36,0-0.721,0-1.08
	c0-0.602-0.572-0.359-1.08-0.359c-0.564,0-0.36-0.24-0.36-0.72c0-0.36,0-0.721,0-1.08c0-0.36,0-0.721,0-1.08c-0.36,0-0.72,0-1.08,0
	c-0.756,0-0.6-0.661-0.6-1.319c0-0.583-0.308-0.36-0.8-0.36c-0.728,0-0.64-0.005-0.64-0.72c0-0.48,0.204-0.721-0.36-0.721
	c-0.36,0-0.72,0-1.08,0s-10.32-6.545-10.32-7.035c0-0.397,0-0.797,0-1.193c0-1.725,0-3.449,0-5.173c0-3.315,0-6.632,0-9.947
	s0-6.632,0-9.947c0-0.796,0-1.592,0-2.388c0-0.531-0.226-0.796,0.399-0.796c0.399,0,0.798,0,1.197,0c1.729,0,3.458,0,5.188,0
	c6.651,0,13.302,0,19.952,0c26.604,0,53.208,0,79.812,0c13.302,0,26.604,0,39.906,0c6.651,0,13.302,0,19.953,0
	c0.798,0,1.596,0,2.395,0c0.624,0,0.399,0.263,0.399,0.794c0,0.396,0,0.795,0,1.192c0,1.722,0,3.441,0,5.163
	c0,3.312,0,6.621,0,9.932c0,13.242,0,26.482,0,39.725c0,0.367-0.252,2.38,0.24,2.476c0.731,0,78.494-12.833,163.604-21.483
	c101.667-10.333,195.701-10,202.667-10c6.875,0,87.957,0.881,170.667,8.001c75.339,6.486,149.94,23.409,149.94,23.146
	c0-1.64,0-41.332,0-54.573c0-0.795,0-1.59,0-2.384c0-0.397,0-0.796,0-1.192c0-0.531-0.225-0.794,0.4-0.794c1.729,0,3.461,0,5.191,0
	c3.329,0,6.657,0,9.985,0c6.656,0,13.314,0,19.971,0c13.314,0,26.63,0,39.943,0c26.627,0,53.256,0,79.885,0c3.328,0,6.656,0,9.984,0
	c0.4,0,0.799,0,1.199,0c0,0.396,0,0.796,0,1.193c0,0.796,0,1.592,0,2.388c0,1.725,0,3.448,0,5.173c0,6.632,0,13.263,0,19.895
	c0,0.756,0,1.51,0,2.265c0,0.336,0,0.672,0,1.008c-0.359,0-0.721,0-1.08,0c-0.6,0-1.199,0-1.801,0c0,0.36,0,0.72,0,1.08
	c0,0.585-0.447,0.36-0.959,0.36c-0.48,0-0.722-0.204-0.722,0.358c0,0.36,0,0.721,0,1.08c-0.666,0-1.332,0.001-1.998-0.009
	c-0.555-0.008-1.12-0.049-1.12,0.608c0,0.36,0,0.721,0,1.08c-0.4,0-0.802,0-1.201,0c-0.402,0.022-0.261,0.643-0.232,0.886
	c0.086,0.786-0.428,0.555-1.086,0.555c-0.914,0,0.09,1.432-0.521,1.468c-0.299,0.018-1.03-0.241-1.237,0.069
	c-0.351,0.521,0.438,1.583-0.402,1.583c-0.35,0-1.285-0.224-1.348,0.293c-0.045,0.374,0.146,0.781,0.026,1.146
	c-0.36,0-1.403-0.228-1.467,0.292c-0.045,0.374,0.146,0.782,0.027,1.147c-0.414,0.136-0.896-0.177-1.296,0.012
	c-0.678,0.319,0.478,1.669-0.506,1.669c-0.358,0-0.721,0-1.08,0c0,0.479,0,0.96,0,1.438c-0.762-0.114-1.76-0.07-1.745,0.929
	c0.006,0.615,0.065,1.233,0.065,1.855c0,0.77-0.869,0.062-1.344,0.38c-0.273,0.184-0.088,0.791-0.072,1.048
	c0.039,0.583-0.022,1.199-0.022,1.788c-0.365,0.12-0.773-0.071-1.148-0.026c-0.516,0.062-0.293,0.998-0.293,1.348
	c0,0.321,0.148,1.809-0.157,1.827c-0.353,0.021-0.804-0.173-1.138-0.017c-0.774,0.366,0.564,3.108-0.479,3.108
	c-0.336,0-0.672,0-1.008,0c-0.537,0-0.337,0.265-0.337,0.72c0,0.762,0,1.521,0,2.28c0,1.479,0,2.96,0,4.439
	c-0.946-0.214-1.524,0.202-1.489,1.186c0.057,1.463,0.051,2.929,0.051,4.396c0,1.402,0,2.808,0,4.212c0,1.137-0.199,2.477,0,3.592
	c0.121,0.682,0.559,0.535,1.139,0.536c0.498,0,0.301,0.303,0.301,0.72c0,0.353,0,0.704,0,1.057c0,1.521,0,3.039,0,4.561
	c0,0.336,0,0.672,0,1.008c0,0.526,0.226,0.336,0.673,0.336c0.336,0,0.672,0,1.008,0c0,0.36,0,0.721,0,1.08c0,1.521,0,3.04,0,4.561
	c0,0.979,1.438-0.257,1.438,0.72c0,0.721,0,1.44,0,2.16c0,1.337,1.588-0.123,1.447,1.155c-0.147,1.331,0.527,0.542,1.313,0.887
	c0.598,0.263-0.248,2.549,0.36,3.118c0.359,0,0.719,0,1.08,0c0.563,0,0.359,0.239,0.359,0.72s-0.205,0.721,0.358,0.721
	c0.361,0,0.722,0,1.08,0c0,0.359,0,0.721,0,1.08c0,0.563,0.24,0.359,0.722,0.359c0.454,0,0.721-0.201,0.721,0.336
	c0,0.448,0,0.896,0,1.345c0.24,0.738-0.443,1.589,0.783,1.438c1.264-0.158,0.207,1.495,0.896,1.442c0.359,0,0.719,0,1.08,0
	c0.562,0,0.358,0.24,0.358,0.721c0,0.471-0.149,1.015,0.476,0.992c0.449-0.016,0.877-0.032,1.326-0.032c0.358,0,0.719,0,1.08,0
	c0.077,0.237,0.006,0.522-0.019,0.765c-0.053,0.509,0.031,0.676,0.558,0.676c0.301,0,0.6,0,0.899,0c0,0.336,0,0.672,0,1.008
	c0,0.448-0.19,0.673,0.336,0.673c0.336,0,0.672,0,1.009,0c0.352,0,0.702,0,1.057,0c0.682,0,0.719-0.091,0.719,0.601
	c0,0.451-0.104,0.893,0.476,0.872c0.252-0.009,0.973-0.234,0.994,0.127c0.02,0.352-0.175,0.803-0.017,1.136
	c0.158,0.336,1.346,0.146,1.668,0.146c0.359,0,0.719,0,1.08,0c0.563,0,0.359,0.239,0.359,0.721c0,0.471-0.15,1.015,0.475,0.992
	c0.428-0.017,0.965-0.286,0.965,0.268c0,0.479-0.201,1.196,0.476,1.173c1.137-0.04,2.271-0.033,3.413-0.033c0.703,0,1.408,0,2.111,0
	c0,0.36,0,0.721,0,1.08c0,0.604,0.572,0.36,1.08,0.36c1.281,0,2.561,0,3.84,0c0.721,0,1.441,0,2.16,0c0.988,0-0.269,1.68,0.721,1.68
	c3.039,0,6.08,0,9.119,0c1.369,0,2.762,0.068,4.125-0.026c0.4-0.027,0.803,0.114,1.201,0.049c0.578-0.098,0.313-1.288,0.313-1.701
	c2,0,4,0,6,0c0.48,0,0.959,0,1.439,0c0-0.24,0-0.48,0-0.721c0-0.48-0.203-0.721,0.361-0.721c0.95,0,1.928-0.066,2.875-0.027
	c0.311,0.013,1.231,0.271,1.323-0.212c0.229-0.604-0.42-1.2,0.539-1.2c1.414,0,2.976,0.311,2.58-1.68
	c0.293,0,1.277,0.175,1.43-0.146c0.156-0.333-0.036-0.784-0.016-1.136c0.037-0.63,2.521,0.255,2.863-0.256
	c0.317-0.477-0.39-1.345,0.379-1.345c0.336,0,0.672,0,1.008,0c0.527,0,0.336-0.224,0.336-0.672c0-0.336,0-0.672,0-1.008
	c0.302,0,0.603,0,0.9,0c0.301,0,0.6,0,0.899,0c0.509,0,1.08,0.241,1.08-0.36c0-0.657-0.231-1.173,0.556-1.086
	c0.241,0.027,0.86,0.169,0.885-0.233c0-0.359,0-0.721,0-1.08c0-0.563,0.24-0.359,0.721-0.359c0.662,0,1.058,0.089,0.978-0.676
	c-0.068-0.664-0.131-0.765,0.584-0.765c0.449,0,0.893,0.105,0.873-0.475c-0.01-0.253-0.236-0.972,0.125-0.993
	c0.299-0.018,1.031,0.241,1.238-0.068c0.348-0.524-0.439-1.584,0.401-1.584c0.361,0,0.721,0,1.08,0c0-0.359,0-0.721,0-1.08
	s0-0.72,0-1.08c0-0.455-0.201-0.72,0.336-0.72c0.336,0,0.672,0,1.008,0c0.563,0,0.337-0.534,0.337-1.009
	c0-0.411-0.187-0.672,0.301-0.672c0.301,0,0.6,0,0.899,0c0.402-0.022,0.263-0.643,0.234-0.886c-0.059-0.534,0.006-1.096,0.006-1.635
	c0-0.692,0.633-0.271,1.146-0.332c0.516-0.063,0.293-0.999,0.293-1.349c0-0.977,1.438,0.26,1.438-0.72c0-0.72,0-1.439,0-2.16
	c0-0.937,1.398,0.196,1.633-0.717c0.314-1.224,0.047-2.798,0.047-4.054c0-0.729,0-1.459,0-2.189c0-0.358,0-0.72,0-1.08
	c0.48,0,0.962,0,1.441,0c0-1.399,0-2.8,0-4.198c0-0.682,0-1.361,0-2.041c0-0.359,0-0.721,0-1.08c0-0.602,0.572-0.359,1.08-0.359
	c0.551,0,0.359-0.201,0.359-0.672c0-0.337,0-0.673,0-1.009c0-0.84,0-1.681,0-2.521c0-0.68,0-1.359,0-2.04c-0.359,0-0.722,0-1.08,0
	c-0.574,0-0.359-0.412-0.359-0.899c0-1.477,0-2.951,0-4.429c0-0.485-0.033-0.952,0.018-1.437c0.072-0.705-0.231-0.676-0.856-0.676
	c-0.457,0-0.603,0.175-0.603-0.36c0-0.359,0-0.72,0-1.08c0-0.814,0-1.631,0-2.447c0-0.704,0-1.407,0-2.111
	c-0.375-0.402-1.196-0.237-1.68-0.239c0-0.48,0-0.96,0-1.44c0-0.359,0-0.72,0-1.079c0-0.564-0.238-0.36-0.719-0.36
	c-0.24,0-0.48,0-0.721,0c0-0.359,0-0.72,0-1.079c0-0.601,0-1.2,0-1.801c-0.021-0.334-0.451-0.28-0.677-0.257
	c-0.739,0.075-0.764,0.082-0.764-0.703c0-0.688,0-1.376,0-2.063c0-0.935-1.441,0.274-1.441-0.695c0-0.24,0-0.479,0-0.721
	c0-0.553-0.198-0.359-0.672-0.359c-0.336,0-0.672,0-1.008,0c0-0.359,0-0.721,0-1.08c0-0.45,0.207-1.567-0.043-1.943
	c-0.185-0.273-0.791-0.088-1.049-0.071c-0.588,0.037-0.349-0.659-0.349-1.104c0-0.912-1.432,0.092-1.467-0.52
	c-0.021-0.352,0.172-0.803,0.016-1.136c-0.151-0.319-1.137-0.146-1.43-0.146c0.256-1.289-0.391-1.935-1.68-1.681
	c0-0.239,0-0.479,0-0.721c0-0.479,0.205-0.72-0.359-0.72c-0.359,0-0.721,0-1.08,0c0-0.36,0-0.721,0-1.08
	c0.119-0.359,0-0.479-0.358-0.359c-0.361,0-0.722,0-1.08,0c-0.281,0-0.562,0-0.84,0c-0.457,0-0.603,0.176-0.603-0.359
	c0-0.407,0.195-1.059-0.26-1.227c-0.277-0.102-0.576-0.089-0.865-0.115c-0.795-0.072-0.709-0.797-0.555-1.418
	c-0.719,0-1.439,0-2.16,0c-0.783,0-0.777-0.024-0.701-0.766c0.053-0.509-0.033-0.676-0.559-0.676c-0.74,0-1.479,0-2.22,0
	c-0.563,0-0.36-0.239-0.36-0.72c0-0.32,0-0.641,0-0.96c0-0.797,0-1.593,0-2.389c0-1.724,0-3.447,0-5.172c0-6.632,0-13.264,0-19.896
	c0-0.796,0-1.593,0-2.388c0-0.623,0.268-0.397,0.799-0.397c0.397,0,0.797,0,1.195,0c1.729,0,3.454,0,5.184,0
	c3.322,0,6.646,0,9.969,0c6.646,0,13.291,0,19.938,0c6.646,0,13.291,0,19.938,0c3.322,0,6.646,0,9.969,0
	c3.229,0,6.511,0.161,9.729-0.027c0.352-0.021,0.803,0.173,1.137,0.017c0.355-0.167,0.146-1.488,0.146-1.825
	c0-1.731,0-3.463,0-5.194c0-3.328,0-6.658,0-9.987c0-6.659,0-13.317,0-19.978c0-26.636,0-53.271,0-79.907
	c0-26.636,0-53.271,0-79.906C1351.159,847.417,1350.885,797.881,1350.885,792.288z M103.4,535.144c-0.596,0-1.189,0.006-1.78,0.014
	C102.21,535.15,102.803,535.144,103.4,535.144z M101.254,535.163c-0.812,0.012-1.615,0.025-2.411,0.037
	C99.639,535.188,100.443,535.174,101.254,535.163z M98.57,535.204c-0.392,0.005-0.781,0.008-1.168,0.01
	C97.789,535.211,98.177,535.209,98.57,535.204z M96.872,535.215c-0.36,0-0.718-0.003-1.073-0.008
	C96.155,535.212,96.512,535.215,96.872,535.215z M95.25,535.196c-0.346-0.009-0.69-0.019-1.031-0.033
	C94.56,535.178,94.904,535.188,95.25,535.196z M93.679,535.134c-0.338-0.019-0.677-0.039-1.009-0.066
	C93.002,535.095,93.341,535.115,93.679,535.134z M92.174,535.016c-0.337-0.033-0.675-0.065-1.011-0.111
	C91.499,534.949,91.836,534.982,92.174,535.016C91.835,534.982,91.835,534.982,92.174,535.016z M91.16,534.903
	c-0.482-0.066-0.963-0.144-1.44-0.239C90.197,534.761,90.678,534.837,91.16,534.903C91.16,534.903,90.673,534.836,91.16,534.903z"/>
<ellipse fill="#09252E" cx="185.497" cy="184.856" rx="50.879" ry="51.095"/>
<rect x="164.592" y="210.866" fill="#09252E" width="42.083" height="48.667"/>
<ellipse fill="#09252E" cx="1251.331" cy="184.19" rx="50.879" ry="50.095"/>
<rect x="1230.593" y="209.199" fill="#09252E" width="42.084" height="48.667"/>
<ellipse fill="#09252E" cx="1252.587" cy="1145.52" rx="51.296" ry="51.095"/>
<rect x="1230.325" y="1070.845" fill="#09252E" width="42.084" height="48.666"/>
<ellipse fill="#09252E" cx="185.545" cy="1146.187" rx="51.212" ry="51.762"/>
<rect x="164.7" y="1072.179" fill="#09252E" width="42.084" height="48.666"/>
<path fill="#144D60" d="M1233.551,418.428c0-54.25,0.167-108.417,0.167-160.583c17.5,0.083,8.227,0.056,34.833,0.167
	c0,19.125,0.25,145.438,0.25,215.917c-11.439,0-23.561-0.5-35-0.5c-0.006-3.365,0.144-16.041,0-18.75
	c-0.399,0-138.041-0.379-206.522-0.379c-1.478,1.66-21.164,24.474-22.561,26.16c0,0.48,0,89.658,0,133.68
	c0.029,0.516,20.591,21.33,21.12,21.36c31.439,0,62.881,0,94.32,0c0,18.24,0,36.48,0,54.72c-30.96,0-94,0-94.562,0
	c-0.702,0.679-19.905,18.959-20.88,19.92c0,0.561,0,144,0,144.48c0.029,0.508,23.878,24.282,24.48,24.479
	c44.353,0.08,132.186-0.254,137.353-0.587c0-0.479,0.167-56.583,0.167-57.062c-0.479,0-30.201-0.243-32.914-0.274
	c0-8-0.003-21.164-0.003-29.164c18.96,0,37.915-0.042,56.875-0.042c0,26.32,0.125,86.229,0.125,86.71
	c1.583-0.167,52.892-0.005,78.083-0.001c0,62.88,0.5,180.653,0.5,192.333c-17.273,0.066-12.714,0.126-35,0.167
	c-0.047-29.708-0.166-143.833-0.166-155.667c-0.08,0-225.979,0.067-338.938,0.067c0-11.68,0-23.359,0-35.039
	c14.479,0,44.398,0,44.88,0c0.528-0.03,25.542-23.818,25.68-24.24c0-19.28,0-38.561,0-57.84c0-0.48,0-0.96,0-1.44
	c-0.31-0.331-1.043-0.236-1.68-0.239c-61.921,0-123.84,0-185.762,0c-0.56,0-1.119,0-1.68,0c-60.958,0-121.921,0-182.88,0
	c-1.226-0.187-1.983,0.097-1.68,1.439c0,19.359,0,38.721,0,58.08c0.138,0.42,22.817,23.078,22.56,24.24
	c0.48,0,44.614,0.264,48,0.239c0,11.601,0,23.2,0,34.8c-37.52,0-75.04,0-112.56,0c-1.155-0.256-70.127,71.35-70.607,71.35
	c0,0.561-185.75,0.125-276.5,0.125c0,0.561,0,74.236,0,84.876c-12.047-0.161-17.75-0.001-35.25-0.001c0-0.56,0.023-73.006,0-119.875
	c96.561,0,194.595,0.006,291.157,0.006c0.624-0.614,23.36-22.8,23.76-22.8c0-0.003,0.036-0.045,0.103-0.119
	c0.632-0.721,73.557-74.954,73.579-76.681c0.027-2.219-0.146-58.162-0.098-58.469c0.04-0.254-1.028-0.116-2.619-0.178
	c-6.692-0.261-25.119-0.154-31.844-0.154c0-16.641,0-33.279,0-49.92c-0.143-0.497,0.296-1.576-0.24-1.681c-0.399,0-0.8,0-1.199,0
	c-0.08,0-0.16,0-0.24,0c-29.44,0-64.167-0.006-93.607-0.006c0-50.719,0.031-101.438,0.031-152.155
	c29.44,0,94.616,0.002,95.016,0.002c-0.062,0.731,0.24-45.2,0.24-66.96c10.96,0,21.92,0,32.88,0c0.48,0,0.96,0,1.44,0
	c0.53-0.03,0.102-1.019,0.24-1.44c0-6.96,0-13.92,0-20.88c0-3.44,0-6.88,0-10.32c0-1.76,0-3.52,0-5.28c0-0.88,0-1.76,0-2.64
	c-0.191-1.129-97.187-102.334-97.681-102.479c-73.787,0-148.504,0-222,0c-9.819,0-32.975-0.049-33.104-0.097
	c0,4.48,0.063,12.458,0.063,16.938c-3.491,0-13.176,0.104-35.458,0.104c0-44.081,0.333-111,0.333-137.333
	c12.667,0,15.287,0.246,35,0.167c0,26.879,0.047,83.182,0.047,83.741c0.56,0,199.598,0,298.56,0c0,9.6,0,19.2,0,28.8
	c0.03,0.53,53.52,45.682,56.88,45.84 M590.718,538.059c0.104,0.537,249.521,0.24,373.44,0.24c0.08,0,0.16,0,0.239,0
	c0.479,0,0.96,0,1.439,0c0-0.56,0-1.12,0-1.68c0-18.24,0-55.84,0-56.4c-0.479,0-25.584-25.669-26.16-25.92
	c-0.581-0.253-218.836,0-323.279,0c-0.498,0.144-25.681,27.12-25.681,27.601 M556.158,665.979c-0.96,0-1.92,0-2.88,0
	c-0.48,0-0.96,0-1.44,0c-0.537,0.104-0.097,1.184-0.24,1.681c0,0.399,0,0.8,0,1.2c0,9.199,0,18.399,0,27.601c0,0.479,0,0.96,0,1.439
	c0,0.561,0,1.12,0,1.68c0.561,0,1.12,0,1.681,0c12.479,0,24.96,0,37.439,0c0.561,0,1.12,0,1.681,0c0-0.56,0-1.119,0-1.68
	c0-0.479,0-0.96,0-1.439c0-29.921,0-59.84,0-89.76c10,0,32.399,0,32.88,0c0-0.48,0.022-36.791,0.022-37.271
	c0.04-0.68-68.423-0.889-68.902-0.889C556.398,569.019,556.318,634.06,556.158,665.979z M917.738,632.366
	c-0.188,1.312-0.142,62.783-0.142,92.894c-9.505,0-21.979,0-31.483,0c-0.016,0,0.045,36.16,0.045,36.721c0.479,0,41.671,0,63.271,0
	c0.48,0,3.93,0,4.409,0c0-0.561,0-1.12,0-1.681c0-30.399,0-60.8,0-91.2c0.96,0,3.753,0.079,4.713,0.079
	c0.25-1.312-0.421-36.243-0.421-36.803C957.57,632.375,918.058,632.366,917.738,632.366z"/>
<polygon id="ARM1FM9_1_" fill="#CE1D6F" points="1027.285,454.288 1062.473,454.319 1062.726,538.249 1004.747,538.291 
	1004.694,480.42 "/>
<polygon id="ARM1BOARDROOM_1_" fill="#CE1D6F" points="1273.509,761.886 1234.551,761.928 1234.551,792.178 1120.051,792.012 
	1120.218,731.845 1107.552,731.845 1107.551,690.241 1119.926,690.178 1120.384,538.512 1235.218,538.345 1235.176,568.428 
	1273.717,568.371 "/>
<rect id="ARM1FM7_1_" x="772.285" y="796.771" fill="#CE1D6F" width="123" height="83.767"/>
<polygon id="ARM1FM10_1_" fill="#CE1D6F" points="459.426,952.178 425.723,952.053 425.723,870.386 502.713,870.511 
	521.801,889.262 488.176,924.053 "/>
</svg>
