<?xml version="1.0" encoding="utf-8"?>
<!-- Generator: Adobe Illustrator 15.0.0, SVG Export Plug-In . SVG Version: 6.00 Build 0)  -->
<!DOCTYPE svg PUBLIC "-//W3C//DTD SVG 1.1//EN" "http://www.w3.org/Graphics/SVG/1.11/DTD/svg11.dtd">
<svg version="1.1" id="Layer_1" xmlns="http://www.w3.org/2000/svg" xmlns:xlink="http://www.w3.org/1999/xlink" x="0px" y="0px"
	 width="1500px" height="1500px" viewBox="0 0 1500 1500" enable-background="new 0 0 1500 1500" xml:space="preserve">
<rect x="82.551" y="229.178" fill="#09252E" width="1296" height="272"/>
<rect x="76.551" y="787.178" fill="#09252E" width="1296" height="272"/>
<rect x="422.551" y="465.178" fill="#09252E" width="844" height="340"/>
<rect x="1273.467" y="181.866" fill="#09252E" width="42.084" height="47.958"/>
<rect x="146.859" y="1049.263" fill="#09252E" width="42.083" height="46.958"/>
<rect x="1272.191" y="1055.262" fill="#09252E" width="42.084" height="46.958"/>
<rect x="147.217" y="183.616" fill="#09252E" width="42.083" height="46.958"/>
<path fill="#09252E" d="M65.582,506.584c14.719-0.031,236.502-0.902,353.946-0.902c0,89.997,0,180.001,0,270
	c-59.039,0-118.081,0-177.12,0c-29.52,0-59.04,0-88.56,0c-14.8,0-29.6,0-44.4,0c-7.36,0-14.72,0-22.08,0c-3.68,0-7.36,0-11.04,0
	c-3.601,0.159-7.839-0.318-11.04,0.24c0,0.561,0,1.119,0,1.68c0,96.563,0,193.119,0,289.681c0,0.561,0,1.12,0,1.68
	c0.01,0.191,0.04,0.226,0.24,0.24c6.287,0.463,12.911,0,19.44,0c16.381,0.001,49.49-0.162,58.708-0.148
	c0,11.12,0.093,22.63,0.093,33.749c-0.56,0-1.12,0-1.68,0c0,0.561,0,1.12,0,1.681c-0.646,0.257-1.551-0.369-1.92,0
	s0.257,1.273,0,1.92c-0.48,0-0.96,0-1.44,0c-0.537,0.104-0.097,1.183-0.24,1.68c-0.56,0-1.12,0-1.68,0s-1.12,0-1.68,0
	c0,0.562,0,1.12,0,1.682c-0.574,0.146-1.741-0.303-1.92,0.239c-0.48,0-0.96,0-1.44,0c0,0.561,0,1.119,0,1.681c-0.08,0-0.16,0-0.24,0
	c-0.56,0-1.12,0-1.68,0c0,0.56,0,1.12,0,1.68c0,0.08,0,0.16,0,0.24c-0.56,0-1.12,0-1.68,0c0,0.56,0,1.12,0,1.68
	c0,0.562,0,1.12,0,1.681c-0.56,0-1.12,0-1.68,0c-0.693,0.106,0.213,1.812-0.48,1.921c-0.48,0-0.96,0-1.44,0c0,0.56,0,1.12,0,1.68
	c0,0.561,0,1.12,0,1.681c-0.497,0.143-1.577-0.297-1.68,0.239c0,0.561,0,1.12,0,1.681c-0.56,0-1.12,0-1.68,0
	c0,0.561,0,1.119,0,1.681c-0.537,0.104-0.097,1.183-0.24,1.68c-0.637,0.002-1.371-0.091-1.68,0.24c0,0.561,0,1.12,0,1.681
	s0,1.119,0,1.68c0,0.641,0,1.28,0,1.92c-0.56,0-1.12,0-1.68,0c0,0.561,0,1.12,0,1.681c0,0.08,0,0.159,0,0.239c0,0.48,0,0.961,0,1.44
	c0,0.079,0,0.159,0,0.239c0,0.561,0,1.12,0,1.681c0,8.319,0,16.641,0,24.96c0,0.561,0,1.12,0,1.68c0,0.562,0,1.121,0,1.682
	c0.104,0.535,1.183,0.097,1.68,0.239c0,0.561,0,1.12,0,1.681c0,0.56,0,1.119,0,1.68c0.371,0.35,0.211,1.229,0.24,1.92
	c0.48,0,0.96,0,1.44,0c0.143,0.497-0.296,1.577,0.24,1.682c0,0.56,0,1.119,0,1.68c0.56,0,1.12,0,1.68,0c0,0.08,0,0.16,0,0.24
	c0,0.56,0,1.119,0,1.68c0.497,0.143,1.576-0.297,1.68,0.24c0,0.479,0,0.96,0,1.438c0.104,0.537,1.183,0.099,1.68,0.24
	c0.143,0.497-0.297,1.577,0.24,1.68c0.56,0,1.12,0,1.68,0c0,0.562,0,1.12,0,1.682c0,0.56,0,1.12,0,1.68
	c0.104,0.537,1.183,0.099,1.68,0.24c0,0.56,0,1.12,0,1.68c0.56,0,1.12,0,1.68,0c0,0.641,0,1.28,0,1.92c0.56,0,1.12,0,1.68,0
	c0.143,0.497-0.297,1.577,0.24,1.682c0.56,0,1.12,0,1.68,0c0,0.56,0,1.119,0,1.68c0.56,0,1.12,0,1.68,0s1.12,0,1.68,0
	c0.029,0.691-0.131,1.571,0.24,1.92c0.422,0.138,1.41-0.29,1.44,0.24c0.138,0.422-0.29,1.41,0.24,1.438
	c0.498,0.144,1.577-0.296,1.68,0.24c0,0.48,0,0.96,0,1.44c0.104,0.536,1.183,0.097,1.68,0.239c1.2,0,2.4,0,3.6,0
	c0,0.561,0,1.119,0,1.681c0.56,0,1.12,0,1.68,0s1.12,0,1.68,0c0.08,0,0.16,0,0.24,0c0.48,0,0.96,0,1.44,0
	c0.143,0.497-0.296,1.576,0.24,1.68c0.56,0,1.12,0,1.68,0s1.12,0,1.68,0c0.56,0,1.12,0,1.68,0c0.08,0,0.16,0,0.24,0
	c6.4,0,12.8,0,19.2,0c0.48,0,0.96,0,1.44,0c0.64,0,1.28,0,1.92,0c0.64,0,1.28,0,1.92,0c0.48,0,0.96,0,1.44,0c0-0.56,0-1.12,0-1.68
	c0.08,0,0.16,0,0.24,0c0.56,0,1.12,0,1.68,0s1.12,0,1.68,0c0.56,0,1.12,0,1.68,0c0-0.562,0-1.12,0-1.681c0.56,0,1.12,0,1.68,0
	c0.64,0,1.28,0,1.92,0c0.56,0,1.12,0,1.68,0c0-0.641,0-1.279,0-1.921c0.56,0,1.12,0,1.68,0c0.537-0.104,0.097-1.183,0.24-1.68
	c0.637-0.002,1.371,0.091,1.68-0.24c0.56,0,1.12,0,1.68,0c0.143-0.497-0.297-1.576,0.24-1.68c0.48,0,0.96,0,1.44,0
	c0-0.562,0-1.12,0-1.681c0.08,0,0.16,0,0.24,0c0.48,0,0.96,0,1.44,0c0-0.561,0-1.119,0-1.681c0.014-0.146,0.036-0.284,0.24-0.239
	c0.56,0,1.12,0,1.68,0c0-0.561,0-1.119,0-1.681c0.56,0,1.12,0,1.68,0s1.12,0,1.68,0c0-0.56,0-1.12,0-1.68
	c0.371-0.35,0.211-1.229,0.24-1.921c0.48,0,0.96,0,1.44,0c0-0.561,0-1.119,0-1.681c0.08,0,0.16,0,0.24,0c0.56,0,1.12,0,1.68,0
	c0-0.56,0-1.119,0-1.68c0-0.08,0-0.16,0-0.24c0-0.56,0-1.119,0-1.68c0.56,0,1.12,0,1.68,0c0-0.561,0-1.12,0-1.681
	c0-0.08,0-0.16,0-0.24c0-0.561,0-1.119,0-1.68c0.56,0,1.12,0,1.68,0c0.537-0.104,0.097-1.184,0.24-1.681c0-0.561,0-1.12,0-1.681
	c0.56,0,1.12,0,1.68,0c0-1.279,0-2.56,0-3.84c0-0.561,0-1.12,0-1.681s0-1.119,0-1.681c0.56,0,1.12,0,1.68,0c0-0.56,0-1.119,0-1.68
	c0-0.08,0-0.16,0-0.24c0-0.56,0-1.119,0-1.68s0-1.12,0-1.68c0.56,0,1.12,0,1.68,0c0.371-0.351,0.211-1.229,0.24-1.922
	c0-4.078,0-8.158,0-12.238c-0.146-0.574,0.301-1.741-0.24-1.92c-0.56,0-1.12,0-1.68,0c0-0.562,0-1.12,0-1.682
	c0-0.08,0-0.159,0-0.238c0-0.562,0-1.12,0-1.682c0-0.56,0-1.12,0-1.68c0-0.08,0-0.16,0-0.24c0-0.479,0-0.96,0-1.439
	c-0.104-0.536-1.183-0.098-1.68-0.239c0-0.562,0-1.12,0-1.682c0-0.64,0-1.278,0-1.92c0-0.56,0-1.119,0-1.68s0-1.12,0-1.681
	c-0.029-0.69,0.131-1.57-0.24-1.92c-0.48,0-0.96,0-1.44,0c-0.143-0.498,0.297-1.576-0.24-1.681c-0.56,0-1.12,0-1.68,0
	c0-0.56,0-1.12,0-1.68c0-0.08,0-0.16,0-0.24c0-0.561,0-1.12,0-1.681c-0.56,0-1.12,0-1.68,0c0-0.56,0-1.119,0-1.68
	c-0.516-0.648-1.209,0.163-1.68-0.479c-0.285-0.391,0.399-1.08-0.24-1.44c-0.48,0-0.96,0-1.44,0c-0.143-0.497,0.297-1.576-0.24-1.68
	c-0.56,0-1.12,0-1.68,0c0-0.561,0-1.12,0-1.681c-0.104-0.536-1.183-0.098-1.68-0.239c0-0.561,0-1.12,0-1.681c-0.56,0-1.12,0-1.68,0
	c-0.08,0-0.16,0-0.24,0c0-0.561,0-1.12,0-1.68c-0.48,0-0.96,0-1.44,0c-0.349-0.371-1.229-0.212-1.92-0.24c0-0.561,0-1.12,0-1.681
	c-0.56,0-1.12,0-1.68,0c0-0.561,0-1.119,0-1.681c-0.56,0-1.12,0-1.68,0c-0.08,0-0.16,0-0.24,0c-0.56,0-1.12,0-1.68,0
	c0-0.56,0-1.12,0-1.68c-0.032-0.688-1.647,0.207-1.68-0.479c0-0.479,0-0.961,0-1.439c-0.56,0-1.12,0-1.68,0c0-11.2,0-22.4,0-33.601
	c59.279,0,118.561,0,177.84,0c0,20.079,0,61.521,0,62.159c0.62,0,88.642-23.879,177.662-32.184c83.146-7.757,172.746-9,185-9
	c13.244,0,107.349,2.374,199,11c85,8,159.81,30.134,161.218,29.943c0-0.561,0-41.84,0-61.92c59.917,0,119.843,0,179.761,0
	c0,11.199,0,22.399,0,33.601c-0.561,0-1.12,0-1.681,0c-0.537,0.103-0.098,1.183-0.239,1.68c-0.479,0-0.961,0-1.44,0
	c-0.64,0-1.279,0-1.92,0c0,0.641,0,1.28,0,1.921c-0.561,0-1.119,0-1.681,0c0,0.561,0,1.119,0,1.68c-0.56,0-1.119,0-1.68,0
	c-0.08,0-0.16,0-0.24,0c-0.479,0-0.96,0-1.438,0c-0.537,0.104-0.099,1.184-0.24,1.681c-0.497,0.144-1.577-0.297-1.681,0.24
	c0,0.56,0,1.119,0,1.68c-0.561,0-1.119,0-1.681,0c-0.536,0.104-0.097,1.184-0.239,1.681c-0.479,0-0.96,0-1.439,0
	c-0.08,0-0.16,0-0.24,0c-0.496,0.143-1.576-0.297-1.68,0.24c0,0.56,0,1.119,0,1.68s0,1.12,0,1.68c-0.561,0-1.12,0-1.681,0
	c0,0.562,0,1.121,0,1.682c0,0.08,0,0.158,0,0.239c0,0.561,0,1.12,0,1.681c-0.561,0-1.119,0-1.681,0
	c-0.536,0.104-0.098,1.183-0.24,1.68c0,0.641,0,1.28,0,1.92c-0.479,0-0.959,0-1.438,0c-0.537,0.104-0.098,1.184-0.24,1.682
	c0,0.56,0,1.119,0,1.68c-0.497,0.143-1.576-0.297-1.68,0.24c0,0.56,0,1.12,0,1.68c-0.562,0-1.12,0-1.681,0c0,0.562,0,1.12,0,1.68
	c0,0.08,0,0.16,0,0.24c0,0.562,0,1.12,0,1.681c-0.561,0-1.12,0-1.681,0c-0.558,1.842-0.081,4.719-0.24,6.961c0,0.64,0,1.278,0,1.92
	c0,0.56,0,1.119,0,1.68c-1.396-0.274-1.954,0.284-1.68,1.681c0,5.439,0,10.88,0,16.319c0.143,0.497-0.297,1.576,0.24,1.681
	c0.422,0.139,1.41-0.29,1.438,0.239c0.14,0.423-0.29,1.41,0.24,1.439c0,0.561,0,1.121,0,1.681c0.561,0,1.12,0,1.68,0
	c0,0.08,0,0.159,0,0.24c0,0.561,0,1.12,0,1.68c0.562,0,1.12,0,1.682,0c0,0.561,0,1.12,0,1.681c0,0.08,0,0.16,0,0.239
	c0,0.561,0,1.12,0,1.681s0,1.12,0,1.681s0,1.12,0,1.681c0.104,0.536,1.183,0.098,1.68,0.239c0,0.561,0,1.12,0,1.681s0,1.12,0,1.68
	c0.203,0.519,1.53-0.09,1.68,0.48c0.14,0.422-0.289,1.409,0.24,1.438c0.562,0,1.12,0,1.681,0c0,0.562,0,1.12,0,1.682
	c0.561,0,1.12,0,1.681,0c0,0.56,0,1.119,0,1.68c0,0.08,0,0.16,0,0.24c0,0.56,0,1.119,0,1.68c0.561,0,1.12,0,1.68,0
	c0.08,0,0.16,0,0.24,0c0,0.561,0,1.12,0,1.681c0.479,0,0.96,0,1.439,0c0.146,0.015,0.283,0.035,0.239,0.239c0,0.562,0,1.12,0,1.682
	c0.562,0,1.12,0,1.681,0s1.12,0,1.681,0c0.144,0.496-0.297,1.575,0.24,1.68c0.479,0,0.959,0,1.438,0c0.08,0,0.16,0,0.24,0
	c0,0.56,0,1.12,0,1.68c0.561,0,1.12,0,1.68,0c0.104,0.537,1.184,0.099,1.681,0.24c0,0.561,0,1.12,0,1.68c0.561,0,1.12,0,1.681,0
	c0.08,0,0.159,0,0.239,0c0,0.562,0,1.12,0,1.682c0.479,0,0.961,0,1.44,0c0.179,0.541,1.347,0.094,1.92,0.238c0,0.562,0,1.12,0,1.682
	c0.561,0,1.119,0,1.681,0c0.56,0,1.119,0,1.68,0c0.08,0,0.16,0,0.24,0c0.561,0,1.119,0,1.681,0c0,0.56,0,1.12,0,1.68
	c0.56,0,1.119,0,1.68,0s1.12,0,1.68,0c0.081,0,0.16,0,0.24,0c0.561,0,1.12,0,1.681,0s1.12,0,1.681,0c6.96,0,13.92,0,20.88,0
	c0.561,0,1.12,0,1.68,0c0.08,0,0.16,0,0.24,0c0.479,0,0.96,0,1.44,0c0.535-0.104,0.097-1.183,0.238-1.68c0.562,0,1.12,0,1.682,0
	c0.56,0,1.119,0,1.68,0s1.12,0,1.68,0c0.642,0,1.28,0,1.922,0c0-0.562,0-1.12,0-1.682c0.56,0,1.118,0,1.68,0
	c1.604,0.326,2.245-0.313,1.92-1.92c0.479,0,0.96,0,1.439,0c0.079,0,0.159,0,0.239,0c0.562,0,1.12,0,1.681,0c0-0.56,0-1.119,0-1.68
	c0.498-0.143,1.576,0.297,1.681-0.24c0-0.56,0-1.12,0-1.68c0.56,0,1.12,0,1.68,0c0.08,0,0.16,0,0.24,0c0.479,0,0.96,0,1.44,0
	c0-0.562,0-1.12,0-1.68c0.08,0,0.158,0,0.238,0c0.562,0,1.12,0,1.682,0c0.56,0,1.119,0,1.68,0c0-0.642,0-1.28,0-1.921
	c0-0.561,0-1.12,0-1.681c0.561,0,1.12,0,1.68,0c0.186-0.013,0.234-0.037,0.24-0.24c0.055-2.049,0.223-1.068,1.681-1.68
	c0-0.561,0-1.12,0-1.68c0.561,0,1.12,0,1.681,0c0-0.562,0-1.12,0-1.682c0.561,0,1.12,0,1.68,0c0-0.56,0-1.119,0-1.68
	c0.541-0.18,0.095-1.346,0.24-1.92c0.561,0,1.12,0,1.68,0c0-0.641,0-1.28,0-1.92c0-0.562,0-1.12,0-1.681c0.561,0,1.12,0,1.681,0
	c0-0.561,0-1.12,0-1.681s0-1.12,0-1.681c0-0.079,0-0.159,0-0.239c0-0.561,0-1.12,0-1.681c0.561,0,1.12,0,1.681,0
	c0-0.56,0-1.12,0-1.68c0-0.081,0-0.16,0-0.24c0-0.561,0-1.12,0-1.681s0-1.119,0-1.681c0-0.56,0-1.12,0-1.68c0.641,0,1.279,0,1.92,0
	c0-0.64,0-1.28,0-1.92c0-0.562,0-1.12,0-1.681c0-0.641,0-1.279,0-1.921c0-0.56,0-1.118,0-1.68c0.561,0,1.12,0,1.681,0
	c-0.056-3.546,0.169-7.369-0.24-10.56c-0.479,0-0.96,0-1.438,0c0-0.08,0-0.16,0-0.24c0-0.562,0-1.12,0-1.681c0-0.641,0-1.279,0-1.92
	c0.166-1.366-0.407-1.994-0.24-3.359c-0.562,0-1.12,0-1.681,0c0-0.08,0-0.16,0-0.24c0-0.479,0-0.96,0-1.44c0-0.08,0-0.158,0-0.238
	c0-0.562,0-1.12,0-1.682c0-0.56,0-1.119,0-1.68c0-0.08,0-0.16,0-0.24c0-0.56,0-1.119,0-1.68s0-1.12,0-1.681c-0.561,0-1.12,0-1.681,0
	c0-0.079,0-0.159,0-0.239c0-0.48,0-0.96,0-1.44c0-0.08,0-0.159,0-0.239c0-0.561,0-1.119,0-1.681c-0.561,0-1.12,0-1.68,0
	c0.23-1.431-0.119-2.28-1.681-1.92c-0.144-0.497,0.296-1.576-0.239-1.681c0-0.56,0-1.119,0-1.68c-0.561,0-1.12,0-1.681,0
	c0-0.081,0-0.16,0-0.24c0-0.561,0-1.119,0-1.681c-0.561,0-1.12,0-1.681,0c0-0.56,0-1.119,0-1.68
	c-0.497-0.144-1.576,0.297-1.681-0.24c-0.002-0.637,0.091-1.37-0.239-1.681c0-0.56,0-1.119,0-1.68c-0.561,0-1.12,0-1.681,0
	s-1.12,0-1.68,0c0-0.561,0-1.12,0-1.68c-0.104-0.537-1.185-0.099-1.681-0.24c-0.144-0.497,0.297-1.577-0.239-1.681
	c-0.48,0-0.961,0-1.44,0c0-0.561,0-1.119,0-1.681c-0.64,0-1.279,0-1.92,0c-0.561,0-1.12,0-1.681,0c0-0.56,0-1.12,0-1.68
	c-0.104-0.537-1.184-0.098-1.681-0.24c-0.08,0-0.16,0-0.239,0c-0.479,0-0.96,0-1.439,0c-0.08,0-0.16,0-0.24,0c0-0.56,0-1.12,0-1.68
	c-0.56,0-1.12,0-1.68,0c-0.562,0-1.12,0-1.68,0c0-8.299-0.024-30.335-0.002-33.624c22.342,0.001,48.527,0.021,71.762,0.022
	c1.106,0,8.22,0.423,8.64-0.24c0.068-0.105-0.056-1.649,0-1.68c0-9.438,0-212.719,0-289.68c0-0.562,0-1.12,0-1.68
	c-2.342-0.438-4.877-0.24-7.199-0.24c-37.237,0-74.687,0-111.601,0c0-10.562,0-21.12,0-31.682c12.16,0,24.32,0,36.479,0
	c0.573-0.146,1.74,0.303,1.921-0.238c0-0.562,0-1.12,0-1.682c0-66.957,0-133.921,0-200.88c0-0.56,0-1.12,0-1.68
	c-0.562,0-1.12,0-1.682,0c-12.239,0-24.479,0-36.72,0c0-11.28,0-22.561,0-33.84c39.521,0,79.04,0,118.561,0
	c0.536-0.104,0.098-1.184,0.239-1.681c0-0.08,0-0.16,0-0.239c0-55.038,0.48-181.2,0-181.2c0-36.639,0-73.281,0-109.92
	c-0.146-0.574,0.302-1.742-0.239-1.92c-26.721,0-53.439,0-80.159,0c0-11.2,0-22.4,0-33.6c0.497-0.143,1.576,0.296,1.68-0.24
	c0-0.56,0-1.12,0-1.68c0.561,0,1.12,0,1.681,0c0.079,0,0.159,0,0.239,0c0.479,0,0.96,0,1.439,0c0.537-0.103,0.098-1.183,0.239-1.68
	c0.562,0,1.12,0,1.681,0c0.498-0.143,1.577,0.296,1.681-0.24c0-0.56,0-1.12,0-1.68c0.561,0,1.12,0,1.681,0c0.079,0,0.159,0,0.239,0
	c0.479,0,0.96,0,1.44,0c0.536-0.104,0.097-1.183,0.239-1.68c0.496-0.143,1.576,0.297,1.681-0.24c0-0.48,0-0.96,0-1.44
	c0.56,0,1.119,0,1.68,0c0.691-0.028,1.571,0.131,1.921-0.24c0-0.56,0-1.12,0-1.68s0-1.12,0-1.68c0.496-0.143,1.575,0.296,1.68-0.24
	c0-0.56,0-1.12,0-1.68c0.561,0,1.12,0,1.681,0c0-0.56,0-1.12,0-1.68c0.561,0,1.12,0,1.681,0c0.371-0.349,0.211-1.229,0.239-1.92
	c0-0.56,0-1.12,0-1.68c0.479,0,0.96,0,1.439,0c0.537-0.104,0.098-1.183,0.24-1.68c0.497-0.143,1.577,0.297,1.68-0.24
	c0-0.56,0-1.12,0-1.68s0-1.12,0-1.68c0.497-0.143,1.577,0.296,1.681-0.24c0-0.56,0-1.12,0-1.68c0.561,0,1.12,0,1.681,0
	c0-0.56,0-1.12,0-1.68c0.537-0.104,0.098-1.183,0.239-1.68c0.561,0,1.12,0,1.681,0c0-0.64,0-1.28,0-1.92c0-0.56,0-1.12,0-1.68
	c0.497-0.143,1.576,0.297,1.68-0.24c0-5.84,0-11.68,0-17.52c0-0.64,0-1.28,0-1.92c-0.56,0-1.119,0-1.68,0c0-0.56,0-1.12,0-1.68
	c0-0.64,0-1.28,0-1.92c0.167-1.367-0.406-1.994-0.24-3.36c-0.479,0-0.96,0-1.438,0c0-0.08,0-0.16,0-0.24c0-0.56,0-1.12,0-1.68
	c0-0.64,0-1.28,0-1.92c0.166-1.367-0.407-1.993-0.24-3.36c-0.562,0-1.12,0-1.68,0c0-0.56,0-1.12,0-1.68
	c-0.104-0.537-1.185-0.097-1.682-0.24c0-0.56,0-1.12,0-1.68s0-1.12,0-1.68c-0.497-0.143-1.576,0.296-1.68-0.24c0-0.56,0-1.12,0-1.68
	c-0.561,0-1.12,0-1.681,0c0-0.56,0-1.12,0-1.68c0.325-1.606-0.313-2.246-1.92-1.92c0-0.56,0-1.12,0-1.68s0-1.12,0-1.68
	c-0.104-0.537-1.183-0.097-1.681-0.24c0-0.48,0-0.96,0-1.44c-0.104-0.537-1.184-0.097-1.68-0.24c0-0.56,0-1.12,0-1.68
	c-0.641,0-1.28,0-1.921,0c-0.561,0-1.12,0-1.68,0c0-0.56,0-1.12,0-1.68c-0.104-0.537-1.184-0.097-1.681-0.24
	c-0.144-0.497,0.297-1.577-0.239-1.68c-0.48,0-0.961,0-1.44,0c-0.08,0-0.16,0-0.239,0c-0.561,0-1.12,0-1.681,0c0-0.56,0-1.12,0-1.68
	c-0.104-0.537-1.183-0.097-1.681-0.24c0-0.56,0-1.12,0-1.68c-0.64,0-1.279,0-1.92,0c-0.479,0-0.96,0-1.439,0
	c-0.143-0.497,0.297-1.577-0.239-1.68c-0.561,0-1.12,0-1.681,0s-1.12,0-1.68,0c0-0.56,0-1.12,0-1.68
	c-0.104-0.537-1.185-0.097-1.682-0.24c-0.64,0-1.279,0-1.92,0c-0.56,0-1.12,0-1.68,0c0-0.56,0-1.12,0-1.68c-0.562,0-1.12,0-1.681,0
	c-0.08,0-0.159,0-0.239,0c-0.48,0-0.96,0-1.44,0c-0.08,0-0.16,0-0.24,0c-0.56,0-1.118,0-1.68,0c-0.56,0-1.12,0-1.68,0
	c-5.28,0-10.562,0-15.84,0c-0.562,0-1.12,0-1.682,0c-0.56,0-1.12,0-1.68,0c-0.561,0-1.12,0-1.68,0c-0.082,0-0.16,0-0.24,0
	c-0.562,0-1.12,0-1.682,0c0,0.56,0,1.12,0,1.68c-0.56,0-1.119,0-1.68,0s-1.12,0-1.68,0c-0.562,0-1.12,0-1.681,0
	c-0.641,0-1.28,0-1.92,0c0,0.64,0,1.28,0,1.92c-0.561,0-1.12,0-1.681,0s-1.12,0-1.681,0c-0.536,0.104-0.098,1.183-0.239,1.68
	c-0.561,0-1.12,0-1.681,0c0,0.56,0,1.12,0,1.68c-0.497,0.143-1.577-0.297-1.681,0.24c0,0.56,0,1.12,0,1.68c-0.561,0-1.119,0-1.68,0
	s-1.12,0-1.681,0c-0.537,0.103-0.098,1.183-0.24,1.68c-1.561-0.36-1.911,0.489-1.68,1.92c-0.562,0-1.12,0-1.681,0
	c0,0.56,0,1.12,0,1.68c-0.641,0-1.279,0-1.92,0c0,0.56,0,1.12,0,1.68c-0.561,0-1.12,0-1.681,0c0,0.64,0,1.28,0,1.92
	c-0.56,0-1.12,0-1.68,0c0,0.56,0,1.12,0,1.68c-0.497,0.143-1.577-0.297-1.682,0.24c0,0.56,0,1.12,0,1.68c-0.56,0-1.118,0-1.68,0
	c0,0.56,0,1.12,0,1.68c-0.536,0.104-0.098,1.183-0.24,1.68c-0.637,0.002-1.37-0.091-1.68,0.24c0,0.56,0,1.12,0,1.68s0,1.12,0,1.68
	c-0.562,0-1.12,0-1.681,0c0,0.64,0,1.28,0,1.92c0,0.56,0,1.12,0,1.68c-0.561,0-1.119,0-1.681,0c0,0.56,0,1.12,0,1.68
	c0,0.08,0,0.16,0,0.24c0,0.56,0,1.12,0,1.68c0,0.56,0,1.12,0,1.68c-0.689,0.029-1.571-0.131-1.92,0.24c0,1.12,0,2.24,0,3.36
	c0,0.64,0,1.28,0,1.92c0,0.56,0,1.12,0,1.68c-0.56,0-1.12,0-1.68,0c0,0.64,0,1.28,0,1.92c0,0.56,0,1.12,0,1.68
	c-0.231,1.432,0.118,2.281,1.68,1.92c0,0.56,0,1.12,0,1.68s0,1.12,0,1.68c0,0.64,0,1.28,0,1.92c0,2.96,0,5.92,0,8.88
	c0.641,0,1.28,0,1.92,0c0,0.56,0,1.12,0,1.68s0,1.12,0,1.68c0,0.08,0,0.16,0,0.24c0,0.56,0,1.12,0,1.68c0.562,0,1.12,0,1.681,0
	c0,0.56,0,1.12,0,1.68s0,1.12,0,1.68c0.104,0.537,1.184,0.097,1.681,0.24c0,0.56,0,1.12,0,1.68c-0.231,1.431,0.119,2.281,1.68,1.92
	c0,0.56,0,1.12,0,1.68c0.144,0.497-0.296,1.577,0.24,1.68c0.562,0,1.12,0,1.68,0c0,0.56,0,1.12,0,1.68c0,0.08,0,0.16,0,0.24
	c0,0.56,0,1.12,0,1.68c0.498,0.143,1.577-0.296,1.682,0.24c0,0.48,0,0.96,0,1.44c0.035,0.534,1.518,0.095,1.68,0.24
	c0.418,0.374-0.507,1.09,0.24,1.68c0.479,0,0.96,0,1.438,0c0.08,0,0.16,0,0.24,0c0.562,0,1.12,0,1.68,0c0,0.56,0,1.12,0,1.68
	c0,0.08,0,0.16,0,0.24c0,0.56,0,1.12,0,1.68c0.642,0,1.28,0,1.922,0c0.479,0,0.959,0,1.438,0c0.144,0.497-0.297,1.577,0.24,1.68
	c0.56,0,1.12,0,1.68,0c0,0.56,0,1.12,0,1.68c0.104,0.537,1.184,0.097,1.681,0.24c0,0.56,0,1.12,0,1.68c0.561,0,1.119,0,1.681,0
	c0.08,0,0.159,0,0.239,0c0,0.56,0,1.12,0,1.68c0.638,0.002,1.371-0.091,1.681,0.24c0.561,0,1.12,0,1.681,0c0,11.2,0,22.4,0,33.6
	c-0.16,0-0.319,0-0.479,0c-359.989,0-720.021,0-1080,0c0-11.2,0-22.4,0-33.6c0.56,0,1.12,0,1.68,0s1.12,0,1.68,0s1.12,0,1.68,0
	c0.371-0.349,0.211-1.229,0.24-1.92c0.48,0,0.96,0,1.44,0c0.184-0.012,0.234-0.037,0.24-0.24c0.054-2.049,0.222-1.069,1.68-1.68
	c0-0.56,0-1.12,0-1.68c0.56,0,1.12,0,1.68,0c0.08,0,0.16,0,0.24,0c0.48,0,0.96,0,1.44,0c0.185-0.013,0.235-0.037,0.24-0.24
	c0.054-2.049,0.222-1.069,1.68-1.68c0-0.48,0-0.96,0-1.44c0-0.08,0-0.16,0-0.24c0-0.56,0-1.12,0-1.68c0.56,0,1.12,0,1.68,0
	s1.12,0,1.68,0c0.537-0.103,0.097-1.183,0.24-1.68c0.638-0.002,1.371,0.09,1.68-0.24c0-0.56,0-1.12,0-1.68c0.56,0,1.12,0,1.68,0
	c0-0.56,0-1.12,0-1.68c0.56,0,1.12,0,1.68,0c0-0.64,0-1.28,0-1.92c0-0.56,0-1.12,0-1.68c0.64,0,1.28,0,1.92,0c0-0.64,0-1.28,0-1.92
	c0-0.56,0-1.12,0-1.68c0.56,0,1.12,0,1.68,0c0-0.56,0-1.12,0-1.68c0-0.64,0-1.28,0-1.92c0-0.56,0-1.12,0-1.68c0.56,0,1.12,0,1.68,0
	c0-0.56,0-1.12,0-1.68c0-0.08,0-0.16,0-0.24c0-0.56,0-1.12,0-1.68c0.64,0,1.28,0,1.92,0c0-0.64,0-1.28,0-1.92c0-8.8,0-17.6,0-26.4
	c-0.371-0.349-0.211-1.229-0.24-1.92c-0.56,0-1.12,0-1.68,0c0-0.56,0-1.12,0-1.68c0-0.08,0-0.16,0-0.24c0-0.48,0-0.96,0-1.44
	c-0.104-0.537-1.183-0.097-1.68-0.24c0-0.56,0-1.12,0-1.68c0.231-1.431-0.119-2.281-1.68-1.92c0-0.56,0-1.12,0-1.68
	c0.326-1.605-0.314-2.246-1.92-1.92c0-0.48,0-0.96,0-1.44c0-0.08,0-0.16,0-0.24c0-0.56,0-1.12,0-1.68c-0.56,0-1.12,0-1.68,0
	c0-0.56,0-1.12,0-1.68c-0.56,0-1.12,0-1.68,0c0-0.08,0-0.16,0-0.24c-0.143-0.498,0.296-1.577-0.24-1.68c-0.48,0-0.96,0-1.44,0
	c-0.028-0.691,0.131-1.571-0.24-1.92c0-0.48,0-0.96,0-1.44c-0.56,0-1.12,0-1.68,0c0-0.08,0-0.16,0-0.24c0-0.56,0-1.12,0-1.68
	c-0.56,0-1.12,0-1.68,0c0-0.56,0-1.12,0-1.68c-0.56,0-1.12,0-1.68,0c-0.31-0.331-1.042-0.238-1.68-0.24
	c-0.143-0.497,0.297-1.577-0.24-1.68c-0.56,0-1.12,0-1.68,0c0-0.56,0-1.12,0-1.68c-0.56,0-1.12,0-1.68,0
	c-0.309-0.331-1.042-0.237-1.68-0.24c0-0.56,0-1.12,0-1.68c-0.64,0-1.28,0-1.92,0c0-0.56,0-1.12,0-1.68c-0.56,0-1.12,0-1.68,0
	s-1.12,0-1.68,0c-0.08,0-0.16,0-0.24,0c0-0.56,0-1.12,0-1.68c-0.638-0.002-1.371,0.09-1.68-0.24c-0.56,0-1.12,0-1.68,0
	s-1.12,0-1.68,0s-1.12,0-1.68,0c-0.143-0.497,0.297-1.577-0.24-1.68c-0.56,0-1.12,0-1.68,0s-1.12,0-1.68,0s-1.12,0-1.68,0
	c-0.08,0-0.16,0-0.24,0c-5.76,0-11.52,0-17.28,0c-0.56,0-1.12,0-1.68,0s-1.12,0-1.68,0c-0.08,0-0.16,0-0.24,0c-0.56,0-1.12,0-1.68,0
	s-1.12,0-1.68,0c0,0.56,0,1.12,0,1.68c-0.64,0-1.28,0-1.92,0c-0.56,0-1.12,0-1.68,0s-1.12,0-1.68,0
	c-0.497,0.143-1.577-0.296-1.68,0.24c0,0.56,0,1.12,0,1.68c-0.56,0-1.12,0-1.68,0c-0.08,0-0.16,0-0.24,0c-0.56,0-1.12,0-1.68,0
	c0,0.56,0,1.12,0,1.68c-0.498,0.143-1.577-0.297-1.68,0.24c-0.56,0-1.12,0-1.68,0c0,0.48,0,0.96,0,1.44c-0.08,0-0.16,0-0.24,0
	c-0.56,0-1.12,0-1.68,0c0,0.64,0,1.28,0,1.92c-0.56,0-1.12,0-1.68,0c0,0.56,0,1.12,0,1.68c-0.498,0.143-1.577-0.296-1.68,0.24
	c0,0.56,0,1.12,0,1.68c-0.56,0-1.12,0-1.68,0c-0.537,0.103-0.097,1.183-0.24,1.68c-0.48,0-0.96,0-1.44,0
	c-0.331,0.31-0.238,1.042-0.24,1.68c-0.497,0.143-1.577-0.297-1.68,0.24c0,0.56,0,1.12,0,1.68c-0.56,0-1.12,0-1.68,0
	c0,0.56,0,1.12,0,1.68c-0.691,0.028-1.571-0.131-1.92,0.24c0,0.56,0,1.12,0,1.68c-0.56,0-1.12,0-1.68,0c0,0.56,0,1.12,0,1.68
	c0,0.08,0,0.16,0,0.24c0,0.48,0,0.96,0,1.44c-0.497,0.143-1.577-0.296-1.68,0.24c0,0.56,0,1.12,0,1.68s0,1.12,0,1.68
	c-1.606-0.326-2.246,0.314-1.92,1.92c0,0.56,0,1.12,0,1.68c0,0.08,0,0.16,0,0.24c-0.48,0-0.96,0-1.44,0
	c0.108,1.308-0.428,1.972-0.24,3.36c0,0.56,0,1.12,0,1.68c0,0.64,0,1.28,0,1.92c-0.56,0-1.12,0-1.68,0c0,0.56,0,1.12,0,1.68
	c0,0.64,0,1.28,0,1.92c0,0.56,0,1.12,0,1.68c0,0.56,0,1.12,0,1.68c0,3.6,0,7.2,0,10.8c0,0.64,0,1.28,0,1.92c0,0.56,0,1.12,0,1.68
	c0,0.56,0,1.12,0,1.68c0.56,0,1.12,0,1.68,0c0,0.56,0,1.12,0,1.68c0,0.64,0,1.28,0,1.92s0,1.28,0,1.92c0,1.12,0,2.24,0,3.36
	c0.56,0,1.12,0,1.68,0c0,0.64,0,1.28,0,1.92c0.143,0.497-0.296,1.577,0.24,1.68c0,0.56,0,1.12,0,1.68c0.56,0,1.12,0,1.68,0
	c0,0.08,0,0.16,0,0.24c0,0.56,0,1.12,0,1.68c0.56,0,1.12,0,1.68,0c0,0.56,0,1.12,0,1.68c0,0.56,0,1.12,0,1.68c0.56,0,1.12,0,1.68,0
	c0.146,0.574-0.301,1.741,0.24,1.92c0.56,0,1.12,0,1.68,0c0,0.56,0,1.12,0,1.68c0.104,0.537,1.183,0.097,1.68,0.24
	c0,0.56,0,1.12,0,1.68s0,1.12,0,1.68c0.56,0,1.12,0,1.68,0c0.31,0.331,1.042,0.237,1.68,0.24c0.002,0.638-0.091,1.371,0.24,1.68
	c0.56,0,1.12,0,1.68,0c0,0.56,0,1.12,0,1.68c0.56,0,1.12,0,1.68,0c0,0.56,0,1.12,0,1.68c0.56,0,1.12,0,1.68,0
	c0.104,0.537,1.183,0.097,1.68,0.24c0.143,0.497-0.297,1.577,0.24,1.68c0.56,0,1.12,0,1.68,0c0,0.64,0,1.28,0,1.92
	c0.56,0,1.12,0,1.68,0c0,11.2,0,22.4,0,33.6c-25.601,0-52.492,0.082-78.093,0.082 M548.914,905.078c0-0.018-0.001-0.036-0.001-0.054
	C548.914,905.042,548.915,905.061,548.914,905.078z M1308.009,1195.202c-0.479,0-0.96,0-1.439,0c-0.08,0-0.16,0-0.24,0
	c-0.56,0-1.119,0-1.68,0s-1.12,0-1.681,0c0,0.561,0,1.12,0,1.681c-6.399,0-12.801,0-19.199,0c0-0.561,0-1.12,0-1.681
	c-0.561,0-1.12,0-1.681,0s-1.12,0-1.681,0c-0.08,0-0.159,0-0.24,0c-0.561,0-1.119,0-1.68,0s-1.12,0-1.681,0c0-0.561,0-1.119,0-1.681
	c-0.104-0.536-1.183-0.098-1.68-0.239c-0.642,0-1.28,0-1.92,0c0-0.561,0-1.12,0-1.681c-0.562,0-1.12,0-1.682,0
	c-0.56,0-1.12,0-1.68,0c-0.143-0.496,0.297-1.576-0.24-1.68c-0.479,0-0.96,0-1.439,0c-0.08,0-0.159,0-0.239,0
	c0-0.561,0-1.12,0-1.681c-0.561,0-1.12,0-1.681,0c-0.104-0.536-1.184-0.098-1.681-0.239c0-0.562,0-1.12,0-1.682
	c-0.56,0-1.12,0-1.68,0c-0.08,0-0.16,0-0.24,0c0-0.56,0-1.119,0-1.68c-0.479,0-0.96,0-1.438,0c-0.181-0.541-1.348-0.094-1.921-0.24
	c0-0.56,0-1.119,0-1.68c-0.561,0-1.119,0-1.681,0c0-0.561,0-1.12,0-1.681c0-0.479,0-0.96,0-1.439
	c-0.033-0.687-1.001-0.438-1.68-0.479c0-0.561,0-1.119,0-1.681c-0.08,0-0.16,0-0.24,0c-0.56,0-1.12,0-1.68,0c0-0.56,0-1.12,0-1.68
	c-0.104-0.537-1.184-0.099-1.682-0.24c0-0.56,0-1.12,0-1.68c0-0.562,0-1.12,0-1.682c0-0.56,0-1.12,0-1.68c0-0.08,0-0.16,0-0.24
	c0-0.56,0-1.12,0-1.68c-0.56,0-1.119,0-1.68,0c0-0.561,0-1.12,0-1.681c0-0.08,0-0.159,0-0.239c-0.144-0.497,0.297-1.577-0.24-1.682
	c-0.479,0-0.96,0-1.438,0c-0.144-0.497,0.297-1.575-0.24-1.68c0-0.56,0-1.12,0-1.68c-0.561,0-1.12,0-1.68,0c0-0.08,0-0.16,0-0.24
	c0-5.28,0-10.561,0-15.84c0-0.08,0-0.16,0-0.24c0-0.479,0-0.96,0-1.438c0.56,0,1.118,0,1.68,0c0.371-0.351,0.211-1.229,0.24-1.921
	c0-0.561,0-1.12,0-1.681c0-1.84,0-3.68,0-5.52c0-0.562,0-1.12,0-1.682c0.479,0,0.96,0,1.438,0c0.537-0.103,0.099-1.183,0.24-1.68
	c0.497-0.144,1.576,0.297,1.68-0.24c0-0.561,0-1.119,0-1.68s0-1.12,0-1.681c0.498-0.143,1.577,0.297,1.682-0.239
	c0-0.48,0-0.961,0-1.44c0-0.08,0-0.159,0-0.239c0-0.561,0-1.12,0-1.681c0.56,0,1.12,0,1.68,0c0.536-0.104,0.098-1.183,0.24-1.681
	c0-0.079,0-0.159,0-0.239c0-0.561,0-1.12,0-1.681c0.479,0,0.96,0,1.438,0c0.537-0.104,0.099-1.183,0.24-1.68c0-0.081,0-0.16,0-0.24
	c0-0.56,0-1.12,0-1.681c0.561,0,2.8,0,3.36,0c0.536-0.104,0.097-1.183,0.239-1.681c0.479,0,0.959,0,1.439,0
	c0.537-0.104,0.098-1.183,0.24-1.68c0.496-0.143,1.576,0.297,1.68-0.24c0-0.56,0-1.119,0-1.68c0.561,0,1.12,0,1.68,0
	c0.562,0,1.12,0,1.682,0c0.536-0.104,0.097-1.183,0.238-1.68c0.48,0,0.962,0,1.44,0c0.31-0.331,1.043-0.238,1.68-0.24
	c0.537-0.104,0.099-1.184,0.24-1.682c0.562,0,1.12,0,1.681,0c0-0.56,0-1.118,0-1.68c0.561,0,1.119,0,1.681,0c0.08,0,0.16,0,0.24,0
	c0.56,0,1.118,0,1.68,0c0-0.64,0-1.28,0-1.92c0-12.96-1.68-146.239-1.68-198.96c0-0.64,0-1.28,0-1.92c-0.642,0-1.28,0-1.921,0
	c-120.403,0-240.795,0-361.199,0c0-12.96,0-25.92,0-38.88c15.68,0,31.358,0,47.04,0c0.479,0,0.96,0,1.438,0
	c0.537-0.104,0.099-1.184,0.24-1.682c0.64,0,1.28,0,1.92,0c0-0.64,0-1.278,0-1.92c0.561,0,1.12,0,1.68,0c0-0.56,0-1.12,0-1.68
	c0.498-0.143,1.577,0.297,1.682-0.24c0-0.56,0-1.12,0-1.68c0.56,0,1.12,0,1.68,0c0.537-0.104,0.098-1.183,0.24-1.68
	c0.479,0,0.96,0,1.438,0c0.688-0.033-0.207-1.647,0.48-1.682c0.422-0.138,1.41,0.29,1.438-0.238c0-0.562,0-1.12,0-1.682
	c0.562,0,1.12,0,1.682,0c0-0.56,0-1.12,0-1.68c0.56,0,1.12,0,1.68,0c0.541-0.18,0.094-1.348,0.24-1.92c0.479,0,0.96,0,1.438,0
	c0.537-0.104,0.099-1.184,0.24-1.682c0.562,0,1.12,0,1.68,0c0-0.56,0-1.119,0-1.68c0.642,0,1.28,0,1.921,0c0-0.64,0-1.279,0-1.92
	c0.479,0,0.961,0,1.439,0c0.688-0.032-0.207-1.646,0.48-1.68c0.422-0.14,1.408,0.29,1.438-0.24c0-0.561,0-1.12,0-1.68
	c0.48,0,0.96,0,1.44,0c0.536-0.104,0.097-1.184,0.239-1.682c0.561,0,1.119,0,1.681,0c0.536-0.103,0.097-1.183,0.24-1.68
	c0.637-0.002,1.369,0.091,1.68-0.24c0-18.88,0-37.76,0-56.64c0-0.641,0-1.28,0-1.92c-0.562,0-1.12,0-1.68,0c-0.08,0-0.16,0-0.24,0
	c-130.88,0-261.762,0-392.641,0c-0.56,0-1.119,0-1.68,0c-0.537,0.104-0.097,1.183-0.24,1.68c0,18.96,0,37.92,0,56.88
	c0,0.48,0,0.96,0,1.44c0.054,0.746,1.194,0.405,1.92,0.479c0,0.562,0,1.12,0,1.682c0.561,0,1.12,0,1.681,0c0,0.56,0,1.12,0,1.68
	c0.103,0.537,1.183,0.098,1.68,0.24c0.143,0.497-0.296,1.575,0.24,1.68c0.479,0,0.96,0,1.439,0c0,0.561,0,1.12,0,1.68
	c0.35,0.371,1.229,0.212,1.92,0.24c0,0.562,0,1.12,0,1.68c0.561,0,1.12,0,1.681,0c0,0.562,0,1.12,0,1.682c0.56,0,1.12,0,1.68,0
	c-0.231,1.431,0.119,2.28,1.68,1.92c0,0.56,0,1.12,0,1.68c0.08,0,0.16,0,0.24,0c0.561,0,1.12,0,1.68,0c0,0.562,0,1.12,0,1.681
	c-0.408,0.491,1.529,0.107,1.681,0.239c0.435,0.383-0.496,1.065,0.239,1.682c0.48,0,0.961,0,1.44,0
	c0.143,0.497-0.296,1.575,0.24,1.68c0.56,0,1.12,0,1.68,0c0,0.56,0,1.12,0,1.68c0,0.08,0,0.16,0,0.24c0,0.479,0,0.96,0,1.44
	c0.104,0.535,1.183,0.097,1.68,0.238c0,0.642,0,1.28,0,1.92c0.561,0,1.12,0,1.681,0c0.08,0,0.16,0,0.239,0c0,0.562,0,1.12,0,1.682
	c0.48,0,0.96,0,1.44,0c0.08,0,0.16,0,0.24,0c16.24,0,32.479,0,48.72,0c0,12.96,0,25.92,0,38.88
	c-39.304,0.159-79.239-0.313-118.156,0.232c-0.091-0.016-0.168-0.016-0.225,0.003h0.001c-0.141,0.002-0.281,0.003-0.42,0.005
	c-0.48,0-0.96,0-1.44,0c0,0.56,0,1.12,0,1.68c-0.537,0.104-0.097,1.183-0.239,1.68c-0.497,0.144-1.577-0.297-1.681,0.24
	c0,0.561,0,1.12,0,1.68c-0.56,0-1.12,0-1.68,0c0,0.562,0,1.12,0,1.682c-0.561,0-1.12,0-1.68,0c-0.516,0.895,0.312,2.149-1.681,1.68
	c-0.371,0.349-0.211,1.229-0.24,1.92c-0.56,0-1.119,0-1.68,0c0,0.562,0,1.12,0,1.68c-0.498,0.145-1.577-0.296-1.68,0.24
	c0,0.562,0,1.12,0,1.681c-0.561,0-1.12,0-1.68,0c-0.537,0.104-0.098,1.184-0.24,1.681c-0.497,0.143-1.577-0.297-1.68,0.24
	c0,0.56,0,1.118,0,1.68c-0.48,0-0.961,0-1.44,0c-0.537,0.104-0.097,1.183-0.24,1.68c-0.56,0-1.12,0-1.68,0
	c-0.537,0.104-0.097,1.184-0.24,1.681c-1.561-0.36-1.911,0.488-1.68,1.921c-0.561,0-1.12,0-1.681,0c0,0.56,0,1.12,0,1.68
	c-0.496,0.143-1.576-0.297-1.68,0.24c0,0.56,0,1.12,0,1.68c-0.56,0-1.12,0-1.68,0c-0.537,0.104-0.097,1.183-0.24,1.68
	c-0.479,0-0.96,0-1.439,0c-0.537,0.104-0.098,1.184-0.24,1.682c-0.498,0.143-1.577-0.297-1.68,0.238c0,0.562,0,1.12,0,1.682
	c-0.48,0-0.961,0-1.44,0c-0.537,0.104-0.097,1.183-0.24,1.68c-0.56,0-1.12,0-1.68,0c-0.371,0.349-0.211,1.229-0.24,1.92
	c-0.56,0-1.12,0-1.68,0c0,0.562,0,1.12,0,1.681c-0.561,0-1.12,0-1.681,0c0,0.561,0,1.119,0,1.681c-0.56,0-1.119,0-1.68,0
	c-0.371,0.349-0.211,1.229-0.24,1.92c-0.479,0-0.96,0-1.439,0c-0.537,0.104-0.097,1.183-0.24,1.68
	c-0.497,0.144-1.577-0.297-1.68,0.24c0,0.56,0,1.12,0,1.68c-0.561,0-1.12,0-1.68,0c0,0.562,0,1.12,0,1.682c-0.561,0-1.12,0-1.681,0
	c-0.537,0.103-0.097,1.183-0.24,1.68c-1.561-0.361-1.911,0.488-1.68,1.92c-0.56,0-1.12,0-1.68,0c0,0.56,0,1.12,0,1.68
	c-0.498,0.144-1.577-0.297-1.681,0.24c0,0.562,0,1.12,0,1.68c-0.56,0-1.119,0-1.68,0c-0.537,0.104-0.097,1.185-0.24,1.682
	c-0.56,0-1.119,0-1.68,0c0,0.56,0,1.12,0,1.68c-0.497,0.144-1.577-0.297-1.68,0.24c0,0.56,0,1.12,0,1.68c-0.561,0-1.12,0-1.68,0
	c-0.537,0.104-0.098,1.184-0.24,1.681c-1.562-0.36-1.911,0.488-1.681,1.921c-0.56,0-1.119,0-1.68,0c0,0.56,0,1.118,0,1.68
	c-0.497,0.143-1.577-0.297-1.68,0.24c0,0.479,0,0.96,0,1.438c-0.561,0-1.12,0-1.681,0c-0.37,0.35-0.211,1.229-0.239,1.92
	c-0.48,0-0.96,0-1.44,0c-0.537,0.104-0.097,1.184-0.24,1.681c-0.496,0.144-1.575-0.296-1.68,0.239c0,0.562,0,1.12,0,1.682
	c-0.56,0-1.12,0-1.68,0c0,0.56,0,1.12,0,1.68c-1.432-0.23-2.281,0.119-1.92,1.68c-0.561,0-1.12,0-1.681,0c0,0.08,0,0.16,0,0.24
	c0,0.561,0,1.12,0,1.68c-0.56,0-1.119,0-1.68,0c-94.801,0-189.599,0-284.4,0c-0.537,0.104-0.097,1.184-0.24,1.682
	c-0.497,0.143-1.577-0.297-1.68,0.239c0,27.199,0,123.761,0,124.319c0.56,0,1.12,0,1.68,0c0.143,0.497-0.296,1.577,0.24,1.681
	c0.48,0,0.96,0,1.44,0c0.028,0.69-0.131,1.57,0.24,1.921c0.56,0,1.12,0,1.68,0s1.12,0,1.68,0c0,0.56,0,1.119,0,1.68
	c0.56,0,1.12,0,1.68,0c0,0.641,0,1.28,0,1.92c0.56,0,1.12,0,1.68,0c0.08,0,0.16,0,0.24,0c0,0.561,0,1.12,0,1.681
	c0.56,0,1.12,0,1.68,0s1.12,0,1.68,0c0.143,0.497-0.297,1.577,0.24,1.68c0.48,0,0.96,0,1.44,0c0,0.562,0,1.12,0,1.681
	c0.349,0.371,1.229,0.211,1.92,0.24c0,0.479,0,0.96,0,1.439c0.104,0.537,1.183,0.098,1.68,0.239c0,0.561,0,1.12,0,1.681
	c0.104,0.537,1.183,0.098,1.68,0.24c0.143,0.496-0.297,1.576,0.24,1.68c0.48,0,0.96,0,1.44,0c0,0.641,0,1.28,0,1.92
	c0,0.561,0,1.12,0,1.681c0.64,0,1.28,0,1.92,0c0,0.561,0,1.12,0,1.681c0,0.64,0,1.279,0,1.92c0,0.561,0,1.12,0,1.68
	c0.56,0,1.12,0,1.68,0c0,0.642,0,1.28,0,1.92c0,0.562,0,1.12,0,1.682c0,0.56,0,1.12,0,1.68c0,0.562,0,1.12,0,1.682
	c0,0.079,0,0.158,0,0.238c0,0.562,0,1.12,0,1.682c0.56,0,1.12,0,1.68,0c0,0.56,0,1.119,0,1.68c0,0.64,0,1.28,0,1.92
	c0,2.88,0,5.76,0,8.641c0,0.641,0,1.279,0,1.92c0,0.561,0,1.119,0,1.681c-0.56,0-1.12,0-1.68,0c0,0.64,0,1.279,0,1.92
	c0,0.561,0,1.12,0,1.681c0,0.079,0,0.159,0,0.239c0,0.561,0,1.12,0,1.681c-0.56,0-1.12,0-1.68,0c0,0.561,0,1.119,0,1.68
	c0,1.761,0,3.521,0,5.28c-0.691,0.027-1.571-0.131-1.92,0.239c0,0.561,0,1.12,0,1.681s0,1.12,0,1.681c-0.48,0-0.96,0-1.44,0
	c-0.537,0.104-0.097,1.184-0.24,1.681c0,0.64,0,1.279,0,1.92c-0.56,0-1.12,0-1.68,0c0,0.561,0,1.12,0,1.68
	c-0.497,0.144-1.577-0.296-1.68,0.24c0,0.561,0,1.12,0,1.68c-0.56,0-1.12,0-1.68,0c0,0.562,0,1.12,0,1.682c-0.08,0-0.16,0-0.24,0
	c-0.48,0-0.96,0-1.44,0c-0.537,0.104-0.097,1.183-0.24,1.68c-0.498,0.143-1.577-0.297-1.68,0.24c0,0.56,0,1.12,0,1.68
	c-0.56,0-1.12,0-1.68,0c-0.537,0.104-0.097,1.183-0.24,1.681c-0.56,0-1.12,0-1.68,0c0,0.641,0,1.279,0,1.921c-0.56,0-1.12,0-1.68,0
	s-1.12,0-1.68,0c0,0.56,0,1.118,0,1.68c-0.56,0-1.12,0-1.68,0c-0.537,0.104-0.097,1.183-0.24,1.68c-1.12,0-2.24,0-3.36,0
	c-0.56,0-1.12,0-1.68,0c-0.64,0-1.28,0-1.92,0c0,0.642,0,1.28,0,1.921c-0.56,0-1.12,0-1.68,0c-0.56,0-1.12,0-1.68,0
	c-0.64,0-1.28,0-1.92,0c-0.56,0-1.12,0-1.68,0c0,0.561,0,1.119,0,1.681c-5.84,0-11.68,0-17.52,0c0-0.562,0-1.12,0-1.681
	c-0.48,0-0.96,0-1.44,0c-0.08,0-0.16,0-0.24,0c-0.56,0-1.12,0-1.68,0s-1.12,0-1.68,0c-0.64,0-1.28,0-1.92,0c0-0.561,0-1.119,0-1.681
	c-1.308,0.108-1.972-0.428-3.36-0.24c-0.56,0-1.12,0-1.68,0s-1.12,0-1.68,0c-0.143-0.497,0.296-1.575-0.24-1.68
	c-0.56,0-1.12,0-1.68,0c0-0.479,0-0.96,0-1.44c-0.104-0.535-1.183-0.097-1.68-0.238c0-0.562,0-1.12,0-1.682
	c-0.104-0.535-1.183-0.097-1.68-0.238c-0.56,0-1.12,0-1.68,0c-0.143-0.498,0.296-1.577-0.24-1.682c-0.56,0-1.12,0-1.68,0
	c0-0.56,0-1.12,0-1.68c-0.104-0.537-1.183-0.098-1.68-0.24c0-0.56,0-1.12,0-1.68c-0.56,0-1.12,0-1.68,0
	c-0.143-0.497,0.297-1.577-0.24-1.682c-0.48,0-0.96,0-1.44,0c0-0.64,0-1.278,0-1.92c-0.143-0.497,0.296-1.576-0.24-1.68
	c-0.56,0-1.12,0-1.68,0c0-0.561,0-1.12,0-1.68c-0.104-0.537-1.183-0.099-1.68-0.24c0-0.561,0-1.12,0-1.681c-0.56,0-1.12,0-1.68,0
	c0-0.561,0-1.12,0-1.681c0-0.479,0-0.96,0-1.439c-0.053-0.746-1.194-0.404-1.92-0.479c0-0.56,0-1.12,0-1.68c0-0.561,0-1.12,0-1.681
	c-0.104-0.537-1.183-0.098-1.68-0.24c0-0.56,0-1.119,0-1.681c0-0.56,0-1.119,0-1.68s0-1.12,0-1.681c-0.56,0-1.12,0-1.68,0
	c0-7.76,0-15.52,0-23.279c0.56,0,1.12,0,1.68,0c0-0.561,0-1.12,0-1.681c0-0.08,0-0.16,0-0.239c0-0.479,0-0.961,0-1.44
	c0-0.64,0-1.279,0-1.92c0.56,0,1.12,0,1.68,0c0-0.561,0-1.119,0-1.681c0-0.079,0-0.159,0-0.239c0-0.561,0-1.119,0-1.681
	c0.64,0,1.28,0,1.92,0c0-0.56,0-1.119,0-1.68s0-1.12,0-1.681c0.498-0.144,1.577,0.297,1.68-0.239c0-0.562,0-1.12,0-1.682
	c0.56,0,1.12,0,1.68,0c0-0.56,0-1.119,0-1.68c0-0.08,0-0.16,0-0.24c0-0.56,0-1.119,0-1.68c0.56,0,1.12,0,1.68,0
	c0.537-0.104,0.097-1.183,0.24-1.68c1.561,0.359,1.911-0.489,1.68-1.922c0.48,0,0.96,0,1.44,0c0.537-0.103,0.097-1.183,0.24-1.68
	c0.48,0,0.96,0,1.44,0c0.537-0.104,0.097-1.183,0.24-1.68c0.56,0,1.12,0,1.68,0c0.284-0.276,0.849-0.271,1.44-0.24
	c0.537-0.104,0.098-1.183,0.24-1.68c0.08,0,0.16,0,0.24,0c0.48,0,0.96,0,1.44,0c0.537-0.104,0.097-1.184,0.24-1.681
	c0.56,0,1.12,0,1.68,0c0-0.641,0-1.28,0-1.921c0.56,0,1.12,0,1.68,0c0.537-0.103,0.098-1.183,0.24-1.68c0.56,0,1.12,0,1.68,0
	s1.12,0,1.68,0c0-0.561-1.68-122.08-1.68-161.76c101.203,0,202.396,0,303.6,0c0.537-0.104,0.097-1.184,0.24-1.682
	c1.561,0.361,1.911-0.488,1.68-1.92c0.561,0,1.12,0,1.68,0c0-0.56,0-1.119,0-1.68c0.561,0,1.12,0,1.681,0c0-0.561,0-1.12,0-1.681
	c0.56,0,1.12,0,1.68,0c0.371-0.35,0.211-1.229,0.24-1.92c0.479,0,0.96,0,1.439,0c0.08,0,0.16,0,0.24,0c0-0.561,0-1.12,0-1.681
	c0.497-0.143,1.577,0.297,1.68-0.239c0-0.561,0-1.12,0-1.681c0.561,0,1.12,0,1.681,0c0.537-0.104,0.097-1.184,0.239-1.68
	c0.48,0,0.96,0,1.44,0c0.537-0.104,0.097-1.184,0.24-1.681c0.497-0.144,1.577,0.296,1.68-0.239c0-0.561,0-1.12,0-1.681
	c0.561,0,1.12,0,1.68,0c0-0.561,0-1.12,0-1.681c0.561,0,1.12,0,1.681,0c0.371-0.35,0.211-1.229,0.239-1.92c0.48,0,0.96,0,1.44,0
	c0.537-0.104,0.097-1.184,0.24-1.681c0.56,0,1.12,0,1.68,0c0-0.561,0-1.119,0-1.68c0.497-0.144,1.577,0.296,1.68-0.24
	c0-0.561,0-1.12,0-1.68c0.561,0,1.12,0,1.681,0c0.688-0.033-0.208-1.647,0.479-1.681c0.422-0.139,1.41,0.29,1.44-0.24
	c0-0.561,0-1.12,0-1.68c0.56,0,1.12,0,1.68,0c0.561,0,1.12,0,1.68,0c0-0.561,0-1.12,0-1.681c0.205,0.044,0.228-0.094,0.24-0.239
	c0.48,0,0.96,0,1.44,0c0-0.479,0-0.961,0-1.44c0.08,0,0.16,0,0.239,0c0.48,0,0.961,0,1.44,0c0.541-0.179,0.094-1.346,0.24-1.92
	c0.479,0,0.96,0,1.439,0c0.537-0.104,0.099-1.183,0.24-1.68c0.561,0,1.12,0,1.68,0c0.371-0.35,0.211-1.229,0.24-1.92
	c0.48,0,0.96,0,1.44,0c0.537-0.104,0.097-1.184,0.239-1.681c0.497-0.144,1.577,0.296,1.681-0.24c0-0.479,0-0.96,0-1.439
	c0.498-0.143,1.577,0.297,1.68-0.239c0-0.561,0-1.12,0-1.681c0.561,0,1.12,0,1.68,0c0.537-0.104,0.098-1.184,0.24-1.68
	c0.497-0.144,1.577,0.297,1.68-0.24c0-0.561,0-1.12,0-1.681c0.561,0,1.12,0,1.681,0c0-0.561,0-1.119,0-1.681c0.64,0,1.28,0,1.92,0
	c0-0.56,0-1.119,0-1.68c1.561,0.36,1.911-0.488,1.68-1.92c0.561,0,1.12,0,1.681,0c0-0.561,0-1.12,0-1.681
	c0.496-0.143,1.576,0.298,1.68-0.239c0-0.561,0-1.12,0-1.681c0.56,0,1.12,0,1.68,0c0.537-0.104,0.097-1.183,0.24-1.681
	c1.396,0.276,1.956-0.284,1.68-1.68c0.561,0,1.12,0,1.68,0c0-0.08,0-0.16,0-0.24c0-0.561,0-1.12,0-1.68c0.561,0,1.12,0,1.681,0
	c0-0.561,0-1.12,0-1.681c0.56,0,1.12,0,1.68,0c0.371-0.35,0.211-1.229,0.24-1.92c0.56,0,1.12,0,1.68,0c0-0.561,0-1.12,0-1.681
	c0.498-0.144,1.577,0.297,1.681-0.24c0-0.56,0-1.119,0-1.68c0.56,0,1.119,0,1.68,0c0.537-0.104,0.097-1.184,0.24-1.681
	c0.479,0,0.96,0,1.439,0c0.688-0.032-0.207-1.646,0.48-1.68c0.422-0.139,1.409,0.29,1.439-0.24c0-0.561,0-1.12,0-1.68
	c0.48,0,0.96,0,1.44,0c0.537-0.104,0.097-1.184,0.239-1.681c0.561,0,1.12,0,1.681,0c0.371-0.35,0.211-1.229,0.24-1.92
	c0.479,0,0.96,0,1.439,0c0.537-0.104,0.099-1.184,0.24-1.681c0.56,0,1.12,0,1.68,0c0-0.561,0-1.12,0-1.681
	c0.497-0.143,1.577,0.297,1.681-0.239c0-0.561,0-1.12,0-1.681c0.56,0,1.119,0,1.68,0c0.688-0.032-0.208-1.647,0.479-1.68
	c0.422-0.139,1.41,0.289,1.44-0.24c0-0.561,0-1.12,0-1.681c0.56,0,1.12,0,1.68,0c0-0.56,0-1.119,0-1.68c0.561,0,1.12,0,1.68,0
	c0.537-0.104,0.098-1.184,0.24-1.681c1.562,0.36,1.911-0.488,1.681-1.92c0.56,0,1.119,0,1.68,0c0-0.561,0-1.12,0-1.681
	c0.497-0.143,1.577,0.298,1.68-0.239c0-0.561,0-1.12,0-1.681c0.561,0,1.12,0,1.681,0c0.536-0.104,0.097-1.183,0.239-1.681
	c0.48,0,0.96,0,1.44,0c0.479-0.029,0.03-1.347,0.479-1.68c0.323-0.238,0.806,0.359,1.44-0.24c0-0.561,0-1.119,0-1.68
	c0-21.279,0-42.562,0-63.841c0-0.08,0-0.159,0-0.239c0-0.561,0-1.12,0-1.681c-0.561,0-1.12,0-1.68,0c-0.08,0-0.16,0-0.24,0
	c-9.84,0-19.68,0-29.521,0c0-18.319,0-36.64,0-54.96c0-0.08,0-0.16,0-0.24c0-0.479,0-0.96,0-1.439
	c-0.104-0.536-1.183-0.097-1.68-0.239c-31.439,0-62.88,0-94.32,0c0-52.722,0-105.438,0-158.16c30.8,0,61.602,0,92.4,0
	c1.625,0.147,2.146,0.222,1.92-1.68c0.498-0.143,1.577,0.297,1.68-0.24c0-0.56,0-1.12,0-1.68c0-22.479,0-44.96,0-67.44
	c8.96,0,17.92,0,26.88,0c0.795-0.064,1.487,0.091,1.92,0c0.857-0.178,0.753,0.265,0.961-0.96c0.039-0.232-0.032-0.484,0-0.72
	c0.496-0.143,1.575,0.297,1.68-0.24c0-16.56,0-33.119,0-49.68c0-0.56,0-1.12,0-1.68c0-0.08,0-0.16,0-0.24c0-0.48,0-0.96,0-1.44
	c-0.104-0.536-1.184-0.097-1.68-0.239c-0.144-0.497,0.296-1.577-0.24-1.681c-0.48,0-0.96,0-1.44,0c0-0.56,0-1.12,0-1.68
	c-0.349-0.371-1.229-0.211-1.92-0.24c0-0.56,0-1.12,0-1.68c-0.56,0-1.12,0-1.68,0c-0.561,0-1.12,0-1.68,0c0-0.56,0-1.12,0-1.68
	c-0.104-0.537-1.184-0.098-1.681-0.24c0.361-1.562-0.488-1.912-1.92-1.68c0-0.561,0-1.12,0-1.681c-0.56,0-1.12,0-1.68,0
	c0-0.56,0-1.12,0-1.68c-0.104-0.537-1.184-0.097-1.68-0.24c-0.144-0.497,0.297-1.577-0.24-1.68c-0.561,0-1.12,0-1.68,0
	c0-0.561,0-1.12,0-1.68c-0.104-0.537-1.184-0.098-1.681-0.24c0-0.48,0-0.96,0-1.44c-0.104-0.537-1.183-0.097-1.68-0.239
	c-0.144-0.497,0.297-1.577-0.24-1.681c-0.479,0-0.96,0-1.439,0c0-0.64,0-1.279,0-1.92c-0.641,0-1.28,0-1.921,0c0-0.56,0-1.12,0-1.68
	c-0.56,0-1.119,0-1.68,0c0-0.561,0-1.12,0-1.68c-0.103-0.537-1.183-0.098-1.68-0.24c0-0.48,0-0.96,0-1.44
	c-0.104-0.537-1.184-0.097-1.68-0.24c0-0.56,0-1.119,0-1.68c-0.08,0-0.16,0-0.24,0c-0.561,0-1.12,0-1.68,0c0-0.56,0-1.12,0-1.68
	c-0.104-0.537-1.184-0.097-1.681-0.24c0-0.56,0-1.12,0-1.68c-0.56,0-1.12,0-1.68,0c0-0.641,0-1.28,0-1.92c-0.64,0-1.28,0-1.92,0
	c0-0.561,0-1.12,0-1.681c-0.561,0-1.12,0-1.681,0c0-0.479,0-0.96,0-1.439c-0.104-0.537-1.183-0.097-1.68-0.24c0-0.56,0-1.12,0-1.68
	c-0.103-0.537-1.183-0.098-1.68-0.24c0-0.56,0-1.12,0-1.68c-0.08,0-0.16,0-0.24,0c-0.56,0-1.12,0-1.68,0c0-0.561,0-1.12,0-1.681
	c-0.104-0.537-1.184-0.097-1.68-0.239c0-0.561,0-1.12,0-1.681c-0.561,0-1.12,0-1.681,0c-0.143-0.497,0.297-1.577-0.24-1.68
	c-0.479,0-0.96,0-1.439,0c0-0.64,0-1.28,0-1.92c-0.64,0-1.28,0-1.92,0c0-0.561,0-1.12,0-1.68c-0.561,0-1.12,0-1.681,0
	c0-0.561,0-1.12,0-1.681c-0.104-0.537-1.183-0.097-1.68-0.239c-0.143-0.497,0.297-1.577-0.24-1.681c-0.56,0-1.119,0-1.68,0
	c0-0.56,0-1.12,0-1.68c-0.56,0-1.12,0-1.68,0c0-0.561,0-1.12,0-1.68c-0.104-0.537-1.184-0.099-1.681-0.24
	c-0.143-0.497,0.297-1.577-0.239-1.68c-0.48,0-0.96,0-1.44,0c0-0.641,0-1.28,0-1.921c-0.64,0-1.28,0-1.92,0c0-0.56,0-1.119,0-1.68
	c-0.56,0-1.12,0-1.68,0c0-0.479,0-0.96,0-1.439c-0.104-0.537-1.184-0.098-1.681-0.24c0-0.561,0-1.12,0-1.68
	c-0.104-0.537-1.183-0.098-1.68-0.24c0-0.561,0-1.12,0-1.681c-0.08,0-0.16,0-0.24,0c-0.56,0-1.119,0-1.68,0c0-0.56,0-1.119,0-1.68
	c-0.104-0.536-1.183-0.097-1.68-0.24c0-0.56,0-1.12,0-1.68c-0.561,0-1.12,0-1.681,0c-0.143-0.497,0.297-1.577-0.239-1.68
	c-0.561,0-1.12,0-1.681,0c0-0.561,0-1.12,0-1.681c-0.103-0.536-1.183-0.097-1.68-0.239c0-0.561,0-1.12,0-1.681
	c-0.56,0-1.12,0-1.68,0c0-0.56,0-1.119,0-1.68c-0.104-0.537-1.184-0.097-1.681-0.24c0-0.56,0-1.12,0-1.68c-0.079,0-0.159,0-0.239,0
	c-0.561,0-1.12,0-1.681,0c0-0.56,0-1.12,0-1.68c-0.103-0.537-1.183-0.098-1.68-0.24c0-0.48,0-0.96,0-1.44
	c-0.104-0.536-1.183-0.097-1.68-0.239c-0.144-0.497,0.297-1.577-0.24-1.681c-0.48,0-0.96,0-1.44,0c0-0.64,0-1.279,0-1.92
	c-0.64,0-1.279,0-1.92,0c0-0.56,0-1.12,0-1.68c-0.56,0-1.12,0-1.68,0c0-0.561,0-1.12,0-1.68c-0.104-0.537-1.183-0.098-1.68-0.24
	c0-0.561,0-1.12,0-1.68c-0.641,0-1.28,0-1.92,0c0-0.48,0-0.96,0-1.44c-0.104-0.537-1.184-0.097-1.681-0.24c0-0.56,0-1.12,0-1.68
	c-0.104-0.537-1.183-0.097-1.68-0.24c0-0.56,0-1.12,0-1.68c-0.56,0-1.12,0-1.68,0c-0.08,0-0.16,0-0.24,0c0-0.32,0-0.641,0-0.96
	c0.492-1.373-1.516-0.245-1.68-0.96c-100.639,0.16-201.92-0.32-302.16,0.24c-1.414-0.374-1.647,0.433-1.44,1.68
	c-0.537,0.103-0.097,1.183-0.24,1.68c0,4.72,0,9.44,0,14.16c-12.72,0-25.44,0-38.16,0c0-17.68,0-35.36,0-53.04
	c12.8,0,31.137-0.264,40.08-0.24c0-0.56,1.68-112.96,1.68-126c0-0.64,0-1.28,0-1.92c-0.56,0-1.12,0-1.68,0s-1.12,0-1.68,0
	c-0.143-0.497,0.296-1.577-0.24-1.68c-0.56,0-1.12,0-1.68,0c0-0.56,0-1.12,0-1.68c-0.104-0.537-1.183-0.097-1.68-0.24
	c0-0.48,0-0.96,0-1.44c-0.56,0-1.12,0-1.68,0c-0.103-0.537-1.183-0.097-1.68-0.24c-0.143-0.497,0.296-1.577-0.24-1.68
	c-0.56,0-1.12,0-1.68,0c0-0.56,0-1.12,0-1.68c-0.104-0.537-1.183-0.098-1.68-0.24c0-0.48,0-0.96,0-1.44
	c-0.104-0.537-1.183-0.097-1.68-0.24c0-0.56,0-1.12,0-1.68c-0.103-0.537-1.183-0.097-1.68-0.24c-0.143-0.497,0.296-1.577-0.24-1.68
	c-0.56,0-1.12,0-1.68,0c0-0.56,0-1.12,0-1.68s0-1.12,0-1.68c-0.56,0-1.12,0-1.68,0c0-0.08,0-0.16,0-0.24c0-0.48,0-0.96,0-1.44
	c-0.104-0.537-1.183-0.097-1.68-0.24c-0.028-0.691,0.131-1.571-0.24-1.92c0-0.56,0-1.12,0-1.68c-0.56,0-1.12,0-1.68,0
	c0-0.56,0-1.12,0-1.68s0-1.12,0-1.68c0-0.64,0-1.28,0-1.92c0-0.56,0-1.12,0-1.68c0-0.64,0-1.28,0-1.92c-0.56,0-1.12,0-1.68,0
	c0-0.56,0-1.12,0-1.68c0-0.64,0-1.28,0-1.92c0-0.56,0-1.12,0-1.68s0-1.12,0-1.68c-0.56,0-1.12,0-1.68,0c0-2.96,0-5.92,0-8.88
	c0.497-0.143,1.577,0.296,1.68-0.24c0-0.56,0-1.12,0-1.68s0-1.12,0-1.68s0-1.12,0-1.68c0-0.64,0-1.28,0-1.92c0.56,0,1.12,0,1.68,0
	c0-0.56,0-1.12,0-1.68c0-0.08,0-0.16,0-0.24c0-0.56,0-1.12,0-1.68s0-1.12,0-1.68s0-1.12,0-1.68c0.64,0,1.28,0,1.92,0
	c0-0.64,0-1.28,0-1.92c0-0.56,0-1.12,0-1.68c0.498-0.143,1.577,0.297,1.68-0.24c0-0.56,0-1.12,0-1.68c0-0.56,0-1.12,0-1.68
	c0.497-0.143,1.577,0.296,1.68-0.24c0-0.48,0-0.96,0-1.44c0.56,0,1.12,0,1.68,0c0.371-0.349,0.211-1.229,0.24-1.92
	c0.48,0,0.96,0,1.44,0c0.08,0,0.16,0,0.24,0c0-0.56,0-1.12,0-1.68c0.498-0.143,1.577,0.297,1.68-0.24
	c0.143-0.498-0.296-1.577,0.24-1.68c0.48,0,0.96,0,1.44,0c0-0.56,0-1.12,0-1.68c0.56,0,1.12,0,1.68,0
	c0.515-0.895,1.892-2.909,1.92-3.6c0.56,0,1.12,0,1.68,0c0-0.56,0-1.12,0-1.68c0.497-0.143,1.577,0.296,1.68-0.24
	c0.56,0,1.12,0,1.68,0c0-0.56,0-1.12,0-1.68c0.08,0,0.16,0,0.24,0c0.56,0,1.12,0,1.68,0c0-0.56,0-1.12,0-1.68c0.56,0,1.12,0,1.68,0
	s1.12,0,1.68,0c0.56,0,1.12,0,1.68,0c0.537-0.104,0.098-1.183,0.24-1.68c1.12,0,2.24,0,3.36,0c0.64,0,1.28,0,1.92,0
	c0.48,0,0.96,0,1.44,0c0.574-0.146,1.741,0.301,1.92-0.24c0-0.56,0-1.12,0-1.68c5.76,0,11.52,0,17.28,0c0,0.64,0,1.28,0,1.92
	c0.64,0,1.28,0,1.92,0c0.56,0,1.12,0,1.68,0c0.56,0,1.12,0,1.68,0c0.08,0,0.16,0,0.24,0c0,0.48,0,0.96,0,1.44
	c1.367-0.167,1.994,0.406,3.36,0.24c0.56,0,1.12,0,1.68,0c0.08,0,0.16,0,0.24,0c0,0.56,0,1.12,0,1.68c0.48,0,0.96,0,1.44,0
	c0.08,0,0.16,0,0.24,0c0.56,0,1.12,0,1.68,0c0,0.56,0,1.12,0,1.68c0.104,0.537,1.183,0.097,1.68,0.24c0,0.56,0,1.12,0,1.68
	c0.56,0,1.12,0,1.68,0c0.08,0,0.16,0,0.24,0c0.48,0,0.96,0,1.44,0c0,0.64,0,1.28,0,1.92c0.64,0,1.28,0,1.92,0c0,0.48,0,0.96,0,1.44
	c0.56,0,1.12,0,1.68,0c0.309,0.331,1.042,0.237,1.68,0.24c0.143,0.498-0.296,1.577,0.24,1.68c0.56,0,1.12,0,1.68,0
	c0,0.56,0,1.12,0,1.68c0,0.08,0,0.16,0,0.24c0,0.56,0,1.12,0,1.68c0.56,0,1.12,0,1.68,0c0,0.56,0,1.12,0,1.68c0,0.08,0,0.16,0,0.24
	c0,0.56,0,1.12,0,1.68c0.497,0.143,1.577-0.297,1.68,0.24c0,0.48,0,0.96,0,1.44c0.497,0.143,1.577-0.296,1.68,0.24
	c0,0.48,0,0.96,0,1.44c0.349,0.371,1.229,0.211,1.92,0.24c0,0.56,0,1.12,0,1.68s0,1.12,0,1.68c0.104,0.537,1.183,0.097,1.68,0.24
	c0,0.48,0,0.96,0,1.44c0,0.08,0,0.16,0,0.24c0,0.56,0,1.12,0,1.68c0.56,0,1.12,0,1.68,0c0,0.64,0,1.28,0,1.92c0,0.56,0,1.12,0,1.68
	c0,7.68,0,15.36,0,23.04c0,0.56,0,1.12,0,1.68c0,0.08,0,0.16,0,0.24c-0.56,0-1.12,0-1.68,0c0,0.56,0,1.12,0,1.68s0,1.12,0,1.68
	c0,0.08,0,0.16,0,0.24c0,0.56,0,1.12,0,1.68c-0.56,0-1.12,0-1.68,0c0,0.56,0,1.12,0,1.68c0,0.56,0,1.12,0,1.68c0,0.08,0,0.16,0,0.24
	c-0.56,0-1.12,0-1.68,0c0,0.56,0,1.12,0,1.68c-0.537,0.104-0.097,1.183-0.24,1.68c0,0.08,0,0.16,0,0.24c-0.48,0-0.96,0-1.44,0
	c0,0.56,0,1.12,0,1.68c-0.537,0.104-0.097,1.183-0.24,1.68c-0.56,0-1.12,0-1.68,0c0,0.56,0,1.12,0,1.68
	c-0.497,0.143-1.577-0.296-1.68,0.24c0,0.56,0,1.12,0,1.68c-0.56,0-1.12,0-1.68,0c-0.08,0-0.16,0-0.24,0c-0.48,0-0.96,0-1.44,0
	c-0.537,0.104-0.097,1.183-0.24,1.68c-0.498,0.143-1.577-0.296-1.68,0.24c0,0.56,0,1.12,0,1.68s0,1.12,0,1.68c-0.56,0-1.12,0-1.68,0
	c-0.691,0.029-1.571-0.131-1.92,0.24c-0.138,0.422,0.29,1.41-0.24,1.44c-0.422,0.138-1.41-0.291-1.44,0.24c0,0.56,0,1.12,0,1.68
	c-0.56,0-1.12,0-1.68,0s-1.12,0-1.68,0c-0.537,0.103-0.097,1.183-0.24,1.68c-0.48,0-0.96,0-1.44,0
	c-0.574,0.146-1.742-0.301-1.92,0.24c0,0.56,0,1.12,0,1.68c0,13.04,0,26.08,0,39.12c0,0.56,0,1.12,0,1.68c0,27.84,0,55.68,0,83.52
	c0,0.56,0,1.12,0,1.68c0.179,0.542,1.346,0.095,1.92,0.24c59.838,0,119.681,0,179.52,0c0,2.88,0,5.76,0,8.64
	c0.146,0.574-0.302,1.741,0.24,1.92c0.56,0,1.12,0,1.68,0s1.12,0,1.68,0s1.12,0,1.68,0c0.08,0,0.16,0,0.24,0c0.48,0,0.96,0,1.44,0
	c0.537-0.104,0.097-1.183,0.24-1.68c3.58-0.309,8.201-0.418,11.76,0c0.746-0.053,0.405-1.193,0.48-1.92c0.56,0,1.12,0,1.68,0
	c0,0.561,0,1.12,0,1.68c0.104,0.537,1.183,0.098,1.68,0.24c0,0.561,0,1.12,0,1.68c0.56,0,1.12,0,1.68,0c0.08,0,0.16,0,0.24,0
	c0.56,0,1.12,0,1.68,0s1.12,0,1.68,0c0-0.64,0-1.279,0-1.92c0-0.56,0-1.12,0-1.68c0-1.12,0-2.24,0-3.36c0-0.079,0-0.159,0-0.239
	c0-0.48,0-0.96,0-1.44c-0.179-0.541-1.346-0.094-1.92-0.24c-0.48,0-0.96,0-1.44,0c0-0.64,0-1.279,0-1.92c0-0.56,0-1.12,0-1.68
	s0-1.12,0-1.68c0.48,0,0.96,0,1.44,0c0,0.56,0,1.12,0,1.68c0.64,0,1.28,0,1.92,0c0,0.56,0,1.12,0,1.68
	c3.396,0.439,6.829,0.24,10.32,0.24c23.985,0,49.165,0,73.44,0c0,2.88,0,5.76,0,8.64c-0.56,0-1.12,0-1.68,0c0,0.641,0,1.28,0,1.92
	c0.56,0,1.12,0,1.68,0c0,0.561,0,1.12,0,1.681c0.104,0.537,1.184,0.097,1.68,0.24c0.144,0.496-0.296,1.576,0.24,1.68
	c0.48,0,0.96,0,1.44,0c0.143,0.497-0.296,1.577,0.239,1.68c0.561,0,1.12,0,1.681,0c0,0.561,0,1.12,0,1.68
	c0.104,0.537,1.183,0.098,1.68,0.24c0,0.561,0,1.12,0,1.681c0.561,0,1.12,0,1.68,0c-0.23,1.431,0.119,2.28,1.681,1.92
	c0,0.56,0,1.119,0,1.68c0.08,0,0.16,0,0.239,0c0.561,0,1.12,0,1.681,0c0,0.56,0,1.12,0,1.68c0.104,0.537,1.183,0.098,1.68,0.24
	c0,0.48,0,0.96,0,1.44c0.104,0.536,1.184,0.097,1.68,0.239c0.144,0.497-0.297,1.577,0.24,1.681c0.561,0,1.12,0,1.68,0
	c0,0.56,0,1.12,0,1.68c0.104,0.537,1.184,0.097,1.681,0.24c0,0.56,0,1.12,0,1.68c0.56,0,1.12,0,1.68,0c0,0.56,0,1.12,0,1.68
	c0.896,0.516,2.151-0.312,1.68,1.681c0.35,0.371,1.229,0.211,1.921,0.239c0,0.48,0,0.96,0,1.44c0.104,0.537,1.183,0.097,1.68,0.24
	c0,0.56,0,1.12,0,1.68c0.103,0.537,1.183,0.097,1.68,0.24c0.144,0.497-0.296,1.577,0.24,1.68c0.479,0,0.96,0,1.439,0
	c0,0.561,0,1.12,0,1.68c0.35,0.371,1.229,0.211,1.92,0.24c0,0.48,0,0.96,0,1.44c0.104,0.537,1.184,0.097,1.681,0.239
	c0,0.561,0,1.12,0,1.681c0.56,0,1.12,0,1.68,0c0,0.56,0,1.12,0,1.68c0.179,0.542,1.346,0.094,1.92,0.24c0,0.479,0,0.96,0,1.439
	c0.104,0.537,1.184,0.098,1.681,0.24c0,0.561,0,1.12,0,1.68c0,0.08,0,0.16,0,0.24c0,0.48,0,0.96,0,1.44c0.56,0,1.119,0,1.68,0
	c-0.044,0.204,0.093,0.227,0.24,0.24c0,0.56,0,1.119,0,1.68c0.479,0,0.96,0,1.439,0c0.08,0,0.16,0,0.24,0c0,0.56,0,1.12,0,1.68
	c0.56,0,1.12,0,1.68,0c0,0.08,0,0.16,0,0.24c0,0.479,0,0.96,0,1.439c0.104,0.537,1.184,0.098,1.68,0.24c0,0.561,0,1.12,0,1.68
	c0.104,0.537,1.184,0.098,1.681,0.24c0,0.48,0,0.96,0,1.44c0.104,0.537,1.183,0.097,1.68,0.24c0,0.56,0,1.119,0,1.68
	c0.64,0,1.28,0,1.92,0c0,0.56,0,1.12,0,1.68c0.104,0.537,1.184,0.097,1.681,0.24c0,0.56,0,1.12,0,1.68c0.56,0,1.119,0,1.68,0
	c0,0.641,0,1.28,0,1.92c0.64,0,1.28,0,1.92,0c0,0.561,0,1.12,0,1.681c0.56,0,1.12,0,1.68,0c0,0.479,0,0.96,0,1.439
	c0.104,0.537,1.184,0.098,1.68,0.24c0,0.64,0,1.28,0,1.92c0.561,0,1.12,0,1.681,0c0.143,0.497-0.297,1.577,0.24,1.68
	c0.56,0,1.119,0,1.68,0c0,0.561,0,1.12,0,1.681c0.104,0.537,1.183,0.097,1.68,0.239c51.761,0,103.519,0,155.28,0
	c0,0.561,0,1.12,0,1.681c0,12.399,0,24.8,0,37.2c-27.2,0-54.399,0-81.6,0c-0.687,0.032-0.438,1.001-0.48,1.68
	c-1.561-0.36-1.911,0.489-1.68,1.92c-0.561,0-1.12,0-1.681,0c0,0.56,0,1.12,0,1.68c-0.497,0.144-1.577-0.296-1.68,0.24
	c0,0.56,0,1.12,0,1.68c-0.56,0-1.12,0-1.68,0c-0.537,0.104-0.098,1.184-0.24,1.681c-1.396-0.276-1.956,0.283-1.68,1.68
	c-0.561,0-1.12,0-1.681,0c0,0.08,0,0.16,0,0.24c0,0.56,0,1.12,0,1.68c-0.56,0-1.119,0-1.68,0c-0.537,0.103-0.097,1.183-0.24,1.68
	c-1.561-0.36-1.911,0.488-1.68,1.92c-0.56,0-1.12,0-1.68,0c0,0.561,0,1.12,0,1.681c-0.498,0.143-1.577-0.296-1.681,0.24
	c0,0.479,0,0.96,0,1.439c-0.56,0-1.12,0-1.68,0c-0.371,0.349-0.211,1.229-0.24,1.92c-0.479,0-0.96,0-1.439,0c-0.08,0-0.16,0-0.24,0
	c0,0.561,0,1.12,0,1.68c-0.497,0.144-1.577-0.297-1.68,0.24c0,0.561,0,1.12,0,1.681c-0.48,0-0.96,0-1.44,0
	c-0.537,0.104-0.097,1.183-0.24,1.68c-0.69,0.029-1.57-0.131-1.92,0.24c0,18.96,0,37.92,0,56.88c0,0.479,0,0.96,0,1.439
	c0.35,0.371,1.229,0.211,1.92,0.24c126.241,0,252.478,0,378.721,0c0,1.12,0,2.24,0,3.36c-1.304-0.184-1.86,0.38-3.12,0.239
	c-0.373,0.907-0.47,2.093-0.48,3.36c-0.56,0-1.12,0-1.68,0c0,0.64,0,1.28,0,1.92c0,1.2,0,2.4,0,3.601c0,2.88,0,5.76,0,8.64
	c0.146,0.574-0.302,1.741,0.24,1.92c0.56,0,1.12,0,1.68,0c0.561,0,1.12,0,1.68,0c0.562,0,1.12,0,1.682,0c0.56,0,1.12,0,1.68,0
	c0.537-0.104,0.098-1.183,0.24-1.68c3.729-0.559,8.885,0.022,12.239-0.24c0-0.561,0-1.12,0-1.68c0.479,0,0.961,0,1.439,0
	c0,0.56,0,1.119,0,1.68c0.349,0.371,1.229,0.211,1.92,0.24c0,0.56,0,1.12,0,1.68c0.562,0,1.12,0,1.68,0c0.642,0,1.28,0,1.922,0
	c0.479,0,0.96,0,1.438,0c0.08,0,0.16,0,0.24,0c0.56,0,1.12,0,1.68,0c0-0.56,0-1.12,0-1.68c0-0.08,0-0.16,0-0.24
	c0-2.32,0-4.64,0-6.96c0-1.76,0-3.521,0-5.28c0-0.56,0-1.12,0-1.68c0-0.08,0-0.16,0-0.24c0-0.48,0-0.96,0-1.44
	c-0.104-0.536-1.183-0.097-1.68-0.239c-0.028-0.691,0.131-1.571-0.24-1.92c-0.56,0-1.12,0-1.68,0c-0.562,0-1.12,0-1.682,0
	c0-1.12,0-2.24,0-3.36c0-0.08,0-0.16,0-0.24c0-0.479,0-0.96,0-1.439c-0.103-0.537-1.183-0.098-1.68-0.24c0-0.561,0-1.12,0-1.68
	c-0.56,0-1.12,0-1.68,0c0-0.641,0-1.28,0-1.92c0-17.12,0-34.24,0-51.36c0-0.48,0-0.96,0-1.44c-0.033-0.687-1.001-0.438-1.681-0.479
	c-0.144-0.497,0.297-1.576-0.239-1.681c-0.562,0-1.12,0-1.681,0c0-0.56,0-1.119,0-1.68c-0.104-0.537-1.184-0.097-1.681-0.24
	c0-0.56,0-1.119,0-1.68c-0.56,0-1.12,0-1.68,0c0-0.56,0-1.12,0-1.68c-0.896-0.515-2.151,0.312-1.682-1.681
	c-0.349-0.37-1.229-0.211-1.92-0.239c0-0.561,0-1.12,0-1.681c-0.56,0-1.119,0-1.68,0c0.231-1.432-0.119-2.28-1.68-1.92
	c0-0.56,0-1.12,0-1.68c-0.08,0-0.16,0-0.24,0c-0.56,0-1.12,0-1.68,0c0-0.56,0-1.12,0-1.68c-0.104-0.537-1.184-0.098-1.682-0.24
	c0-0.48,0-0.96,0-1.44c-0.103-0.537-1.183-0.098-1.68-0.239c-0.144-0.497,0.297-1.577-0.24-1.681c-0.479,0-0.96,0-1.438,0
	c0-0.56,0-1.12,0-1.68c-0.351-0.371-1.229-0.211-1.92-0.24c0-0.479,0-0.96,0-1.439c-0.104-0.537-1.184-0.098-1.682-0.24
	c0-0.561,0-1.12,0-1.68c-0.104-0.537-1.183-0.098-1.68-0.24c-0.002-0.637,0.091-1.371-0.24-1.68c-0.56,0-1.12,0-1.68,0
	c-27.28,0-54.562,0-81.84,0c0-12.96,0-25.921,0-38.881c71.518,0,143.043,0,214.56,0c0,1.12,0,2.24,0,3.36c0,1.2,0,2.4,0,3.6
	c0,0.561,0,1.12,0,1.681c0.104,0.537,1.183,0.097,1.681,0.24c0.561,0,1.119,0,1.681,0c0.64,0,1.28,0,1.92,0c0,1.119,0,2.239,0,3.359
	c0,0.561,0,1.12,0,1.68c0.104,0.537,1.183,0.098,1.68,0.24c0.562,0,1.12,0,1.682,0c0.56,0,1.12,0,1.68,0
	c0.143,0.498-0.297,1.577,0.24,1.681c0.56,0,1.12,0,1.68,0c5.2,0,10.4,0,15.601,0c0.561,0,1.119,0,1.681,0
	c0.536-0.104,0.097-1.184,0.24-1.681c0.56,0,1.118,0,1.68,0c0.497-0.143,1.576,0.297,1.68-0.24c0-0.56,0-1.119,0-1.68
	c0-0.56,0-1.12,0-1.68c0-1.2,0-2.4,0-3.601c0-0.64,0-1.279,0-1.92c-1.268-0.299-2.452,0.735-3.358,0c0-0.56,0-1.12,0-1.68
	s0-1.12,0-1.68c0-0.561,0-1.12,0-1.681c0-0.08,0-0.159,0-0.239c0-0.561,0-1.12,0-1.681c1.213-0.157,2.099-0.073,1.68,1.681
	c0.104,0.537,1.184,0.097,1.68,0.239c48.882,0,97.761,0,146.642,0c0.104-0.064,0.203-0.11,0.299-0.148
	c-0.096,0.038-0.195,0.083-0.299,0.148c0.56,0,1.119,0,1.68,0c0.002-0.189,0.003-0.381,0.005-0.57c0,0,0,0-0.001,0.001
	c0.001-0.001,0.001-0.002,0.001-0.002v0.001c0,0,0-0.001,0-0.002c0.033-0.154,0.036-0.389,0.006-0.734c0-0.001,0-0.002,0-0.004
	v0.001c-0.004-0.044-0.006-0.083-0.011-0.131c0.005,0.048,0.007,0.085,0.011,0.129c0.538-53.661,1.909-190.769,1.909-203.169
	c0-0.56,0-1.12,0-1.68c-0.561,0-1.12,0-1.68,0c-0.35-0.371-1.229-0.211-1.92-0.24c0-0.56,0-1.12,0-1.68c-0.562,0-1.12,0-1.681,0
	s-1.12,0-1.681,0c0-0.56,0-1.12,0-1.68c-0.104-0.537-1.183-0.097-1.681-0.24c0.36-1.561-0.488-1.912-1.92-1.68c0-0.56,0-1.12,0-1.68
	c-0.561,0-1.119,0-1.681,0c-0.56,0-1.12,0-1.68,0c0-0.64,0-1.28,0-1.92c-0.144-0.497,0.297-1.577-0.24-1.68c-0.479,0-0.96,0-1.438,0
	c-0.145-0.497,0.296-1.577-0.24-1.68c-0.104-0.537-1.184-0.097-1.682-0.24c-0.56,0-1.118,0-1.68,0
	c-0.143-0.497,0.297-1.577-0.24-1.68c-0.479,0-0.96,0-1.438,0c0-0.56,0-1.12,0-1.68c-0.258-0.646,0.369-1.551,0-1.92
	s-1.274,0.257-1.92,0c0-0.56,0-1.12,0-1.68c0-0.56,0-1.12,0-1.68c-0.104-0.537-1.184-0.098-1.682-0.24c0-0.56,0-1.12,0-1.68
	s0-1.12,0-1.68c-0.56,0-1.118,0-1.68,0c0-0.56,0-1.12,0-1.68c0-0.64,0-1.28,0-1.92c0-0.48,0-0.96,0-1.44
	c-0.033-0.687-1.001-0.439-1.68-0.48c0-0.56,0-1.12,0-1.68c0-2.96,0-5.92,0-8.88c0.183-1.303-0.382-1.86-0.24-3.12
	c-0.104-0.537-1.183-0.097-1.681-0.24c0-0.64,0-1.28,0-1.92c0-0.56,0-1.12,0-1.68c0-0.08,0-0.16,0-0.24c0-0.56,0-1.12,0-1.68
	c0.561,0,1.119,0,1.681,0c0.537-0.104,0.098-1.183,0.24-1.68c0-1.2,0-2.4,0-3.6c0-0.56,0-1.12,0-1.68c0.56,0,1.12,0,1.68,0
	c0-0.64,0-1.28,0-1.92c0-0.56,0-1.12,0-1.68c0-0.08,0-0.16,0-0.24c0.562,0,1.12,0,1.68,0c0-0.48,0-0.96,0-1.44c0-0.08,0-0.16,0-0.24
	c0-0.56,0-1.12,0-1.68c0.562,0,1.12,0,1.682,0c0-0.56,0-1.12,0-1.68c0-0.08,0-0.16,0-0.24c0-0.56,0-1.12,0-1.68
	c0.64,0,1.28,0,1.92,0c0-0.64,0-1.28,0-1.92c0-0.48,0-0.96,0-1.44c1.561,0.361,1.911-0.489,1.68-1.92c0.562,0,1.12,0,1.681,0
	c0-0.56,0-1.12,0-1.68c0.561,0,1.119,0,1.681,0c0.371-0.349,0.211-1.229,0.24-1.92c0.479,0,0.959,0,1.438,0
	c0.537-0.104,0.099-1.183,0.24-1.68c0.497-0.143,1.576,0.297,1.68-0.24c0-0.48,0-0.96,0-1.44c0.497-0.143,1.577,0.296,1.681-0.24
	c0-0.56,0-1.12,0-1.68c0.561,0,1.12,0,1.681,0c0.08,0,0.159,0,0.239,0c0.479,0,0.961,0,1.439,0c0.537-0.104,0.099-1.183,0.24-1.68
	c0.497-0.143,1.576,0.296,1.681-0.24c0-0.56,0-1.12,0-1.68c0.561,0,1.119,0,1.681,0c0-0.56,0-1.12,0-1.68c0.56,0,1.119,0,1.68,0
	c0.641,0,1.28,0,1.92,0c1.171-0.11,2.812,0.251,3.601-0.24c0-0.48,0-0.96,0-1.44c0.479,0,0.96,0,1.439,0c0.641,0,1.28,0,1.92,0
	c1.12,0,2.24,0,3.36,0c0.371-0.349,0.211-1.229,0.239-1.92c5.199,0,10.399,0,15.601,0c0,0.64,0,1.28,0,1.92c1.12,0,2.24,0,3.359,0
	c0.641,0,1.28,0,1.92,0c0.561,0,1.12,0,1.681,0c0,0.56,0,1.12,0,1.68c0.561,0,1.12,0,1.681,0s1.12,0,1.68,0c0.641,0,1.28,0,1.921,0
	c0,0.56,0,1.12,0,1.68c0.561,0,1.119,0,1.68,0s1.12,0,1.681,0c-0.231,1.431,0.119,2.281,1.68,1.92
	c0.145,0.497-0.296,1.577,0.24,1.68c0.562,0,1.12,0,1.68,0c0.562,0,1.121,0,1.682,0c0,0.56,0,1.12,0,1.68
	c0.104,0.537,1.183,0.097,1.68,0.24c0,0.56,0,1.12,0,1.68c0.562,0,1.12,0,1.681,0c0.641,0,1.279,0,1.921,0c0,0.56,0,1.12,0,1.68
	c0.56,0,1.118,0,1.68,0c0,0.56,0,1.12,0,1.68c0.104,0.537,1.183,0.097,1.68,0.24c0,0.56,0,1.12,0,1.68s0,1.12,0,1.68
	c0.029,0.691-0.131,1.571,0.24,1.92c0.562,0,1.12,0,1.681,0c0,0.56,0,1.12,0,1.68c0.561,0,1.119,0,1.681,0c0,0.56,0,1.12,0,1.68
	c0.103,0.537,1.183,0.097,1.68,0.24c0,0.56,0,1.12,0,1.68c0,0.48,0,0.96,0,1.44c0.033,0.687,1.001,0.439,1.681,0.48
	c0,0.56,0,1.12,0,1.68s0,1.12,0,1.68c0,0.48,0,0.96,0,1.44c0.054,0.746,1.193,0.405,1.92,0.48c0,0.56,0,1.12,0,1.68
	c0,0.56,0,1.12,0,1.68c0,0.64,0,1.28,0,1.92c0,0.56,0,1.12,0,1.68c0.561,0,1.12,0,1.681,0c0,0.64,0,1.28,0,1.92
	c0,5.28,0,10.56,0,15.84c0,0.56,0,1.12,0,1.68c-0.498,0.143-1.577-0.297-1.681,0.24c0,0.56,0,1.12,0,1.68c-0.561,0-1.12,0-1.681,0
	c0,0.56,0,1.12,0,1.68c-0.37,0.349-0.211,1.229-0.239,1.92c-0.479,0-0.96,0-1.439,0c-0.537,0.103-0.098,1.183-0.24,1.68
	c0,0.56,0,1.12,0,1.68c-0.496,0.143-1.576-0.296-1.68,0.24c0,0.56,0,1.12,0,1.68c-0.561,0-1.12,0-1.681,0c0,0.56,0,1.12,0,1.68
	c0,0.08,0,0.16,0,0.24c0,0.56,0,1.12,0,1.68c-0.561,0-1.119,0-1.681,0c-0.537,0.104-0.098,1.183-0.24,1.68c-0.479,0-0.959,0-1.438,0
	c-0.537,0.103-0.098,1.183-0.24,1.68c-0.561,0-1.12,0-1.68,0c0,0.64,0,1.28,0,1.92c0,0.56,0,1.12,0,1.68c-0.562,0-1.12,0-1.681,0
	c-0.479,0-0.961,0-1.439,0c-0.747,0.054-0.405,1.194-0.48,1.92c-0.56,0-1.119,0-1.68,0c0,0.56,0,1.12,0,1.68c-0.56,0-1.12,0-1.681,0
	c-0.641,0-1.279,0-1.92,0c0,0.56,0,1.12,0,1.68c-0.479,0-0.96,0-1.439,0c-0.08,0-0.16,0-0.24,0c-0.497,0.143-1.575-0.297-1.68,0.24
	c0,0.56,0,1.12,0,1.68c-0.562,0-1.12,0-1.68,0c-0.562,0-1.12,0-1.682,0c-0.536,0.103-0.097,1.183-0.239,1.68
	c-0.561,0-1.119,0-1.681,0c-0.497,0.143-1.576-0.296-1.68,0.24c0,0.56,0,1.12,0,1.68c0,13.04,1.68,175.842,1.68,243.359
	c-86.078,0-172.165,0-258.24,0c-0.079,0-0.159,0-0.238,0c-0.4,0-0.802,0-1.2,0c-0.688,0.033-0.439,1.002-0.48,1.681
	c-0.56,0-1.119,0-1.68,0c0,0.08,0,0.16,0,0.24c0,0.56,0,1.119,0,1.68c-0.48,0-0.96,0-1.439,0c-0.536,0.103-0.098,1.183-0.239,1.68
	c-0.642,0-1.28,0-1.921,0c0,0.641,0,1.28,0,1.92c-0.479,0-0.959,0-1.439,0c-0.08,0-0.16,0-0.24,0c0,0.561,0,1.12,0,1.681
	c-0.496,0.143-1.576-0.298-1.68,0.239c0,0.48,0,0.96,0,1.44c-0.497,0.143-1.577-0.297-1.68,0.24c0,0.56,0,1.119,0,1.68
	c-0.562,0-1.12,0-1.682,0c-0.536,0.103-0.097,1.183-0.238,1.68c-0.562,0-1.12,0-1.682,0c0,0.641,0,1.28,0,1.92
	c-0.56,0-1.12,0-1.68,0c0,0.561,0,1.12,0,1.681c-0.561,0-1.12,0-1.682,0c-0.535,0.104-0.097,1.183-0.238,1.68
	c-0.562,0-1.12,0-1.682,0c0,0.64,0,1.28,0,1.92c-0.56,0-1.119,0-1.68,0c0,0.56,0,1.12,0,1.68c-0.497,0.144-1.576-0.297-1.68,0.24
	c0,0.561,0,1.12,0,1.68c-0.562,0-1.12,0-1.681,0c-0.537,0.104-0.098,1.184-0.24,1.681c-0.561,0-1.12,0-1.681,0
	c0,0.64,0,1.279,0,1.92c-0.561,0-1.12,0-1.68,0c0,0.56,0,1.12,0,1.68c0,42.641,0,85.28,0,127.92c0.104,0.536,1.183,0.098,1.68,0.24
	c0,0.48,0,0.96,0,1.44c0.104,0.536,1.183,0.097,1.681,0.239c0,0.561,0,1.12,0,1.681c0.08,0,0.159,0,0.24,0c0.561,0,1.119,0,1.681,0
	c0,0.56,0,1.12,0,1.68c0.104,0.537,1.183,0.097,1.68,0.24c0,0.56,0,1.12,0,1.68c0.561,0,1.12,0,1.68,0c0,0.56,0,1.12,0,1.68
	c0.311,0.331,1.043,0.237,1.682,0.24c0,0.48,0,0.96,0,1.44c0.349,0.371,1.229,0.211,1.92,0.239c0,0.561,0,1.12,0,1.681
	c0.56,0,1.12,0,1.68,0c-0.23,1.432,0.119,2.28,1.682,1.92c0.143,0.497-0.298,1.577,0.238,1.68c0.562,0,1.12,0,1.682,0
	c0,0.561,0,1.12,0,1.68c0.103,0.537,1.183,0.098,1.68,0.24c0,0.479,0,0.96,0,1.44c0.104,0.537,1.183,0.097,1.68,0.239
	c0.144,0.497-0.297,1.577,0.24,1.681c0,0.56,0,1.12,0,1.68c0.48,0,0.96,0,1.439,0c0,0.08,0,0.16,0,0.24c0,0.479,0,0.96,0,1.439
	c0.18,0.542,1.347,0.095,1.921,0.24c0,0.561,0,1.12,0,1.68c0.103,0.537,1.183,0.098,1.68,0.24c0,0.561,0,1.12,0,1.681
	c0.561,0,1.12,0,1.681,0c0.143,0.497-0.297,1.576,0.239,1.68c0.479,0,0.96,0,1.44,0c0.027,0.69-0.132,1.57,0.238,1.92
	c0.562,0,1.12,0,1.682,0c23.279,0,46.56,0,69.84,0c0,18.88,0,37.76,0,56.64c-23.92,0-47.84,0-71.76,0c-0.4,0-0.801,0-1.2,0
	c-0.747,0.054-0.405,1.194-0.479,1.92c-0.561,0-1.12,0-1.681,0c0,0.561,0,1.12,0,1.681c-0.497,0.143-1.577-0.297-1.68,0.239
	c0,0.48,0,0.96,0,1.44c-0.562,0-1.12,0-1.682,0c-0.37,0.349-0.211,1.229-0.239,1.92c-0.479,0-0.959,0-1.439,0
	c-0.537,0.104-0.098,1.183-0.24,1.68c-0.496,0.144-1.576-0.296-1.68,0.24c0,0.561,0,1.12,0,1.68c-0.561,0-1.12,0-1.68,0
	c0,0.562,0,1.12,0,1.681c-0.562,0-1.12,0-1.682,0c-0.33,0.31-0.236,1.043-0.238,1.681c-0.48,0-0.962,0-1.44,0
	c-0.371,0.349-0.212,1.229-0.24,1.92c-0.56,0-1.12,0-1.68,0c0,0.561,0,1.12,0,1.68c0,0.08,0,0.16,0,0.24c0,0.561,0,1.12,0,1.68
	c-0.561,0-1.12,0-1.681,0c-0.536,0.104-0.098,1.184-0.239,1.682c-1.562-0.361-1.911,0.488-1.682,1.92c-0.56,0-1.118,0-1.68,0
	c0,0.56,0,1.12,0,1.68c-0.56,0-1.12,0-1.68,0c0,0.561,0,1.12,0,1.681c-0.562,0-1.12,0-1.681,0c-0.371,0.35-0.212,1.229-0.24,1.92
	c-0.479,0-0.959,0-1.439,0c-0.536,0.104-0.097,1.184-0.24,1.681c-0.497,0.143-1.576-0.297-1.68,0.239c0,0.561,0,1.12,0,1.681
	c0,46.72,0,93.441,0,140.16c0.104,0.536,1.183,0.097,1.68,0.239c0.145,0.498-0.296,1.577,0.24,1.681c0.48,0,0.96,0,1.439,0
	c0,0.561,0,1.12,0,1.68c0.18,0.541,1.347,0.095,1.921,0.24c0,0.561,0,1.12,0,1.68c0,0.562,0,1.12,0,1.681c0.56,0,1.12,0,1.68,0
	c0,0.08,0,0.16,0,0.24c0,0.479,0,0.96,0,1.439c0.104,0.536,1.183,0.097,1.68,0.239c0,0.561,0,1.12,0,1.681c0.08,0,0.16,0,0.24,0
	c0.48,0,0.96,0,1.44,0c0,0.641,0,1.28,0,1.92c0.64,0,1.279,0,1.92,0c0,0.561,0,1.12,0,1.681c0.56,0,1.12,0,1.68,0
	c-0.23,1.432,0.119,2.28,1.682,1.92c0.143,0.497-0.298,1.577,0.238,1.681c0.562,0,1.12,0,1.682,0c0,0.479,0,0.96,0,1.439
	c0.103,0.536,1.183,0.098,1.68,0.239c0,0.561,0,1.12,0,1.681c0.104,0.537,1.183,0.098,1.68,0.239
	c0.144,0.497-0.297,1.576,0.24,1.681c0.48,0,0.96,0,1.439,0c0,0.561,0,1.12,0,1.681c0.35,0.371,1.229,0.211,1.921,0.239
	c0,0.561,0,1.12,0,1.681c0.56,0,1.12,0,1.68,0c56.398,0,112.802,0,169.2,0c0.08,0,0.159,0,0.24,0c0.56,0,1.119,0,1.68,0
	c0-0.561,0-1.12,0-1.681c0-0.079,0-0.16,0-0.239c0-27.2,0-54.398,0-81.601c11.6,0,23.2,0,34.8,0c0.08,0,0.16,0,0.24,0
	c0,26.8,0,53.601,0,80.399c-0.274,1.234,0.206,1.714,1.438,1.439c0.145,0.498-0.296,1.577,0.24,1.681c0.562,0,1.12,0,1.681,0
	c17.439,0,34.88,0,52.319,0c0,66.321-1.68,226.8-1.68,239.761c0,0.079,0,0.159,0,0.239c0,0.561,0,1.12,0,1.681c0.56,0,1.12,0,1.68,0
	c0.562,0,1.12,0,1.681,0c0.144,0.496-0.296,1.576,0.239,1.68c0.562,0,1.12,0,1.682,0c0.56,0,1.119,0,1.68,0c0,0.561,0,1.12,0,1.681
	c0.691,0.028,1.571-0.131,1.92,0.24c0.479,0,0.96,0,1.439,0c0.641,0,1.279,0,1.92,0c0,0.561,0,1.119,0,1.681c0.561,0,1.12,0,1.681,0
	c0,0.56,0,1.119,0,1.68c0.104,0.537,1.184,0.098,1.681,0.24c0,0.56,0,1.119,0,1.68c0.561,0,1.119,0,1.681,0c0.08,0,0.159,0,0.239,0
	c0.561,0,1.12,0,1.681,0c0,0.561,0,1.12,0,1.68c0,0.562,0,1.12,0,1.682c0.104,0.536,1.183,0.097,1.681,0.24c0,0.56,0,1.119,0,1.68
	c0.56,0,1.119,0,1.68,0c0,0.56,0,1.12,0,1.68c0.35,0.371,1.229,0.212,1.92,0.24c0,0.561,0,1.12,0,1.68c0,0.562,0,1.12,0,1.682
	c0.104,0.536,1.184,0.097,1.681,0.238c0,0.48,0,0.961,0,1.44c0.104,0.537,1.184,0.098,1.681,0.24c0,0.56,0,1.12,0,1.68
	c0,0.64,0,1.28,0,1.92c0,0.562,0,1.12,0,1.681c0.109,1.17-0.251,2.812,0.24,3.601c0.479,0,0.959,0,1.438,0c0,0.56,0,1.12,0,1.68
	c0,0.641,0,1.28,0,1.921c0,0.561,0,1.119,0,1.681c0,0.479,0,0.96,0,1.438c0.054,0.746,1.194,0.406,1.92,0.48c0,0.56,0,1.12,0,1.68
	c0,2.88,0,5.76,0,8.641c0,0.641,0,1.279,0,1.92c-0.56,0-1.12,0-1.68,0c-0.541,0.179-0.095,1.347-0.24,1.921c0,0.56,0,1.119,0,1.68
	s0,1.12,0,1.681c0,0.641,0,1.279,0,1.92c-0.479,0-0.96,0-1.438,0c-0.537,0.104-0.099,1.183-0.24,1.68c0,0.562,0,1.12,0,1.682
	c0,0.64,0,1.279,0,1.92c-0.561,0-1.12,0-1.681,0c0,0.56,0,1.119,0,1.68c0,0.08,0,0.16,0,0.24c0,0.56,0,1.12,0,1.68
	c-0.561,0-1.12,0-1.681,0c0,0.562,0,1.12,0,1.682c0,0.56,0,1.118,0,1.68c-0.691,0.027-1.57-0.131-1.92,0.24c0,0.56,0,1.119,0,1.68
	s0,1.12,0,1.68c-0.497,0.144-1.576-0.296-1.68,0.24c0,0.562,0,1.12,0,1.68c-0.562,0-1.12,0-1.681,0c0,0.562,0,1.12,0,1.682
	c-0.561,0-1.12,0-1.681,0c-0.08,0-0.159,0-0.239,0c-0.479,0-0.961,0-1.44,0c-0.535,0.104-0.098,1.183-0.239,1.68
	c0,0.641,0,1.28,0,1.92c-0.561,0-1.12,0-1.681,0c-0.479,0-0.96,0-1.439,0c-0.536,0.104-0.098,1.184-0.24,1.682
	c-0.56,0-1.119,0-1.68,0c-0.541,0.178-0.094,1.346-0.24,1.92c-0.479,0-0.96,0-1.439,0c-0.079,0-0.159,0-0.239,0
	c-0.561,0-1.12,0-1.681,0c0,0.56,0,1.119,0,1.68c-0.561,0-1.119,0-1.68,0c0,0.561,0,1.12,0,1.681c-0.561,0-1.12,0-1.681,0
	c-0.641,0-1.28,0-1.921,0c-0.496,0.143-1.575-0.298-1.68,0.239c0,0.562,0,1.12,0,1.681
	C1309.289,1195.202,1308.648,1195.202,1308.009,1195.202z M1274.059,379.416c-0.049,0.002-0.102,0.007-0.154,0.014
	C1273.957,379.423,1274.01,379.418,1274.059,379.416z M1273.831,379.439c-0.081,0.014-0.166,0.037-0.254,0.067
	C1273.665,379.477,1273.75,379.453,1273.831,379.439z"/>
<path fill="#09252E" d="M623.769,541.202c-0.56,0-1.119,0-1.68,0c-21.52,0-43.04,0-64.56,0c-0.561,0-1.12,0-1.681,0
	c0,0.56,0,1.12,0,1.68c0,0.08,0,0.16,0,0.24c0,0.56,0,1.12,0,1.68c0,32.562,0,65.12,0,97.681c-1.68,0-3.359,0-5.04,0
	c-0.238,0.642-2.077-0.318-1.92,0.72c0,0.319,0,0.64,0,0.96c-0.08,0-0.159,0-0.239,0c-0.48,0-0.96,0-1.44,0
	c-0.559,8.4-0.081,17.838-0.24,26.64c0.203,0.519,1.53-0.09,1.681,0.48c0.146,0.495-0.388,1.667,0.479,1.439c0.48,0,0.96,0,1.44,0
	c10.64,0,21.279,0,31.92,0c1.37,0.409,1.289-0.631,1.2-1.68c0.949-0.005,1.321,0.104,1.68-0.24c0.595-0.57,0.24-3.745,0.24-4.56
	c0-7.248,0-13.776,0-19.44c0.002-25.78-0.001-52.953,0-77.04c12.159,0,24.319,0,36.479,0c0.64,0,1.28,0,1.92,0c0-0.56,0-1.12,0-1.68
	c0-8.32,0-16.64,0-24.96C623.862,542.548,624.31,541.38,623.769,541.202z"/>
<path fill="#09252E" d="M946.809,610.562c-0.561,0-1.119,0-1.68,0c0,0.56,0,1.119,0,1.68c0,33.2,0,66.399,0,99.601
	c-11.601,0-23.2,0-34.801,0c-0.641,0-1.279,0-1.92,0c0,0.561,0,1.119,0,1.681c0,0.08,0,0.159,0,0.239c0,0.561,0,1.12,0,1.681
	c0,8.239,0,16.479,0,24.72c0,0.641,0,1.28,0,1.92c0.561,0,1.12,0,1.681,0c-0.103,1.538-0.038,1.682,0.96,1.92
	c1.654,0.396,5.017,0,6.479,0c14.808,0,28.54,0.001,42.72,0c3.509,0,9.294,0.21,12.961,0c1.137-0.064,2.264,0.063,2.88-0.239
	c0.571-0.281,0.063-1.318,0.239-1.681c0.542-0.179,0.094-1.346,0.24-1.92c0-33.681,0-67.359,0-101.04
	c2.24-0.159,5.117,0.318,6.96-0.24c0-0.56,0-1.12,0-1.68c0.561,0,1.12,0,1.681,0c0-0.561,0-1.12,0-1.68c0-7.681,0-15.36,0-23.04
	c0-0.641,0-1.28,0-1.921c-0.561,0-1.12,0-1.681,0C971.288,610.562,959.049,610.562,946.809,610.562z"/>
<ellipse fill="#09252E" cx="167.247" cy="130.856" rx="57.129" ry="56.595"/>
<ellipse fill="#09252E" cx="1294.497" cy="133.606" rx="57.129" ry="56.595"/>
<ellipse fill="#09252E" cx="1294.579" cy="1146.982" rx="57.129" ry="56.596"/>
<ellipse fill="#09252E" cx="168.913" cy="1148.981" rx="57.129" ry="56.596"/>
<path fill="#144D60" d="M187.384,210.845c0,11.167,0.064,89.796,0.064,90.357c5.165-0.023,269.005,0.24,293.279,0.24
	c0,2.88,0,11.68,0,12.239c5.447,5.871,53.197,55.371,62.881,65.761c17.691-0.015,105.197,0.239,156.96,0.239
	c0,0.561,0,26.48,0,38.88c-27.2,0-54.399,0-81.601,0c-6.542,6.491-21.042,20.866-26.64,26.881c0,18.96,0.139,54.673,0.139,55.152
	c12.583-0.042,393.791-0.208,396.341-0.192c0-0.641,0-54.24,0-54.721c-6.175-6.337-26.068-26.811-26.399-27.12
	c-0.561,0-56.24,0-83.521,0c0-12.96,0-25.92,0-38.88c71.519,0,397.103-0.004,397.662-0.004
	c0.038-15.087-0.167-168.315-0.167-168.875c7.542,0,29.563,0.031,33.979,0.031c0,0.56-0.245,138.71-0.188,207.594
	c-86.078,0-257.848,0.134-258.247,0.134c-2.503,2.575-25.295,25.533-28.319,28.561c0,0.56,0,86.959,0,129.6
	c2.191,2.456,28.035,30.362,29.76,32.16c0.561,0,48.24,0,71.521,0c0,18.88,0,37.76,0,56.64c-23.92,0-72.561,0-72.96,0
	c-1.972,1.906-26.314,28.156-28.319,30.479c0,0.561,0,95.122,0,141.841c3.566,3.961,19.066,20.711,24.479,26.88
	c0.561,0,172.239,0,172.8,0c0-0.561,0-56.318,0-83.521c11.601,0,34.96,0,35.04,0c0,26.8,0.064,67.87,0.122,83.539
	c0.562,0,34.234,0.019,53.625,0.062c0,66.321,0.25,203.815,0.25,204.375c-4.334,0-27.459-0.042-33.167-0.042
	c0-0.64-0.083-165.067-0.083-165.708c-0.641,0-244.262,0.174-364.667,0.174c0-12.96,0-25.92,0-38.88c15.681,0,48,0,48.479,0
	c3.979-3.877,28.011-28.229,28.319-28.561c0-18.88,0-57.92,0-58.561c-0.561,0-396.03,0.16-396.591,0.16
	c-0.018,7.91,0.111,59.359,0.111,59.84c2.806,3.16,21.139,23.16,24.72,27.12c0.48,0,34.16,0,50.4,0c0,12.96,0,25.92,0,38.88
	c-32.731-0.173-119.751-0.09-120.231-0.09c-5.292,5.666-65.417,69.666-71.769,76.649c-0.561,0-273.147-0.233-288.397-0.233
	c0,29.875,0,88.565,0,89.125c-3.542,0-31.542,0-37.875,0c0-0.56,0-84.819,0-124.5c101.203,0,200.589,0.089,301.792,0.089
	c14.583-14.464,92.583-91.798,99.601-99.601c0-0.56,0-66.88,0-67.439c-0.561,0-21.601,0-31.44,0c0-18.319,0.006-56.276,0.006-56.758
	c-7.078-0.033-68.159-0.182-99.599-0.182c0-52.722,0-105.388,0-158.109c30.8,0,89.849-0.042,99.599-0.042
	c0-0.56,0.167-48.854,0.167-71.333c8.96,0,22.415,0,31.375,0c-0.083-11.344-0.106-54.136-0.106-54.616
	c-0.58-0.57-100.455-99.029-101.28-99.84c-38.488-0.043-280.363,0.145-302.16,0.24c-0.078,8.091-0.078,12.83-0.078,17.55
	c-12.72,0-27.113,0-39.833,0c0-17.68-0.167-35.403-0.167-53.083c12.8,0,35.766-0.105,41.833-0.083c0-0.56,0-76.625,0-90.417
	 M555.849,642.482c-1.68,0-6.255-0.055-6.734-0.055c-0.033,8.329,0,21.938,0.015,30.294c0.48,0,25.658,0.02,36.297,0.02
	c0-7.919,0.182-78.893,0.184-102.979c12.159,0,37.76,0,38.399,0c0-0.56,0.075-22.355,0.042-28.75c-0.56,0-67.689-0.083-68.25-0.083
	C555.801,541.488,555.849,609.922,555.849,642.482z M945.129,711.842c-11.601,0-36.08,0-36.721,0c0,0.561,0,29.601,0,30.239
	c0.561,0,62.559-0.069,67.92,0c-0.027-6.902,0.14-69.473,0.14-103.153c4.315,0.057,6.355-0.037,8.833,0
	c0-0.56-0.092-27.726-0.092-28.366c-0.561,0-39.521,0-40.08,0C945.129,611.122,945.129,678.642,945.129,711.842z"/>
<polygon id="ARM1TRAININGROOM_1_" fill="#CE1D6F" points="1091.86,1131.179 1040.616,1118.829 1020.974,1114.656 997.872,1110.318 
	985.791,1108.314 977.917,1107.02 967.98,1105.581 957.42,1104.141 949.858,1103.203 945.858,1102.702 941.672,1102.263 
	933.985,1101.575 923.736,1100.511 912.035,1099.462 912.02,903.584 1140.52,903.533 1141.051,1069.178 1091.863,1069.241 "/>
<polygon id="ARM1GM5_1_" fill="#CE1D6F" points="977.926,847.178 960.52,864.741 912.02,864.725 911.879,777.631 988.801,777.616 
	988.816,836.163 "/>
<polygon id="ARM1GM4_1_" fill="#CE1D6F" points="912.181,864.854 779.627,864.918 779.385,777.658 912.104,777.642 "/>
</svg>
