<?xml version="1.0" encoding="utf-8"?>
<!-- Generator: Adobe Illustrator 15.0.0, SVG Export Plug-In . SVG Version: 6.00 Build 0)  -->
<!DOCTYPE svg PUBLIC "-//W3C//DTD SVG 1.1//EN" "http://www.w3.org/Graphics/SVG/1.11/DTD/svg11.dtd">
<svg version="1.1" id="Layer_1" xmlns="http://www.w3.org/2000/svg" xmlns:xlink="http://www.w3.org/1999/xlink" x="0px" y="0px"
	 width="1500px" height="1500px" viewBox="0 0 1500 1500" enable-background="new 0 0 1500 1500" xml:space="preserve">
<path fill="#09252E" d="M1360.051,488.678c-12.335-0.015-829.396-0.54-1238.46-0.54c-0.003,0.76,0.022,425.29,0,432
	c177.382,0,354.706,0,532.08,0c0,6.96,0,22,0,22.561c0.561,0,172.479,0,173.04,0c-0.035-4.396,0.007-15.227,0.007-22.187
	c177.382,0,356.124,0.666,533.499,0.666C1360.102,907.343,1359.966,503.038,1360.051,488.678z M621.751,914.858
	c0-82.64,0-165.279,0-247.921c-0.56,0-220.883,0-330.48,0c-0.124-0.676,0.428-2.027-0.72-1.68c-1.289-0.409-0.933,0.827-0.96,1.68
	c-54.96,0-109.92,0-164.88,0c0-0.64,0-1.279,0-1.92c0-19.039,0-38.08,0-57.119c410.288,0,820.646,0,1230.96,0
	c0,19.039,0,38.08,0,57.119c0,0.641,0,1.28,0,1.92c-52.479,0-104.96,0-157.44,0c0.896-1.987-2.088-2.641-1.438,0
	c-110.639,0-221.28,0-331.92,0c-0.48,0-0.96,0-1.44,0c-0.017,0.007-0.238-0.007-0.239,0c-0.448,4.943,0.001,10.222,0,15.36
	c-0.008,77.292,0.006,155.332,0,232.08c0.146,0.946-1.317,0.282-1.921,0.479c-12.56,0-25.119,0-37.68,0c-0.479,0-0.96,0-1.439,0
	c-0.079,0-0.16,0-0.239,0c0,0.641,0,1.279,0,1.92c0,6.881,0,13.761,0,20.641c-54.479,0-108.961,0-163.44,0c0-6.88,0-13.76,0-20.641
	c-0.146-0.573,0.302-1.741-0.239-1.92c-0.48,0-0.96,0-1.44,0C645.111,914.858,633.431,914.858,621.751,914.858z M821.97,938.056
	c-0.001-0.031,0-0.062-0.002-0.098C821.97,937.993,821.969,938.024,821.97,938.056z M821.934,938.503
	c0.002-0.009,0.004-0.018,0.005-0.026C821.938,938.486,821.936,938.495,821.934,938.503z M821.491,939.104
	C821.49,939.104,821.49,939.104,821.491,939.104C821.49,939.104,821.491,939.104,821.491,939.104L821.491,939.104z M678.864,939.305
	c-6.806,0.003-13.604,0.015-20.394,0.033C665.26,939.319,672.059,939.308,678.864,939.305z M820.541,939.111c0,0,0.001,0,0.002,0
	c-45.664,0.456-92.05,0.188-138.161,0.194C728.491,939.298,774.878,939.567,820.541,939.111z M121.677,489.347
	c-0.006,0.052-0.011,0.103-0.017,0.152C121.666,489.449,121.67,489.397,121.677,489.347z M121.591,494.858
	c0-0.417-0.008-0.834-0.017-1.251C121.583,494.024,121.591,494.442,121.591,494.858z"/>
<rect x="123.172" y="489.778" fill="#09252E" width="1234.438" height="425.979"/>
<rect x="655.218" y="912.512" fill="#09252E" width="168" height="26"/>
<path fill="#144D60" d="M121.598,607.928c410.288,0,828.123-0.016,1238.438-0.016c0,19.04,0,58.359,0,59
	c-52.479,0-496.845,0.019-496.845,0.025c-0.141,13.489,0.074,176.784,0.068,253.532c-4.681,0.009-35.304,0.027-36.537,0.035
	c0,0.642-0.03,15.323-0.03,22.203c-54.479,0-118.553-0.016-173.031-0.016c0-6.88,0.022-17.103,0.031-22.563
	c-0.48,0-20.228,0.016-31.906,0.016c0-82.639-0.034-170.567-0.034-253.209c-0.56,0-445.193,0.021-500.153,0.021
	C121.598,666.32,121.598,626.968,121.598,607.928z"/>
<rect id="ARM2SF8_1_" x="121.593" y="488.138" fill="#CE1D6F" width="188.958" height="119.79"/>
</svg>
