<?xml version="1.0" encoding="utf-8"?>
<!-- Generator: Adobe Illustrator 15.0.0, SVG Export Plug-In . SVG Version: 6.00 Build 0)  -->
<!DOCTYPE svg PUBLIC "-//W3C//DTD SVG 1.1//EN" "http://www.w3.org/Graphics/SVG/1.11/DTD/svg11.dtd">
<svg version="1.1" id="Layer_1" xmlns="http://www.w3.org/2000/svg" xmlns:xlink="http://www.w3.org/1999/xlink" x="0px" y="0px"
	 width="1500px" height="1500px" viewBox="0 0 1500 1500" enable-background="new 0 0 1500 1500" xml:space="preserve">
<path fill="#09252E" d="M1363.305,637.933c-9.68,0-19.358,0-29.04,0c0-17.12,0-34.239,0-51.359c0-8.561,0-17.12,0-25.681
	c0-4.239,0-8.479,0-12.72c0-2.16,0-4.319,0-6.479c0-1.04,0-2.08,0-3.12c0-0.561,0-1.12,0-1.681c0-0.239,0-0.479,0-0.72
	c-0.319,0-0.64,0-0.96,0c-0.319,0-0.64,0-0.96,0c-0.079,0-0.159,0-0.239,0c-52.317,0-104.642,0-156.96,0c0-46.88,0-93.76,0-140.64
	c52.317,0,104.641,0,156.96,0c0.08,0,0.16,0,0.239,0c0.561,0,1.12,0,1.681,0c0.055-0.032,0.191,0.039,0.24,0
	c0.077-0.064-0.061-0.395,0-0.48c0-0.319,0-0.64,0-0.96c0-0.64,0-1.279,0-1.92c0-1.2,0-2.399,0-3.6c0-2.4,0-4.8,0-7.2
	c0-4.88,0-9.76,0-14.64c0-9.681,0-19.36,0-29.04c0-19.359,0-38.721,0-58.08c12.079,0,24.159,0,36.239,0
	c0.526-0.092,1.323,0.122,1.681,0c0.258-0.088,0.091-0.083,0.239-0.24c0.039-0.041,0.195,0.037,0.24,0c0.174-0.143,0-1.49,0-1.68
	c-0.001-2.1,0-5.476,0-6.48c-0.001-4.481,0-7.639,0-10.32c-0.001-7.699,0-14.185,0-20.4c-0.003-40.947,0.002-83.382,0-122.64
	c0-0.56,0-1.12,0-1.68c-0.659-0.405-1.37-0.22-2.16-0.24c-2.402-0.061-4.948,0.046-7.2,0c-3.199,0-6.399,0-9.6,0
	c-6.479,0-12.96,0-19.439,0c0-19.36,0-38.72,0-58.08c0-9.68,0-19.36,0-29.04c0-4.8,0-9.6,0-14.4c0-2.4,0-4.8,0-7.2
	c0-1.2,0-2.4,0-3.6c0-0.64,0-1.28,0-1.92c0-0.48,0-0.96,0-1.44c-0.015-0.146-0.036-0.284-0.24-0.24c-0.561,0-1.12,0-1.68,0
	c-0.08,0-0.16,0-0.24,0c-368.221,0-736.283,0-1104.48,0c-0.244,0.046-0.208,0.209-0.24,0.48c-0.224,1.863,0,3.608,0,5.28
	c0,63.147,0,126.389,0,189.36c-23.28,0-46.56,0-69.84,0c-0.4,0-0.8,0-1.2,0c-0.537,0.103-0.097,1.183-0.24,1.68
	c0,0.08,0,0.16,0,0.24c0,32.159,0,64.32,0,96.48c0,0.56,0,1.12,0,1.68c0.038,0.314,0.383,0.216,0.72,0.24
	c1.152,0.083,2.103,0,3.12,0c21.318,0,42.846,0,63.84,0c0,32.561,0,65.12,0,97.68c0,0.8,0,1.601,0,2.4c0.56,0,1.12,0,1.68,0
	c0.08,0,0.16,0,0.24,0c176.149,0,352.324,0,528.48,0c0,46.879,0,93.76,0,140.64c-17.04,0-34.08,0-51.12,0c-0.561,0-1.12,0-1.681,0
	c-0.536,0.104-0.097,1.184-0.239,1.681c0,97.837,0,195.682,0,293.521c0,0.319,0,0.64,0,0.96c0.075,0.203-0.095,0.525,0,0.72
	c0.016,0.032,0.213-0.026,0.239,0c0.025,0.025-0.029,0.229,0,0.24c0.136,0.058,0.34-0.045,0.48,0c0.56,0,1.12,0,1.68,0
	c16.88,0,33.76,0,50.641,0c0,46.8,0,93.6,0,140.399c-86.826,0.008-175.322-0.012-264,0c-84.803,0.011-170.48-0.011-255.601,0
	c-1.345,0-5.695-0.256-6.72,0c-0.269,0.066-0.092,0.098-0.24,0.239c-0.041,0.04-0.2-0.04-0.24,0c-0.278,0.278,0.21,1.159,0,1.44
	c0,0.08,0,0.159,0,0.239c0,62.643,0,125.278,0,187.92c-22.72,0-45.44,0-68.16,0c-0.72,0-1.44,0-2.16,0c-0.24,0-0.48,0-0.72,0
	c-0.146,0.014-0.284,0.036-0.24,0.239c0,0.48,0,0.961,0,1.44c0,0.08,0,0.159,0,0.239c0,32.561,0,65.12,0,97.681
	c0,0.8,0,1.601,0,2.399c0.56,0,1.12,0,1.68,0c0.08,0,0.16,0,0.24,0c23.12,0,46.24,0,69.36,0c0,33.359,0,66.721,0,100.08
	c0,0.08,0,0.16,0,0.239c0.143,0.497-0.297,1.577,0.24,1.681c368.22,0,736.284,0,1104.48,0c0.08,0,0.16,0,0.239,0
	c0.08,0,0.16,0,0.24,0c0.497-0.144,1.576,0.297,1.681-0.239c0-0.641,0-1.28,0-1.92c0-37.921,0-75.841,0-113.761
	c6.399,0,12.8,0,19.199,0c3.2,0,6.4,0,9.601,0c1.601,0,3.199,0,4.801,0c0.8,0,1.6,0,2.399,0c0.729-0.067,1.479,0.097,1.92,0
	c0.271-0.06,0.095-0.095,0.239-0.239c0.033-0.033,0.216,0.038,0.24,0c0.271-0.423-0.188-0.961,0-1.681c0-56.238,0-112.48,0-168.721
	c-0.144-0.497,0.296-1.577-0.24-1.68c-0.56,0-1.12,0-1.68,0c-12.16,0-24.32,0-36.479,0c0-34.561,0-69.12,0-103.682
	c0-0.56,0-1.118,0-1.68c-0.146-0.014-0.284-0.036-0.24-0.24c-0.239,0-0.479,0-0.721,0c-0.399,0-0.8,0-1.199,0
	c-26.159,0-52.32,0-78.479,0c-7.28,0-14.561,0-21.84,0c-11.04,0-22.08,0-33.12,0c-7.84,0-15.681,0-23.521,0c0-46.8,0-93.6,0-140.398
	c26.479,0,52.961,0,79.439,0c13.28,0,26.561,0,39.84,0c6.641,0,13.28,0,19.921,0c3.279,0,6.56,0,9.84,0c1.681,0,3.359,0,5.04,0
	c0.8,0,1.6,0,2.399,0c0.16,0,0.32,0,0.479,0c0.241,0,0.286-0.194,0.479-0.24c0.479,0,0.96,0,1.439,0c0-0.479,0-0.96,0-1.439
	c-0.001-0.24,0.193-0.285,0.24-0.479c0-0.32,0-0.641,0-0.96c0-33.52,0-67.04,0-100.561c4.88,0,9.76,0,14.64,0
	c2.479,0,4.961,0,7.439,0c1.2,0,2.4,0,3.601,0c0.641,0,1.279,0,1.921,0c0.319,0,0.64,0,0.959,0 M955.545,240.732
	c-0.641,0-1.28,0-1.92,0c-0.561,0-1.12,0-1.681,0c0-0.56,0-1.12,0-1.68 M938.984,189.853c0.561,0,1.119,0,1.681,0
	c0.079,0,0.16,0,0.239,0c0.561,0,1.12,0,1.681,0c0,0.32,0,0.64,0,0.96c0,0.16,0,0.32,0,0.48c-0.001,0.241,0.194,0.286,0.239,0.48
	c0.561,0,1.12,0,1.681,0c0,0.56,0,1.12,0,1.68c0.561,0,1.12,0,1.681,0c0,0.56,0,1.12,0,1.68c0.641,0,1.279,0,1.92,0s1.279,0,1.92,0
	c0,0.56,0,1.12,0,1.68c0.104,0.537,1.183,0.097,1.681,0.24c0,0.56,0,1.12,0,1.68c0.64,0,1.92,1.12,1.92,1.68c0.561,0,1.12,0,1.68,0
	c0.08,0,0.16,0,0.24,0c0.561,0,1.12,0,1.681,0c0.062,0.526-0.087,1.48,0,1.68c0.026,0.064,0.375-0.003,0.239,0.24
	c0.561,0,1.12,0,1.681,0c0,0.48,0,0.96,0,1.44c0.045,0.355,0.58,0.22,0.96,0.24c0.399,0,0.8,0,1.199,0c0.881,0,1.761,0,2.641,0
	c1.681,0,3.359,0,5.04,0c3.359,0,6.721,0,10.08,0c6.721,0,13.439,0,20.16,0c39.439,0,78.88,0,118.319,0c0.72,0,1.439,0,2.16,0
	c0.146,0.014,0.284,0.036,0.239,0.24c0,12,0,24,0,36c0,0.72,0,1.44,0,2.16c-0.015,0.146-0.035,0.284-0.239,0.24
	c-26.08,0-52.16,0-78.24,0c-0.399,0-0.8,0-1.2,0c-0.911-0.192-0.306,1.135-0.479,1.68c-0.08,0-0.16,0-0.24,0c-0.561,0-1.12,0-1.68,0
	c-0.2-0.044-0.232,0.093-0.24,0.24c-0.252,4.78,0,10.341,0,15.6c0,5.234,0,10.671,0,15.84c-8.479,0-16.96,0-25.439,0
	c-0.641,0-1.28,0-1.92,0c0,0.56,0,1.12,0,1.68c0,120.719,0,241.446,0,362.16c0.143,0.497-0.298,1.577,0.239,1.681
	c0.561,0,1.12,0,1.681,0c53.039,0,106.08,0,159.119,0c0.562,0,1.12,0,1.681,0c0.537-0.104,0.098-1.184,0.24-1.681
	c0-18.8,0-37.6,0-56.399c0-0.08,0-0.16,0-0.24c0-0.4,0-0.8,0-1.2c-0.194-0.046-0.239-0.241-0.479-0.239c-0.479,0-0.96,0-1.439,0
	c-30.48,0-60.96,0-91.439,0c0-6.961,0-13.921,0-20.881c19.199,0,38.325-0.039,57.6,0c0.961,0.002,1.921,0,2.881,0
	c0-0.64,0-1.279,0-1.92c0.56,0,1.119,0,1.68,0c0-0.64,0-1.279,0-1.92c0-5.2,0-10.399,0-15.6c9.2,0,18.4,0,27.601,0
	c0.561,0,1.12,0,1.681,0c5.439,0,10.88,0,16.319,0c0,32.8,0,65.6,0,98.4c0.144,0.496-0.297,1.576,0.24,1.68c0.561,0,1.119,0,1.681,0
	c46.317,0,92.641,0,138.959,0c0,0.56,0,1.12,0,1.68c0.194,0.045,0.239,0.241,0.479,0.24c0.16,0,0.32,0,0.479,0
	c0.32,0,0.641,0,0.961,0c0.64,0,1.279,0,1.92,0c1.279,0,2.56,0,3.84,0c2.64,0,5.279,0,7.92,0c5.2,0,10.4,0,15.601,0
	c0,8.16,0,16.32,0,24.479c0,15.841,0,31.681,0,47.521c0,2.881,0,5.761,0,8.641c-9.601,0-19.2,0-28.801,0c-0.64,0-1.279,0-1.92,0
	c-0.213,0.106-0.429,0.211-0.479,0.479c0,0.479,0,0.96,0,1.439c-9.681,0-19.359,0-29.04,0c0-4.159,0-8.319,0-12.479
	c0-0.561,0-1.119,0-1.68c-0.64,0-1.279,0-1.92,0c-41.438,0-82.881,0-124.319,0c-0.08,0-0.16,0-0.24,0c-0.561,0-1.119,0-1.68,0
	c0,0.561,0,1.119,0,1.68c0,0.08,0,0.16,0,0.24c0,37.999,0,76.001,0,114c-15.841,0-31.681,0-47.521,0c0-11.681,0-23.36,0-35.04
	c0-0.399,0-0.801,0-1.2c0-0.159,0-0.319,0-0.479c-0.16,0-0.32,0-0.479,0c-0.48,0-0.961,0-1.439,0c0-0.08,0-0.159,0-0.239
	c0-0.479,0-0.961,0-1.439c0.043-0.2-0.094-0.232-0.24-0.24c-0.08-0.005-0.16,0.003-0.24,0c-0.159,0-0.319,0-0.479,0
	c-0.399,0-0.8,0-1.199,0c-0.721,0-1.439,0-2.16,0c-1.521,0-3.04,0-4.561,0c-2.96,0-5.92,0-8.88,0c-5.92,0-11.84,0-17.76,0
	c-11.921,0-23.841,0-35.761,0c0-11.04,0-22.08,0-33.12c23.199,0,46.4,0,69.601,0c0.496-0.143,1.576,0.298,1.681-0.239
	c0-0.561,0-1.12,0-1.681c0.319,0,0.64,0,0.959,0c0.381-0.021,0.916,0.115,0.961-0.239c0-0.4,0-0.801,0-1.2
	c0-11.84,0-23.681,0-35.521c0-0.561,0-1.12,0-1.681s0-1.119,0-1.68c0-0.08,0-0.16,0-0.24c0-0.561,0-1.119,0-1.681
	c-0.641,0-1.28,0-1.92,0c-36.562,0-73.12,0-109.681,0c-0.641,0-1.28,0-1.92,0c0,0.562,0,1.12,0,1.681c0,97.278,0,194.562,0,291.841
	c-1.761,0-3.521,0-5.28,0c-0.641,0-1.279,0-1.92,0c0,0.56,0,1.12,0,1.68c-0.399,0-0.8,0-1.199,0c-0.341-0.021-0.68-0.04-0.721,0.24
	c0,14.561,0,29.12,0,43.68c-7.04,0-14.08,0-21.12,0c-3.521,0-7.04,0-10.561,0c-1.76,0-3.521,0-5.279,0c-0.881,0-1.761,0-2.641,0
	c-0.399,0-0.801,0-1.2,0c-0.239,0-0.479,0-0.72,0c-0.08,0.004-0.16-0.004-0.24,0c-0.146,0.009-0.283,0.04-0.239,0.24
	c0,0.561,0,1.12,0,1.68c-0.319,0-0.641,0-0.96,0c-0.24,0-0.479,0-0.721,0c0,0.16,0,0.32,0,0.48c0,0.399,0,0.8,0,1.199
	c0,22.479,0,44.961,0,67.439c0,0.399,0,0.801,0,1.2c0.561,0,1.12,0,1.681,0c0,1.12,0,2.24,0,3.359c0,0.081,0,0.159,0,0.239
	c0,0.562,0,1.12,0,1.682c0,0.56,0,1.119,0,1.68s0,1.12,0,1.68c0,0.642,0,1.28,0,1.921c0.561,0,1.12,0,1.68,0c0,0.561,0,1.12,0,1.68
	c0,0.641,0,1.28,0,1.921c0.144,0.497-0.296,1.576,0.24,1.68c0.561,0,1.12,0,1.681,0c0,0.561,0,1.12,0,1.681s0,1.12,0,1.681
	c0,0.08,0,0.159,0,0.239c0,0.562,0,1.12,0,1.681c0.641,0,1.279,0,1.92,0c0,0.561,0,1.119,0,1.681c0,0.561,0,1.12,0,1.68
	c0,0.08,0,0.16,0,0.24c0,0.479,0,0.96,0,1.439c0.104,0.536,1.184,0.098,1.68,0.239c0,0.562,0,1.12,0,1.682c0,0.56,0,1.119,0,1.68
	c-0.064,0.243,0.141,0.157,0.24,0.24c0.299,0.244-0.229,1.251,0,1.438c0.561,0,1.12,0,1.681,0c0,0.08,0,0.16,0,0.24
	c0,0.561,0,1.12,0,1.68c0,0.562,0,1.12,0,1.682c0.104,0.536,1.183,0.097,1.68,0.239c0,0.561,0,1.119,0,1.681
	c0.144,0.497-0.296,1.576,0.24,1.68c0.561,0,1.12,0,1.681,0c0,0.562,0,1.12,0,1.681c0,0.079,0,0.159,0,0.239c0,0.562,0,1.12,0,1.681
	c0.64,0,1.279,0,1.92,0c0,0.561,0,1.119,0,1.681c0,0.56,0,1.12,0,1.68c0.561,0,1.119,0,1.68,0c0,0.08,0,0.16,0,0.24
	c0,0.479,0,0.96,0,1.44c0.146,0.014,0.284,0.035,0.24,0.238c0.16,0,0.319,0,0.479,0c0.399,0,0.8,0,1.199,0c0,0.562,0,1.12,0,1.682
	c0.641,0,1.28,0,1.921,0c0,0.56,0,1.119,0,1.68c0.104,0.536,1.183,0.098,1.68,0.24c0,0.318,0,0.64,0,0.96c0,0.159,0,0.319,0,0.479
	c0.146,0.015,0.284,0.036,0.24,0.24c0.561,0,1.119,0,1.68,0s1.12,0,1.681,0c0.144,0.497-0.297,1.576,0.239,1.681
	c0.561,0,1.12,0,1.681,0c0,0.561,0,1.119,0,1.681c0.641,0,1.28,0,1.92,0c0.561,0,1.12,0,1.681,0c0.098,0.521-0.128,1.329,0,1.68
	c0.01,0.027,0.218-0.021,0.24,0c0.039,0.04-0.032,0.192,0,0.24c0.159,0,0.319,0,0.479,0c0.4,0,0.801,0,1.2,0c0,0.56,0,1.12,0,1.68
	c0.561,0,1.12,0,1.681,0c0.08,0,0.16,0,0.239,0c0.561,0,1.12,0,1.681,0c0.08,0,0.16,0,0.24,0c0.561,0,1.119,0,1.68,0
	c0,0.561,0,1.12,0,1.681c0.561,0,1.12,0,1.681,0c0.08,0,0.159,0,0.239,0c0.561,0,1.12,0,1.681,0c0.641,0,1.28,0,1.92,0
	c0.561,0,1.12,0,1.681,0c0,0.641,0,1.279,0,1.92c0.641,0,1.279,0,1.92,0c0.561,0,1.12,0,1.681,0c0.72,0,1.439,0,2.159,0
	c1.761,0,3.521,0,5.28,0c0,0.561,0,1.12,0,1.681c0.64,0,1.279,0,1.92,0c17.681,0,35.359,0,53.04,0c0.641,0,1.279,0,1.92,0
	c32.24,0,64.479,0,96.721,0c0,13.439,0,26.88,0,40.319c0,0.081,0,0.16,0,0.24c-49.683,0.001-99.657-0.001-149.521,0
	c-2.434,0-4.864,0.193-7.44,0c-0.181-0.015-0.263-0.199-0.479-0.24c-0.303-0.057-1.057,0.04-1.68,0c-0.561,0-1.12,0-1.681,0
	c0-0.561,0-1.119,0-1.68c-0.641,0-1.279,0-1.92,0c-0.561,0-1.12,0-1.681,0c0-0.561,0-1.12,0-1.681
	c-0.204,0.044-0.228-0.094-0.239-0.24c-0.16,0-0.32,0-0.479,0c-0.4,0-0.801,0-1.2,0c-0.641,0-1.279,0-1.92,0c0-0.56,0-1.12,0-1.68
	c-0.641,0-1.279,0-1.92,0c-0.561,0-1.12,0-1.681,0s-1.12,0-1.68,0c-0.144-0.497,0.296-1.577-0.24-1.681c-0.561,0-1.12,0-1.681,0
	c-0.079,0-0.159,0-0.239,0c-0.561,0-1.12,0-1.681,0c0-0.561,0-1.119,0-1.681c-0.104-0.536-1.184-0.098-1.68-0.239
	c0-0.479,0-0.961,0-1.439c-0.204,0.044-0.228-0.094-0.24-0.24c-0.16,0-0.319,0-0.479,0c-0.399,0-0.8,0-1.2,0c-0.64,0-1.279,0-1.92,0
	c0-0.56,0-1.12,0-1.68c-0.561,0-1.119,0-1.681,0c-0.079,0-0.159,0-0.239,0c-0.561,0-1.12,0-1.681,0c0-0.562,0-1.12,0-1.682
	c-0.104-0.535-1.183-0.097-1.68-0.238c0-0.48,0-0.961,0-1.44c-0.196,0.138-0.22-0.232-0.24-0.239c-0.408-0.137-1.163,0.102-1.681,0
	c0-0.561,0-1.12,0-1.681c-0.64,0-1.279,0-1.92,0c-0.56,0-1.119,0-1.68,0c0-0.479,0-0.96,0-1.439c0.081-0.241-0.16-0.16-0.24-0.239
	c-0.026-0.027,0.031-0.227,0-0.24c-0.373-0.174-1.189,0.13-1.68,0c0-0.479,0-0.96,0-1.439c-0.104-0.536-1.184-0.098-1.681-0.24
	c-0.144-0.497,0.297-1.576-0.239-1.68c-0.561,0-1.12,0-1.681,0c0-0.561,0-1.12,0-1.681c-0.641,0-1.28,0-1.921,0
	c-0.56,0-1.119,0-1.68,0c0-0.479,0-0.96,0-1.439c0.081-0.241-0.16-0.16-0.24-0.239c-0.025-0.027,0.032-0.227,0-0.24
	c-0.373-0.174-1.189,0.13-1.68,0c0-0.561,0-1.12,0-1.68c-0.641,0-1.28,0-1.92,0c0-0.562,0-1.12,0-1.682c-0.561,0-1.12,0-1.681,0
	c-0.098-0.521,0.129-1.328,0-1.68c-0.011-0.027-0.218,0.021-0.24,0c-0.039-0.04,0.032-0.192,0-0.24c-0.159,0-0.319,0-0.479,0
	c-0.399,0-0.8,0-1.199,0c0-0.56,0-1.12,0-1.68c-0.561,0-1.12,0-1.681,0c-0.143-0.497,0.297-1.577-0.239-1.682
	c-0.561,0-1.12,0-1.681,0c0-0.64,0-1.278,0-1.92c0-0.56,0-1.119,0-1.68c-0.641,0-1.28,0-1.92,0c0-0.561,0-1.12,0-1.68
	c-0.497-0.144-1.577,0.297-1.681-0.24c0-0.48,0-0.96,0-1.44c-0.146-0.014-0.284-0.034-0.239-0.238c-0.561,0-1.12,0-1.681,0
	c0-0.562,0-1.12,0-1.682c-0.641,0-1.279,0-1.92,0c0-0.56,0-1.12,0-1.68c0-0.64,0-1.28,0-1.92c-0.497-0.144-1.576,0.297-1.681-0.24
	c-0.138-0.422,0.29-1.41-0.239-1.438c-0.561,0-1.12,0-1.681,0c0-0.562,0-1.12,0-1.682c0-0.56,0-1.119,0-1.68
	c-0.561,0-1.12,0-1.681,0c0-0.08,0-0.16,0-0.24c0-0.561,0-1.12,0-1.68c-0.641,0-1.279,0-1.92,0
	c-0.144-0.497,0.297-1.577-0.239-1.681c-0.561,0-1.12,0-1.681,0c0-0.561,0-1.12,0-1.681c0-0.08,0-0.159,0-0.239
	c0-0.479,0-0.961,0-1.439c-0.561,0-1.12,0-1.681,0c-0.08,0-0.159,0-0.239,0c-0.104-0.536-1.184-0.099-1.681-0.24
	c-0.397,0.021-0.802-0.028-1.2,0c-0.337,0.024-0.682-0.073-0.72,0.24c0,0.479,0,0.96,0,1.439c-0.641,0-1.28,0-1.92,0
	c-0.497,0.144-1.577-0.297-1.68,0.239c-0.562,0-1.12,0-1.681,0c0,0.561,0,1.12,0,1.681c-0.08,0-0.16,0-0.24,0
	c-0.561,0-1.12,0-1.681,0c-0.079,0-0.159,0-0.239,0c-0.561,0-1.12,0-1.681,0c0,0.561,0,1.119,0,1.681c-0.64,0-1.279,0-1.92,0
	c-0.497,0.143-1.577-0.297-1.68,0.239c0,0.479,0,0.96,0,1.439c-0.641,0-1.28,0-1.921,0c-0.561,0-1.119,0-1.68,0
	c-0.641,0-1.279,0-1.92,0c0,0.641,0,1.28,0,1.92c-0.561,0-1.12,0-1.681,0c-0.08,0-0.16,0-0.24,0c-0.56,0-1.119,0-1.68,0
	c0,0.562-1.28,1.681-1.92,1.681c-0.561,0-1.12,0-1.681,0c-0.536,0.104-0.098,1.184-0.239,1.681c-0.562,0-1.12,0-1.681,0
	s-1.12,0-1.681,0c-0.239,0-0.479,0-0.72,0c-0.32,0-0.641,0-0.96,0c-0.194,0.046-0.239,0.241-0.48,0.239c0,0.561,0,1.12,0,1.681
	c-0.56,0-1.119,0-1.68,0s-1.12,0-1.681,0c-0.536,0.104-0.098,1.183-0.239,1.68c-0.561,0-1.12,0-1.681,0c0,0.642,0,1.28,0,1.92
	c0,16.96,0,33.921,0,50.88c-12.801,0-25.601,0-38.399,0c0-22.959,0-45.92,0-68.88c0-0.398,0-0.8,0-1.198
	c0.044-0.204-0.094-0.228-0.24-0.24c-0.159,0-0.319,0-0.479,0c-0.4,0-0.801,0-1.2,0c0-0.561,0-1.12,0-1.682
	c0.044-0.198-0.094-0.23-0.24-0.238c-0.08-0.005-0.16,0.003-0.24,0c-0.239,0-0.479,0-0.72,0c-0.399,0-0.8,0-1.2,0
	c-0.8,0-1.6,0-2.398,0c-1.602,0-3.2,0-4.801,0c-3.279,0-6.561,0-9.841,0c-6.479,0-12.96,0-19.438,0c-13.04,0-26.08,0-39.12,0
	c-26.08,0-52.16,0-78.24,0c-52.16,0-104.318,0-156.479,0c-104.243,0-208.475,0-312.72,0c0-15.2,0-30.4,0-45.602
	c53.601,0,107.199,0,160.8,0c0.64,0,1.28,0,1.92,0c50.001,0,99.998,0,150,0c0.64,0,1.279,0,1.92,0c21.92,0,43.84,0,65.76,0
	c0.64,0,1.28,0,1.92,0c23.12,0,46.24,0,69.36,0c0-0.158,0-0.318,0-0.479c0-0.32,0-0.641,0-0.96c0.041-0.28,0.379-0.261,0.72-0.24
	c0.32,0,0.64,0,0.96,0c0.199,0.044,0.232-0.094,0.24-0.24c0.021-0.427-0.017-0.998,0-1.68c0-4,0-8,0-12c0-0.64,0-1.28,0-1.92
	c56.641,0,113.278,0,169.92,0c0,7.2,0,14.399,0,21.6c0,0.24,0,0.48,0,0.722c0.06,0.086-0.079,0.414,0,0.479
	c0.048,0.039,0.186-0.031,0.239,0c0.561,0,1.119,0,1.681,0c0,0.561,0,1.12,0,1.68c-0.044,0.2,0.093,0.232,0.239,0.24
	c0.08,0.005,0.161-0.003,0.24,0c0.159,0,0.319,0,0.479,0c0.96,0,1.92,0,2.88,0c0-0.64,0-1.28,0-1.92c0.561,0,1.12,0,1.68,0
	c0.642,0,1.28,0,1.92,0c0.562,0,1.12,0,1.682,0c0.64,0,1.279,0,1.92,0c0.56,0,1.12,0,1.68,0c0.641,0,1.28,0,1.92,0
	c0-0.561,0-1.12,0-1.68c0.562,0,1.12,0,1.681,0c0.08,0,0.159,0,0.239,0c0.562,0,1.12,0,1.681,0c0.641,0,1.279,0,1.92,0
	c0.561,0,1.12,0,1.681,0c0.641,0,1.28,0,1.92,0c0-0.562,0-1.12,0-1.682c0.641,0,1.28,0,1.92,0c0.641,0,1.28,0,1.92,0
	c0.562,0,1.12,0,1.681,0c1.199,0,2.399,0,3.601,0c0.046-0.192,0.24-0.238,0.24-0.479s0-0.48,0-0.721c0-0.239,0-0.479,0-0.721
	c0.56,0,1.119,0,1.68,0c0.641,0,1.28,0,1.92,0c0.561,0,1.12,0,1.68,0c0.642,0,1.28,0,1.921,0s1.279,0,1.92,0c0-0.56,0-1.119,0-1.68
	c0.561,0,1.12,0,1.681,0c0.56,0,1.12,0,1.68,0c0.08,0,0.16,0,0.24,0c0.64,0,1.28,0,1.92,0c0.561,0,1.12,0,1.68,0
	c0.642,0,1.28,0,1.92,0c0-0.561,0-1.12,0-1.68c0.562,0,1.12,0,1.682,0c1.199,0,2.398,0,3.6,0c0.241,0.08,0.16-0.16,0.24-0.24
	c0.12-0.12,0.576,0.096,0.72,0c0.32,0,0.641,0,0.96,0c0-0.48,0-0.96,0-1.44c0-0.08,0-0.159,0-0.239c0-0.561,0-1.119,0-1.681
	c0-0.56,0-1.12,0-1.68c0-0.08,0-0.16,0-0.24c0-0.479,0-0.96,0-1.438c0-0.642,0-1.28,0-1.921c-0.56,0-1.12,0-1.68,0
	c0-1.12,0-2.239,0-3.359c0-0.561,0-1.12,0-1.681c0.044-0.203-0.094-0.227-0.24-0.239c-0.56,0-1.12,0-1.68,0c0-0.562,0-1.12,0-1.681
	c0-0.08,0-0.16,0-0.24c0-0.479,0-0.959,0-1.439c0-0.08,0-0.159,0-0.239c0-1.12,0-2.239,0-3.359c0-0.08,0-0.16,0-0.24
	c0-1.12,0-2.24,0-3.36c-0.641,0-1.28,0-1.92,0c0-1.119,0-2.238,0-3.358c0-0.08,0-0.16,0-0.24c0-1.12,0-2.24,0-3.36
	c0-0.56,0-1.119,0-1.68c0-2.96,0-5.92,0-8.88c0-1.761,0-3.521,0-5.28c0-1.2,0-2.399,0-3.6c0-1.201,0-2.4,0-3.602
	c0-0.56,0-1.119,0-1.68c0.64,0,1.279,0,1.92,0c0-1.12,0-2.24,0-3.359c0-0.081,0-0.16,0-0.24c0-0.479,0-0.959,0-1.439
	c0-1.2,0-2.399,0-3.6c0-0.08,0-0.16,0-0.24c0-0.479,0-0.96,0-1.44c0-0.079,0-0.159,0-0.238c0-0.562,0-1.12,0-1.682
	c0.56,0,1.12,0,1.68,0c0-0.398,0-0.8,0-1.198c0.053-0.421,0.185-0.521,0.24-0.962c0.061-0.472-0.046-0.966,0-1.438
	c0-0.561,0-1.12,0-1.68c0-0.642,0-1.28,0-1.921c0.56,0,1.12,0,1.68,0c0-0.479,0-0.961,0-1.439c0-0.08,0-0.16,0-0.24
	c0-0.56,0-1.12,0-1.68c0-0.561,0-1.12,0-1.681c0-0.081,0-0.16,0-0.239c0-0.48,0-0.96,0-1.44c0.642,0,1.28,0,1.92,0
	c0-0.64,0-1.279,0-1.92c0-0.64,0-1.279,0-1.92c0-0.479,0-0.96,0-1.439c0.497-0.144,1.577,0.297,1.681-0.239c0-0.562,0-1.12,0-1.681
	s0-1.12,0-1.681s0-1.12,0-1.68c0.399,0,0.801,0,1.2,0c0.341,0.021,0.68,0.04,0.721-0.24c0-0.561,0-1.12,0-1.681s0-1.119,0-1.681
	c0.56,0,1.12,0,1.68,0c0.536-0.103,0.097-1.183,0.24-1.68c0-0.08,0-0.16,0-0.24c0-0.56,0-1.119,0-1.68c0.56,0,1.12,0,1.68,0
	c0-0.561,0-1.12,0-1.681s0-1.119,0-1.681c0.641,0,1.28,0,1.92,0c0-0.64,0-1.279,0-1.92c0-0.56,0-1.12,0-1.68c0.561,0,1.12,0,1.681,0
	c0.536-0.104,0.098-1.184,0.239-1.681c0-0.08,0-0.159,0-0.239c0-0.561,0-1.12,0-1.681c0.562,0,1.12,0,1.682,0
	c0-0.561,0-1.12,0-1.681c0-0.56,0-1.119,0-1.68c0.497-0.144,1.576,0.297,1.68-0.24c0.536-0.104,0.097-1.183,0.24-1.68
	c0.56,0,1.119,0,1.68,0c0-0.562,0-1.12,0-1.681s0-1.12,0-1.681c0.399,0,0.8,0,1.2,0c0.34,0.021,0.68,0.04,0.72-0.239
	c0-0.479,0-0.961,0-1.439c0-0.08,0-0.16,0-0.24c0-0.561,0-1.12,0-1.68c0.561,0,1.12,0,1.68,0c0.537-0.104,0.099-1.184,0.24-1.682
	c0-0.08,0-0.159,0-0.239c0-0.479,0-0.96,0-1.439c0.497-0.144,1.576,0.297,1.68-0.24c0-0.56,0-1.119,0-1.68c0.562,0,1.12,0,1.682,0
	c0.536-0.104,0.097-1.184,0.239-1.681c0-0.561,0-1.119,0-1.68c0.521-0.098,1.33,0.128,1.681,0c0.027-0.011-0.023-0.218,0-0.24
	c0.04-0.04,0.191,0.031,0.239,0c0-0.159,0-0.319,0-0.479c0.001-0.399,0-0.8,0-1.2c0.561,0,1.12,0,1.681,0c0-0.56,0-1.12,0-1.68
	c0-0.08,0-0.16,0-0.24c0-0.479,0-0.96,0-1.439c0.479,0,0.96,0,1.439,0c0.242,0.081,0.16-0.159,0.239-0.239
	c0.026-0.026,0.227,0.031,0.24,0c0.174-0.373-0.13-1.19,0-1.681c0.561,0,1.12,0,1.681,0c0-0.561,0-1.119,0-1.681
	c0-0.08,0-0.159,0-0.239c0-0.479,0-0.96,0-1.439c0.399,0,0.8,0,1.199,0c0.342,0.021,0.681,0.04,0.721-0.24c0-0.561,0-1.119,0-1.68
	c0.561,0,1.119,0,1.681,0c0.536-0.104,0.097-1.184,0.239-1.681c0-0.08,0-0.159,0-0.239c0.561,0,1.12,0,1.681,0
	c0-0.48,0-0.961,0-1.44c0-0.08,0-0.159,0-0.239c0-0.561,0-1.12,0-1.681c0.56,0,1.12,0,1.68,0c0.537-0.104,0.099-1.183,0.24-1.68
	c0.561,0,1.12,0,1.68,0c0.537-0.104,0.099-1.184,0.24-1.681c0.497-0.144,1.576,0.296,1.681-0.24c0-0.561,0-1.119,0-1.681
	c0.561,0,1.119,0,1.68,0c0.537-0.103,0.098-1.183,0.24-1.68c0-0.561,0-1.12,0-1.681c-0.146-0.014-0.284-0.035-0.24-0.239
	c-0.159,0-0.319,0-0.479,0c-0.399,0-0.8,0-1.2,0c-27.438,0-54.88,0-82.319,0c0-12.88,0-25.761,0-38.641c11.761,0,23.521,0,35.28,0
	c0.399,0,0.8,0,1.199,0c0-0.561,0-1.12,0-1.681c0.08,0,0.16,0,0.24,0c0.561,0,1.12,0,1.68,0c0.562,0,1.12,0,1.681,0
	c0.641,0,1.279,0,1.92,0s1.28,0,1.921,0c0.64,0,1.279,0,1.92,0c0.56,0,1.12,0,1.68,0c0.561,0,1.12,0,1.681,0c0-0.56,0-1.119,0-1.68
	c0.721,0,1.439,0,2.159,0c0.48,0,0.96,0,1.44,0c0.208,0.131,0.203-0.226,0.24-0.24c0.135-0.058,0.339,0.045,0.479,0
	c0.4,0,0.8,0,1.2,0c0-0.479,0-0.96,0-1.439c0.64,0,1.279,0,1.92,0c0.561,0,1.12,0,1.68,0c0.146-0.014,0.284-0.035,0.24-0.239
	c0.16,0,0.32,0,0.48,0c0.398,0,0.8,0,1.198,0c0-0.561,0-1.12,0-1.681c0.08,0,0.16,0,0.24,0c0.562,0,1.12,0,1.68,0
	c0.642,0,1.28,0,1.921,0c0-0.561,0-1.12,0-1.681c0.479,0,0.961,0,1.439,0c0.241,0.082,0.16-0.159,0.24-0.239
	c0.026-0.027,0.224,0.032,0.239,0c0.148-0.304-0.111-1.022,0-1.439c0.497-0.144,1.576,0.297,1.681-0.24c0.56,0,1.12,0,1.68,0
	c0-0.561,0-1.12,0-1.68c0.08,0,0.16,0,0.24,0c0.56,0,1.12,0,1.68,0c0-0.561,0-1.12,0-1.681c0.642,0,1.28,0,1.92,0
	c0-0.561,0-1.12,0-1.681c0.48,0,0.96,0,1.44,0c0.241,0.082,0.16-0.16,0.24-0.239c0.025-0.026,0.225,0.031,0.238,0
	c0.175-0.373-0.13-1.19,0-1.681c0.562,0,1.12,0,1.682,0c0-0.561,0-1.12,0-1.681c0.56,0,1.12,0,1.68,0
	c0.688-0.031-0.207-1.646,0.48-1.68c0.479,0,0.96,0,1.438,0c0.014-0.146,0.036-0.284,0.24-0.24c0-0.561,0-1.12,0-1.68
	c0-0.561,0-1.12,0-1.681c0.56,0,1.12,0,1.68,0c0-0.561,0-1.12,0-1.681c0-0.08,0-0.159,0-0.239c0-0.561,0-1.12,0-1.681
	c0.562,0,1.12,0,1.681,0c0.536-0.104,0.098-1.183,0.239-1.681c0-0.64,0-1.279,0-1.92c0-115.993,0-232.01,0-348
	c0-0.561,0-1.12,0-1.68c0-8.721,0-17.44,0-26.16c0-1.84,0-3.681,0-5.521c0-0.56,0-1.12,0-1.68c0-1.12,0-2.24,0-3.36
	c-0.204,0.044-0.227-0.094-0.239-0.239c-0.479,0-0.959,0-1.439,0c-0.08,0-0.16,0-0.24,0c0-0.561,0-1.12,0-1.681
	c0-0.56,0-1.12,0-1.68c0-0.561,0-1.12,0-1.68c0-0.08,0-0.16,0-0.24c0-0.561,0-1.12,0-1.68c0-0.561,0-1.12,0-1.681
	c-0.56,0-1.12,0-1.68,0c0-0.64,0-1.279,0-1.92c0-0.56,0-1.12,0-1.68c0-1.12,0-2.24,0-3.36c-0.204,0.044-0.228-0.093-0.24-0.24
	c-0.16,0-0.319,0-0.479,0c-0.32,0-0.642,0-0.96,0c-0.08,0-0.16,0-0.24,0c0-0.56,0-1.119,0-1.68c0-0.56,0-1.12,0-1.68
	c0-0.479,0-0.96,0-1.44c0.081-0.241-0.16-0.16-0.24-0.239c-0.025-0.027,0.032-0.226,0-0.24c-0.373-0.173-1.189,0.13-1.68,0
	c0-0.561,0-1.12,0-1.681c0-0.56,0-1.119,0-1.68c0-0.56,0-1.12,0-1.68c-0.562,0-1.12,0-1.682,0c-0.021-0.398,0.028-0.802,0-1.2
	c-0.022-0.337,0.074-0.682-0.238-0.72c0-0.561,0-1.12,0-1.681c-0.562,0-1.12,0-1.682,0c0-0.56,0-1.119,0-1.68c0-0.08,0-0.16,0-0.24
	c0-0.56,0-1.119,0-1.68c-0.64,0-1.278,0-1.92,0c0-0.56,0-1.12,0-1.68c0-0.561,0-1.12,0-1.681c-0.104-0.536-1.183-0.098-1.68-0.239
	c0-0.561,0-1.12,0-1.681c-0.143-0.497,0.297-1.576-0.24-1.68c-0.56,0-1.12,0-1.68,0c0-0.56,0-1.12,0-1.68c0-0.08,0-0.16,0-0.24
	c0-0.48,0-0.96,0-1.44c-0.104-0.536-1.184-0.098-1.682-0.239c0-0.561,0-1.12,0-1.681c0-0.64,0-1.279,0-1.92c-0.64,0-1.278,0-1.92,0
	c0-0.479,0-0.96,0-1.439c0.082-0.241-0.158-0.16-0.238-0.24c-0.12-0.12,0.096-0.576,0-0.72c0-0.32,0-0.641,0-0.96
	c-0.497-0.144-1.577,0.296-1.682-0.24c0-0.561,0-1.12,0-1.68c-0.64,0-1.278,0-1.92,0c-20.08,0-40.159,0-60.24,0
	c0-0.48,0-0.96,0-1.44c0-0.08,0-0.16,0-0.24c0-0.56,0-1.12,0-1.68s0-1.12,0-1.68c0-0.561,0-1.12,0-1.681c0.642,0,1.28,0,1.922,0
	c0-1.199,0-2.399,0-3.6c0-0.64,0-1.28,0-1.92c0-1.12,0-2.24,0-3.36c0.56,0,1.119,0,1.68,0c0-0.56,0-1.12,0-1.68
	c0-0.64,0-1.28,0-1.92c0-0.561,0-1.12,0-1.681c0-0.56,0-1.119,0-1.68c0-0.64,0-1.28,0-1.92c0.64,0,1.28,0,1.92,0
	c0-0.56,0-1.12,0-1.68c0-0.561,0-1.12,0-1.681c0-0.64,0-1.279,0-1.92c0-0.56,0-1.12,0-1.68s0-1.12,0-1.68c0.32,0,0.64,0,0.96,0
	c0.24,0,0.48,0,0.72,0c-0.044-0.204,0.095-0.228,0.24-0.24c0-1.12,0-2.24,0-3.36c0-1.199,0-2.399,0-3.6c0-0.56,0-1.12,0-1.68
	c0.561,0,1.12,0,1.68,0c0-0.561,0-1.12,0-1.681c0-0.08,0-0.159,0-0.239c0-0.561,0-1.12,0-1.681c0-0.56,0-1.12,0-1.68s0-1.12,0-1.68
	c0-0.561,0-1.12,0-1.681c0.562,0,1.12,0,1.682,0c0.045-0.193,0.24-0.238,0.24-0.479c0-0.24,0-0.48,0-0.72c0-0.24,0-0.48,0-0.721
	c23.76,0,47.52,0,71.278,0c0.642,0,1.28,0,1.92,0c0-0.64,0-1.279,0-1.92c0-49.119,0-98.241,0-147.36c-0.021-0.398,0.028-0.802,0-1.2
	c-0.022-0.337,0.074-0.682-0.239-0.72c-0.561,0-1.119,0-1.681,0c0-0.56,0-1.12,0-1.68c-0.56,0-1.12,0-1.68,0c-0.08,0-0.16,0-0.24,0
	 M867.705,203.772c-0.641,0-1.28,0-1.92,0c-0.641,0-1.28,0-1.92,0c0-0.48,0-0.96,0-1.44c-0.562,0-1.12,0-1.682,0
	c-0.104-0.537-1.183-0.097-1.68-0.24c-0.641,0-1.28,0-1.92,0c-0.143-0.498,0.297-1.577-0.24-1.68c-0.56,0-1.12,0-1.68,0
	c-208.494,0-416.956,0-625.44,0c0-0.56,0-1.12,0-1.68c0-0.08,0-0.16,0-0.24c0-16.88,0-33.76,0-50.64c234.704,0,469.476,0,704.16,0
	c0,12.24,0,24.48,0,36.72c0,0.56,0,1.12,0,1.68"/>
<rect x="231.167" y="1077.751" fill="#09252E" width="629.968" height="137.993"/>
<rect x="784.639" y="156.797" fill="#09252E" width="389.98" height="1117.444"/>
<rect x="228.167" y="141.183" fill="#09252E" width="745.463" height="68.114"/>
<rect x="1098.121" y="539.278" fill="#09252E" width="175.491" height="211.489"/>
<rect x="1119.119" y="641.273" fill="#09252E" width="239.988" height="88.496"/>
<rect x="1271.945" y="641.939" fill="#09252E" width="89.994" height="85.496"/>
<rect id="UKCHOLLY" x="227.379" y="123.683" fill="#09252E" width="32.672" height="24.515"/>
<rect id="UKCTRAININGROOMA" x="223.77" y="195.156" fill="#09252E" width="167.992" height="200.386"/>
<rect id="UKCTRAINING" x="390.707" y="195.161" fill="#09252E" width="152.325" height="200.386"/>
<polygon id="UKCHAZEL" fill="#09252E" points="1018.426,204.011 959.801,204.011 946.535,193.636 935.384,184.849 
	935.321,137.829 1018.323,137.829 "/>
<polygon id="UKCHAWTHORNE" fill="#09252E" points="1018.301,138.433 936.551,138.433 936.718,148.016 867.004,147.854 
	866.993,0 1018.493,0 "/>
<rect id="UKCSYCAMORE" x="1188.055" y="536.219" fill="#09252E" width="146.229" height="101.958"/>
<polygon id="UKCGM01OAK" fill="#09252E" points="1334.926,833.525 1175.104,833.525 1175.104,711.771 1300.072,711.85 
	1299.989,730.132 1334.886,730.05 "/>
<polygon id="UKCALDER" fill="#09252E" points="858.468,536.266 754.198,536.183 754.198,395.537 887.863,395.526 "/>
<polygon id="UKCASH" fill="#09252E" points="961.176,537.058 855.218,536.183 876.592,448.058 938.989,448.117 
	942.967,453.558 947.051,460.391 949.968,465.308 952.134,470.224 954.388,476.21 956.051,481.558 958.051,487.558 959.218,493.391 
	960.301,498.308 961.301,506.183 "/>
<rect id="UKCBEECH" x="1067.379" y="1051.027" fill="#09252E" width="102" height="137.167"/>
<rect id="UKCBAY" x="1015.926" y="1111.308" fill="#09252E" width="51.828" height="76.887"/>
<rect id="UKCAMAPLE" x="957.28" y="1050.989" fill="#09252E" width="110.286" height="62.001"/>
<polygon id="UKCPINE" fill="#09252E" points="1016.701,1188.567 1008.373,1186.474 1003.998,1185.13 1001.889,1184.38 
	999.279,1183.333 995.686,1181.646 993.748,1180.614 992.389,1179.864 990.934,1178.971 988.764,1177.536 987.107,1176.333 
	985.826,1175.333 984.67,1174.349 983.248,1173.114 981.592,1171.521 979.514,1169.224 977.123,1166.255 975.545,1164.005 
	973.967,1161.646 973.154,1160.38 972.139,1158.661 971.279,1157.099 970.154,1155.161 968.592,1152.083 966.717,1147.989 
	965.092,1144.349 963.873,1141.333 962.779,1138.458 961.446,1134.791 960.279,1131.291 959.196,1127.958 957.737,1123.125 
	957.285,1111.651 1016.669,1111.16 "/>
<rect id="UKCBIRCH" x="754.166" y="956.955" fill="#09252E" width="100.667" height="145.135"/>
<path fill="#144D60" d="M960.824,244.333c0.313,0.038,0.217,0.383,0.24,0.72c0.027,0.398-0.021,0.801,0,1.2
	c0,49.119,0,98.242,0,147.36c0,0.64,0,1.279,0,1.92c-0.641,0-1.279,0-1.921,0c-23.76,0-47.52,0-71.278,0
	c0,0.24-11.041,52.08-11.041,52.56c20.081,0,61.521,0,62.16,0c0,0.27,8.783,11.38,14.232,25.09
	c5.59,14.066,7.847,30.743,7.847,31.311c0,0.56,0,24.64,0,33.359c0,0.561,0,1.12,0,1.681c0,115.988,0,349.279,0,349.919
	c-0.069,0.247-4.369,17.41-23.764,24.729c-19.703,7.438-54.55,5.03-60.477,5.03c0,12.88,0,25.76,0,38.64c27.439,0,83.841,0,84,0
	c-0.021,0.095-34.916,40.064-45.273,74.83c-12.271,41.185-0.326,81.811-0.326,81.891c0,0.479-60.479,9.359-60.479,9.12
	c0-7.199,0-14.399,0-21.601c-56.643,0-113.279,0-169.92,0c0,0.641,0.021,15.173,0,15.601c-0.008,0.146-403.902,1.966-457.503,1.966
	c0,15.199,0,28.951,0,44.15c104.245,0,631.308,3.359,631.264,3.563c0,0.399,0,47.12,0,70.079c12.8,0,25.6,0,38.399,0
	c0-16.96,0-33.92,0-50.88c0-0.619,42-16.561,42-16.079c0,0.024,8.507,15.983,19.232,28.355c5.868,6.77,10.412,11.03,17.667,16.333
	c8.103,5.921,18.593,10.623,26.166,12c12.834,2.333,17.129,1.63,17.814,1.63c49.861-0.001,99.838,0.001,149.52,0
	c0-0.08,0-0.158,0-0.239c0-13.439,0-26.88,0-40.319c-32.24,0-64.479,0-96.72,0c-0.642,0-56.24,0-56.88,0
	c0-0.271-21.612-2.312-35.734-18.07c-14.886-16.607-22.327-46.97-22.586-46.97c0-0.399-0.311-72.188-0.164-72.197
	c0.08-0.004,19.204-0.043,22.725-0.043c7.039,0,14.079,0,21.119,0c0-14.56,0.043-44.915,0.043-45.475
	c0.642,0,7.317-0.125,9.077-0.125c0-97.278,0-292.96,0-293.521c0.641,0,112.88,0,113.521,0c0,0.561,0,28.96,0,40.8
	c-2.859,0.154-50.285,0.154-73.484,0.154c0,11.04-0.083,25.337-0.083,36.376c11.92,0,73.543-0.116,73.5,0.083
	c0,0.479,0.083,32.486,0.083,44.166c15.84,0,35.504-0.141,51.345-0.141c0-22.274-0.095-105.172-0.095-121.484
	c0.562,0,123.774,0.046,124.414,0.046c0,0.561-0.164,14.004-0.164,18.163c9.681,0,54.149,0,63.75,0c0-2.88,0.22-83.924,0.22-92.084
	c-5.47,0.25-174.969,0.25-175.219,0.25c0.045,0.854-0.001-69.199-0.001-102c-5.439,0-36.738,0.042-45.938,0.042
	c0,5.2,0.105,19.592,0.105,24.792c-2.583,0.333-43.152-0.124-62.353-0.124c0,6.961,0,13.92,0,20.881
	c30.479,0,93.165,0.193,93.358,0.239c0,0.4,0.326,48.253,0.356,57.165c-3.947,0.005-160.032-0.526-163.53-0.87
	c0-120.714,0.214-239.896,0.214-360.615c0-0.56,0-1.12,0-1.68c0.641,0,1.28,0,1.92,0c8.48,0,16.96,0,25.44,0
	c0-5.169-0.062-28.125-0.074-33.205c0-0.147,56.074-0.155,82.154-0.155c0.204,0.044,0.226-0.094,0.239-0.24c0-0.72,0-1.44,0-2.16
	c0-12,0-24,0-36c0.045-0.204-0.095-0.226-0.239-0.24c-0.721,0-1.439,0-2.16,0c-39.439,0-78.88,0-118.32,0c-6.72,0-38.72,0-39.119,0
	c-2.18-1.518-21.93-16.83-24.721-19.247c-0.049-0.042,0-24.673,0-36.914c-234.685,0-473.287,0.346-707.99,0.346
	c0,16.88-0.016,46.377-0.016,46.938c211.938,0.063,422.467,0.063,632.331,0.725"/>
</svg>
