<?xml version="1.0" encoding="utf-8"?>
<!-- Generator: Adobe Illustrator 15.0.0, SVG Export Plug-In . SVG Version: 6.00 Build 0)  -->
<!DOCTYPE svg PUBLIC "-//W3C//DTD SVG 1.1//EN" "http://www.w3.org/Graphics/SVG/1.11/DTD/svg11.dtd">
<svg version="1.1" id="Layer_1" xmlns="http://www.w3.org/2000/svg" xmlns:xlink="http://www.w3.org/1999/xlink" x="0px" y="0px"
	 width="1500px" height="1500px" viewBox="0 0 1500 1500" enable-background="new 0 0 1500 1500" xml:space="preserve">
<path fill="#09252E" d="M1401.884,591.85c-9.198,0-112.732,0.364-135.614,0.364c0-11.12-0.038-22.245-0.038-33.365
	c0-0.479,0-0.96,0-1.439c0.479,0,0.96,0,1.439,0s0.96,0,1.44,0c0.528-0.03,0.102-1.019,0.238-1.44c0.48,0,0.96,0,1.44,0
	c0.56,0,1.12,0,1.68,0c0-0.479,0-0.96,0-1.439c0.48,0,0.96,0,1.44,0c0.529-0.03,0.102-1.019,0.238-1.44c0.48,0,0.962,0,1.44,0
	c0-0.479,0-0.96,0-1.439c0.479,0,0.96,0,1.44,0c0.079,0,0.158,0,0.238,0c0.48,0,0.96,0,1.44,0c0-0.48,0-0.96,0-1.44
	c0.08,0,0.16,0,0.239,0c0.479,0,0.961,0,1.439,0c0-0.48,0-0.96,0-1.44c0.48,0,0.96,0,1.439,0c0.188-0.011,0.229-0.038,0.239-0.239
	c0.104-1.776,0.241-0.804,1.44-1.44c0-0.399,0-0.8,0-1.2c1.226,0.187,1.982-0.096,1.68-1.439c0-0.48,0-0.96,0-1.44
	c1.228,0.187,1.984-0.097,1.682-1.439c0-0.48,0-0.96,0-1.44c0.422-0.138,1.409,0.29,1.438-0.24c0-0.399,0-0.8,0-1.199
	c0-0.08,0-0.16,0-0.24c0-0.4,0-0.8,0-1.2c0-0.08,0-0.16,0-0.24c0-0.399,0-0.8,0-1.2c0.479,0,0.96,0,1.44,0
	c0.33-0.309,0.236-1.042,0.239-1.68c0-0.479,0-0.96,0-1.439c0-0.48,0-0.961,0-1.44c0.479,0,0.96,0,1.439,0c0-0.48,0-0.96,0-1.44
	c0-0.479,0-0.96,0-1.439c0-0.48,0-0.96,0-1.44c0-3.359,0-6.72,0-10.08c0-0.56,0-1.12,0-1.68c0-0.4,0-0.8,0-1.2c0-0.08,0-0.16,0-0.24
	c0-0.399,0-0.8,0-1.199c0-0.48,0-0.96,0-1.44c-0.479,0-0.96,0-1.439,0c0-0.08,0-0.16,0-0.24c0-0.479,0-0.96,0-1.439
	c0-0.4-0.001-0.8,0-1.2c-0.275-0.283-0.271-0.848-0.239-1.44c-0.48,0-0.961,0-1.44,0c0-0.08,0-0.159,0-0.239c0-0.4,0-0.801,0-1.2
	c0-0.08,0-0.16,0-0.24c0-0.479,0-0.96,0-1.44c-0.479,0-0.96,0-1.438,0c-0.14-0.422,0.289-1.409-0.24-1.439c0-0.48,0-0.96,0-1.44
	c-0.48,0-0.96,0-1.44,0c-0.138-0.422,0.29-1.409-0.239-1.439c-0.479,0-0.959,0-1.439,0c0-0.48,0-0.96,0-1.44c0-0.479,0-0.96,0-1.439
	c-0.479,0-0.96,0-1.439,0c-0.139-0.422,0.291-1.41-0.239-1.44c-0.48,0-0.96,0-1.44,0c0-0.479,0-0.96,0-1.439
	c-0.479,0-0.96,0-1.438,0c-0.14-0.423,0.29-1.41-0.24-1.44c-0.479,0-0.96,0-1.44,0c-0.138-0.422,0.291-1.41-0.238-1.439
	c-0.48,0-0.961,0-1.44,0c0-0.479,0-0.96,0-1.439c-0.479,0-0.96,0-1.439,0c-0.104-0.537-1.184-0.097-1.681-0.24c0-0.399,0-0.8,0-1.2
	c-0.104-0.537-1.183-0.097-1.68-0.239c0-0.4,0-0.801,0-1.2c-0.03-0.53-1.02-0.103-1.439-0.24c0.304-1.343-0.454-1.625-1.681-1.438
	c-0.479,0-0.96,0-1.439,0c0.304-1.345-0.454-1.627-1.681-1.44c-0.08,0-0.16,0-0.24,0c-0.959,0-1.92,0-2.88,0c0-0.4,0-0.8,0-1.2
	c-0.31-0.331-1.042-0.238-1.68-0.24c-0.562,0-1.12,0-1.681,0s-1.119,0-1.681,0c0-0.399,0-0.8,0-1.199
	c-1.207,0.167-1.673-0.407-2.88-0.24c-0.64,0-1.28,0-1.92,0c-0.96,0-1.92,0-2.88,0c-4.24,0-8.48,0-12.72,0c-0.562,0-1.12,0-1.682,0
	c-0.56,0-1.119,0-1.68,0c-0.562,0-1.12,0-1.68,0c0,0.479,0,0.96,0,1.439c-0.48,0-0.961,0-1.44,0c-0.638,0.002-1.37-0.09-1.68,0.24
	c0,0.4,0,0.8,0,1.2c-0.48,0-0.96,0-1.44,0c-0.497,0.143-1.576-0.296-1.68,0.24c0,0.399,0,0.8,0,1.2c-0.562,0-1.12,0-1.681,0
	c-0.422,0.138-1.409-0.291-1.439,0.239c0,0.4,0,0.8,0,1.2c-0.479,0-0.96,0-1.44,0c-0.274,0.284-0.271,0.849-0.238,1.44
	c-0.48,0-0.96,0-1.44,0c-0.497,0.143-1.576-0.298-1.68,0.239c0,0.4,0,0.801,0,1.2c-0.48,0-0.96,0-1.44,0
	c-0.33,0.31-0.236,1.042-0.238,1.681c-0.48,0-0.962,0-1.44,0c-0.56,0-1.12,0-1.68,0c0,0.479,0,0.96,0,1.438
	c-0.14,0.422,0.29,1.41-0.24,1.44c-0.4,0-0.8,0-1.2,0c-0.53,0.029-0.102,1.018-0.24,1.439c-0.479,0-0.96,0-1.438,0
	c-0.14,0.422,0.29,1.41-0.24,1.44c-0.399,0-0.8,0-1.2,0c-0.529,0.029-0.102,1.018-0.239,1.439c-0.479,0-0.96,0-1.439,0
	c0,0.48,0,0.96,0,1.44c-0.561,0-1.12,0-1.681,0c0,0.479,0,0.96,0,1.439c0,0.48,0,0.96,0,1.44c-0.479,0-0.959,0-1.439,0
	c0,0.479,0,0.96,0,1.44c-0.537,0.103-0.098,1.183-0.24,1.68c0,0.399,0,0.8,0,1.2c-0.479,0-0.959,0-1.438,0c0,0.479,0,0.96,0,1.439
	c0,0.08,0,0.16,0,0.24c0,0.4,0,0.8,0,1.2c0,0.08,0,0.16,0,0.24c0,0.399,0,0.8,0,1.199c0,0.08,0,0.16,0,0.24c0,0.4,0,0.8,0,1.2
	c-1.228-0.187-1.984,0.097-1.681,1.439c0,0.08,0,0.16,0,0.24c0,0.48,0,0.96,0,1.44c0,0.479,0,0.96,0,1.439c-0.479,0-0.96,0-1.439,0
	c-0.402,2.559-0.189,5.729-0.24,8.641c0.561,0,1.12,0,1.681,0c0,0.96,0,1.92,0,2.88c0,0.479,0,0.96,0,1.439
	c0.139,0.423-0.29,1.41,0.239,1.44c0.48,0,0.961,0,1.44,0c0,0.479,0,0.96,0,1.439s0,0.961,0,1.44c0,0.08,0,0.16,0,0.24
	c0,0.399,0,0.8,0,1.2c0,0.08,0,0.159,0,0.239c0,0.4,0,0.801,0,1.2c0.479,0,0.96,0,1.438,0c0,0.48,0,0.96,0,1.44
	c0,0.479,0,0.96,0,1.439c0,0.08,0,0.16,0,0.24c0,0.48,0,0.96,0,1.44c0.562,0,1.12,0,1.681,0c0,0.399,0,0.8,0,1.199
	c0,0.08,0,0.16,0,0.24c0,0.4,0,0.8,0,1.2c0.561,0,1.121,0,1.681,0c0,0.08,0,0.16,0,0.24c0,0.399,0,0.8,0,1.2
	c0.03,0.529,1.019,0.102,1.439,0.239c-0.305,1.345,0.454,1.626,1.681,1.44c0,0.479,0,0.96,0,1.439c0.479,0,0.96,0,1.439,0
	c0.139,0.423-0.29,1.41,0.239,1.44c0.48,0,0.96,0,1.44,0c0.08,0,0.159,0,0.239,0c0,0.479,0,0.96,0,1.44c0.479,0,0.96,0,1.439,0
	s0.96,0,1.44,0c0,0.479,0,0.96,0,1.439c0.56,0,1.118,0,1.68,0c0.56,0,1.12,0,1.68,0c0,0.48,0,0.96,0,1.44c0.48,0,0.96,0,1.44,0
	c0.08,0,0.159,0,0.239,0c0.479,0,0.961,0,1.439,0c0,0.479,0,0.96,0,1.439c0.479,0,0.96,0,1.44,0c0.08,0,0.158,0,0.238,0
	c0.48,0,0.96,0,1.44,0c0,0.48,0,0.96,0,1.44c0.56,0,1.12,0,1.68,0c0,0.479,0,0.96,0,1.439c0.48,0,0.96,0,1.44,0
	c0,11.12,0,22.24,0,33.36c-302.856,0-605.56,0-908.4,0c0-11.12,0-22.24,0-33.36c0.48,0,0.96,0,1.44,0c0-0.479,0-0.96,0-1.439
	c0.08,0,0.16,0,0.24,0c0.48,0,0.96,0,1.44,0s0.96,0,1.44,0c0.53-0.03,0.102-1.019,0.24-1.44c0.48,0,0.96,0,1.44,0
	c0.53-0.03,0.102-1.018,0.24-1.439c0.48,0,0.96,0,1.44,0c0-0.48,0-0.96,0-1.44c0.48,0,0.96,0,1.44,0
	c0.53-0.03,0.102-1.018,0.24-1.439c0.48,0,0.96,0,1.44,0c0-0.48,0-0.961,0-1.44c0.56,0,1.12,0,1.68,0c0-0.479,0-0.96,0-1.44
	c0.48,0,0.96,0,1.44,0c0-0.479,0-0.96,0-1.439c0.53-0.03,0.102-1.019,0.24-1.44c0.422-0.138,1.41,0.29,1.44-0.239
	c0-0.4,0-0.801,0-1.2c1.226,0.186,1.983-0.098,1.68-1.44c0-0.479,0-0.96,0-1.439c0.638-0.002,1.371,0.09,1.68-0.24
	c0-0.4,0-0.8,0-1.2c0-0.479,0-0.96,0-1.44c0-0.079,0-0.159,0-0.239c0.48,0,0.96,0,1.44,0c0-0.4,0-0.8,0-1.2c0-0.08,0-0.16,0-0.24
	c0-0.399,0-0.8,0-1.2c0-0.08,0-0.159,0-0.239c0-0.48,0-0.96,0-1.44c0-0.479,0-0.96,0-1.44c0.48,0,0.96,0,1.44,0
	c0.551-0.488,0.087-1.992,0.24-2.88c0-0.479,0-0.96,0-1.439c0-0.48,0-0.96,0-1.44c0-1.92,0-3.84,0-5.76c0-0.96,0-1.92,0-2.88
	c0-0.561,0-1.12,0-1.68c-0.56,0-1.12,0-1.68,0c0-0.4,0-0.801,0-1.2c0-0.08,0-0.16,0-0.24c0-0.4,0-0.8,0-1.2c0-0.08,0-0.16,0-0.24
	c0-0.399,0-0.8,0-1.199c0-0.08,0-0.16,0-0.24c0-0.48,0-0.96,0-1.44c-0.48,0-0.96,0-1.44,0c0-0.399,0-0.8,0-1.199
	c0-0.48,0-0.961,0-1.44c0.276-1.396-0.284-1.956-1.68-1.68c0-0.48,0-0.96,0-1.44c0-0.479,0-0.96,0-1.439
	c-0.138-0.423,0.29-1.41-0.24-1.44c-0.48,0-0.96,0-1.44,0c0-0.48,0-0.96,0-1.44c0-0.479,0-0.96,0-1.439c-0.48,0-0.96,0-1.44,0
	c-0.138-0.422,0.291-1.41-0.24-1.44c-0.48,0-0.96,0-1.44,0c0-0.479,0-0.96,0-1.439c0-0.48,0-0.96,0-1.44c-0.56,0-1.12,0-1.68,0
	c0-0.479,0-0.96,0-1.439c-0.48,0-0.96,0-1.44,0c-0.138-0.423,0.29-1.41-0.24-1.44c-0.48,0-0.96,0-1.44,0c0-0.479,0-0.96,0-1.439
	c-0.48,0-0.96,0-1.44,0c0-0.561,0-1.119,0-1.68c-0.56,0-1.12,0-1.68,0s-1.12,0-1.68,0c0-0.399,0-0.8,0-1.2
	c-0.03-0.529-1.018-0.102-1.44-0.239c-0.56,0-1.12,0-1.68,0c0-0.4,0-0.801,0-1.2c-0.103-0.537-1.183-0.098-1.68-0.24
	c0-0.479,0-0.96,0-1.439c-0.56,0-1.12,0-1.68,0c-0.48,0-0.96,0-1.44,0c0-0.399,0-0.8,0-1.199c-0.104-0.537-1.183-0.098-1.68-0.24
	c-0.48,0-0.96,0-1.44,0c-0.56,0-1.12,0-1.68,0c0-0.4,0-0.8,0-1.2c-0.03-0.53-1.018-0.102-1.44-0.24c-0.56,0-1.12,0-1.68,0
	c-0.48,0-0.96,0-1.44,0c-0.56,0-1.12,0-1.68,0c0.304-1.343-0.454-1.625-1.68-1.439c-0.48,0-0.96,0-1.44,0c-0.56,0-1.12,0-1.68,0
	c-0.56,0-1.12,0-1.68,0c-1.6,0-3.2,0-4.8,0c-1.04,0-2.08,0-3.12,0c-0.48,0-0.96,0-1.44,0c-0.56,0-1.12,0-1.68,0
	c-0.497,0.143-1.577-0.296-1.68,0.24c0,0.399,0,0.8,0,1.199c-0.48,0-0.96,0-1.44,0c-0.56,0-1.12,0-1.68,0
	c-0.638,0.002-1.371-0.09-1.68,0.24c0,0.4,0,0.8,0,1.2c-0.48,0-0.96,0-1.44,0c-0.498,0.143-1.577-0.296-1.68,0.24
	c-0.48,0-0.96,0-1.44,0c0,0.399,0,0.8,0,1.199c-0.08,0-0.16,0-0.24,0c-0.48,0-0.96,0-1.44,0c-1.226-0.186-1.983,0.097-1.68,1.439
	c-0.56,0-1.12,0-1.68,0c-0.48,0-0.96,0-1.44,0c0,0.48,0,0.96,0,1.44c-1.226-0.187-1.983,0.096-1.68,1.439
	c-0.422,0.138-1.41-0.29-1.44,0.24c0,0.479,0,0.96,0,1.439c-0.56,0-1.12,0-1.68,0s-1.12,0-1.68,0c0,0.479,0,0.96,0,1.439
	c-0.48,0-0.96,0-1.44,0c-0.138,0.422,0.29,1.41-0.24,1.44c-0.4,0-0.8,0-1.2,0c-0.53,0.029-0.102,1.018-0.24,1.439
	c-0.48,0-0.96,0-1.44,0c-0.679-0.04,0.199,1.479-0.48,1.44c-0.4,0-0.8,0-1.2,0c0,0.479,0,0.96,0,1.439c0,0.48,0,0.96,0,1.44
	c-0.48,0-0.96,0-1.44,0c-0.53,0.03-0.102,1.018-0.24,1.439c-0.48,0-0.96,0-1.44,0c0,0.48,0,0.96,0,1.44c0,0.479,0,0.96,0,1.44
	c-0.48,0-0.96,0-1.44,0c-0.002,0.637,0.09,1.37-0.24,1.68c0,0.399,0,0.8,0,1.2c0,0.08,0,0.159,0,0.239c-0.48,0-0.96,0-1.44,0
	c0.032,0.593,0.036,1.157-0.24,1.44c0,0.4,0,0.8,0,1.2c0,0.08,0,0.16,0,0.24c-0.48,0-0.96,0-1.44,0c0,0.399,0,0.8,0,1.199
	c0,0.08,0,0.16,0,0.24c0,0.4,0,0.8,0,1.2c0,0.08,0,0.16,0,0.24c-0.4,0-0.8,0-1.2,0c-0.936,2.265-0.288,6.111-0.48,9.12
	c0.159,3.12-0.319,6.879,0.24,9.6c0.48,0,0.96,0,1.44,0c0,0.479,0,0.96,0,1.439s0,0.961,0,1.44c0,0.08,0,0.16,0,0.24
	c0,0.479,0,0.96,0,1.439c0.48,0,0.96,0,1.44,0c0,0.4,0,0.8,0,1.2c0,0.08,0,0.16,0,0.24c0,0.4,0,0.8,0,1.2
	c0.276,0.284,0.272,0.848,0.24,1.439c0.48,0,0.96,0,1.44,0c0,0.08,0,0.16,0,0.24c0,0.4,0,0.8,0,1.2
	c0.276,0.284,0.271,0.849,0.24,1.439c0.48,0,0.96,0,1.44,0c0,0.08,0,0.16,0,0.24c0,0.4,0,0.8,0,1.2c0,0.08,0,0.16,0,0.24
	c0,0.399,0,0.8,0,1.2c0.48,0,0.96,0,1.44,0c0,0.079,0,0.159,0,0.239c0,0.4,0,0.8,0,1.2c0.331,0.309,0.237,1.042,0.24,1.68
	c0.48,0,0.96,0,1.44,0c0,0.48,0,0.96,0,1.44c0.48,0,0.96,0,1.44,0c0.138,0.422-0.291,1.41,0.24,1.44c0.48,0,0.96,0,1.44,0
	c0.138,0.422-0.29,1.409,0.24,1.439c0.422,0.138,1.41-0.29,1.44,0.24c0,0.399,0,0.8,0,1.2c0.48,0,0.96,0,1.44,0
	c0.08,0,0.16,0,0.24,0c0,0.479,0,0.96,0,1.439c0.48,0,0.96,0,1.44,0c0.56,0,1.12,0,1.68,0c0,0.48,0,0.96,0,1.44
	c0.48,0,0.96,0,1.44,0c0.08,0,0.16,0,0.24,0c0.48,0,0.96,0,1.44,0c0,0.479,0,0.96,0,1.439c0.56,0,1.12,0,1.68,0
	c0.48,0,0.96,0,1.44,0c0.56,0,1.12,0,1.68,0c0,11.12,0,22.24,0,33.36c-23.52,0-138.61,0.057-140.05,0.057
	c0,3.984,0.5,246.292,0.5,367.167c30.12,0.153,1266.197,0.111,1269.75,0.083C1403.551,838.642,1401.884,592.169,1401.884,591.85z
	 M267.111,553.089c-0.08,0-0.16,0-0.24,0c0-0.479,0-0.96,0-1.439c-0.48,0-0.96,0-1.44,0c-0.56,0-1.12,0-1.68,0c0-0.48,0-0.96,0-1.44
	c-0.48,0-0.96,0-1.44,0c-0.138-0.422,0.291-1.41-0.24-1.44c-0.422-0.138-1.41,0.29-1.44-0.239c0-0.4,0-0.801,0-1.2
	c-0.5-0.46-2.001,0.082-1.44-1.44c0-0.08,0-0.16,0-0.239c0.303-1.345-0.454-1.626-1.68-1.44c0-0.4,0-0.8,0-1.2c0-0.08,0-0.16,0-0.24
	c0.304-1.343-0.454-1.625-1.68-1.439c0-0.4,0-0.8,0-1.2c0-0.08,0-0.16,0-0.24c0-0.399,0-0.8,0-1.199
	c-0.03-0.53-1.018-0.103-1.44-0.24c0-0.4,0-0.8,0-1.2c0-0.48,0-0.96,0-1.44c-0.276-0.283-0.271-0.848-0.24-1.439
	c-0.48,0-0.96,0-1.44,0c0-0.08,0-0.16,0-0.24c0-0.479,0-0.96,0-1.439c0-0.48,0-0.961,0-1.44c-0.48,0-0.96,0-1.44,0
	c0-5.76,0-11.521,0-17.28c0.48,0,0.96,0,1.44,0c0-0.479,0-0.96,0-1.439c0-0.08,0-0.16,0-0.24c0-0.4,0-0.8,0-1.2
	c0.637-0.002,1.371,0.09,1.68-0.24c0-0.479,0-0.96,0-1.439c0-0.4,0-0.8,0-1.2c0.48,0,0.96,0,1.44,0c0-0.48,0-0.96,0-1.44
	c0-0.08,0-0.159,0-0.239c0-0.4,0-0.801,0-1.2c0.48,0,0.96,0,1.44,0c0.331-0.31,0.237-1.042,0.24-1.681c0-0.479,0-0.96,0-1.439
	c0.48,0,0.96,0,1.44,0c0.68,0.04-0.199-1.479,0.48-1.44c0.4,0,0.8,0,1.2,0c0-0.479,0-0.96,0-1.439c0-0.48,0-0.96,0-1.44
	c0.48,0,0.96,0,1.44,0c0.53-0.029,0.102-1.018,0.24-1.439c0.48,0,0.96,0,1.44,0c0.138-0.422-0.29-1.41,0.24-1.44
	c0.48,0,0.96,0,1.44,0s0.96,0,1.44,0c0-0.479,0-0.96,0-1.439c0.08,0,0.16,0,0.24,0c0.48,0,0.96,0,1.44,0c0-0.48,0-0.96,0-1.44
	c0.48,0,0.96,0,1.44,0c0.53-0.03,0.102-1.018,0.24-1.439c0.48,0,0.96,0,1.44,0c0.08,0,0.16,0,0.24,0c0.48,0,0.96,0,1.44,0
	c0-0.479,0-0.96,0-1.439c0.48,0,0.96,0,1.44,0c0.56,0,1.12,0,1.68,0c0-0.48,0-0.96,0-1.44c0.56,0,1.12,0,1.68,0
	c0.48,0,0.96,0,1.44,0c0.309-0.331,1.042-0.236,1.68-0.239c0-0.4,0-0.801,0-1.2c0.48,0,0.96,0,1.44,0c0.08,0,0.16,0,0.24,0
	c0.422-0.139,1.41,0.29,1.44-0.24c0-0.4,0-0.8,0-1.2c1.04,0,2.08,0,3.12,0c0.56,0,1.12,0,1.68,0c1.096-0.104,2.643,0.243,3.36-0.24
	c0-0.399,0-0.8,0-1.199c1.52,0,3.04,0,4.56,0c0,0.479,0,0.96,0,1.439c0.56,0,1.12,0,1.68,0s1.12,0,1.68,0c0.96,0,1.92,0,2.88,0
	c0,0.4,0,0.8,0,1.2c0.349,0.371,1.229,0.211,1.92,0.24c0.48,0,0.96,0,1.44,0c1.04,0,2.08,0,3.12,0c0.56,0,1.12,0,1.68,0
	c0,0.399,0,0.8,0,1.2c0.03,0.529,1.018,0.102,1.44,0.239c0.08,0,0.16,0,0.24,0c0,0.4,0,0.801,0,1.2c0.48,0,0.96,0,1.44,0
	c0.03,0.53,1.018,0.103,1.44,0.24c0.138,0.422-0.29,1.41,0.24,1.439c0.48,0,0.96,0,1.44,0c0,0.479,0,0.961,0,1.439
	c0.56,0,1.12,0,1.68,0c0.48,0,0.96,0,1.44,0c0.08,0,0.16,0,0.24,0c0,0.48,0,0.96,0,1.44c0.48,0,0.96,0,1.44,0s0.96,0,1.44,0
	c0.138,0.422-0.29,1.409,0.24,1.439c0.48,0,0.96,0,1.44,0c0.138,0.422-0.29,1.41,0.24,1.44c0.48,0,0.96,0,1.44,0
	c0,0.479,0,0.96,0,1.439c0,0.48,0,0.96,0,1.44c1.867-0.446,1.172,0.677,1.68,1.439c0.48,0,0.96,0,1.44,0c0,0.48,0,0.96,0,1.44
	c0,0.479,0,0.96,0,1.439c0.56,0,1.12,0,1.68,0c0,0.48,0,0.961,0,1.44c0,0.08,0,0.16,0,0.24c0,0.399,0,0.8,0,1.2
	c0.48,0,0.96,0,1.44,0c0,0.08,0,0.159,0,0.239c0,0.48,0,0.96,0,1.44c0,0.479,0,0.96,0,1.439c0,0.48,0,0.961,0,1.44
	c0.56,0,1.12,0,1.68,0c0,0.4,0,0.8,0,1.2c0,0.08,0,0.16,0,0.24c0,0.399,0,0.8,0,1.199c0,0.08,0,0.16,0,0.24c0,0.4,0,0.8,0,1.2
	c0.03,0.53,1.018,0.102,1.44,0.24c0,0.479,0,0.96,0,1.439c0,0.96,0,1.92,0,2.88c0,0.48,0,0.961,0,1.44c0,1.92,0,3.84,0,5.76
	c0,0.96,0,1.92,0,2.88s0,1.92,0,2.881c0,0.479,0,0.96,0,1.439c-0.422,0.138-1.41-0.291-1.44,0.24c0,0.399,0,0.8,0,1.2
	c0,0.08,0,0.159,0,0.239c0,0.4,0,0.801,0,1.2c-0.48,0-0.96,0-1.44,0c-0.331,0.31-0.237,1.042-0.24,1.681c0,0.479,0,0.96,0,1.439
	c-0.48,0-0.96,0-1.44,0c0,0.4,0,0.8,0,1.2c0,0.08,0,0.16,0,0.24c0,0.399,0,0.8,0,1.199c-0.498,0.144-1.577-0.296-1.68,0.24
	c0,0.4,0,0.8,0,1.2c-0.638,0.003-1.371-0.09-1.68,0.24c0,0.479,0,0.96,0,1.439c0,0.4,0,0.801,0,1.2
	c-0.422,0.138-1.41-0.29-1.44,0.24c0,0.479,0,0.96,0,1.439c-0.48,0-0.96,0-1.44,0c-0.53,0.03-0.102,1.019-0.24,1.44
	c-0.48,0-0.96,0-1.44,0c-0.53,0.03-0.102,1.018-0.24,1.44c-0.48,0-0.96,0-1.44,0c-0.138,0.422,0.29,1.409-0.24,1.439
	c-0.4,0-0.8,0-1.2,0c-0.08,0-0.16,0-0.24,0c-0.48,0-0.96,0-1.44,0c0,0.48,0,0.96,0,1.44c-0.56,0-1.12,0-1.68,0
	c-0.48,0-0.96,0-1.44,0c-0.53,0.029-0.102,1.018-0.24,1.439c-0.32,0-0.64,0-0.96,0c-0.973-0.093-0.264,1.496-0.48,2.16
	c0,12.8,0,25.6,0,38.4c0.03,0.529,1.018,0.102,1.44,0.239c0,12.96,0,25.921,0,38.881c-6.32,0-12.64,0-18.96,0
	c-0.497,0.143-1.577-0.298-1.68,0.239c-0.48,0-0.96,0-1.44,0c0,0.48,0,0.96,0,1.44c0,5.76,0,11.52,0,17.28c0,0.08,0,0.159,0,0.239
	c0,0.4,0,0.801,0,1.2c-0.56,0-1.12,0-1.68,0c0.375,1.414-0.433,1.647-1.68,1.44c0,0.479,0,0.96,0,1.439
	c-0.422,0.139-1.41-0.29-1.44,0.24c0,0.4,0,0.8,0,1.2c-0.56,0-1.12,0-1.68,0c0,0.479,0,0.96,0,1.439
	c-0.422,0.139-1.41-0.289-1.44,0.24c0,0.4,0,0.8,0,1.2c-3.68,0-7.36,0-11.04,0c-0.48,0-0.96,0-1.44,0
	c-0.53,0.03-0.102,1.018-0.24,1.44c0,9.199,0,18.398,0,27.6c0.03,0.53,1.018,0.103,1.44,0.24c0,0.479,0,0.96,0,1.438
	c3.76,0,7.52,0,11.28,0c0,0.48,0,0.96,0,1.44c0.48,0,0.96,0,1.44,0c0.08,0,0.16,0,0.24,0c0,0.479,0,0.96,0,1.439
	c0.48,0,0.96,0,1.44,0s0.96,0,1.44,0c0.138,0.422-0.29,1.409,0.24,1.439c0.48,0,0.96,0,1.44,0c0.138,0.422-0.29,1.41,0.24,1.439
	c0.48,0,0.96,0,1.44,0c0,0.479,0,0.961,0,1.439c0,12.08,0,24.16,0,36.24c0,0.479,0,0.96,0,1.439c0,0.079,0,0.159,0,0.239
	c0,0.4,0,0.801,0,1.2c-0.48,0-0.96,0-1.44,0c-0.474,0.167,0.059,1.339-0.48,1.439c-0.4,0-0.8,0-1.2,0
	c-0.473,0.166,0.059,1.34-0.48,1.439c-0.349,0.132-1.24-0.28-1.2,0.24c0,0.399,0,0.8,0,1.2c-0.48,0-0.96,0-1.44,0
	c-0.474,0.166,0.059,1.339-0.48,1.438c-0.349,0.132-1.241-0.28-1.2,0.24c-3.378-0.382-7.316-0.204-11.04-0.24
	c-0.474,0.167,0.059,1.34-0.48,1.44c-0.349,0.131-1.24-0.28-1.2,0.239c0,0.399,0,0.801,0,1.199c0,3.602,0,7.2,0,10.801
	c0.238,0.803-0.61,2.689,0.72,2.399c0.24,0,0.48,0,0.72,0c0.138,0.422-0.291,1.41,0.24,1.44c27.52,0,55.04,0,82.56,0
	c0.48,0,0.96,0,1.44,0c0.53-0.03,0.102-1.02,0.24-1.44c0-4.399,0-8.8,0-13.2c-0.138-0.422,0.29-1.409-0.24-1.438
	c0-0.24,0-0.48,0-0.721c0.295-1.096-1.623,0.022-1.68-0.721c-3.12,0-6.24,0-9.36,0c-1.234,0.274-1.714-0.205-1.44-1.438
	c-0.56,0-1.12,0-1.68,0c0-0.48,0-0.961,0-1.44c-0.56,0-1.12,0-1.68,0c0-0.399,0-0.8,0-1.2c-0.799-0.622-1.119,0.109-1.44-0.479
	c-0.127-0.231,0.238-1.631-0.24-1.2c0-0.399,0-0.8,0-1.2c-0.48,0-0.96,0-1.44,0c0-0.08,0-0.16,0-0.239c0-0.479,0-0.96,0-1.439
	c0-12.08,0-24.16,0-36.24c0-0.479,0-0.96,0-1.439c0.48,0,0.96,0,1.44,0c0.53-0.029,0.102-1.019,0.24-1.439c0.48,0,0.96,0,1.44,0
	c0-0.479,0-0.96,0-1.439c0.48,0,0.96,0,1.44,0c0.53-0.029,0.102-1.019,0.24-1.439c0.48,0,0.96,0,1.44,0
	c0.53-0.03,0.102-1.019,0.24-1.44c0.48,0,0.96,0,1.44,0c3.12,0,6.24,0,9.36,0c0.691-0.027,1.571,0.132,1.92-0.239
	c0-0.399,0-0.801,0-1.199c0-9.2,0-18.4,0-27.601c0-0.56,0-1.12,0-1.68c-3.76,0-7.52,0-11.28,0c0-0.48,0-0.96,0-1.44
	c-0.48,0-0.96,0-1.44,0c0.032-0.591,0.036-1.155-0.24-1.439c-0.48,0-0.96,0-1.44,0c0.032-0.592,0.037-1.156-0.24-1.44
	c-0.48,0-0.96,0-1.44,0c0-0.479,0-0.96,0-1.439c-0.48,0-0.96,0-1.44,0c0.031-0.592,0.036-1.156-0.24-1.44c-0.48,0-0.96,0-1.44,0
	c0-0.479,0-0.96,0-1.439c-0.48,0-0.96,0-1.44,0c0-12.08,0-24.16,0-36.24c0-0.48,0-0.96,0-1.44c0.48,0,0.96,0,1.44,0s0.96,0,1.44,0
	c0-0.479,0-0.96,0-1.439c0.08,0,0.16,0,0.24,0c0.48,0,0.96,0,1.44,0c-0.274-1.234,0.206-1.714,1.44-1.44c0-0.479,0-0.96,0-1.439
	c0.08,0,0.16,0,0.24,0c0.48,0,0.96,0,1.44,0c0-0.48,0-0.96,0-1.44c0.08,0,0.16,0,0.24,0c0.48,0,0.96,0,1.44,0c0-0.479,0-0.96,0-1.44
	c3.12,0,6.24,0,9.36,0c0.56,0,1.12,0,1.68,0c0.53-0.029,0.102-1.018,0.24-1.439c0-3.84,0-7.68,0-11.521c14.72,0,29.439,0,44.16,0
	c0,19.761,0,39.521,0,59.28c-0.48,0-0.96,0-1.44,0c0.274,1.234-0.206,1.714-1.44,1.44c-0.474,0.167,0.059,1.339-0.48,1.439
	c-0.4,0-0.8,0-1.2,0c0.375,1.414-0.433,1.647-1.68,1.44c-0.138,0.422,0.29,1.41-0.24,1.439c-0.591-0.031-1.156-0.036-1.44,0.24
	c0,0.4,0,0.8,0,1.2c-3.601,0.16-7.839-0.319-11.04,0.24c0,0.399,0,0.8,0,1.199c0,0.08,0,0.16,0,0.24c0,9.12,0,18.24,0,27.36
	c0,0.08,0,0.16,0,0.24c0,0.398,0,0.8,0,1.199c0.104,0.536,1.183,0.098,1.68,0.239c3.12,0,6.24,0,9.36,0c0.56,0,1.12,0,1.68,0
	c0,0.48,0,0.96,0,1.44c0.56,0,1.12,0,1.68,0c0,0.479,0,0.96,0,1.439c0.48,0,0.96,0,1.44,0c0.138,0.422-0.29,1.409,0.24,1.439
	c0.422,0.138,1.41-0.29,1.44,0.24c0,0.398,0,0.8,0,1.199c0.48,0,0.96,0,1.44,0c0,0.479,0,0.96,0,1.439c0,12.641,0,25.28,0,37.92
	c0,0.4,0,0.801,0,1.2c-0.422,0.138-1.41-0.29-1.44,0.24c0,0.398,0,0.8,0,1.199c-0.56,0-1.12,0-1.68,0c0,0.479,0,0.961,0,1.439
	c-0.422,0.139-1.41-0.29-1.44,0.24c0,0.399,0,0.8,0,1.2c-0.56,0-1.12,0-1.68,0c-0.48,0-0.96,0-1.44,0
	c-0.474,0.166,0.059,1.339-0.48,1.438c-3.6,0-7.2,0-10.8,0c0,0.48,0,0.96,0,1.44c-0.053,0.31-1.322-0.369-1.68,0
	c-0.226,0.232,0,2.648,0,3.6c0,3.673-0.178,8.985,0.24,11.04c0,0.48,0,0.96,0,1.44c0.48,0,0.96,0,1.44,0c27.52,0,55.04,0,82.561,0
	c0.079,0,0.159,0,0.239,0c0.48,0,0.96,0,1.44,0c0-0.48,0-0.96,0-1.44c0-4.399,0-8.8,0-13.2c0-0.398,0-0.8,0-1.199
	c-0.03-0.529-1.019-0.103-1.44-0.239c0-0.16,0-0.32,0-0.48c0.309-1.348-1.195-0.884-2.16-0.96c-3.04,0-6.079,0-9.119,0
	c0-0.398,0-0.8,0-1.199c-0.03-0.529-1.019-0.103-1.44-0.239c0.032-0.593,0.036-1.156-0.24-1.44c-0.479,0-0.96,0-1.439,0
	c0-0.399,0-0.8,0-1.2c-0.104-0.536-1.184-0.097-1.681-0.238c0-0.4,0-0.802,0-1.2c0.13-0.532-1.279-0.08-1.439-0.24
	c-0.154-0.153,0.05-0.972,0-1.2c-0.121-0.55,0-1.615,0-2.64c0-11.595,0-25.067,0-35.28c0-0.479,0-0.96,0-1.439
	c0.479,0,0.96,0,1.439,0c-0.375-1.414,0.434-1.646,1.681-1.439c0.138-0.422-0.29-1.41,0.239-1.439c0.4,0,0.801,0,1.2,0
	c0.53-0.029,0.103-1.019,0.24-1.439c0.48,0,0.96,0,1.44,0c0-0.48,0-0.96,0-1.44c0.479,0,0.96,0,1.439,0c3.2,0,6.4,0,9.601,0
	c0.31-0.33,1.041-0.237,1.68-0.239c0-0.399,0-0.801,0-1.199c0-0.08,0-0.16,0-0.24c0-4.32,0-8.641,0-12.96c0-0.479,0-0.96,0-1.439
	c0-4.319,0-8.641,0-12.96c0-0.08,0-0.16,0-0.24c0-0.399,0-0.8,0-1.199c-0.03-0.53-1.019-0.103-1.44-0.24c-3.76,0-7.52,0-11.279,0
	c0-0.4,0-0.8,0-1.2c-0.03-0.53-1.019-0.102-1.44-0.24c0.032-0.591,0.036-1.155-0.24-1.439c-0.479,0-0.96,0-1.439,0
	c0-0.4,0-0.8,0-1.2c-0.104-0.536-1.184-0.097-1.681-0.24c0-0.399,0-0.8,0-1.2c-0.029-0.529-1.018-0.102-1.439-0.239
	c0-0.4,0-0.801,0-1.2c0-12.641,0-25.28,0-37.92c0-0.48,0-0.96,0-1.44c0.479,0,0.96,0,1.439,0c0-0.479,0-0.96,0-1.439
	c0.561,0,1.12,0,1.681,0c0-0.48,0-0.96,0-1.44c0.56,0,1.12,0,1.68,0c0-0.479,0-0.96,0-1.44c0.48,0,0.96,0,1.44,0
	c0-0.479,0-0.96,0-1.439s0-0.96,0-1.44c3.68,0,7.359,0,11.04,0c0.079,0,0.159,0,0.239,0c0.48,0,0.96,0,1.44,0
	c0-0.479,0-0.96,0-1.439c0-3.84,0-7.681,0-11.521c7.92,0,15.84,0,23.76,0c0,3.84,0,7.681,0,11.521c0,0.479,0,0.96,0,1.439
	c0.561,0,1.12,0,1.68,0c3.2,0,6.4,0,9.601,0c0,0.48,0,0.96,0,1.44c1.233-0.274,1.714,0.206,1.439,1.439c0.561,0,1.12,0,1.681,0
	c0,0.48,0,0.961,0,1.44c0.479,0,0.96,0,1.439,0c0.08,0,0.16,0,0.24,0c0,0.48,0,0.96,0,1.44c1.234-0.274,1.714,0.206,1.44,1.439
	c0.479,0,0.96,0,1.439,0c0.08,0,0.16,0,0.24,0c0,0.48,0,0.96,0,1.44c0.479,0,0.96,0,1.439,0c0,5.84,0,11.68,0,17.52
	c0,0.48,0,0.96,0,1.44c0,6.24,0,12.479,0,18.72c-0.56,0-1.12,0-1.68,0c0,0.479,0,0.956,0,1.435l0,0
	c-0.001,0-0.003,0.003-0.004,0.005c0,0-0.001,0-0.001,0.001c-0.425,0.132-1.404-0.289-1.434,0.238c0,0.4,0,0.801,0,1.2
	c-0.561,0-1.12,0-1.681,0c0.446,1.867-0.677,1.172-1.439,1.681c0,0.399,0,0.8,0,1.199c-0.497,0.144-1.577-0.296-1.681,0.24
	c0,0.4,0,0.8,0,1.2c-0.479,0-0.96,0-1.439,0c-2.02,0.542-5.026,0.094-7.44,0.24c-0.664,0.216-2.253-0.493-2.16,0.479
	c0,0.24,0,0.48,0,0.72c-0.498,0.144-1.576-0.297-1.68,0.24c0,0.48,0,0.96,0,1.44c0,8.64,0,17.279,0,25.92c0,0.08,0,0.16,0,0.24
	c0,0.398,0,0.8,0,1.199c0.104,0.536,1.183,0.098,1.68,0.239c3.12,0,6.24,0,9.36,0c0.56,0,1.12,0,1.68,0c0,0.48,0,0.96,0,1.44
	c0.561,0,1.12,0,1.681,0c0,0.479,0,0.96,0,1.439c0.479,0,0.96,0,1.439,0c0.138,0.422-0.29,1.409,0.24,1.439
	c0.422,0.138,1.41-0.29,1.44,0.24c0,0.398,0,0.8,0,1.199c0.479,0,0.96,0,1.439,0c0.138,0.422-0.29,1.41,0.24,1.439
	c0.479,0,0.96,0,1.439,0c0,6.24,0,12.479,0,18.721c-0.56,0-1.119,0-1.68,0c0,0.479,0,0.96,0,1.439c0,2.395,0,5.578,0,9.6
	c0,1.626,0.549,8.668-0.24,9.36c-0.295,0.259-1.469-0.374-1.199,0.239c0,0.399,0,0.801,0,1.2c-0.561,0-1.12,0-1.681,0
	c0.446,1.867-0.677,1.172-1.439,1.681c0,0.399,0,0.8,0,1.199c-0.497,0.144-1.577-0.297-1.681,0.24c0,0.399,0,0.8,0,1.199
	c-0.479,0-0.96,0-1.439,0c-3.2,0-6.4,0-9.601,0c-0.508,0.532-2.304-0.224-1.68,1.439c0,0.08,0,0.16,0,0.24c0,0.399,0,0.8,0,1.199
	c0,0.08,0,0.16,0,0.24c0,4.319,0,8.641,0,12.96c0,0.479,0,0.96,0,1.439c0.56,0,1.12,0,1.68,0c27.521,0,55.04,0,82.561,0
	c-0.274-1.233,0.206-1.715,1.439-1.439c0.561-3.92,0.081-8.879,0.24-13.2c0-0.479,0-0.96,0-1.439c-0.56,0-1.12,0-1.68,0
	c0-0.479,0-0.96,0-1.439c-4.24,0-8.48,0-12.72,0c0-0.399,0-0.8,0-1.199c-0.338-0.765-0.99,0.173-1.44-0.24
	c-0.327-0.3,0.317-1.152-0.24-1.439c-0.479,0-0.96,0-1.439,0c0-0.399,0-0.8,0-1.2c-0.104-0.536-1.184-0.097-1.681-0.239
	c0-0.399,0-0.801,0-1.2c0.13-0.531-1.279-0.079-1.439-0.239c-0.154-0.153,0.05-0.973,0-1.2c-0.121-0.55,0-1.615,0-2.64
	c0-11.595,0-25.067,0-35.28c0.479,0,0.96,0,1.439,0c-0.375-1.414,0.434-1.646,1.681-1.439c0-0.479,0-0.96,0-1.439
	c0.479,0,0.96,0,1.439,0c0.53-0.03,0.103-1.019,0.24-1.439c0.479,0,0.96,0,1.44,0c0-0.479,0-0.96,0-1.44c0.479,0,0.96,0,1.439,0
	c0.53-0.029,0.102-1.018,0.24-1.439c3.601-0.159,7.839,0.319,11.04-0.239c0-0.399,0-0.801,0-1.2c0.56,0,1.12,0,1.68,0
	c0-4.399,0-8.8,0-13.199c0-0.479,0-0.961,0-1.439c0-3.84,0-7.681,0-11.521c0-0.56,0-1.119,0-1.68c-0.56,0-1.12,0-1.68,0
	c0-0.399,0-0.8,0-1.2c-2.4,0-4.8,0-7.2,0c-0.664,0.217-2.253-0.492-2.16,0.48c0,0.24,0,0.479,0,0.72c-0.08,0-0.16,0-0.24,0
	c-0.479,0-0.96,0-1.439,0c0.304-1.344-0.454-1.626-1.68-1.439c0-0.4,0-0.801,0-1.2c-0.03-0.53-1.019-0.103-1.44-0.24
	c0.032-0.591,0.036-1.156-0.24-1.44c-0.479,0-0.96,0-1.439,0c0-0.399,0-0.8,0-1.199c-0.104-0.536-1.184-0.098-1.681-0.24
	c0-0.4,0-0.8,0-1.2c-0.029-0.53-1.018-0.102-1.439-0.24c0-0.399,0-0.8,0-1.2c-0.021-13.146-0.033-24.818,0-37.92
	c0-0.479,0-0.96,0-1.439c0.479,0,0.96,0,1.439,0c-0.375-1.414,0.434-1.647,1.681-1.44c0-0.479,0-0.96,0-1.439
	c0.479,0,0.96,0,1.439,0c0.53-0.03,0.103-1.019,0.24-1.44c0.479,0,0.96,0,1.44,0c0-0.479,0-0.96,0-1.439c0.479,0,0.96,0,1.439,0
	c0.53-0.03,0.102-1.019,0.24-1.44c3.68,0,7.359,0,11.04,0c0.479,0,0.96,0,1.439,0c0-0.479,0-0.96,0-1.44
	c0.56-3.359,0.081-7.759,0.24-11.52c7.36,0,14.72,0,22.08,0c0,3.84,0,7.68,0,11.52c0.138,0.423-0.29,1.41,0.24,1.44
	c0.479,0,0.96,0,1.439,0c3.681,0,7.36,0,11.04,0c0,0.48,0,0.96,0,1.44c0.561,0,1.12,0,1.681,0c0,0.479,0,0.96,0,1.439
	c0.479,0,0.96,0,1.439,0c0.138,0.422-0.29,1.41,0.24,1.44c0.422,0.138,1.41-0.29,1.439,0.239c0,0.4,0,0.801,0,1.2
	c0.48,0,0.96,0,1.44,0c0.138,0.422-0.29,1.41,0.24,1.44c0.479,0,0.96,0,1.439,0c0,0.479,0,0.96,0,1.439c0,12.561,0,25.12,0,37.681
	c-0.56,0-1.12,0-1.68,0c0,0.479,0,0.96,0,1.439c-0.422,0.139-1.41-0.29-1.44,0.24c0,0.4,0,0.8,0,1.2c-0.56,0-1.119,0-1.68,0
	c0,0.479,0,0.96,0,1.439c-0.422,0.139-1.41-0.289-1.439,0.24c0,0.4,0,0.8,0,1.2c-0.497,0.143-1.577-0.296-1.681,0.24
	c-0.479,0-0.96,0-1.439,0c0,0.399,0,0.8,0,1.2c-3.761,0-7.521,0-11.28,0c0,0.56,0,1.119,0,1.68c0,9.2,0,18.4,0,27.6
	c-0.032,0.592-0.036,1.156,0.24,1.439c0.479,0,0.96,0,1.439,0c3.2,0,6.4,0,9.601,0c0.479,0,0.96,0,1.439,0c0,0.479,0,0.96,0,1.439
	c0.561,0,1.12,0,1.68,0c0,0.48,0,0.96,0,1.44c0.48,0,0.961,0,1.44,0c0.138,0.422-0.29,1.409,0.24,1.438c0.479,0,0.96,0,1.439,0
	c0,0.48,0,0.961,0,1.44c0.48,0,0.96,0,1.44,0c0,0.479,0,0.96,0,1.439c0.56,0,1.12,0,1.68,0c0,13.04,0,26.08,0,39.12
	c-0.479,0-0.96,0-1.439,0c-0.475,0.166,0.059,1.339-0.48,1.439c-0.349,0.131-1.241-0.281-1.2,0.239c-0.479,0-0.96,0-1.439,0
	c0,0.399,0,0.801,0,1.2c-0.08,0-0.16,0-0.24,0c-0.422,0.139-1.41-0.29-1.44,0.239c0,0.4,0,0.801,0,1.2
	c-0.496,0.144-1.576-0.297-1.68,0.24c0,0.398,0,0.8,0,1.199c-0.479,0-0.96,0-1.439,0c-3.12,0-6.24,0-9.36,0
	c-0.599,0.44-2.239-0.159-1.68,1.439c-0.53,0.03-0.103,1.019-0.24,1.439c0,4.399,0,8.801,0,13.2c0.138,0.422-0.29,1.409,0.24,1.439
	c0.479,0,0.96,0,1.439,0c13.2,0,26.4,0,39.601,0c0.08,0,0.159,0,0.239,0c0.48,0,0.96,0,1.44,0c13.68,0,27.36,0,41.04,0
	c0.521,0.04,0.108-0.852,0.24-1.2c0.029-0.529,1.018-0.102,1.439-0.239c0.561-3.92,0.081-8.88,0.24-13.2
	c-0.138-0.422,0.29-1.409-0.24-1.439c-0.479,0-0.96,0-1.439,0c0-0.479,0-0.96,0-1.439c-3.725,0.036-7.662-0.143-11.04,0.239
	c-0.146-0.014-0.284-0.035-0.24-0.239c-0.48,0-0.96,0-1.44,0c0-0.399,0-0.801,0-1.199c0.04-0.68-1.479,0.199-1.439-0.48
	c0-0.399,0-0.8,0-1.199c-0.561,0-1.12,0-1.681,0c0-0.399,0-0.801,0-1.2c-0.103-0.536-1.183-0.097-1.68-0.239c0-0.4,0-0.801,0-1.2
	c-0.5-0.46-2.001,0.081-1.439-1.439c0-5.841,0-11.681,0-17.521c0-0.479,0-0.96,0-1.439c0-6.319,0-12.641,0-18.96
	c0.479,0,0.96,0,1.439,0c-0.375-1.414,0.434-1.646,1.68-1.439c0-0.479,0-0.96,0-1.44c0.48,0,0.961,0,1.44,0
	c0.53-0.029,0.103-1.018,0.24-1.438c0.479,0,0.96,0,1.439,0c0-0.48,0-0.96,0-1.44c0.48,0,0.96,0,1.44,0
	c0.53-0.029,0.102-1.018,0.24-1.439c3.601-0.159,7.839,0.318,11.04-0.239c0-0.4,0-0.801,0-1.2c0.56,0,1.12,0,1.68,0
	c0-4.399,0-8.8,0-13.2c0-0.479,0-0.96,0-1.438c0-4.4,0-8.8,0-13.2c0.304-1.344-0.454-1.626-1.68-1.44c-3.681,0-7.36,0-11.04,0
	c0-0.479,0-0.96,0-1.439c-0.561,0-1.12,0-1.681,0c0-0.4,0-0.8,0-1.2c0.04-0.68-1.479,0.199-1.439-0.479c0-0.4,0-0.801,0-1.2
	c-0.561,0-1.12,0-1.681,0c0-0.4,0-0.8,0-1.2c-0.103-0.537-1.183-0.097-1.68-0.24c0-0.399,0-0.8,0-1.2
	c-0.5-0.46-2.001,0.082-1.439-1.439c0-12.16,0-24.32,0-36.48c0.479,0,0.96,0,1.439,0c0-0.479,0-0.96,0-1.439c0.561,0,1.12,0,1.68,0
	c0-0.48,0-0.96,0-1.44c0.48,0,0.961,0,1.44,0c0-0.479,0-0.96,0-1.439c0.53-0.03,0.103-1.019,0.24-1.44c0.479,0,0.96,0,1.439,0
	c0-0.479,0-0.96,0-1.44c0.48,0,0.96,0,1.44,0c0.53-0.029,0.102-1.018,0.24-1.439c3.68,0,7.359,0,11.04,0c0.56,0,1.12,0,1.68,0
	c0-0.48,0-0.96,0-1.44c0-3.84,0-7.68,0-11.52c7.36,0,14.72,0,22.08,0c0.16,3.761-0.319,8.16,0.24,11.52c0.479,0,0.96,0,1.439,0
	c0,0.48,0,0.96,0,1.44c0.48,0,0.96,0,1.44,0c3.2,0,6.399,0,9.6,0c0.138,0.422-0.29,1.41,0.24,1.439
	c0.422,0.139,1.41-0.289,1.439,0.24c0,0.4,0,0.8,0,1.2c0.48,0,0.961,0,1.44,0c0.138,0.422-0.29,1.41,0.24,1.44
	c0.422,0.138,1.41-0.29,1.439,0.239c0,0.4,0,0.801,0,1.2c0.48,0,0.96,0,1.44,0c0.138,0.422-0.29,1.41,0.24,1.44
	c0.479,0,0.96,0,1.439,0c0.139,0.422-0.29,1.41,0.24,1.439c0.479,0,0.96,0,1.439,0c0,12.561,0,25.12,0,37.681
	c-0.56,0-1.119,0-1.68,0c0,0.479,0,0.96,0,1.439c-0.479,0-0.96,0-1.439,0c-0.475,0.167,0.059,1.339-0.48,1.44
	c-0.349,0.131-1.241-0.28-1.2,0.239c-0.479,0-0.96,0-1.439,0c0,0.4,0,0.801,0,1.2c-0.08,0-0.16,0-0.24,0c-0.479,0-0.96,0-1.44,0
	c-0.138,0.422,0.291,1.41-0.239,1.44c-0.48,0-0.96,0-1.44,0c0,0.479,0,0.96,0,1.439c-3.601,0.16-7.839-0.318-11.04,0.24
	c0,0.4,0,0.8,0,1.2c-0.56,0-1.12,0-1.68,0c0,8.64,0,17.279,0,25.92c-0.231,1.431,0.119,2.28,1.68,1.92c0,0.399,0,0.8,0,1.2
	c0.104,0.536,1.184,0.097,1.681,0.239c3.119,0,6.239,0,9.359,0c0.08,0,0.16,0,0.24,0c0.479,0,0.96,0,1.439,0c0,0.479,0,0.96,0,1.439
	c0.48,0,0.961,0,1.44,0c0.138,0.422-0.29,1.41,0.24,1.44c0.422,0.138,1.41-0.29,1.439,0.239c0,0.399,0,0.801,0,1.199
	c0.48,0,0.96,0,1.44,0c0.138,0.423-0.29,1.41,0.24,1.44c0.479,0,0.96,0,1.439,0c0.139,0.422-0.29,1.41,0.24,1.439
	c0.479,0,0.96,0,1.439,0c0,0.479,0,0.96,0,1.439c0,5.359,0,10.72,0,16.08c0,0.399,0,0.8,0,1.2c0,6.398,0,12.8,0,19.199
	c-0.479,0-0.96,0-1.439,0c0,0.399,0,0.801,0,1.199c-0.08,0-0.16,0-0.24,0c-0.479,0-0.96,0-1.439,0
	c-0.475,0.167,0.059,1.339-0.48,1.44c-0.349,0.131-1.241-0.281-1.2,0.239c0,0.399,0,0.801,0,1.2c-0.56,0-1.12,0-1.68,0
	c0,0.479,0,0.96,0,1.439c-0.422,0.138-1.41-0.29-1.44,0.24c0,0.398,0,0.8,0,1.199c-0.479,0-0.96,0-1.439,0
	c-3.8,0.041-7.828-0.147-11.28,0.239c0.56,1.601-1.082,0.999-1.68,1.44c0.16,4.72-0.319,10.079,0.24,14.398c0.479,0,0.96,0,1.439,0
	c0.146,0.495-0.387,1.668,0.48,1.44c0.319,0,0.64,0,0.96,0c13.279,0,26.56,0,39.84,0c0.479,0,0.96,0,1.439,0c0.08,0,0.16,0,0.239,0
	c13.681,0,27.36,0,41.04,0c0.53-0.03,0.104-1.019,0.24-1.44c0.479,0,0.96,0,1.439,0c0.56-2.24,0.081-5.519,0.239-8.159
	c0-1.359,0-2.721,0-4.079c0.119-1.479,0.186-2.904-1.68-2.4c-0.08,0-0.16,0-0.24,0c0-0.16,0-0.32,0-0.479s0-0.319,0-0.479
	c-2.827-0.882-7.584-0.466-10.8-0.24c-0.104-0.535-1.183-0.097-1.68-0.239c0-0.399,0-0.801,0-1.199
	c-0.104-0.537-1.184-0.099-1.681-0.24c0-0.399-0.001-0.8,0-1.2c0.039-0.68-1.479,0.199-1.439-0.479c0-0.399,0-0.8,0-1.199
	c-0.561,0-1.12,0-1.681,0c0-0.4,0-0.801,0-1.2c-0.029-0.529-1.019-0.103-1.439-0.24c0.032-0.592,0.036-1.155-0.24-1.438
	c-0.479,0-0.96,0-1.438,0c0-12.08,0-24.16,0-36.24c0-0.479,0-0.96,0-1.439c0.479,0,0.96,0,1.438,0
	c0.53-0.029,0.104-1.019,0.24-1.439c0.479,0,0.96,0,1.439,0c0-0.479,0-0.96,0-1.44c0.479,0,0.961,0,1.439,0
	c0.53-0.029,0.104-1.018,0.24-1.438c0.479,0,0.96,0,1.439,0c0.139-0.423-0.29-1.41,0.239-1.44c0.48,0,0.96,0,1.44,0
	c0-0.479,0-0.96,0-1.439c0.479,0,0.96,0,1.438,0c0.08,0,0.16,0,0.24,0c3.12,0,6.24,0,9.36,0c0.56,0,1.119,0,1.68,0
	c-0.374-1.414,0.434-1.646,1.68-1.439c0-4.399,0-8.8,0-13.2c0-0.479,0-0.96,0-1.438c0-2.48,0-4.96,0-7.44c0-1.279,0-2.56,0-3.84
	c0-0.64,0-1.28,0-1.92c-0.652-0.547,0.229-0.937-0.72-1.2c-0.297-0.083-0.657,0.063-0.96,0c-3.2-0.56-7.439-0.081-11.04-0.24
	c0-0.479,0-0.96,0-1.439c-0.56,0-1.12,0-1.68,0c0-0.4,0-0.8,0-1.2c-0.767-0.614-2.196,0.403-1.681-1.68c-0.479,0-0.96,0-1.439,0
	c-0.561,0-1.12,0-1.681,0c0-0.4,0-0.8,0-1.2c-0.029-0.53-1.019-0.102-1.439-0.24c0-0.479,0-0.96,0-1.439c-0.561,0-1.12,0-1.68,0
	c0-19.761,0-39.521,0-59.28c11.409,0,23.358,0,34.56,0c3.967,0,7.855-0.197,11.28,0.24c0,3.76,0,7.52,0,11.28
	c0.138,0.422-0.29,1.409,0.239,1.439c0.479,0,0.961,0,1.439,0c3.681,0,7.36,0,11.04,0c0.139,0.422-0.29,1.41,0.24,1.44
	c1.233-0.274,1.714,0.206,1.439,1.439c0.561,0,1.12,0,1.681,0c0,0.48,0,0.96,0,1.44c0.479,0,0.96,0,1.439,0
	c0.139,0.422-0.291,1.41,0.239,1.439c0.422,0.139,1.41-0.29,1.44,0.24c0,0.4,0,0.8,0,1.2c0.479,0,0.96,0,1.438,0
	c0,0.479,0,0.96,0,1.439c0,5.841,0,11.681,0,17.521c0,0.479,0,0.96,0,1.439c0,6.24,0,12.48,0,18.721
	c-0.422,0.138-1.41-0.29-1.438,0.24c0,0.399,0,0.8,0,1.199c-0.562,0-1.12,0-1.681,0c0.445,1.867-0.678,1.172-1.439,1.681
	c0,0.399,0,0.8,0,1.199c-0.497,0.144-1.577-0.296-1.681,0.24c0,0.4-0.001,0.8,0,1.2c-0.561,0-1.12,0-1.681,0
	c-0.138,0.422,0.29,1.41-0.24,1.44c-3.6,0-7.199,0-10.8,0c-1.764-0.264-1.848,0.224-1.68,1.68c0,4.32,0,8.64,0,12.96
	c0,0.479,0,0.96,0,1.439c0,4.399,0,8.8,0,13.199c0.08,0,0.16,0,0.239,0c0,0.399,0,0.801,0,1.2c0.479,0,0.96,0,1.439,0
	c3.201,0.56,7.439,0.08,11.04,0.239c0.139,0.423-0.29,1.41,0.24,1.439c0.479,0,0.96,0,1.439,0c0,0.48,0,0.961,0,1.44
	c0.561,0,1.12,0,1.681,0c0,0.479,0,0.96,0,1.439c0.479,0,0.96,0,1.439,0c0.079,0,0.159,0,0.239,0c0.479,0,0.96,0,1.439,0
	c0,0.479,0,0.96,0,1.439c0.479,0,0.961,0,1.439,0c0,0.479,0,0.96,0,1.439c0,6.239,0,12.479,0,18.721c0,0.08,0,0.159,0,0.239
	c-0.479,0-0.96,0-1.439,0c0,6.721,0,13.439,0,20.16c-0.771-0.215-1.183-0.066-1.435,0.239c-0.002,0-0.004,0-0.006,0
	c0,0.002,0,0.005,0,0.007c-0.249,0.31-0.342,0.773-0.479,1.193c-0.349,0.131-1.239-0.281-1.199,0.239c0,0.399,0,0.801,0,1.2
	c-0.497,0.143-1.577-0.297-1.681,0.239c-0.001,0.4,0,0.801,0,1.2c-0.479,0-0.96,0-1.439,0c-0.475,0.166,0.06,1.339-0.48,1.439
	c-3.6,0-7.199,0-10.8,0c0,0.479,0,0.96,0,1.439c-0.479,0-0.96,0-1.439,0c-0.529,0.03-0.103,1.019-0.239,1.439
	c0.159,4.321-0.319,9.28,0.239,13.2c0,0.479,0,0.96,0,1.439c0.479,0,0.961,0,1.439,0c27.521,0,55.04,0,82.561,0
	c0.08,0,0.16,0,0.239,0c0.48,0,0.961,0,1.44,0c0-0.479,0-0.96,0-1.439c0-4.399,0-8.8,0-13.2c0-0.399,0-0.8,0-1.199
	c-0.03-0.53-1.019-0.103-1.44-0.24c0-0.159,0-0.319,0-0.479c0.31-1.348-1.194-0.884-2.159-0.96c-3.04,0-6.08,0-9.119,0
	c-1.234,0.273-1.716-0.205-1.44-1.439c-0.56,0-1.12,0-1.68,0c0-0.399,0-0.8,0-1.199c-0.104-0.537-1.184-0.099-1.681-0.24
	c0-0.399,0-0.8,0-1.2c0.039-0.679-1.479,0.2-1.439-0.479c0-0.399,0-0.8,0-1.199c-0.561,0-1.12,0-1.681,0c0-13.04,0-26.08,0-39.12
	c0-0.479,0-0.96,0-1.439c0.479,0,0.96,0,1.439,0c0.08,0,0.16,0,0.24,0c0.479,0,0.96,0,1.439,0c0-0.479,0-0.96,0-1.439
	c0.561,0,1.12,0,1.681,0c0-0.479,0-0.96,0-1.439c0.479,0,0.96,0,1.439,0c0.529-0.03,0.103-1.019,0.239-1.44c0.479,0,0.96,0,1.44,0
	c0-0.479,0-0.96,0-1.439c3.68,0,7.358,0,11.039,0c0.311-0.33,1.042-0.237,1.681-0.239c0-0.399,0-0.801,0-1.2c0-0.08,0-0.159,0-0.239
	c0-3.841,0-7.681,0-11.521c0-0.96,0-1.92,0-2.88c0-4.32,0-8.641,0-12.96c0-0.08,0-0.16,0-0.24c0-0.399,0-0.8,0-1.2
	c-0.03-0.529-1.019-0.102-1.44-0.239c-3.76,0-7.52,0-11.279,0c0-0.4,0-0.801,0-1.2c0.039-0.681-1.479,0.199-1.439-0.48
	c0-0.399,0-0.8,0-1.2c-0.561,0-1.12,0-1.68,0c0-0.399,0-0.8,0-1.199c-0.104-0.536-1.184-0.098-1.681-0.24c0-0.4,0-0.8,0-1.2
	c0.039-0.679-1.479,0.2-1.439-0.479c0-0.4,0-0.801,0-1.2c-0.561,0-1.12,0-1.681,0c0-0.4,0-0.8,0-1.2c0-12.16,0-24.32,0-36.48
	c0-0.479,0-0.96,0-1.439c0.479,0,0.961,0,1.439,0c0.53-0.03,0.104-1.018,0.24-1.44c0.479,0,0.96,0,1.439,0
	c-0.375-1.414,0.434-1.646,1.681-1.439c0-0.48,0-0.96,0-1.44c0.479,0,0.96,0,1.439,0c0.529-0.029,0.103-1.018,0.239-1.439
	c0.479,0,0.96,0,1.439,0c0-0.479,0-0.96,0-1.44c3.681,0,7.359,0,11.04,0c0.08,0,0.16,0,0.239,0c0.48,0,0.961,0,1.44,0
	c0-0.479,0-0.96,0-1.439c0-3.841,0-7.681,0-11.521c14.239,0,28.479,0,42.72,0c0,12.96,0,25.92,0,38.88c0,0.561,0,1.12,0,1.681
	c0,5.76,0,11.52,0,17.279c0,0.48,0,0.96,0,1.44c0,0.08,0,0.16,0,0.24c-0.479,0-0.96,0-1.439,0c0,0.399,0,0.8,0,1.199
	c0,0.08,0,0.16,0,0.24c-0.479,0-0.96,0-1.439,0c0,0.4,0,0.8,0,1.2c-0.146,0.014-0.284,0.036-0.239,0.24c-0.479,0-0.961,0-1.439,0
	c0,0.399,0,0.8,0,1.199c0,0.08,0,0.16,0,0.24c-0.561,0-1.12,0-1.681,0c0,0.4,0,0.8,0,1.2c0,0.08,0,0.16,0,0.24
	c-0.479,0-0.96,0-1.439,0c0,0.399,0,0.8,0,1.2c-3.2,0-6.4,0-9.601,0c-0.498,0.143-1.577-0.297-1.681,0.239c0,0.4,0,0.801,0,1.2
	c0,0.08,0,0.16,0,0.24c0,8.64,0,17.28,0,25.92c0,0.479,0,0.96,0,1.439c0,0.08,0,0.159,0,0.239c0,0.479,0,0.96,0,1.439
	c0.561,0,1.12,0,1.681,0c3.199,0,6.399,0,9.601,0c0.479,0,0.96,0,1.439,0c0,0.479,0,0.96,0,1.439c0.561,0,1.12,0,1.681,0
	c0,0.48,0,0.96,0,1.44c0.479,0,0.96,0,1.439,0c0.138,0.422-0.291,1.409,0.239,1.439c0.422,0.138,1.41-0.29,1.439,0.239
	c0,0.399,0,0.8,0,1.2c0.479,0,0.961,0,1.439,0c0,0.479,0,0.96,0,1.439c0,6.319,0,12.641,0,18.96c0,0.399,0,0.8,0,1.2
	c0,2.395,0,5.577,0,9.6c0,1.083,0.241,4.561,0.17,6.973c0.021-0.404,0.04-0.811,0.053-1.223c-0.022,0.745-0.058,1.479-0.104,2.201
	c-0.062,0.719-0.172,1.246-0.358,1.409c-0.295,0.259-1.469-0.374-1.2,0.239c0,0.399,0,0.801,0,1.2c-0.561,0-1.119,0-1.68,0
	c0.445,1.867-0.678,1.172-1.439,1.68c0,0.4,0,0.801,0,1.2c-0.497,0.144-1.577-0.297-1.681,0.24c0,0.399,0,0.8,0,1.199
	c-0.479,0-0.96,0-1.439,0c-3.12,0-6.24,0-9.36,0c-1.255-0.137-2.378-0.14-1.92,1.439c-0.56,0-1.12,0-1.68,0c0,0.479,0,0.96,0,1.439
	c0.158,4.321-0.319,9.28,0.239,13.2c0,0.479,0,0.96,0,1.439c0.479,0,0.96,0,1.439,0c27.521,0,55.04,0,82.561,0
	c0.08,0,0.16,0,0.239,0c0.48,0,0.961,0,1.44,0c0-0.479,0-0.96,0-1.439s0-0.96,0-1.439c0-3.92,0-7.84,0-11.761c0-0.399,0-0.8,0-1.199
	c-0.03-0.53-1.019-0.103-1.44-0.24c0-0.159,0-0.319,0-0.479c0.292-1.251-0.988-0.931-1.92-0.96c-2.64,0-5.279,0-7.92,0
	c-0.479,0-0.96,0-1.439,0c0-0.399,0-0.8,0-1.199c0.039-0.68-1.479,0.199-1.439-0.479c0-0.4,0-0.801,0-1.2c-0.561,0-1.12,0-1.68,0
	c0-0.399,0-0.8,0-1.2c-0.104-0.536-1.184-0.097-1.681-0.239c0-0.399,0-0.801,0-1.2c0.102-0.505-1.34-0.123-1.439-0.239
	c-0.179-0.207,0-3.292,0-4.801c0-10.881,0-25.305,0-34.319c0-0.479,0-0.96,0-1.439c0.479,0,0.96,0,1.439,0
	c-0.375-1.414,0.434-1.646,1.681-1.439c0-0.479,0-0.96,0-1.439c0.479,0,0.96,0,1.439,0c0.529-0.03,0.103-1.019,0.239-1.44
	c0.479,0,0.96,0,1.44,0c0-0.479,0-0.96,0-1.439c0.479,0,0.96,0,1.438,0c3.2,0,6.4,0,9.601,0c0.561,0,1.12,0,1.681,0
	c0-0.479,0-0.96,0-1.439c0-0.08,0-0.159,0-0.239c0-3.761,0-7.521,0-11.28c0-0.561,0-1.119,0-1.68c0-0.479,0-0.961,0-1.439
	c0-0.48,0-0.961,0-1.44c0-3.359,0-6.72,0-10.079c0-0.48,0-0.961,0-1.44c0-0.08,0-0.16,0-0.24c0-0.399,0-0.8,0-1.2
	c-0.03-0.529-1.019-0.102-1.44-0.239c-3.76,0-7.52,0-11.278,0c0-0.4,0-0.801,0-1.2c-0.03-0.53-1.02-0.103-1.44-0.24
	c0.032-0.591,0.036-1.156-0.239-1.439c-0.479,0-0.961,0-1.439,0c0-0.4,0-0.801,0-1.2c-0.104-0.536-1.184-0.098-1.681-0.24
	c0-0.4,0-0.8,0-1.2c-0.379-0.674-1.083,0.161-1.439-0.479c-0.17-0.306,0.129-0.872,0-1.2c0-12.561,0-25.12,0-37.68
	c0-0.48,0-0.961,0-1.44c0.479,0,0.96,0,1.439,0c0.139-0.422-0.29-1.41,0.239-1.44c0.48,0,0.96,0,1.44,0c0-0.479,0-0.96,0-1.439
	c0.479,0,0.96,0,1.439,0c0.68,0.04-0.2-1.479,0.479-1.44c0.399,0,0.8,0,1.2,0c0-0.479,0-0.96,0-1.439s0-0.96,0-1.44
	c3.68,0,7.358,0,11.039,0c0.08,0,0.16,0,0.239,0c0.48,0,0.961,0,1.44,0c0-0.479,0-0.96,0-1.439c0-0.48,0-0.961,0-1.44
	c0-3.36,0-6.72,0-10.08c7.92,0,15.84,0,23.76,0c0,3.12,0,6.24,0,9.36c0.216,0.664-0.493,2.253,0.48,2.16c0.398,0,0.8,0,1.199,0
	c0,0.479,0,0.96,0,1.439c0.479,0,0.96,0,1.439,0c3.199,0,6.399,0,9.601,0c0,0.48,0,0.96,0,1.44c0.561,0,1.12,0,1.681,0
	c0,0.479,0,0.96,0,1.439c0.479,0,0.959,0,1.439,0c0.138,0.422-0.291,1.41,0.239,1.44c0.479,0,0.96,0,1.439,0c0,0.479,0,0.96,0,1.439
	c0.479,0,0.96,0,1.439,0c0.139,0.422-0.29,1.41,0.239,1.44c0.48,0,0.961,0,1.44,0c0,0.479,0,0.96,0,1.439c0,5.761,0,11.521,0,17.28
	c0,0.561,0,1.12,0,1.68c0,6.24,0,12.48,0,18.721c-0.562,0-1.12,0-1.681,0c-0.139,0.422,0.29,1.41-0.239,1.439
	c-0.349,0.131-1.241-0.279-1.2,0.24c0,0.4,0,0.8,0,1.2c-0.561,0-1.12,0-1.68,0c0,0.478,0,0.955,0,1.433c0,0,0,0-0.001,0
	c-0.001,0.002-0.004,0.004-0.006,0.007l0,0c-0.063,0.076-0.137,0.144-0.223,0.196c0.086-0.053,0.158-0.12,0.223-0.196
	c-0.427,0.133-1.403-0.288-1.435,0.239c0,0.4,0,0.8,0,1.2c-0.497,0.143-1.577-0.296-1.68,0.24c0,0.399-0.001,0.8,0,1.2
	c-3.602,0.159-7.84-0.319-11.04,0.239c0,0.4,0,0.8,0,1.2c-0.48,0-0.96,0-1.44,0c-0.559,8.082-0.081,17.198-0.239,25.68
	c-0.08,1.28-0.195,2.597,1.439,2.16c0.08,0,0.16,0,0.24,0c0,0.399,0,0.8,0,1.2c0.104,0.536,1.183,0.097,1.68,0.239
	c3.12,0,6.24,0,9.36,0c0.56,0,1.12,0,1.68,0c0,0.479,0,0.96,0,1.439c0.479,0,0.96,0,1.44,0c0.138,0.422-0.291,1.41,0.239,1.44
	c0.422,0.138,1.409-0.29,1.439,0.239c0,0.399,0,0.801,0,1.199c0.479,0,0.96,0,1.439,0c0.139,0.423-0.291,1.41,0.239,1.44
	c0.48,0,0.96,0,1.44,0c0,0.479,0,0.96,0,1.439c0,5.76,0,11.521,0,17.279c0,1.04,0,2.08,0,3.12c0,5.76,0,11.521,0,17.28
	c-0.14,0.422,0.29,1.409-0.24,1.439c-0.48,0-0.96,0-1.439,0c0,0.479,0,0.96,0,1.439c-0.423,0.138-1.41-0.29-1.439,0.239
	c0,0.4,0,0.801,0,1.2c-0.561,0-1.12,0-1.68,0c-0.48,0-0.961,0-1.44,0c-0.138,0.422,0.29,1.409-0.24,1.439
	c-0.422,0.139-1.409-0.29-1.438,0.24c-0.001,0.399,0,0.8,0,1.199c-0.08,0-0.16,0-0.24,0c-2.88,0-5.76,0-8.64,0
	c-0.665,0.216-2.254-0.493-2.16,0.479c0,0.32,0,0.641,0,0.96c-0.562,0-1.12,0-1.681,0c0,0.561,0,1.12,0,1.681
	c0,4.319,0,8.641,0,12.96c0.139,0.422-0.291,1.409,0.239,1.439c0.48,0,0.96,0,1.44,0c27.04,0,54.08,0,81.119,0
	c1.233,0.274,1.715-0.206,1.439-1.439c0.48,0,0.96,0,1.44,0c0.413-1.407,0.238-3.968,0.238-7.2c0-1.113,0.442-6.982,0-7.439
	c-0.356-0.369-1.627,0.311-1.68,0c0-0.479,0-0.96,0-1.439c-3.68,0-7.36,0-11.04,0c-0.08,0-0.16,0-0.24,0c0-0.399,0-0.8,0-1.199
	c-0.479,0-0.96,0-1.438,0c0-0.08,0-0.16,0-0.24c0-0.399,0-0.8,0-1.2c-0.48,0-0.96,0-1.44,0c-0.014-0.146-0.036-0.283-0.238-0.239
	c-0.002-0.399,0-0.801,0-1.2c-0.48,0-0.962,0-1.44,0c0-0.079,0-0.159,0-0.239c0-0.4,0-0.801,0-1.2c-0.479,0-0.96,0-1.44,0
	c-0.146-0.014-0.283-0.036-0.238-0.239c-0.48,0-0.96,0-1.44,0c0-0.399,0-0.801,0-1.2c0-12.641,0-25.279,0-37.92
	c0.48,0,0.96,0,1.44,0c0.529-0.029,0.102-1.019,0.238-1.439c0.48,0,0.961,0,1.44,0c0.138-0.422-0.29-1.41,0.24-1.439
	c0.398,0,0.8,0,1.2,0c0.528-0.03,0.102-1.019,0.238-1.439c0.4,0,0.801,0,1.2,0c0.68,0.039-0.199-1.479,0.479-1.44
	c0.399,0,0.801,0,1.199,0c-0.062-0.164-0.099-0.312-0.119-0.449c0.021,0.137,0.058,0.284,0.119,0.449
	c0.507-0.028,0.145-0.928,0.23-1.377c0.029-0.021,0.058-0.045,0.091-0.064c3.583-0.148,7.782,0.316,10.959-0.237
	c0-0.399,0-0.801,0-1.2c0.56,0,1.12,0,1.68,0c0-3.92,0-7.84,0-11.76c0-0.96,0-1.92,0-2.88c0-4.4,0-8.8,0-13.2
	c0.304-1.344-0.454-1.626-1.68-1.439c-3.681,0-7.36,0-11.04,0c0-0.48,0-0.961,0-1.44c-0.561,0-1.12,0-1.68,0c0-0.4,0-0.8,0-1.2
	c0.038-0.68-1.479,0.199-1.44-0.479c0-0.4,0-0.8,0-1.2c-0.56,0-1.12,0-1.68,0c0-0.4,0-0.8,0-1.2c0.038-0.679-1.479,0.2-1.44-0.479
	c0-0.4,0-0.801,0-1.2c-0.56,0-1.119,0-1.68,0c0-0.4,0-0.8,0-1.2c0-12.16,0-24.32,0-36.48c0.479,0,0.96,0,1.439,0
	c0.529-0.029,0.103-1.018,0.239-1.439c0.479,0,0.96,0,1.44,0c0-0.48,0-0.96,0-1.44c0.56,0,1.119,0,1.68,0c0-0.479,0-0.96,0-1.439
	c0-0.48,0-0.96,0-1.44c0.479,0,0.96,0,1.439,0c0-0.479,0-0.96,0-1.439c0.479,0,0.96,0,1.439,0c0.53-0.03,0.103-1.019,0.24-1.44
	c3.68,0,7.359,0,11.04,0c0.56,0,1.12,0,1.68,0c0-0.479,0-0.96,0-1.44c0-3.84,0-7.68,0-11.52c14.801,0,29.601,0,44.4,0
	c0,12.96,0,25.92,0,38.88c-0.561,0-1.12,0-1.681,0c0,0.561,0,1.12,0,1.68c0,6.24,0,12.48,0,18.721c-0.561,0-1.12,0-1.681,0
	c0,0.479,0,0.96,0,1.439c-0.422,0.139-1.41-0.29-1.439,0.24c0,0.4,0,0.8,0,1.2c-0.561,0-1.12,0-1.68,0c0,0.479,0,0.96,0,1.439
	c-0.423,0.139-1.41-0.29-1.44,0.24c0,0.4,0,0.8,0,1.2c-0.56,0-1.119,0-1.68,0c0,0.479,0,0.96,0,1.44
	c-3.601,0.159-7.84-0.319-11.04,0.239c0,0.4,0,0.8,0,1.2c-0.479,0-0.96,0-1.439,0c-0.56,8.082-0.081,17.198-0.24,25.68
	c-0.08,1.28-0.195,2.597,1.439,2.16c0.08,0,0.16,0,0.24,0c0,0.399,0,0.8,0,1.2c0.104,0.536,1.183,0.097,1.681,0.239
	c3.119,0,6.239,0,9.359,0c0.08,0,0.159,0,0.239,0c0.479,0,0.96,0,1.439,0c0,0.479,0,0.96,0,1.439c0.479,0,0.96,0,1.44,0
	c0.138,0.422-0.291,1.41,0.239,1.44c0.422,0.138,1.409-0.29,1.439,0.239c0,0.399,0,0.801,0,1.199c0.479,0,0.96,0,1.439,0
	c0.139,0.423-0.29,1.41,0.239,1.44c0.48,0,0.96,0,1.44,0c0,0.479,0,0.96,0,1.439c0,13.04,0,26.079,0,39.119c-0.562,0-1.12,0-1.681,0
	c0,0.48,0,0.96,0,1.44c-0.423,0.138-1.41-0.29-1.439,0.239c0,0.399,0,0.801,0,1.2c-0.561,0-1.12,0-1.68,0c0,0.479,0,0.955,0,1.434
	c0,0,0,0-0.001,0.001c-0.001,0.002-0.005,0.004-0.007,0.007l0,0c-0.062,0.076-0.136,0.144-0.222,0.196
	c0.086-0.054,0.158-0.12,0.222-0.196c-0.426,0.132-1.402-0.288-1.434,0.239c0,0.399,0,0.8,0,1.199c-0.479,0-0.96,0-1.439,0
	c-3.698,0.062-7.699-0.181-11.04,0.239c-0.521-0.039-0.108,0.853-0.239,1.2c0,0.08,0,0.16,0,0.24c-0.4,0-0.801,0-1.2,0
	c-0.953,2.967-0.276,7.563-0.479,11.279c0,0.641,0,1.279,0,1.92c0.007,0.635-0.225,1.504,0.721,1.2c0.318,0,0.64,0,0.96,0
	c0,0.479,0,0.96,0,1.439c0.479,0,0.96,0,1.438,0c26.562,0,53.119,0,79.681,0c1.233,0.274,1.715-0.206,1.439-1.439
	c0.48,0,0.96,0,1.44,0c0.529-0.029,0.102-1.019,0.238-1.439c0.002-1.356,0-3.789,0-6.48c0.002-1.02,0.408-6.298,0-6.72
	c-0.368-0.382-1.559,0.309-1.68,0c0-0.479,0-0.96,0-1.439c-3.68,0-7.359,0-11.04,0c0-0.399,0-0.8,0-1.199c-0.56,0-1.12,0-1.68,0
	c0-0.08,0-0.16,0-0.24c0-0.399,0-0.8,0-1.2c-0.48,0-0.96,0-1.44,0c-0.014-0.146-0.036-0.283-0.238-0.239c-0.002-0.399,0-0.801,0-1.2
	c-0.48,0-0.962,0-1.44,0c0-0.079,0-0.159,0-0.239c0-0.4,0-0.801,0-1.2c-0.479,0-0.96,0-1.44,0c-0.014-0.146-0.034-0.284-0.238-0.24
	c-0.001-0.398,0-0.8,0-1.199c-0.48,0-0.96,0-1.44,0c0-12.641,0-25.279,0-37.92c0.48,0,0.96,0,1.44,0
	c0.529-0.029,0.102-1.019,0.238-1.439c0.48,0,0.961,0,1.44,0c0.138-0.422-0.29-1.41,0.24-1.439c0.398,0,0.8,0,1.2,0
	c0.528-0.03,0.102-1.019,0.238-1.439c0.48,0,0.96,0,1.44,0c0.138-0.423-0.29-1.41,0.239-1.44c0.479,0,0.961,0,1.439,0
	c0-0.479,0-0.96,0-1.439c3.601-0.159,7.84,0.318,11.04-0.239c-0.329-1.21,0.399-1.361,1.44-1.2c0.079,0,0.158,0,0.238,0
	c0-3.84,0-7.68,0-11.521c0-1.521,0-3.04,0-4.561c0-3.359,0-6.72,0-10.08c0-0.479,0-0.96,0-1.439c0-0.08,0-0.16,0-0.24
	c0.375-1.415-0.433-1.646-1.68-1.439c-3.68,0-7.36,0-11.04,0c0-0.4,0-0.801,0-1.2c-0.104-0.537-1.183-0.098-1.681-0.24
	c0-0.4,0-0.8,0-1.2c0.039-0.68-1.479,0.199-1.439-0.479c0-0.4,0-0.801,0-1.2c-0.561,0-1.12,0-1.68,0c0-0.4,0-0.8,0-1.2
	c0.039-0.679-1.479,0.2-1.44-0.479c0-0.4,0-0.801,0-1.2c-0.56,0-1.119,0-1.68,0c0-0.4,0-0.8,0-1.2c0-12.16,0-24.32,0-36.48
	c0.479,0,0.96,0,1.439,0c0.679,0.04-0.2-1.479,0.479-1.439c0.399,0,0.8,0,1.199,0c0-0.48,0-0.96,0-1.44c0.561,0,1.12,0,1.681,0
	c0-0.479,0-0.96,0-1.439c0-0.48,0-0.96,0-1.44c0.479,0,0.96,0,1.439,0c0-0.479,0-0.96,0-1.439c0.561,0,1.12,0,1.681,0
	c0-0.479,0-0.961,0-1.44c3.68,0,7.359,0,11.04,0c0.479,0,0.96,0,1.439,0c0.529-0.03,0.103-1.018,0.239-1.44c0-0.479,0-0.96,0-1.439
	c0-3.36,0-6.72,0-10.08c0-13.6,0-27.2,0-40.8c0-0.48,0-0.96,0-1.44c-0.561,0-1.119,0-1.68,0c-0.479,0-0.96,0-1.44,0
	c-0.138-0.422,0.291-1.41-0.239-1.439c-0.479,0-0.96,0-1.439,0c-0.561,0-1.12,0-1.68,0c0-0.48,0-0.96,0-1.44c-0.48,0-0.961,0-1.44,0
	c-0.08,0-0.159,0-0.239,0c0-0.479,0-0.96,0-1.44c-0.479,0-0.961,0-1.439,0c-0.479,0-0.96,0-1.44,0c0-0.479,0-0.96,0-1.439
	c-0.56,0-1.119,0-1.68,0s-1.12,0-1.681,0c0-0.48,0-0.96,0-1.44c-0.029-0.529-1.019-0.102-1.439-0.239c-0.08,0-0.159,0-0.239,0
	c-0.479,0-0.961,0-1.439,0c0-0.4,0-0.801,0-1.2c-0.03-0.53-1.02-0.103-1.44-0.24c0-0.479,0-0.96,0-1.44c-0.56,0-1.119,0-1.68,0
	c0.374-1.413-0.434-1.646-1.68-1.439c0-0.4,0-0.8,0-1.2c0-0.08,0-0.16,0-0.24c0-0.479,0-0.96,0-1.439c-0.48,0-0.961,0-1.44,0
	c0-0.48,0-0.96,0-1.44c0.304-1.344-0.454-1.626-1.68-1.439c0-0.4,0-0.801,0-1.2c0-0.08,0-0.16,0-0.24c0-0.479,0-0.96,0-1.439
	c0-0.48,0-0.96,0-1.44s0-0.96,0-1.44c-0.561,0-1.12,0-1.682,0c0-0.479,0-0.96,0-1.439c0-0.48,0-0.96,0-1.44c0-0.479,0-0.96,0-1.439
	c0-0.48,0-0.96,0-1.44c-0.479,0-0.959,0-1.438,0c0-0.479,0-0.96,0-1.439c0-2,0-4,0-6c0-0.4,0-0.801,0-1.2
	c0.422-0.139,1.41,0.29,1.438-0.24c0-0.4,0-0.8,0-1.2c0-0.08,0-0.16,0-0.239c0-0.4,0-0.801,0-1.2c0-0.08,0-0.16,0-0.24
	c0-0.4,0-0.8,0-1.2c0.562,0,1.12,0,1.682,0c0-0.479,0-0.96,0-1.439c0-0.08,0-0.16,0-0.24c0-0.4,0-0.8,0-1.2c0-0.48,0-0.96,0-1.44
	c0-0.079,0-0.159,0-0.239c0-0.4,0-0.8,0-1.2c0.56,0,1.12,0,1.68,0c0-0.48,0-0.96,0-1.44c0-0.08,0-0.16,0-0.239c0-0.48,0-0.96,0-1.44
	c0.479,0,0.96,0,1.44,0c0-0.48,0-0.96,0-1.44c0-0.479,0-0.96,0-1.439c0.479,0,0.959,0,1.438,0c0.53-0.03,0.103-1.019,0.24-1.44
	c0.479,0,0.96,0,1.439,0c0.53-0.029,0.103-1.018,0.239-1.439c0.48,0,0.96,0,1.439,0c0-0.48,0-0.96,0-1.44c0.479,0,0.961,0,1.44,0
	c0.529-0.03,0.103-1.018,0.239-1.439c0.479,0,0.96,0,1.439,0c0-0.48,0-0.96,0-1.44c0.561,0,1.12,0,1.681,0c0-0.479,0-0.96,0-1.44
	c0.479,0,0.96,0,1.439,0c0.08,0,0.159,0,0.239,0c0.479,0,0.961,0,1.439,0c0-0.479,0-0.96,0-1.438c0.479,0,0.96,0,1.44,0
	c0.529-0.03,0.102-1.019,0.239-1.44c0.423-0.138,1.41,0.29,1.439-0.239c0.561,0,1.12,0,1.68,0c0-0.4,0-0.801,0-1.2
	c0.562,0,1.12,0,1.681,0c0.479,0,0.961,0,1.439,0c0-0.48,0-0.96,0-1.44c0.497-0.143,1.577,0.297,1.681-0.239c0.479,0,0.96,0,1.439,0
	c0-0.4,0-0.801,0-1.2c0.08,0,0.16,0,0.24,0c0.479,0,0.96,0,1.439,0c1.303,0.183,1.859-0.38,3.119-0.24c0-0.4,0-0.8,0-1.2
	c3.682,0,7.36,0,11.04,0c0,0.4,0,0.8,0,1.2c0.647,0.472,2.099,0.143,3.12,0.24c0.561,0,1.12,0,1.681,0s1.12,0,1.681,0
	c0.479,0,0.96,0,1.439,0c-0.305,1.344,0.453,1.626,1.68,1.439c0.561,0,1.121,0,1.681,0c0,0.4,0,0.8,0,1.2
	c1.544,0.056,2.814,0.385,4.561,0.24c0.08,0,0.16,0,0.239,0c0.48,0,0.961,0,1.44,0c0,0.399-0.001,0.8,0,1.2
	c0.309,0.331,1.042,0.236,1.68,0.239c0,0.48,0,0.96,0,1.44c1.234-0.274,1.714,0.206,1.44,1.438c0.56,0,1.119,0,1.68,0
	c0,0.48,0,0.961,0,1.44c0.561,0,1.12,0,1.681,0c0.479,0,0.96,0,1.439,0c0.138,0.422-0.29,1.41,0.239,1.44
	c0.422,0.138,1.41-0.29,1.439,0.239c0,0.4,0,0.801,0,1.2c0.479,0,0.96,0,1.44,0c0.138,0.422-0.29,1.41,0.239,1.44
	c0.479,0,0.96,0,1.439,0c0,0.479,0,0.96,0,1.439c0,0.48,0,0.96,0,1.44c0.561,0,1.12,0,1.68,0c0,0.479,0,0.96,0,1.439
	c0.48,0,0.961,0,1.44,0c0,0.48,0,0.96,0,1.44c0.002,0.637-0.091,1.371,0.239,1.68c0.479,0,0.961,0,1.439,0c0,0.4,0,0.8,0,1.2
	c0,0.08,0,0.16,0,0.24c0,0.399,0,0.8,0,1.2c0.48,0,0.96,0,1.44,0c0,0.479,0,0.96,0,1.439c0,0.48,0,0.96,0,1.44
	c0.275,0.284,0.271,0.848,0.239,1.439c0.479,0,0.959,0,1.439,0c0,0.08,0,0.16,0,0.24c0,0.48,0,0.96,0,1.44c0,0.88,0,1.76,0,2.64
	c0,3.44,0,6.88,0,10.32c0,0.479,0,0.96,0,1.439c0,0.48,0,0.96,0,1.44c-0.48,0-0.96,0-1.439,0c0,0.479,0,0.96,0,1.439
	c-0.529,0.03-0.103,1.019-0.239,1.44c0,0.56,0,1.12,0,1.68c0,0.4,0,0.801,0,1.2c-0.48,0-0.96,0-1.44,0c0,0.48,0,0.96,0,1.44
	c0,0.08,0,0.16,0,0.239c0,0.4,0,0.801,0,1.2c0,0.08,0,0.16,0,0.24c0,0.4,0,0.8,0,1.2c-1.226-0.187-1.982,0.096-1.68,1.439
	c0,0.08,0,0.16,0,0.24c-0.48,0-0.96,0-1.44,0c0,0.4,0,0.8,0,1.2c0,0.08,0,0.16,0,0.24c0,0.399,0,0.8,0,1.199
	c-0.479,0-0.96,0-1.438,0c-0.475,0.168,0.059,1.34-0.48,1.44c-0.479,0-0.96,0-1.438,0c0,0.08,0,0.16,0,0.24c-0.48,0-0.961,0-1.44,0
	c0.561,1.599-1.081,0.999-1.68,1.439c0,0.48,0,0.96,0,1.44c-0.48,0-0.96,0-1.439,0c0,0.479,0,0.96,0,1.439c-0.561,0-1.12,0-1.681,0
	c0,0.48,0,0.961,0,1.44c-0.479,0-0.96,0-1.439,0c-0.08,0-0.159,0-0.239,0c-0.48,0-0.961,0-1.44,0c0,0.48,0,0.96,0,1.44
	c-0.479,0-0.96,0-1.439,0c-0.08,0-0.159,0-0.239,0c-0.479,0-0.96,0-1.439,0c0,0.479,0,0.96,0,1.439c-0.08,0-0.16,0-0.24,0
	c-0.963,0.062-1.271-0.27-1.439,0.48c-0.264,1.174,0.042,1.007-1.439,0.96c-0.439,3.163-0.24,6.323-0.24,9.6
	c0.001,9.974,0,20.193,0,30c-0.409,1.369,0.632,1.289,1.682,1.2c0,59.439,0,118.881,0,178.32c0,0.08,0,0.159,0,0.239
	c0,0.4,0,0.801,0,1.2c0.028,0.53,1.018,0.103,1.438,0.24c0.08,0,0.16,0,0.24,0c0,0.159,0,0.319,0,0.479c0,0.16,0,0.32,0,0.48
	c2.28,0.439,4.563,0.239,6.96,0.239c6.779,0.001,14.498,0,21.601,0c0,16.961,0,33.92,0,50.881c-129.194,0-258.409,0-387.601,0
	c-0.497,0.143-1.576-0.297-1.681,0.239c-0.319,0-0.641,0-0.96,0c-1.011-0.37-0.038,1.241-0.721,1.199c0,0.641,0,1.28,0,1.92
	c0,40.481,0,80.961,0,121.44c-24.239,0-48.479,0-72.72,0c0-41.119,0-82.241,0-123.36c0-0.479,0-0.96,0-1.438
	c-0.561,0-1.12,0-1.681,0c-0.08,0-0.159,0-0.239,0c-40.721,0-81.44,0-122.16,0c-1.04,0-2.08,0-3.12,0c-91.604,0-183.197,0-274.8,0
	c-0.48,0-0.96,0-1.44,0c-6.96,0-13.92,0-20.88,0c-1.396-0.276-1.956,0.284-1.68,1.68c0,5.76,0,11.521,0,17.28
	c0,0.479,0,0.96,0,1.438c-0.48,0-0.96,0-1.44,0c0,0.48,0,0.96,0,1.44c-0.48,0-0.96,0-1.44,0c-0.53,0.029-0.102,1.018-0.24,1.439
	c-0.48,0-0.96,0-1.44,0c-0.138,0.422,0.29,1.409-0.24,1.439c-0.48,0-0.96,0-1.44,0c0,0.479,0,0.96,0,1.439c-0.48,0-0.96,0-1.44,0
	c-0.53,0.029-0.102,1.019-0.24,1.439c-3.12,0-6.24,0-9.36,0c-0.498,0.144-1.577-0.297-1.68,0.24c0,0.399,0,0.8,0,1.2
	c0,0.08,0,0.159,0,0.239c0,8.641,0,17.279,0,25.92c0,0.479,0,0.96,0,1.439c0.104,0.536,1.183,0.099,1.68,0.24c3.12,0,6.24,0,9.36,0
	c0,0.479,0,0.96,0,1.439c0.56,0,1.12,0,1.68,0c0,0.399,0,0.8,0,1.199c0.103,0.537,1.183,0.099,1.68,0.24c0,0.399,0,0.8,0,1.2
	c0.03,0.529,1.018,0.102,1.44,0.239c0,0.479,0,0.96,0,1.439c0.56,0,1.12,0,1.68,0c0,0.4,0,0.8,0,1.2
	c0.03,0.53,1.018,0.102,1.44,0.239c0,0.479,0,0.961,0,1.439c0,5.761-0.29,18.69,0.24,18.721c0.48,0,14.08,0,20.4,0
	c0,9.675-0.27,26.469-0.24,40.561c-21.52,0-43.04,0-64.56,0c0-3.84,0.29-12.931-0.24-12.96c-0.48,0-0.96,0-1.44,0
	c-0.08,0-0.16,0-0.24,0c-3.12,0-6.24,0-9.36,0c0-0.48,0-0.96,0-1.44c-0.48,0-0.96,0-1.44,0c-0.138-0.422,0.29-1.409-0.24-1.438
	c-0.48,0-0.96,0-1.44,0c-0.08,0-0.16,0-0.24,0c0-0.48,0-0.96,0-1.44c-0.48,0-0.96,0-1.44,0s-0.96,0-1.44,0
	c-0.138-0.422,0.29-1.41-0.24-1.439c-0.48,0-0.96,0-1.44,0c0-0.479,0-0.96,0-1.439c-0.48,0-0.96,0-1.44,0c0-6.32,0-12.64,0-18.96
	c0.48,0,0.96,0,1.44,0c0-0.479,0-0.96,0-1.44c0-6.238,0-12.479,0-18.72c0.56,0,1.12,0,1.68,0c0-0.479,0-0.96,0-1.439
	c0.422-0.139,1.41,0.291,1.44-0.239c0-0.4,0-0.8,0-1.2c1.226,0.187,1.983-0.097,1.68-1.439c0-0.08,0-0.159,0-0.239
	c0.48,0,0.96,0,1.44,0c0-0.4,0-0.801,0-1.2c0.53-0.03,0.102-1.019,0.24-1.44c0.48,0,0.96,0,1.44,0c3.2,0,6.4,0,9.6,0
	c1.226,0.187,1.983-0.096,1.68-1.438c0-8.721,0-17.44,0-26.16c0-0.561,0-1.12,0-1.68c-0.64,0-1.28,0-1.92,0c-3.12,0-6.24,0-9.36,0
	c0-0.4,0-0.802,0-1.2c-0.53-0.549-1.071,0.036-1.44-0.48c-0.271-0.379,0.377-0.871-0.24-1.199c-0.48,0-0.96,0-1.44,0
	c-0.138-0.422,0.29-1.41-0.24-1.439c-0.48,0-0.96,0-1.44,0c0-0.479,0-0.96,0-1.439c-0.48,0-0.96,0-1.44,0
	c-0.138-0.423,0.29-1.41-0.24-1.439c-0.48,0-0.96,0-1.44,0c0-0.48,0-0.96,0-1.44c0-5.84,0-11.68,0-17.52c0-0.4,0-0.801,0-1.2
	c0-0.08,0-0.16,0-0.24c-0.4,0-0.8,0-1.2,0c-0.539-0.101-0.006-1.272-0.48-1.438c-14.24,0-28.48,0-42.72,0
	c-0.474,0.166,0.059,1.339-0.48,1.438c-0.454,0.106-1.447-0.326-1.2,0.48c0,0.398,0,0.8,0,1.199c0,5.279,0,10.561,0,15.841
	c0,0.479,0,0.96,0,1.438c0,0.48,0,0.96,0,1.44c-0.48,0-0.96,0-1.44,0c-0.53,0.029-0.102,1.018-0.24,1.438c-0.48,0-0.96,0-1.44,0
	c-0.53,0.03-0.102,1.02-0.24,1.44c-0.48,0-0.96,0-1.44,0c-0.138,0.422,0.29,1.41-0.24,1.439c-0.4,0-0.8,0-1.2,0
	c-0.53,0.029-0.102,1.019-0.24,1.439c-0.422,0.138-1.41-0.29-1.44,0.24c0,0.398,0,0.8,0,1.2c-0.56,0-1.12,0-1.68,0
	c-3.2,0-6.4,0-9.6,0c-0.422,0.138-1.41-0.291-1.44,0.238c0,0.4,0,0.801,0,1.2c0,3.92,0,7.84,0,11.761c0,0.96,0,1.92,0,2.88
	c0,3.841,0,7.681,0,11.521c0.03,0.53,1.018,0.103,1.44,0.24c0,0.479,0,0.96,0,1.438c3.76,0,7.52,0,11.28,0c0,0.4,0,0.801,0,1.2
	c0,0.08,0,0.16,0,0.24c0.48,0,0.96,0,1.44,0c0,0.479,0,0.96,0,1.439c0.56,0,1.12,0,1.68,0c0,0.399,0,0.8,0,1.199
	c0.03,0.53,1.018,0.104,1.44,0.24c0,0.479,0,0.96,0,1.439c0.56,0,1.12,0,1.68,0c0,0.479,0,0.961,0,1.439
	c0.498,0.144,1.577-0.297,1.68,0.24c0,6.16,0,12.319,0,18.479c0,0.48,0,0.961,0,1.44c0,5.36,0,10.72,0,16.08c0,0.479,0,0.96,0,1.439
	c-0.48,0-0.96,0-1.44,0c-0.53,0.029-0.102,1.019-0.24,1.439c-0.48,0-0.96,0-1.44,0c-0.53,0.03-0.102,1.019-0.24,1.439
	c-0.48,0-0.96,0-1.44,0c-0.138,0.423,0.29,1.409-0.24,1.439c-0.4,0-0.8,0-1.2,0c-0.53,0.03-0.102,1.02-0.24,1.44
	c-0.48,0-0.96,0-1.44,0c-0.138,0.422,0.29,1.41-0.24,1.438c-0.48,0-0.96,0-1.44,0c0,0.48,0,0.96,0,1.44c-0.48,0-0.96,0-1.44,0
	c-2.64,0-10.24,0-10.56,0c-0.801-0.241-0.787,0.333-0.72,0.96c0,0.56,0,1.12,0,1.68c-0.16,3.36,0.319,7.359-0.24,10.32
	c-11.04,0-22.08,0-33.12,0c0.043-52.81,0.079-104.201,0-156.96c0-0.88,0-1.761,0-2.641c-2.137,0.588-1.054-1.143-1.68-1.439
	c-0.48,0-0.96,0-1.44,0c-19.041,0-38.08,0-57.12,0c0-4.32,0-8.641,0-12.96c0-0.08,0-0.16,0-0.24c0-0.399,0-0.8,0-1.2
	c-0.56,0-1.12,0-1.68,0c-3.201-0.56-7.439-0.08-11.04-0.239c0-0.399,0-0.801,0-1.199c-0.03-0.53-1.018-0.104-1.44-0.24
	c0.304-1.344-0.454-1.626-1.68-1.439c-0.08,0-0.16,0-0.24,0c0-0.399,0-0.801,0-1.199c-0.48,0-0.96,0-1.44,0
	c-0.337-0.766-0.99,0.172-1.44-0.24c-0.327-0.3,0.317-1.153-0.24-1.44c-0.48,0-0.96,0-1.44,0c0-0.398,0-0.8,0-1.199
	c-0.103-0.536-1.183-0.098-1.68-0.239c0-0.48,0-0.96,0-1.44c0.32,0,0.64,0,0.96,0c1.148,0.35,0.596-1.004,0.72-1.68
	c0-5.2,0-10.4,0-15.601c-0.56,0-1.12,0-1.68,0c0-0.08,0-0.159,0-0.239c0-0.4,0-0.801,0-1.2c-0.104-0.537-1.183-0.098-1.68-0.24
	c-2.88,0-5.76,0-8.64,0c-1.348,0-2.709,0-4.32,0c-0.765,0-3.733,0.464-4.32-0.239c-0.171-0.204,0-2.76,0-3.841
	c0-9.036,0-20.164,0-27.6c0.56,0,1.12,0,1.68,0c2.08,0,4.16,0,6.24,0c1.04,0,2.08,0,3.12,0c0,0.16,0,0.319,0,0.479
	c0,0.159,0,0.319,0,0.479c0.104,0.536,1.183,0.097,1.68,0.24c0.495-0.146,1.667,0.387,1.44-0.48c0-0.239,0-0.479,0-0.72
	c0.204,0.044,0.227-0.094,0.24-0.24c0.4,0,0.8,0,1.2,0c0.56-3.359,0.081-7.76,0.24-11.521c0.495-0.146,1.667,0.388,1.44-0.479
	c0-0.319,0-0.64,0-0.96c0.08,0,0.16,0,0.24,0c0.48,0,0.96,0,1.44,0c0.138-0.422-0.29-1.41,0.24-1.439c0.48,0,0.96,0,1.44,0
	c0-0.479,0-0.96,0-1.439c0.48,0,0.96,0,1.44,0c0.53-0.03,0.102-1.019,0.24-1.44c0.48,0,0.96,0,1.44,0c0-0.479,0-0.96,0-1.438
	c0.56,0,1.12,0,1.68,0c5.76,0,11.52,0,17.28,0c0.56,0,1.12,0,1.68,0c0.48,0,0.96,0,1.44,0c0.08,0,0.16,0,0.24,0
	c6.32,0,12.64,0,18.96,0c0,0.479,0,0.96,0,1.438c0.48,0,0.96,0,1.44,0c0.08,0,0.16,0,0.24,0c0.48,0,0.96,0,1.44,0
	c0.138,0.423-0.29,1.41,0.24,1.44c0.48,0,0.96,0,1.44,0c0,0.479,0,0.96,0,1.439c0.48,0,0.96,0,1.44,0
	c0.138,0.422-0.29,1.409,0.24,1.439c0.48,0,0.96,0,1.44,0c0,0.479,0,0.96,0,1.439c0.56,0,1.12,0,1.68,0c0,3.359,0,6.721,0,10.08
	c0,0.479,0,0.96,0,1.439c0.03,0.53,1.018,0.103,1.44,0.24c0,0.16,0,0.319,0,0.479c0,0.159,0,0.319,0,0.479
	c0.711,0.862,2.22,0.456,3.36,0.479c3.34,0.068,7.85,0.142,11.04-0.239c1.041,0.16,1.769,0.009,1.44-1.2
	c0.537-0.104,0.097-1.183,0.24-1.681c0-25.12,0-50.239,0-75.359c-0.138-0.422,0.29-1.41-0.24-1.44c-0.48,0-0.96,0-1.44,0
	c0-0.319,0-0.64,0-0.96c0.227-0.866-0.945-0.334-1.44-0.479c-3.2,0-6.4,0-9.6,0c-0.64,0-1.28,0-1.92,0
	c-0.634,0.006-1.503-0.225-1.2,0.72c0,0.24,0,0.48,0,0.72c-0.08,0-0.16,0-0.24,0c-0.48,0-0.96,0-1.44,0c0,0.48,0,0.96,0,1.44
	c0,2.88,0,5.76,0,8.64c-0.56,0-1.12,0-1.68,0c0,0.48,0,0.96,0,1.44c0,0.08,0,0.16,0,0.24c-0.48,0-0.96,0-1.44,0
	c0,0.399,0,0.8,0,1.199c-0.146,0.015-0.284,0.036-0.24,0.24c-0.48,0-0.96,0-1.44,0c0,0.4,0,0.8,0,1.2c0,0.08,0,0.16,0,0.24
	c-0.48,0-0.96,0-1.44,0c0,0.399,0,0.8,0,1.199c-0.146,0.015-0.284,0.036-0.24,0.24c-0.48,0-0.96,0-1.44,0c0,0.4,0,0.8,0,1.2
	c-0.146,0.014-0.284,0.036-0.24,0.24c-0.48,0-0.96,0-1.44,0c0,0.399,0,0.8,0,1.2c-0.56,0-1.12,0-1.68,0c-2.08,0-4.16,0-6.24,0
	c0-0.24,0-0.48,0-0.721c0.046-0.926-1.504-0.255-1.92-0.72c-2,0-4,0-6,0c-1.04,0-2.08,0-3.12,0c-0.56,0-1.12,0-1.68,0
	c-6.88,0-13.76,0-20.64,0c0-0.399,0-0.8,0-1.2c-0.03-0.529-1.018-0.102-1.44-0.239c-0.08,0-0.16,0-0.24,0c0-0.4,0-0.801,0-1.2
	c-0.48,0-0.96,0-1.44,0c-0.103-0.537-1.183-0.098-1.68-0.24c0-0.4,0-0.8,0-1.2c-0.03-0.53-1.018-0.102-1.44-0.24
	c0-0.479,0-0.96,0-1.439c-0.56,0-1.12,0-1.68,0c0-0.48,0-0.96,0-1.44c0-3.359,0-6.72,0-10.08c-0.48,0-0.96,0-1.44,0
	c-0.08,0-0.16,0-0.24,0c-0.48,0-0.96,0-1.44,0c-0.08,0-0.16,0-0.24,0c0-0.239,0-0.479,0-0.72c0.25-1.371-1.785-0.456-2.64-0.72
	c-3.28,0-6.56,0-9.84,0c0-1.521,0-3.04,0-4.561c1.939,0.222,4.018,0.304,6.24,0.24c1.6,0,3.2,0,4.8,0c1.12,0,2.24,0,3.36,0
	c0-0.479,0-0.96,0-1.439c0.24,0,0.48,0,0.72,0c1.281,0.32,0.514-1.406,0.72-2.16c0-2.641,0-5.28,0-7.92c0-0.08,0-0.16,0-0.24
	c0-0.48,0-0.96,0-1.44c0.48,0,0.96,0,1.44,0c0.53-0.029,0.102-1.018,0.24-1.439c0.48,0,0.96,0,1.44,0c0-0.48,0-0.96,0-1.44
	c0.56,0,1.12,0,1.68,0c0-0.479,0-0.96,0-1.439c0.48,0,0.96,0,1.44,0c0.08,0,0.16,0,0.24,0c0.48,0,0.96,0,1.44,0
	c0-0.48,0-0.96,0-1.44c6.32,0,12.64,0,18.96,0c1.247,0.207,2.054-0.025,1.68-1.439c0.48,0,0.96,0,1.44,0
	c0.559-2.401,0.081-5.839,0.24-8.641c0-2.88,0-5.76,0-8.64c29.074,0,58.683,0,88.08,0c1.756,0,3.751,0.199,5.52-0.24
	c0-0.4,0-0.8,0-1.2c0-0.08,0-0.159,0-0.239c0-13.04,0-26.08,0-39.12c0-0.48,0-0.96,0-1.44c-0.48,0-0.96,0-1.44,0
	c-0.56,0-1.12,0-1.68,0c-0.48,0-0.96,0-1.44,0c-0.56,0-1.12,0-1.68,0s-1.12,0-1.68,0c0-0.479,0-0.96,0-1.439
	C268.071,553.089,267.591,553.089,267.111,553.089z M1160.186,744.945c0.1,0.008,0.178-0.005,0.261-0.015
	C1160.362,744.94,1160.284,744.953,1160.186,744.945z M1160.583,744.925c0.11-0.022,0.205-0.062,0.288-0.112
	C1160.788,744.861,1160.693,744.901,1160.583,744.925z M1110.115,694.581c-0.019,0.092-0.017,0.195-0.006,0.304
	C1110.1,694.775,1110.099,694.673,1110.115,694.581z M1052.186,660.705c0.1,0.007,0.178-0.005,0.261-0.013
	C1052.362,660.7,1052.284,660.713,1052.186,660.705z M1158.295,748.118c-0.008-0.118-0.027-0.246-0.063-0.39
	C1158.268,747.872,1158.287,748,1158.295,748.118z M1158.292,748.183c0.002,0.096-0.003,0.185-0.021,0.264
	C1158.29,748.366,1158.294,748.276,1158.292,748.183z M1158.261,748.482c-0.021,0.084-0.051,0.159-0.092,0.228
	C1158.21,748.643,1158.239,748.565,1158.261,748.482z M1158.159,748.725c-0.046,0.071-0.101,0.137-0.167,0.19
	C1158.059,748.86,1158.113,748.796,1158.159,748.725z M1157.976,748.929c-0.595,0.479-1.919,0.354-3.138,0.277
	C1156.055,749.28,1157.381,749.407,1157.976,748.929z M1154.586,749.191c-0.062-0.005-0.126-0.008-0.188-0.011
	C1154.46,749.185,1154.521,749.188,1154.586,749.191z M1053.111,746.042c0.249-0.308,0.342-0.772,0.479-1.192
	C1053.453,745.27,1053.36,745.734,1053.111,746.042L1053.111,746.042z M1061.097,702.017c-0.009,0.105-0.028,0.222-0.064,0.354
	C1061.067,702.237,1061.085,702.124,1061.097,702.017z M1061.238,716.28c0.003,0.729,0.013,1.455,0.031,2.169
	C1061.251,717.735,1061.242,717.011,1061.238,716.28z M1061.238,716.07c-0.017-4.803,0.229-9.864-0.143-14.312
	c-0.001-0.005,0-0.012-0.001-0.017C1061.469,706.193,1061.225,711.261,1061.238,716.07z M1060.18,701.121
	c-0.035,0-0.07,0-0.107,0.002C1060.108,701.121,1060.145,701.121,1060.18,701.121z M1060.93,701.354
	c-0.017-0.017-0.031-0.032-0.051-0.048C1060.896,701.321,1060.914,701.338,1060.93,701.354z M1061.088,701.64L1061.088,701.64
	c0-0.001-0.001-0.001-0.001-0.002C1061.087,701.639,1061.088,701.639,1061.088,701.64z M1081.633,620.975
	c-0.063-8.473,0.022-17.102,0.26-25.135c0,0.001,0,0.002,0,0.002C1081.655,603.874,1081.568,612.507,1081.633,620.975z
	 M1081.781,630.996c-0.027-1.217-0.048-2.453-0.068-3.688C1081.733,628.543,1081.754,629.779,1081.781,630.996z M1081.689,626.016
	c-0.024-1.586-0.041-3.186-0.055-4.79C1081.648,622.83,1081.666,624.429,1081.689,626.016z M1081.931,596.192
	c-0.002-0.021-0.005-0.043-0.007-0.064C1081.926,596.149,1081.929,596.171,1081.931,596.192z M1081.983,595.37
	c-0.007,0.004-0.01,0.01-0.014,0.015C1081.975,595.38,1081.979,595.374,1081.983,595.37z M1081.9,595.506c0,0,0,0.001,0,0.002
	c0.004-0.138,0.007-0.281,0.011-0.419C1081.907,595.227,1081.904,595.369,1081.9,595.506z M1081.933,596.234
	c0.009,0.112,0.007,0.218-0.021,0.295C1081.939,596.453,1081.939,596.348,1081.933,596.234z M1164.311,741.907L1164.311,741.907
	c0,0-0.002,0.002-0.002,0.003C1164.309,741.909,1164.309,741.908,1164.311,741.907z M290.631,744.604
	c0.25-0.309,0.342-0.773,0.48-1.193C290.973,743.829,290.88,744.295,290.631,744.604L290.631,744.604z M357.305,595.468
	c0.021,0.025,0.028,0.065,0.042,0.098C357.333,595.533,357.326,595.494,357.305,595.468z M290.625,744.609
	c-0.063,0.075-0.136,0.144-0.222,0.196C290.49,744.753,290.563,744.686,290.625,744.609L290.625,744.609z M289.706,744.945
	c0.11,0.009,0.199-0.004,0.29-0.016C289.905,744.941,289.815,744.954,289.706,744.945z M290.104,744.925
	c0.104-0.021,0.191-0.061,0.271-0.106C290.295,744.863,290.208,744.902,290.104,744.925z M511.458,657.439
	c0.108-0.147,0.189-0.321,0.255-0.512C511.647,657.118,511.566,657.292,511.458,657.439z M511.203,657.688
	c0.074-0.047,0.135-0.106,0.191-0.171C511.338,657.58,511.277,657.64,511.203,657.688z M510.506,657.825
	c0.064,0.005,0.113-0.007,0.17-0.009C510.619,657.818,510.57,657.83,510.506,657.825z M510.903,657.804
	c0.094-0.02,0.171-0.057,0.245-0.096C511.074,657.748,510.998,657.785,510.903,657.804z M948.471,721.329
	c-0.02,0.766-0.027,1.541-0.03,2.322C948.442,722.87,948.451,722.095,948.471,721.329z M948.501,734.274
	c0.022-2.654-0.034-5.389-0.056-8.087C948.469,728.888,948.521,731.619,948.501,734.274z M948.445,726.157
	c-0.005-0.661-0.008-1.318-0.006-1.975C948.438,724.839,948.439,725.496,948.445,726.157z M948.462,736.431
	c0.019-0.638,0.029-1.281,0.036-1.932C948.492,735.148,948.48,735.793,948.462,736.431z M1053.133,660.328
	c0.23-0.309,0.325-0.753,0.458-1.159C1053.458,659.575,1053.363,660.021,1053.133,660.328z M1052.881,746.247
	c-0.258,0.159-0.633,0.202-1.21,0.042C1052.248,746.449,1052.623,746.406,1052.881,746.247z M1053.069,746.081
	c-0.056,0.062-0.113,0.12-0.186,0.165C1052.956,746.201,1053.015,746.143,1053.069,746.081z M1110.226,693.729L1110.226,693.729
	c-0.062,0.076-0.136,0.144-0.222,0.196C1110.09,693.872,1110.163,693.806,1110.226,693.729z M1109.906,693.965
	c-0.064,0.03-0.125,0.063-0.201,0.079C1109.781,694.028,1109.842,693.995,1109.906,693.965z M1109.379,694.062
	c-0.025-0.002-0.045,0.006-0.072,0.004C1109.334,694.067,1109.354,694.061,1109.379,694.062z M1110.234,694.271
	c-0.051,0.077-0.083,0.166-0.105,0.262C1110.15,694.438,1110.186,694.351,1110.234,694.271z M1115.136,693.716
	c-0.079-0.003-0.161-0.006-0.241-0.01C1114.976,693.71,1115.056,693.713,1115.136,693.716z M1114.54,693.689
	c-1.036-0.054-2.14-0.127-2.989-0.021C1112.401,693.562,1113.502,693.636,1114.54,693.689z M1111.534,693.673
	c-0.396,0.051-0.733,0.143-0.982,0.293C1110.801,693.814,1111.14,693.724,1111.534,693.673z M1110.23,693.724L1110.23,693.724
	c0.25-0.309,0.343-0.772,0.479-1.193C1110.573,692.95,1110.48,693.415,1110.23,693.724z M1110.46,694.033
	c-0.085,0.062-0.155,0.139-0.212,0.222C1110.304,694.171,1110.375,694.097,1110.46,694.033z M1164.472,740.8
	c0.003-0.014,0.007-0.026,0.011-0.04C1164.479,740.771,1164.475,740.786,1164.472,740.8z M1164.539,740.646
	c0.009-0.014,0.016-0.027,0.025-0.037C1164.555,740.618,1164.548,740.633,1164.539,740.646z M1164.392,741.791
	C1164.392,741.792,1164.392,741.792,1164.392,741.791c0,0,0-0.001,0.001-0.002C1164.393,741.79,1164.392,741.791,1164.392,741.791z
	 M1164.23,742.898c-0.004,0.014-0.008,0.026-0.011,0.039C1164.225,742.926,1164.229,742.912,1164.23,742.898z M1164.163,743.054
	c-0.009,0.013-0.017,0.026-0.025,0.037C1164.146,743.08,1164.154,743.065,1164.163,743.054z M1161.133,744.568
	c0.23-0.309,0.325-0.753,0.458-1.159C1161.458,743.815,1161.363,744.261,1161.133,744.568z M1052.583,660.685
	c0.11-0.022,0.205-0.062,0.288-0.113C1052.788,660.622,1052.693,660.661,1052.583,660.685z M827.511,953.409
	c-0.03,0.094-0.033,0.214-0.027,0.342C827.479,953.623,827.48,953.503,827.511,953.409z M827.521,954.221
	c-0.015-0.121-0.025-0.24-0.034-0.356C827.496,953.979,827.508,954.1,827.521,954.221z M827.417,955.019
	c-0.022,0.022-0.049,0.041-0.08,0.056C827.369,955.061,827.394,955.04,827.417,955.019z M827.269,955.094
	c-0.063,0.014-0.139,0.017-0.236-0.005C827.13,955.109,827.203,955.105,827.269,955.094z M827.521,954.229L827.521,954.229
	c0.536-40.294,0.069-81.59,0.229-122.261C827.592,872.64,828.059,913.938,827.521,954.229z M827.516,954.847L827.516,954.847
	c-0.002,0.16-0.003,0.322-0.005,0.482C827.513,955.169,827.514,955.007,827.516,954.847z M1264.542,596.245
	c0.005,0.016,0.004,0.026,0.009,0.044c-0.005-0.016-0.004-0.027-0.009-0.042V596.245z M1265.318,595.293
	c0.019,0,0.037,0,0.058,0.001C1265.355,595.293,1265.338,595.293,1265.318,595.293z M1264.547,595.597L1264.547,595.597
	L1264.547,595.597L1264.547,595.597z M1264.531,597.721c-0.521,58.677-0.063,118.329-0.221,177.368
	C1264.469,716.05,1264.01,656.396,1264.531,597.721z"/>
<rect x="136.672" y="595.777" fill="#09252E" width="1249.879" height="357.405"/>
<ellipse fill="#09252E" cx="294.264" cy="521.485" rx="49.463" ry="47.803"/>
<ellipse fill="#09252E" cx="1244.997" cy="522.861" rx="48.379" ry="46.595"/>
<rect x="273.285" y="552.433" fill="#09252E" width="46.094" height="39.75"/>
<rect x="1227.78" y="553.553" fill="#09252E" width="38.453" height="38.667"/>
<path fill="#144D60" d="M1266.254,592.214c0.006,8.219-0.006,185.593-0.006,185.753c4.312-0.004,19.709-0.047,26.811-0.047
	c0,16.961,0,33.92,0,50.881c-129.194,0-390.127-0.25-390.811-0.292c0,0.641-0.03,90.609-0.03,131.09
	c-24.237,0-48.677-0.104-72.917-0.104c0-41.119,0.078-130.215,0.078-130.694c-0.561,0-418.837,0.166-425.797,0.166
	c-0.031,7.2-0.073,20.611-0.073,21.091c-0.912,1.375-3.755,5.953-4.646,7.781c-3.12,0-9.65,0.01-12.771,0.01
	c-0.017,1.876,0.025,28.814,0.042,31.5c3.12,0,9.609-0.041,12.729-0.041c0.547,1.031,3.859,6.328,4.729,7.771
	c0,0.479,0.021,13.334,0.026,15.962c0.48,0,14.08,0,20.399,0c0,9.675-0.015,38.346-0.015,46.471c-21.52,0-43.339-0.016-64.859-0.016
	c0-3.84-0.006-16.91-0.005-18.799c-0.48,0-9.661-0.031-12.781-0.031c-0.844-1.141-5.266-6.562-6.328-7.781
	c0-6.319-0.042-29.522-0.042-35.764c1-1.188,5.797-6.781,6.594-7.781c0.48,0,8.313-0.052,12.75-0.031
	c0-8.721-0.113-30.906-0.113-31.467c-0.64,0-9.631-0.033-12.751-0.033c-0.979-1.167-5.563-6.792-6.417-7.709
	c0-0.479-0.042-21.045-0.042-21.125c-0.4,0-31.802-0.041-46.042-0.041c-0.026,2.841-0.021,20.688-0.021,21.167
	c-0.48,0-7.813,7.351-7.813,7.75c-0.56,0-9.792,0-12.75,0c0,0.4,0.042,31.021,0.042,31.501c3.76,0,9.037-0.012,12.797-0.012
	c0.807,0.885,6.656,6.781,7.641,7.734c0,0.479,0.057,35.314,0.057,35.795c-1.125,0.938-7.813,6.844-8.844,7.812
	c-0.48,0-12.43,0-12.75,0c-0.006,2.868-0.01,14.53-0.026,18.83c-11.04,0-23.022-0.016-34.063-0.016
	c0.043-52.811-0.073-166.065-0.073-166.945c-7.343,0.05-41.106,0.011-60.146,0.011c0-4.319,0.063-14.275,0.063-14.677
	c-0.56,0-11.99-0.016-17.708-0.016c-1.5-1.422-4.438-4.484-7.781-7.375c0-0.48-0.016-15.112-0.016-20.313
	c-0.56,0-16.115,0.08-18.995,0.08c-0.005-8.062-0.047-24.455-0.047-31.891c0.56,0,18.642,0.076,19.042,0.076
	c0-4.172-0.002-8.685,0-12.767c1.469-1.125,6.703-5.141,7.813-6c0.56,0,36.883,0.017,43.203,0.017
	c0.75,0.688,6.766,5.391,7.781,6.188c0,3.36,0,12.271,0,12.75c4.87-0.017,10.184-0.007,17.469,0
	c-0.016-3.641-0.016-53.349-0.016-78.469c-6.156,0-16.968-0.005-17.448-0.005c0,0.479-0.005,9.875-0.005,12.755
	c-1.484,0.797-6.094,3.5-7.792,4.531c-0.667,0-36.313-0.017-43.193-0.017c-1.234-0.78-5.547-3.312-7.797-4.5
	c0-0.479-0.014-9.41-0.014-12.771c-0.48,0-15.889-0.009-19.168-0.009c0-1.521-0.016-4.402-0.016-5.922
	c3.641-0.017,18.078-0.003,19.198-0.003c0-0.479,0-12.208,0-12.688c2.264-1.566,6.438-5.094,7.75-6.094
	c6.32,0,21.968,0.021,22.448,0.021c-0.038-3.7,0.021-20.438,0.021-23.317c29.074,0,87.354,0.006,90.479,0.025
	c0-0.399,23.01,0.007,45.76,0.007c0,27.5,0.198,30.616,0.198,43.576c-6.32,0-24.83,0.082-25.31,0.082
	c0,0.48-0.034,18.395-0.034,18.793c-1.219,1.406-5.078,6.078-6.453,7.781c-3.68,0-12.254,0-12.734,0
	c0.031,5.688-0.01,31.085-0.01,31.563c3.76,0,9.021,0,12.781,0c0.656,0.845,5.469,6.578,6.453,7.703
	c0,0.479,0.026,34.739,0.026,35.14c-1.281,1.391-5.625,6.172-7.141,7.812c-0.48,0-9.063,0.036-12.786,0
	c-0.021,2.884,0,12.041-0.022,17.446c0.24,0,82.313,0.012,85.2,0c0-4.399-0.017-16.571-0.012-17.446
	c-3.12,0-12.169,0.021-12.729,0.021c-0.896-1.041-5.083-6.125-6.463-7.803c0-0.08,0.005-34.675,0.005-35.153
	c1.016-1.22,5.813-6.859,6.484-7.734c0.48,0,7.182-0.016,12.766-0.016c0-0.4,0.063-30.921,0.063-31.481
	c-3.76,0-9.026,0.01-12.787,0.01c-0.859-0.875-6.63-6.635-7.953-7.812c0-12.08-0.01-36.801-0.01-37.281
	c2.01-1.906,6.651-6.516,7.917-7.781c3.12,0,12.221-0.03,12.781-0.03c-0.042-6.046-0.031-13.598-0.031-17.438
	c14.72,0,29.53,0,44.25,0c0,19.76-0.109,42.787-0.109,62.547c-1.172,1.375-5.375,6.609-6.25,7.734c-4.616-0.004-8.389,0.006-12.75,0
	c0,0.4,0.078,31.118,0.078,31.519c1.938-0.021,12.169,0.021,12.729,0.021c1.396,1.854,5,6.333,6.208,7.729
	c0,0.479,0,34.771,0,35.169c-1.438,1.517-6.047,6.267-7.5,7.797c-0.56,0-9.202,0.006-12.802,0.006
	c0,0.479-0.011,16.951-0.011,17.433c0.48,0,85.099,0,85.578,0c0-0.479,0.031-17.038,0.031-17.438
	c-2.816-0.016-9.757-0.016-12.797-0.016c-1.031-1.354-4.845-6.125-6.22-7.792c0-0.399-0.01-34.68-0.01-35.159
	c1.042-1.271,5.375-6.562,6.263-7.763c0.48,0,12.101-0.006,12.737-0.008c0-0.4,0.042-31.066,0.042-31.466
	c-2.656,0-9.021,0.03-12.781,0.03c-0.812-1.155-4.469-5.688-6.219-7.75c0-0.399-0.031-36.863-0.031-37.344
	c1.142-1.375,5.484-6.938,6.203-7.812c3.681,0,12.286,0.016,12.767,0.016c0-0.479,0.01-13.571,0.01-17.412c7.92,0,15.872,0,23.792,0
	c0,3.84-0.037,16.916-0.037,17.396c0.56,0,9.55-0.017,12.75-0.017c0.938,0.969,6.453,6.5,7.875,7.828
	c0,5.84,0.016,31.072,0.016,37.313c-1.891,1.75-6.155,5.938-7.875,7.75c-0.479,0-9.815-0.032-12.75-0.017
	c0,0.48-0.01,31.117-0.01,31.519c2.742-0.015,12.19,0.016,12.75,0.016c0.767,0.797,6.875,6.797,7.875,7.734
	c0,6.239,0.01,34.754,0.01,35.153c-1.03,0.938-6.827,6.781-7.812,7.797c-0.48,0-9.597-0.016-12.797-0.016
	c-0.006,3.696-0.033,13.127-0.033,17.446c4.018-0.009,83.143-0.009,85.68,0c-0.006-5.384-0.017-16.966-0.017-17.446
	c-4.24,0-8.516,0.016-12.755,0.016c-1.22-1.233-6.656-6.78-7.642-7.827c0-1.438,0.006-24.91,0.006-35.123
	c1.983-1.933,6.067-6.1,7.927-7.778c3.802-0.005,12.147-0.021,12.708-0.021c0-4.399-0.047-30.925-0.047-31.483
	c-0.561,0-12.286,0-12.767,0c-3.53-3.531-5.608-5.672-7.828-7.75c0-0.4,0.031-36.817,0.031-37.297c1.517-1.47,7-7.125,7.625-7.781
	c3.68,0,12.286-0.016,12.767-0.016c0-0.48-0.026-11.854-0.017-17.438c7.36,0,14.984,0.063,22.344,0.063
	c0,3.84,0.017,13.562,0.017,17.375c0.479,0,9.101,0.016,12.781,0.016c0.983,1.047,6.983,7.016,7.812,7.781
	c0,0.479,0.016,24.721,0.016,37.28c-1.172,1.078-6.405,6.5-7.594,7.767c-3.76,0-9.037,0.016-12.797,0.016
	c0,0.561,0.016,25.142-0.012,31.489c0.479,0,12.287-0.012,12.767-0.012c1.063,1.172,6.281,6.422,7.667,7.774
	c0,13.04-0.047,22.099-0.047,35.139c-0.781,0.733-6.844,6.75-7.812,7.827c-0.48,0-9.692-0.016-12.813-0.016
	c-0.012,1.962-0.002,13.047-0.002,17.446c5.622,0.012,82.08,0.012,85.68,0c-0.017-4.278-0.006-16.966-0.006-17.446
	c-3.891,0.016-12.27,0.016-12.75,0.016c-1.328-1.375-5.969-6.094-7.656-7.812c0-5.84,0.012-28.833,0.012-35.153
	c1.188-1.166,7.021-6.854,7.922-7.764c3.979-0.012,12.185-0.012,12.745-0.012c0-4.4-0.006-27.062-0.006-31.462
	c-4.012-0.008-9.055,0-12.733,0c-2-2-5.547-5.5-7.984-7.781c0-0.4,0.031-25.121,0.031-37.281c2.016-1.844,6.859-6.734,7.875-7.797
	c3.68,0,12.206-0.016,12.766-0.016c0-0.48,0.017-13.566,0.017-17.406c7.359,0,14.796,0,22.156,0
	c-0.004,5.039-0.031,16.941-0.031,17.422c0.479,0,9.564,0.016,12.766,0.016c1.109,0.984,8.375,6.906,9.5,7.781
	c0,12.561,0.031,24.721,0.031,37.281c-1.203,1.078-6.703,6.547-7.906,7.766c-4.171-0.004-8.281-0.016-12.766-0.016
	c0,0.4,0.037,31.078,0.037,31.479c2.396-0.02,12.312-0.02,12.792-0.02c1.062,1.165,6.625,6.645,7.833,7.77
	c0,0.48-0.006,28.794-0.006,35.193c-1.516,1.266-7.672,6.422-9.358,7.812c-1.058,0.012-9.748-0.016-12.767,0
	c0.019,4.984,0.048,11.642,0.052,17.432c0.479,0,86.64,0,87.121,0c-0.031-5.196,0-17.286,0-17.446c-4.281,0-10.369-0.007-12.767,0
	c-1.344-1.141-8.016-6.656-9.344-7.797c0-12.08,0.031-34.723,0.031-35.203c1.25-1.031,8.233-6.688,9.578-7.75
	c0.479,0,8.024-0.021,12.78,0c0-4.399,0.017-29.057,0.002-31.458c-3.881,0.026-7.985,0.018-12.793,0
	c-1.688-1.417-8-6.542-9.541-7.729c0-19.761-0.043-42.786-0.043-62.546c11.41,0,38.892,0.016,45.828,0.016
	c0,3.76,0.047,13.776,0.047,17.422c0.48,0,9.023,0,12.703,0c0.859,0.922,7.078,7,7.922,7.781c0,0.479,0,31.041,0,37.281
	c-1.983,1.858-5.047,5.047-7.655,7.812c-4.363-0.004-9.181,0.016-12.781,0.016c0.031,4.527,0.016,31.007,0.016,31.406
	c0.48,0,10.646-0.021,12.767-0.016c0.766,0.797,6.688,6.812,7.641,7.75c0,0.479-0.125,28.468-0.125,35.188
	c-2.172,2.267-6.656,6.892-7.5,7.845c-0.48,0-12.285,0-12.766,0c0.014,2.442,0.03,16.94,0.03,17.422
	c0.48,0,85.209-0.021,85.688-0.021c0-0.479,0-17.018,0-17.417c-3.084-0.005-12.174-0.016-12.734-0.016
	c-0.858-0.813-7.016-6.844-7.938-7.781c0-13.04,0.016-34.755,0.016-35.234c1.531-1.469,6-5.905,7.844-7.75
	c3.681,0,12.177,0.033,12.813,0.031c0-0.399-0.078-31.069-0.078-31.469c-3.668-0.015-9.037-0.031-12.797-0.031
	c-0.656-0.641-7.078-7.047-7.813-7.733c0-0.4-0.02-36.807-0.02-37.286c1.973-1.901,6.207-6.059,7.879-7.745
	c3.68,0,12.318-0.047,12.797-0.047c0-0.48,0-13.566,0-17.406c14.24,0,28.449,0,42.688,0c0,12.96,0.03,62.404,0.03,62.484
	c-1.28,1.469-5.155,6.312-6.219,7.75c-3.199,0-11.062-0.025-12.766-0.017c0,0.4,0.016,31.005,0.016,31.484
	c0.562,0,12.285,0.016,12.766,0.016c0.859,1.109,5.22,6.563,6.188,7.75c0,0.479-0.004,34.768-0.004,35.167
	c-0.746,0.739-6.918,6.817-7.887,7.833c-0.48,0-12.175-0.016-12.734-0.016c0,0.479-0.016,16.987-0.016,17.469
	c0.479,0,85.442,0,85.922,0c0-0.479,0.088-17.054,0.088-17.453c-4.209-0.006-12.326,0-12.808,0
	c-1.983-2.688-5.016-6.078-6.266-7.766c0-0.4,0.063-34.785,0.063-35.266c1.233-1.548,5.702-7.095,6.172-7.72
	c0.479,0,12.207-0.016,12.766-0.016c0-0.479,0-31.022,0-31.422c-6.596-0.004-9.068-0.063-12.828-0.063
	c-2.125-2.875-3.078-4.062-6.172-7.719c0-0.4,0.033-36.822,0.033-37.302c1.25-1.5,5.547-6.892,6.188-7.771
	c3.681,0,12.285-0.005,12.765-0.005c0-0.479,0.016-14.093,0.016-17.453c7.92,0,15.893,0.031,23.813,0.031
	c0,3.12-0.048,16.926-0.048,17.406c0.48,0,9.599-0.017,12.798-0.017c1.219,1.203,6.78,6.813,7.827,7.813c0,0.479,0,31.024,0,37.266
	c-0.844,0.922-5.312,6.625-6.155,7.781c-2.611-0.021-8.322-0.01-12.813-0.016c0,0.399,0,31.084,0,31.483c6.047,0,12.191,0,12.75,0
	c0.892,1.313,5.203,6.594,6.234,7.734c0,0.479,0,33.453,0,35.219c-0.48,0-7.672,7.397-7.672,7.797c-0.08,0-12.222,0-12.781,0
	c0,0.561-0.002,13.176,0,17.438c0.479,0,84.998,0.009,85.479,0.009c-0.01-3.493,0.007-16.966,0.007-17.446
	c-3.681,0-12.654,0.078-12.734,0.078c-0.813-0.911-6.672-6.932-7.65-7.89c0-0.399-0.021-22.563-0.021-35.204
	c1.516-1.892,5.203-6.469,6.155-7.767c4.111,0.017,8.332,0,12.781,0.017c0-0.4,0.041-27.099,0.047-31.484
	c-3.68,0-9.069,0.017-12.75,0.017c-0.672-0.875-5.141-6.517-6.233-7.75c0-0.4-0.021-25.105-0.021-37.267
	c1.688-1.604,6.229-6.146,7.873-7.792c3.681,0,12.232-0.021,12.793-0.021c0-0.48,0.041-13.582,0.041-17.422
	c14.801,0,29.545,0.016,44.344,0.016c0,12.96-0.03,56.244-0.03,62.484c-1.125,1.03-6.75,6.594-7.828,7.75
	c-4.242-0.015-8.801-0.005-12.767,0c0,0.399-0.047,31.084-0.047,31.483c3.75,0,12.302,0.017,12.781,0.017
	c1.453,1.905,5.016,6.358,6.225,7.702c0,0.479,0.013,22.221,0.013,35.261c-1.209,1.271-6.705,6.537-8.002,7.771
	c-0.48,0-7.484,0-12.797,0c-0.015,1.956-0.017,16.86-0.017,17.5c3.656,0.004,85.357-0.054,85.838-0.054
	c-0.024-3.946-0.004-16.966-0.004-17.446c-3.68,0-9.092,0.017-12.771,0.017c-0.604-0.604-6.479-6.767-7.625-7.809
	c0-12.64,0.016-22.583,0.016-35.224c1.203-1.234,7.281-7.125,7.906-7.734c3.944-0.005,12.676-0.031,12.756-0.031
	c0-3.84,0.029-29.223,0.041-31.438c-3.68,0-9.147-0.016-12.828-0.016c-1.44-1.464-6.463-6.484-7.856-7.756
	c0-0.399-0.033-25.115-0.033-37.275c0.781-1.359,3.906-6.547,4.531-7.767c3.68,0,12.27-0.03,12.75-0.03
	c0-3.25,0.021-11.535,0.021-17.348C1238.634,592.224,1256.941,592.229,1266.254,592.214z"/>
<rect id="ARMCAPITALPARKTURING_1_" x="133.337" y="865.933" fill="#CE1D6F" width="104.964" height="93.505"/>
<rect id="ARMCAPITALPARKKNUTH_1_" x="133.301" y="792.558" fill="#CE1D6F" width="104.979" height="74.125"/>
<polygon id="ARMCAPITALPARKBABBAGE_1_" fill="#CE1D6F" points="1403.593,959.536 1266.301,959.536 1267.332,828.776 
	1293.051,828.776 1293.051,849.224 1403.343,849.183 "/>
<rect id="ARMCAPITALPARKHOPPER_1_" x="1209.571" y="828.766" fill="#CE1D6F" width="57.771" height="130.771"/>
<rect id="ARMCAPITALPARKKERNIGAN_1_" x="1082.229" y="828.761" fill="#CE1D6F" width="127.666" height="130.791"/>
<rect id="ARMCAPITALPARKRITCHIE_1_" x="902.259" y="828.646" fill="#CE1D6F" width="180.167" height="130.791"/>
</svg>
