<?xml version="1.0" encoding="utf-8"?>
<!-- Generator: Adobe Illustrator 15.0.0, SVG Export Plug-In . SVG Version: 6.00 Build 0)  -->
<!DOCTYPE svg PUBLIC "-//W3C//DTD SVG 1.1//EN" "http://www.w3.org/Graphics/SVG/1.11/DTD/svg11.dtd">
<svg version="1.1" id="Layer_1" xmlns="http://www.w3.org/2000/svg" xmlns:xlink="http://www.w3.org/1999/xlink" x="0px" y="0px"
	 width="1500px" height="1500px" viewBox="0 0 1500 1500" enable-background="new 0 0 1500 1500" xml:space="preserve">
<rect x="56.673" y="389.281" fill="#09252E" width="1358.982" height="540.986"/>
<rect x="645.551" y="928.178" fill="#09252E" width="184.5" height="25.5"/>
<path fill="#144D60" d="M874.975,616.565c-0.424,24.612,0.326,135.32,0.326,202.362c-14.479,0-30.771-0.25-45.25-0.25
	c0,0.722,0,127.801,0,135.001c-60.238,0-124.23-0.001-184.469-0.001c0-7.2-0.031-22.686-0.031-23.406c-0.56,0-27.893,0-41.812,0
	c0-102.394,0.037-209.149,0.037-311.547c-31.475-0.046-366.286-2.062-547.1-2.062c0-25.921,0-51.923,0-77.844
	c26.16,0,545.897-0.015,635.659-0.015c-0.034-27.626-0.112-102.322-0.112-149.283c26.24,0,54.262,0.017,80.5,0.017
	c0,47.6,0.013,148.547,0.013,149.267c0.561,0,612.829-0.033,642.909-0.033c0,25.92,0.017,51.893,0.017,77.813
	C1236.066,616.584,1054.562,616.565,874.975,616.565z"/>
<rect id="UKCSGM5" x="874.967" y="616.604" fill="#09252E" width="218.994" height="153.498"/>
</svg>
