<?xml version="1.0" encoding="utf-8"?>
<!-- Generator: Adobe Illustrator 15.0.0, SVG Export Plug-In . SVG Version: 6.00 Build 0)  -->
<!DOCTYPE svg PUBLIC "-//W3C//DTD SVG 1.1//EN" "http://www.w3.org/Graphics/SVG/1.11/DTD/svg11.dtd">
<svg version="1.1" id="Layer_1" xmlns="http://www.w3.org/2000/svg" xmlns:xlink="http://www.w3.org/1999/xlink" x="0px" y="0px"
	 width="1500px" height="1500px" viewBox="0 0 1500 1500" enable-background="new 0 0 1500 1500" xml:space="preserve">
<g>
	<g>
		<path fill="#09252E" d="M1471.333,289.303c0-0.56,0-1.12,0-1.68c0.304-0.944-0.565-0.714-1.2-0.72c-0.238,0-0.479,0-0.72,0
			c-466.01,0-932.385,0-1398.48,0c-0.159-0.008-0.321,0.011-0.48,0c-1.972-0.136-1.351,1.333-1.44,2.88
			c-0.28,4.896,0,10.447,0,13.68c0,6.917,0,12.545,0,18c0,36.088,0,73.595,0,108c-22.88,0-45.76,0-68.64,0
			c-0.275,0.501-0.387,313.539-0.093,315.053c1.28,0,10.653-0.413,13.293-0.413c5.2,0,10.4,0,15.6,0c10.48,0,20.96,0,31.44,0
			c20.96,0,41.92,0,62.88,0c41.841,0,83.68,0,125.52,0c83.758,0,167.521,0,251.28,0c0.641,0,1.28,0,1.92,0c70,0,140,0,210,0
			c0.641,0,1.28,0,1.92,0c92.954,0,185.922,0,278.88,0c0,28.241,0.037,56.699,0.037,84.939c1.193,0,9.082,0.021,12.684,0.021
			c0,115.99,0,232.008,0,348.002c0,0.72,0,1.438,0,2.158c0.56,0,1.12,0,1.68,0c62.797,0,131.005,0.126,193.804,0.126
			c0.001,40.471,0.237,128.699,0.167,132.25c-0.004,0.214,49.47,0.104,76.029,0.104c2.362,0.682,1.957-1.403,1.92-3.12
			c0-1.36,0-2.72,0-4.08c0-2.8,0-5.6,0-8.399c0-5.601,0-11.199,0-16.801c0-11.12,0-22.24,0-33.359c0-22.239,0-44.479,0-66.721
			c63.358,0,126.722,0,190.08,0c0.08,0,0.16,0,0.24,0c1.561,0.361,1.911-0.487,1.68-1.92
			C1471.333,881.336,1471.333,585.271,1471.333,289.303z M1128.854,743.383c-0.016,0.104-0.005,0.18,0.015,0.246
			C1128.848,743.562,1128.838,743.485,1128.854,743.383z M1128.965,743.779c-0.027-0.022-0.052-0.051-0.07-0.082
			C1128.912,743.73,1128.938,743.756,1128.965,743.779z M1130.521,743.826c-0.021-0.001-0.043,0.001-0.063,0.001
			C1130.479,743.827,1130.501,743.825,1130.521,743.826z M998.533,744.104c14.706,0,29.748,0,44.641,0c1.93,0,4.06,0.197,6-0.239
			c0-0.642,0-1.28,0-1.92c0.561,0,1.119,0,1.681,0c0.438-2.124,0.239-4.452,0.239-6.722c0-4.767,0-9.398,0-13.92
			c0-2.359-0.197-4.757,0.239-6.96c25.2,0,50.4,0,75.601,0c0,6.77,0,13.945,0,20.88c0,2.315-0.198,4.534,0.24,6.722
			c0,0.318,0,0.64,0,0.96c-0.285,1.004,0.365,1.074,1.199,0.96c0.265,0.007,0.533,0.009,0.796,0.015
			c0.156,0.033,0.351,0.028,0.561,0.008c-0.01,0.001-0.019,0.002-0.026,0.003c22.798,0.511,46.559,0.059,69.711,0.215
			c0.331-0.31,0.237-1.042,0.24-1.681c-0.192-0.912,1.135-0.305,1.68-0.479c0-50.719,0-101.442,0-152.161c1.2,0,2.4,0,3.602,0
			c0.64,0,1.278,0,1.92,0c0-0.72,0-1.44,0-2.16c0-0.64,0-1.28,0-1.92c-0.146-0.574,0.301-1.742-0.24-1.92c0-0.48,0-0.96,0-1.44
			c0.244-0.727-0.629-0.407-0.96-0.479c-1.306-0.283-3.245-0.079-4.32-0.48c0-20.56,0-41.12,0-61.68c0-0.72,0-1.44,0-2.16
			c0.115-0.835,0.045-1.484-0.96-1.2c-0.24,0-0.479,0-0.72,0c-0.068-0.857,0.104-1.167,0-1.439c-0.326-0.842-0.403-0.236-1.2-0.48
			c-0.802-0.246-2.609,0-3.12,0c-65.468,0-132.077,0-196.8,0c-0.64,0-1.28,0-1.92,0c-0.56,0-1.12,0-1.68,0
			c-0.402,0.398-0.191,1.409-0.24,2.16c0,22.4,0,44.8,0,67.2c-0.479,0-0.96,0-1.439,0c-0.438,2.753-0.239,5.521-0.239,8.4
			c-0.001,7.977,0,16.9,0,25.199c-92.954,0-185.923,0-278.88,0c-0.641,0-1.28,0-1.92,0c-70,0-140,0-210,0c-0.641,0-1.28,0-1.921,0
			c-92.958,0-185.926,0-278.879,0c-0.64,0-1.28,0-1.92,0c-48.321,0-96.64,0-144.96,0c0-7.335,0-15.306,0-22.319
			c0-2.56-0.199-5.013,0.24-7.44c16.24,0,32.48,0,48.72,0c0.56,0,1.12,0,1.68,0c0.08,0,0.16,0,0.24,0c0.56,0,1.12,0,1.68,0
			c0-0.64,0-1.28,0-1.92c0-32.96,0-65.921,0-98.88c0-0.64,0-1.28,0-1.92c0-0.08,0-0.16,0-0.24c0-0.399,0-0.8,0-1.2
			c0.228-0.866-0.945-0.335-1.44-0.479c-0.575-0.146-1.095-0.345-1.92-0.24c-0.693,0.106,0.213,1.813-0.48,1.92
			c-0.768,0.032-1.837-0.237-1.68,0.72c0,29.899,0,60.756,0,90.24c0,1.94,0.196,4.082-0.24,6c-13.76,0-27.52,0-41.28,0
			c0-15.84,0-31.68,0-47.52c0-7.92,0-15.841,0-23.761c0-3.92,0-7.84,0-11.76c-0.16-3.841,0.319-8.318-0.24-11.76
			c-0.56,0-1.12,0-1.68,0c0-0.64,0-1.28,0-1.92c-0.179-0.541-1.346-0.094-1.92-0.24c0,0.72,0,1.44,0,2.16c-0.32,0-0.64,0-0.96,0
			c-1.281-0.321-0.514,1.406-0.72,2.16c0,26.859,0,54.673,0,81.12c0,4.072,0.199,7.938-0.24,11.52c-23.44,0-46.88,0-70.32,0
			c0-1.28,0-2.56,0-3.84c0-28.32,0-56.64,0-84.96c0-19.12,0-38.24,0-57.36c21.68,0,43.36,0,65.04,0c0,2.561,0,5.12,0,7.681
			c0.25,0.55,1.714-0.114,1.92,0.479c0,0.561,0,1.12,0,1.68c0.56,0,1.12,0,1.68,0c16.96,0,33.92,0,50.88,0c0.64,0,1.28,0,1.92,0
			c0-0.64,0-1.279,0-1.92c0.498-0.143,1.577,0.298,1.68-0.239c0-0.641,0-1.28,0-1.92c0-10.479,0-20.961,0-31.44
			c124.396,0,248.81,0,373.2,0c0.561,0,1.12,0,1.681,0c46.479,0,92.961,0,139.439,0c0.574-0.146,1.742,0.301,1.92-0.24
			c0-0.56,0-1.12,0-1.68c0-0.08,0-0.16,0-0.24c-0.001-36.298,0.001-73.555,0-109.439c0-2.353-0.196-4.865,0.24-7.2
			c5.92,0,11.84,0,17.76,0c0,4.64,0,9.279,0,13.92c0.146,0.574-0.301,1.741,0.24,1.92c0.561,0,1.12,0,1.68,0c3.601,0,7.2,0,10.801,0
			c0.08,0,0.16,0,0.239,0c0.561,0,1.12,0,1.681,0c0,0.64,0,1.28,0,1.92c0.56,0,1.12,0,1.68,0c0,0.72,0,1.44,0,2.16
			c0.64,0,1.28,0,1.92,0c0,0.56,0,1.12,0,1.68c0,0.08,0,0.16,0,0.24c0,0.64,0,1.28,0,1.92c0.497,0.143,1.577-0.296,1.68,0.24
			c0,1.863,0,6.348,0,8.64c0,2.605-0.188,3.542,1.92,3.12c0,0.561,0,1.12,0,1.68c0.18,0.542,1.347,0.095,1.921,0.24
			c9.04,0,18.079,0,27.119,0c0.641,0,1.28,0,1.921,0c0-0.64,0-1.28,0-1.92c0-3.36,0-6.72,0-10.08c0-0.64,0-1.28,0-1.92
			c0.56,0,1.119,0,1.68,0c0-0.64,0-1.28,0-1.92c1.604,0.326,2.246-0.314,1.92-1.92c0.497-0.144,1.577,0.297,1.68-0.24
			c0-0.64,0-1.28,0-1.92c0.561,0,1.12,0,1.68,0c0.543-0.179,0.095-1.346,0.24-1.92c0.561,0,1.12,0,1.681,0c0.079,0,0.159,0,0.239,0
			c3.521,0,7.04,0,10.561,0c0.541-0.179,0.094-1.346,0.24-1.92c0.399,0,0.8,0,1.199,0c0.867,0.228,0.334-0.945,0.48-1.44
			c0-0.56,0-1.12,0-1.68c0-3.6,0-7.2,0-10.8c5.439,0,10.88,0,16.32,0c0,3.76,0,7.52,0,11.279c0,0.561,0,1.12,0,1.681
			c-0.067,0.627-0.081,1.201,0.72,0.96c0.319,0,0.64,0,0.96,0c0.146,0.574-0.302,1.741,0.24,1.92c0.56,0,1.119,0,1.68,0
			c3.04,0,6.08,0,9.12,0c0.56,0,1.12,0,1.68,0c0.146,0.574-0.301,1.741,0.24,1.92c0.56,0,1.12,0,1.68,0c0,0.64,0,1.28,0,1.92
			c0,0.08,0,0.16,0,0.24c0,0.56,0,1.12,0,1.68c0.562,0,1.12,0,1.681,0c0,0.08,0,0.16,0,0.24c0.146,0.574-0.302,1.741,0.239,1.92
			c0.498,0.143,1.577-0.296,1.682,0.24c0,3.84,0,7.68,0,11.52c0.103,0.537,1.183,0.098,1.68,0.24c0,0.64,0,1.28,0,1.92
			c0.64,0,1.28,0,1.92,0c9.12,0,18.24,0,27.36,0c0.497-0.143,1.575,0.296,1.68-0.24c0-0.56,0-1.12,0-1.68c0.64,0,1.28,0,1.92,0
			c0-4,0-8,0-12c0.561,0,1.12,0,1.68,0c0-0.64,0-1.28,0-1.92c1.606,0.326,2.246-0.314,1.92-1.92c0-0.08,0-0.16,0-0.24
			c0.562,0,1.12,0,1.682,0c0-0.64,0-1.28,0-1.92s0-1.28,0-1.92c0.56,0,1.12,0,1.68,0c0.08,0,0.16,0,0.24,0c3.6,0,7.2,0,10.8,0
			c0.561,0,1.12,0,1.68,0c0.542-0.179,0.095-1.346,0.24-1.92c0.562,0,1.12,0,1.68,0c0-4.641,0-9.28,0-13.92c4.24,0,8.48,0,12.722,0
			c0,4.64,0,9.28,0,13.92c0,0.64,0,1.279,0,1.92c0.56,0,1.12,0,1.68,0c0.08,0,0.16,0,0.24,0c3.6,0,7.2,0,10.8,0
			c0.561,0,1.12,0,1.68,0c0.146,0.574-0.301,1.741,0.24,1.92c0.561,0,1.12,0,1.681,0c0,0.64,0,1.28,0,1.92
			c0.104,0.537,1.184,0.097,1.681,0.24c-0.326,1.605,0.313,2.246,1.92,1.92c0,0.64,0,1.28,0,1.92c0.56,0,1.12,0,1.68,0
			c0,0.64,0,1.28,0,1.92c0,3.36,0,6.72,0,10.08c0,0.64,0,1.28,0,1.92c0.641,0,1.28,0,1.92,0c9.681,0,19.36,0,29.04,0
			c1.605,0.325,2.246-0.313,1.92-1.92c0-0.08,0-0.16,0-0.24c0-3.279,0-6.56,0-9.84c0-0.64,0-1.28,0-1.92c0.562,0,1.12,0,1.682,0
			c0-0.64,0-1.28,0-1.92c0.646-0.257,1.551,0.369,1.92,0c0.368-0.369-0.259-1.274,0-1.92c0.496-0.144,1.575,0.297,1.68-0.24
			c0-0.64,0-1.28,0-1.92c0.561,0,1.12,0,1.68,0c0.542-0.179,0.094-1.346,0.24-1.92c0.561,0,1.12,0,1.68,0c3.04,0,6.08,0,9.12,0
			c0.562,0,1.12,0,1.681,0c0.541-0.179,0.095-1.346,0.239-1.92c0-0.641,0-1.28,0-1.92c0-4,0-8,0-12c2.931,0,6.122,0,9.12,0
			c3.174,0,6.085-0.197,8.88,0.24c0,4.56,0,9.12,0,13.68c0,0.64,0,1.279,0,1.92c0.562,0,1.12,0,1.682,0c0.08,0,0.159,0,0.239,0
			c2.959,0,5.92,0,8.881,0c0.56,0,1.118,0,1.68,0c0.146,0.574-0.302,1.741,0.24,1.92c0.56,0,1.119,0,1.68,0c0,0.72,0,1.439,0,2.16
			c0.64,0,1.28,0,1.92,0c0,0.56,0,1.12,0,1.68c0.104,0.537,1.183,0.097,1.68,0.24c0.146,0.574-0.301,1.741,0.24,1.92
			c0.497,0.143,1.577-0.296,1.681,0.24c0,0.56,0,1.12,0,1.68c0,3.28,0,6.56,0,9.84c0,0.08,0,0.16,0,0.24c0,0.56,0,1.12,0,1.68
			c0.179,0.542,1.347,0.094,1.92,0.24c9.601,0,19.199,0,28.801,0c0.64,0,1.279,0,1.92,0c0-0.64,0-1.28,0-1.92c0-0.08,0-0.16,0-0.24
			c0-3.28,0-6.56,0-9.84c0-0.64,0-1.28,0-1.92c0.56,0,1.12,0,1.68,0c0.541-0.179,0.094-1.346,0.24-1.92
			c0.497-0.144,1.576,0.297,1.68-0.24c0-0.56,0-1.12,0-1.68c0.716-0.247,1.562,0.358,1.92,0c0.409-0.409-0.295-1.522,0-2.16
			c0.562,0,1.12,0,1.681,0c0-0.641,0-1.28,0-1.92c0.641,0,1.279,0,1.921,0c3.6,0,7.198,0,10.8,0c0-0.641,0-1.28,0-1.92
			c0.56,0,1.12,0,1.68,0c0.561-4.161,0.081-9.359,0.24-13.92c4.8,0,9.6,0,14.399,0c0,4.64,0,9.28,0,13.92
			c0.497,0.143,1.576-0.296,1.681,0.239c0.143,0.497-0.297,1.577,0.24,1.681c0.56,0,1.119,0,1.68,0c3.04,0,6.08,0,9.12,0
			c0.56,0,1.12,0,1.68,0c0,0.64,0,1.279,0,1.92c0.562,0,1.12,0,1.681,0c0,0.72,0,1.439,0,2.16c0.641,0,1.279,0,1.921,0
			c0,0.56,0,1.12,0,1.68c0.179,0.541,1.346,0.094,1.92,0.24c0,0.64,0,1.279,0,1.92c0.56,0,1.12,0,1.68,0c0,0.64,0,1.28,0,1.92
			c0.159,3.28-0.319,7.199,0.24,10.08c0.56,0,1.12,0,1.68,0c0,0.56,0,1.12,0,1.68c0.104,0.537,1.184,0.097,1.681,0.24
			c4.239,0,8.479,0,12.721,0c0,2.56,0,5.12,0,7.68c-4.8,0-9.602,0-14.4,0c0,0.721,0,1.44,0,2.16c-0.56,0-1.12,0-1.68,0
			c-0.561,3.44-0.081,7.919-0.24,11.76c0,0.641,0,1.28,0,1.92c-0.497,0.144-1.577-0.297-1.68,0.24
			c-0.146,0.574,0.301,1.741-0.24,1.92c-0.561,0-1.12,0-1.68,0c0,0.641,0,1.28,0,1.92c-0.562,0-1.12,0-1.682,0
			c-0.541,0.18-0.094,1.347-0.24,1.92c-0.496,0.144-1.575-0.297-1.68,0.24c-2.88,0-5.76,0-8.64,0
			c-0.664,0.216-2.253-0.493-2.16,0.48c0,0.399,0,0.8,0,1.2c-1.605-0.326-2.245,0.313-1.92,1.92c0,0.08,0,0.159,0,0.239
			c-0.48,0-0.96,0-1.44,0c-0.559,3.121-0.08,7.28-0.238,10.801c0,0.64,0,1.279,0,1.92c-0.067,0.627-0.081,1.2,0.72,0.96
			c0.319,0,0.64,0,0.96,0c0,1.359,0,2.72,0,4.08c-0.48,0-0.96,0-1.44,0c-0.559,3.12-0.08,7.278-0.239,10.8c0,0.64,0,1.279,0,1.92
			c-0.066,0.627-0.08,1.201,0.721,0.96c0.319,0,0.64,0,0.96,0c0,0.08,0,0.16,0,0.24c0.146,0.573-0.302,1.74,0.24,1.92
			c0.56,0,1.12,0,1.68,0c2.96,0,5.92,0,8.88,0c0.641,0,1.28,0,1.92,0c0,0.64,0,1.279,0,1.92c0.562,0,1.12,0,1.68,0
			c0,0.72,0,1.439,0,2.16c0.642,0,1.28,0,1.922,0c0,0.56,0,1.12,0,1.68c0.179,0.541,1.346,0.094,1.92,0.24c0,0.64,0,1.279,0,1.92
			c0.56,0,1.12,0,1.68,0c0,0.64,0,1.28,0,1.92c0.159,3.28-0.318,7.199,0.24,10.08c0.56,0,1.12,0,1.68,0c0,0.56,0,1.12,0,1.68
			c4.32,0.561,9.681,0.08,14.4,0.24c0,3.92,0,7.84,0,11.76c-4.24,0-8.48,0-12.721,0c-0.561,0-1.119,0-1.681,0c-0.64,0-1.28,0-1.92,0
			c0,3.28,0,6.561,0,9.84c0,0.641,0,1.28,0,1.92c-0.497,0.144-1.577-0.296-1.68,0.24c0,0.561,0,1.12,0,1.68c-0.642,0-1.28,0-1.92,0
			c0,0.721,0,1.44,0,2.16c-0.562,0-1.12,0-1.682,0c0,0.641,0,1.28,0,1.92c-0.541,0.18-0.094,1.347-0.239,1.921
			c-0.497,0.143-1.576-0.298-1.681,0.239c0,0.561,0,1.12,0,1.681c-3.6,0-7.2,0-10.8,0c-0.716,0.246-1.562-0.359-1.92,0
			c-0.409,0.408,0.295,1.521,0,2.159c-0.48,0-0.96,0-1.44,0c-0.56,4.081-0.08,9.2-0.239,13.681c-4.319,0-8.641,0-12.96,0
			c-4.081,0.16-8.8-0.319-12.479,0.239c0,0.641,0,1.28,0,1.921c-0.561,0-1.12,0-1.68,0c-0.396,0.105-0.396,1.812,0,1.92
			c0.56,0,1.119,0,1.68,0c0,0.479,0,0.96,0,1.439c-0.192,0.913,1.135,0.306,1.68,0.48c20.562,0,41.12,0,61.682,0
			c1.199,0,2.398,0,3.6,0c0.541-0.18,0.094-1.347,0.24-1.92c0.319,0,0.64,0,0.96,0c0.801,0.24,0.787-0.333,0.72-0.96
			c0-0.561,0-1.12,0-1.681c0-34.08,0-68.16,0-102.239c4.16,0,8.32,0,12.48,0c0.079,0,0.158,0,0.238,0c0.642,0,1.28,0,1.92,0
			c0-0.641,0-1.28,0-1.921c0-0.72,0-1.439,0-2.159c0-0.641,0-1.28,0-1.92c-0.64,0-1.278,0-1.92,0c-0.08,0-0.159,0-0.238,0
			c0-0.48,0-0.96,0-1.44c-3.682-0.56-8.399-0.081-12.48-0.24c0-22.479,0-44.96,0-67.44c45.841,0,91.68,0,137.521,0
			c-0.002,19.539,0,40.034,0,59.28c0,2.66,0.197,5.513-0.24,8.16c-34.801,0-69.602,0-104.4,0c-0.529,0.03-0.102,1.019-0.24,1.44
			c-0.105,0.692-1.812-0.213-1.92,0.479c0,0.641,0,1.28,0,1.92c0,0.641,0,1.28,0,1.92c0,0.641,0,1.28,0,1.921c0.642,0,1.28,0,1.92,0
			c4.16,0,8.32,0,12.48,0c0,37.52,0,75.04,0,112.56c0.331,0.309,0.237,1.042,0.24,1.68c-0.192,0.913,1.135,0.306,1.68,0.48
			c0.561,0,1.12,0,1.68,0c0.08,0,0.16,0,0.24,0c0.562,0,1.12,0,1.68,0c27.921,0,55.842,0,83.762,0
			c1.041,0.161,1.769,0.009,1.438-1.2c0-0.24,0-0.479,0-0.72c0.562,0,1.12,0,1.682,0c0.079,0,0.159,0,0.238,0c0-0.721,0-1.44,0-2.16
			c0-0.64,0-1.28,0-1.92c-0.64,0-1.278,0-1.92,0c-28.399,0-56.8,0-85.2,0c0-36.241,0-72.479,0-108.72c30.161,0,60.32,0,90.48,0
			c0.08,0,0.16,0,0.24,0c0.56,0,1.12,0,1.68,0c0-0.641,0-1.28,0-1.921c0.32,0,0.641,0,0.96,0c1.148,0.349,0.597-1.004,0.72-1.68
			c0-23.84,0-47.68,0-71.52c6.722,0,13.44,0,20.16,0c0,3.92,0,7.84,0,11.76c0,0.08,0,0.16,0,0.24c0,0.64,0,1.279,0,1.92
			c0.562,0,1.12,0,1.682,0c0.08,0,0.158,0,0.238,0c0.562,0,1.12,0,1.682,0c2.398,0,4.8,0,7.199,0c0.561,0,1.119,0,1.681,0
			c0.146,0.574-0.302,1.741,0.24,1.92c0.56,0,1.118,0,1.68,0c0,0.64,0,1.28,0,1.92c0.56,0,1.12,0,1.68,0c0,0.72,0,1.44,0,2.16
			c0.642,0,1.28,0,1.921,0c0,0.56,0,1.12,0,1.68c0.179,0.541,1.347,0.094,1.92,0.24c0,0.64,0,1.28,0,1.92c0,3.28,0,6.56,0,9.84
			c0,0.641,0,1.28,0,1.92c0.561,0,1.119,0,1.681,0c0.08,0,0.159,0,0.239,0c0.104,0.537,1.184,0.098,1.681,0.24
			c9.681,0,19.359,0,29.04,0c0.497-0.143,1.576,0.297,1.68-0.24c0-0.64,0-1.279,0-1.92c0-3.28,0-6.56,0-9.84c0-0.64,0-1.28,0-1.92
			c0.574-0.146,1.741,0.301,1.921-0.24c0-0.56,0-1.12,0-1.68c0.641,0,1.279,0,1.92,0c0-0.72,0-1.44,0-2.16c0.561,0,1.12,0,1.68,0
			c0-0.64,0-1.28,0-1.92c0.562,0,1.12,0,1.681,0c0.541-0.179,0.095-1.346,0.24-1.92c0.561,0,1.12,0,1.681,0c2.398,0,4.8,0,7.199,0
			c0.561,0,1.12,0,1.681,0c0.08,0,0.16,0,0.24,0c0.56,0,1.119,0,1.68,0c0-0.641,0-1.28,0-1.92c0-0.08,0-0.16,0-0.24
			c0-3.92,0-7.84,0-11.76c7.28,0,14.561,0,21.84,0c0,4,0,8,0,12c0,0.64,0,1.279,0,1.92c0.561,0,1.12,0,1.681,0
			c0.08,0,0.159,0,0.239,0c2.961,0,5.92,0,8.881,0c0.561,0,1.119,0,1.681,0c0.64,0,1.279,0,1.92,0c0,0.64,0,1.279,0,1.92
			c0.56,0,1.12,0,1.68,0c0.146,0.574-0.301,1.741,0.24,1.92c0.561,0,1.12,0,1.68,0c0,0.72,0,1.44,0,2.16c0.642,0,1.28,0,1.92,0
			c0,0.56,0,1.12,0,1.68c0.033,0.688,1.647-0.208,1.682,0.48c0,0.56,0,1.12,0,1.68c0,3.28,0,6.56,0,9.84c0,0.72,0,1.44,0,2.16
			c0.64,0,1.28,0,1.92,0c9.68,0,19.358,0,29.04,0c1.773,0.415,2.197-0.522,1.92-2.16c0-3.28,0-6.56,0-9.84c0-0.64,0-1.28,0-1.92
			c0.497-0.144,1.576,0.297,1.68-0.24c0-0.56,0-1.12,0-1.68c0.822,0.191,1.345,0.083,1.65-0.24c0.01,0,0.02,0,0.029,0
			c0-0.009,0-0.018,0-0.026c0.331-0.38,0.385-1.037,0.24-1.894c0.561,0,1.119,0,1.68,0c0-0.64,0-1.28,0-1.92
			c0.561,0,1.121,0,1.681,0c0.541-0.179,0.095-1.346,0.24-1.92c0.56,0,1.12,0,1.68,0c3.04,0,6.08,0,9.12,0c0.561,0,1.12,0,1.681,0
			c0.541-0.18,0.094-1.347,0.239-1.92c0.479,0,0.96,0,1.439,0c0.56-3.521,0.081-8.08,0.24-12c9.601,0,19.199,0,28.8,0
			c0,3.92,0,7.84,0,11.76c0.149,0.651-0.306,1.905,0.24,2.16c0.561,0,1.12,0,1.681,0c3.6,0,7.199,0,10.8,0c0,0.64,0,1.279,0,1.92
			c0.641,0,1.28,0,1.92,0c0,0.64,0,1.28,0,1.92c0.497,0.143,1.576-0.296,1.681,0.24c0,0.64,0,1.279,0,1.92c0.64,0,1.279,0,1.92,0
			c0,0.56,0,1.12,0,1.68c0.104,0.537,1.183,0.097,1.681,0.24c0,0.64,0,1.28,0,1.92c0.023,3.977-0.123,8.123,0.239,11.76
			c0.561,0,1.12,0,1.681,0c0.104,0.537,1.184,0.098,1.681,0.24c3.68,0,7.358,0,11.04,0c0,7.84,0,15.68,0,23.52
			c-3.682,0-7.36,0-11.04,0c-0.497,0.144-1.577-0.296-1.681,0.24c0,0.561,0,1.12,0,1.68c-0.832-0.214-1.333-0.098-1.633,0.24
			c-0.017,0-0.032,0-0.048,0c-0.001,0.019-0.001,0.036-0.001,0.054c-0.636,0.822-0.239,2.792-0.238,4.746
			c0,1.895-0.001,3.808,0,4.801c0,0.08,0,0.159,0,0.239c0,0.641,0,1.28,0,1.92c-0.561,0-1.12,0-1.681,0c0,0.641,0,1.28,0,1.921
			c-0.561,0-1.12,0-1.68,0c-0.541,0.179-0.095,1.346-0.24,1.92c0,0.64,0,1.279,0,1.92c-0.497,0.143-1.576-0.296-1.681,0.24
			c0,0.64,0,1.279,0,1.92c-0.561,0-1.12,0-1.681,0c-0.08,0-0.159,0-0.239,0c-3.601,0-7.2,0-10.8,0c-0.641,0-1.28,0-1.921,0
			c0,0.64,0,1.279,0,1.92c0,0.64,0,1.279,0,1.92c0,9.28,0,18.56,0,27.84c0.146,0.574-0.301,1.742,0.24,1.92c0.561,0,1.12,0,1.681,0
			c0,0.64,0,1.28,0,1.92c3.605,0.153,7.83-0.311,11.039,0.24c0.561,0,1.12,0,1.681,0c0,0.56,0,1.12,0,1.68
			c0.104,0.537,1.184,0.098,1.681,0.24c0.146,0.574-0.302,1.742,0.239,1.92c0.497,0.144,1.576-0.297,1.681,0.24
			c0,0.56,0,1.12,0,1.68c0.561,0,1.12,0,1.681,0c0,0.64,0,1.28,0,1.92c0,3.92,0,7.84,0,11.76c0.249,0.552,1.713-0.113,1.92,0.48
			c0,0.56,0,1.12,0,1.68c0.641,0,1.279,0,1.92,0c3.601,0,7.199,0,10.801,0c-0.146,0.574,0.301,1.741-0.24,1.92
			c-31.919,0-63.84,0-95.76,0c-0.561,0-1.12,0-1.682,0c-0.544,0.256-0.091,1.51-0.239,2.16c-0.319,0-0.64,0-0.959,0
			c-1.223-0.342-0.553,1.208-0.722,1.92c0,25.681,0,51.36,0,77.04c-0.56,0-1.119,0-1.68,0c-0.541,0.18-0.094,1.347-0.24,1.92
			c-0.497,0.144-1.576-0.296-1.68,0.24c0,0.561,0,1.12,0,1.68c0,0.721,0,1.44,0,2.16c0.561,0,1.12,0,1.68,0
			c0.146,0.574-0.301,1.741,0.24,1.92c0.561,0,1.12,0,1.68,0c0,63.279,0,126.562,0,189.84c0.089,0.872-0.438,2.359,0.961,1.921
			c0.239,0,0.479,0,0.721,0c0,0.079,0,0.159,0,0.239c0,0.641,0,1.28,0,1.92c0.64,0,1.279,0,1.92,0c32,0,64,0,96,0
			c0,104.162,0,208.318,0,312.48c-3.602,0-7.2,0-10.8,0c0,0.64,0,1.279,0,1.92c-0.642,0-1.28,0-1.921,0c-0.561,0-1.12,0-1.681,0
			c-0.362,3.638-0.216,7.783-0.239,11.76c0,0.08,0,0.16,0,0.24c0,0.561,0,1.12,0,1.68c-0.498,0.144-1.577-0.297-1.681,0.24
			c0,0.641,0,1.279,0,1.92c-0.561,0-1.12,0-1.68,0c-0.541,0.18-0.095,1.346-0.24,1.92c-0.561,0-1.12,0-1.681,0
			c0,0.641,0,1.28,0,1.92c-1.604-0.324-2.245,0.314-1.92,1.921c-3.601,0-7.2,0-10.8,0c-0.641,0-1.28,0-1.921,0
			c0,0.72,0,1.439,0,2.159c0,9.921,0,19.841,0,29.761c0.146,0.573-0.301,1.741,0.24,1.92c0.561,0,1.12,0,1.681,0
			c3.6,0,7.199,0,10.8,0c0.08,0,0.159,0,0.239,0c0.498,0.143,1.577-0.297,1.681,0.24c0,0.561,0,1.12,0,1.68c0.561,0,1.12,0,1.681,0
			c0.146,0.574-0.301,1.742,0.24,1.92c0.56,0,1.119,0,1.68,0c0,0.642,0,1.28,0,1.92c0,0.08,0,0.16,0,0.24c0,0.562,0,1.12,0,1.681
			c0.561,0,1.12,0,1.681,0c0,0.079,0,0.159,0,0.239c0.159,3.841-0.319,8.319,0.239,11.761c0.561,0,1.12,0,1.681,0
			c0,0.641,0,1.279,0,1.92c3.761,0.561,8.561,0.08,12.721,0.239c0,9.841,0,19.682,0,29.521c-4.24,0-8.48,0-12.721,0
			c0,0.64,0,1.28,0,1.92c-0.69,0.028-1.57-0.131-1.92,0.24c0,3.92,0,7.84,0,11.76c0,0.64,0,1.28,0,1.92c-0.561,0-1.12,0-1.681,0
			c0,0.64,0,1.28,0,1.92c-0.561,0-1.12,0-1.68,0c-0.541,0.179-0.095,1.347-0.24,1.92c-0.497,0.145-1.576-0.296-1.681,0.24
			c0,0.56,0,1.12,0,1.68c-0.561,0-1.12,0-1.681,0c-3.209,0.553-7.433,0.087-11.039,0.24c0,0.64,0,1.28,0,1.92
			c-0.561,0-1.12,0-1.681,0c-0.541,0.179-0.095,1.348-0.24,1.92c0,3.921,0,7.841,0,11.762c-19.84,0-39.68,0-59.521,0
			c0-3.921,0-7.841,0-11.762c-0.146-0.572,0.303-1.74-0.239-1.92c-0.561,0-1.12,0-1.681,0c0-0.64,0-1.28,0-1.92
			c-3.601,0-7.199,0-10.8,0c-0.179-0.541-1.347-0.094-1.92-0.24c0-0.56,0-1.12,0-1.68c-0.104-0.536-1.184-0.097-1.681-0.24
			c-0.146-0.573,0.302-1.741-0.239-1.92c-0.562,0-1.12,0-1.681,0c0-0.64,0-1.28,0-1.92c-0.561,0-1.12,0-1.681,0
			c0-0.64,0-1.28,0-1.92c0-0.08,0-0.16,0-0.24c0-3.2,0-6.399,0-9.6c0-0.72,0-1.44,0-2.16c-0.574-0.146-1.741,0.302-1.92-0.24
			c0-0.56,0-1.12,0-1.68c-4.8,0-9.601,0-14.4,0c0-7.92,0-15.84,0-23.761c3.761,0,7.521,0,11.28,0c0.641,0,1.28,0,1.92,0
			c0.453-0.105,1.446,0.326,1.2-0.479c0-0.479,0-0.96,0-1.438c0.56,0,1.12,0,1.68,0c0.56-3.435,0.084-7.897,0.239-11.732
			c0.008-0.011,0.016-0.021,0.023-0.031c0.506-0.126,1.555,0.292,1.656-0.236c-0.206-0.039-0.386-0.062-0.551-0.072
			c0.166,0.013,0.344,0.033,0.551,0.072c0-0.641,0-1.279,0-1.921c0.562,0,1.12,0,1.682,0c0.692-0.105-0.214-1.812,0.479-1.92
			c0.479,0,0.96,0,1.44,0c0-0.64,0-1.278,0-1.92c0-0.08,0-0.16,0-0.239c0-0.561,0-1.119,0-1.681c0.56,0,1.119,0,1.68,0
			c3.601-0.159,7.839,0.319,11.04-0.24c0-0.64,0-1.278,0-1.92c0.561,0,1.12,0,1.68,0c0.56-1.921,0.082-4.878,0.24-7.199
			c0-2.479,0-4.96,0-7.439c0-5.04,0-10.08,0-15.12c0.325-1.605-0.313-2.245-1.92-1.92c-3.601,0-7.2,0-10.8,0
			c-0.146-0.574,0.301-1.741-0.24-1.92c-0.561,0-1.12,0-1.68,0c0-0.641,0-1.28,0-1.92c-0.562,0-1.12,0-1.682,0
			c0-0.721,0-1.44,0-2.16c-0.64,0-1.279,0-1.92,0c0-0.561,0-1.12,0-1.681c-0.104-0.536-1.183-0.098-1.68-0.239
			c0-0.641,0-1.28,0-1.92c0-3.28,0-6.561,0-9.841c0.145-0.854,0.092-1.51-0.236-1.891c0.001,0.003,0,0.006,0.001,0.009
			c-0.001-0.003-0.001-0.006-0.001-0.009l0,0c-0.002-0.009-0.002-0.021-0.004-0.029c-0.01,0-0.02,0-0.029,0
			c-0.306-0.323-0.827-0.432-1.649-0.239c-9.682,0-19.36,0-29.04,0c-0.497,0.143-1.577-0.298-1.681,0.239c-0.081,0-0.16,0-0.239,0
			c-0.562,0-1.12,0-1.682,0c0,0.641,0,1.279,0,1.92c0,3.28,0,6.561,0,9.841c0,0.64,0,1.279,0,1.92c-0.64,0-1.278,0-1.92,0
			c0,0.641,0,1.279,0,1.92c-0.497,0.143-1.576-0.297-1.68,0.24c0,0.64,0,1.279,0,1.92c-0.561,0-1.12,0-1.681,0
			c-0.542,0.179-0.094,1.346-0.239,1.92c-0.561,0-1.12,0-1.681,0c0,0.641,0,1.279,0,1.92c-3.601,0-7.199,0-10.801,0
			c-0.573,0.146-1.741-0.301-1.92,0.24c0,0.56,0,1.119,0,1.68c0,0.08,0,0.16,0,0.24c0,3.92,0,7.84,0,11.76
			c-6.641,0-13.279,0-19.92,0c-0.561,0-1.12,0-1.681,0c-0.541,0.179-0.094,1.347-0.239,1.92c-0.497,0.143-1.576-0.297-1.681,0.24
			c0,33.52,0,67.04,0,100.561c0,0.079,0,0.16,0,0.239c0,0.642,0,1.28,0,1.92c-5.439,0-10.88,0-16.319,0c-0.561,0-1.12,0-1.681,0
			c-0.556,0.886-0.084,2.797-0.239,4.08c0.64,0,1.279,0,1.92,0c0,0.642,0,1.28,0,1.92c5.439,0,10.88,0,16.319,0
			c0,41.521,0,83.04,0,124.562c-24.16,0-48.319,0-72.479,0c0-41.521,0-83.04,0-124.562c11.603-0.157,23.838,0.317,35.04-0.239
			c1.37,0.409,1.289-0.632,1.2-1.681c0-0.079,0-0.16,0-0.239c0.561,0,1.119,0,1.68,0c0-1.279,0-2.561,0-3.841
			c-0.561,0-1.119,0-1.68,0c-0.641,0-1.28,0-1.921,0c-11.439,0-22.88,0-34.319,0c0-0.64,0-1.278,0-1.92c0-0.079,0-0.16,0-0.239
			c0-50.961,0-101.92,0-152.881c0.329-1.209-0.398-1.359-1.439-1.199c-0.08,0-0.16,0-0.24,0c-0.079,0-0.159,0-0.239,0
			c-0.561,0-1.12,0-1.681,0c-27.199,0-54.398,0-81.601,0c0-21.761,0-43.521,0-65.279c7.841,0,15.681,0,23.521,0
			c0.541-0.18,0.095-1.348,0.24-1.92c0.497-0.144,1.576,0.297,1.681-0.24c0-1.28,0-2.561,0-3.84c-0.561,0-1.12,0-1.681,0
			c-0.146-0.574,0.301-1.741-0.24-1.92c-18.64,0-37.279,0-55.92,0c0-11.28,0-22.562,0-33.84c0-5.682,0-11.36,0-17.04
			c0-2.802,0-5.602,0-8.4c0-1.439,0-2.88,0-4.32c0-0.72,0-1.438,0-2.159c0.396-1.979-0.53-1.749-1.92-1.681c0-0.56,0-1.12,0-1.68
			c-2.831-0.438-5.815-0.24-8.64-0.24c-20.052,0-41.457,0-61.921,0c0-15.12,0-30.24,0-45.359c23.521,0,47.041,0,70.561,0
			c0.561,0,1.12,0,1.681,0c0.05-0.751-0.162-1.763,0.239-2.159c0-0.642,0-1.28,0-1.92c-0.64,0-1.279,0-1.92,0
			c0-0.642,0-1.28,0-1.921c-0.64,0-1.279,0-1.92,0c-22.88,0-45.76,0-68.641,0c-0.08,0-0.159,0-0.239,0c-0.561,0-1.12,0-1.681,0
			c-3.601,0-7.2,0-10.801,0C998.533,798.021,998.533,771.062,998.533,744.104z M1351.561,1100.096
			c-0.021-0.91-0.03-1.584,0.252-1.964C1351.529,1098.512,1351.539,1099.188,1351.561,1100.096z M1351.577,1097.833
			c0,0,0-0.003,0.001-0.004C1351.577,1097.83,1351.577,1097.832,1351.577,1097.833c0.241-0.28,0.331-0.711,0.306-1.258
			C1351.91,1097.124,1351.818,1097.554,1351.577,1097.833L1351.577,1097.833L1351.577,1097.833z M1350.146,1097.855
			c-0.005,0.002-0.013,0.002-0.019,0.004C1350.135,1097.857,1350.143,1097.858,1350.146,1097.855z M1350.007,1097.927
			c-0.01,0.009-0.024,0.011-0.032,0.02C1349.983,1097.938,1349.997,1097.936,1350.007,1097.927z M1351.562,1096.283
			c0.004-0.016,0.004-0.033,0.008-0.047C1351.564,1096.25,1351.564,1096.27,1351.562,1096.283z M1351.654,1096.052
			c-0.01,0.015-0.015,0.034-0.022,0.049C1351.641,1096.086,1351.645,1096.064,1351.654,1096.052z M1371.463,1173.222
			c-0.076-0.079-0.165-0.146-0.269-0.197C1371.299,1173.075,1371.387,1173.142,1371.463,1173.222z M1370.387,1172.895
			c0.122-0.009,0.226,0.004,0.329,0.012C1370.612,1172.896,1370.508,1172.887,1370.387,1172.895z M1370.841,1172.912
			c0.128,0.021,0.237,0.058,0.338,0.104C1371.079,1172.97,1370.967,1172.934,1370.841,1172.912z M1371.803,1174.495
			c0.023-0.542-0.067-0.969-0.31-1.246C1371.734,1173.526,1371.828,1173.951,1371.803,1174.495z M1351.538,1097.868
			L1351.538,1097.868L1351.538,1097.868L1351.538,1097.868L1351.538,1097.868c-0.076,0.079-0.165,0.146-0.271,0.196
			C1351.372,1098.013,1351.462,1097.947,1351.538,1097.868z M1351.252,1098.071c-0.1,0.046-0.209,0.083-0.335,0.103
			C1351.042,1098.153,1351.152,1098.118,1351.252,1098.071z M1350.783,1098.181c-0.103,0.009-0.2,0.02-0.318,0.012
			C1350.582,1098.198,1350.683,1098.189,1350.783,1098.181z M1352.076,1097.906c-0.096,0.05-0.175,0.115-0.24,0.192
			C1351.9,1098.021,1351.98,1097.956,1352.076,1097.906z M1352.854,1097.784c-0.159-0.008-0.305-0.005-0.429,0.014
			C1352.549,1097.779,1352.693,1097.775,1352.854,1097.784z M1352.415,1097.8c-0.13,0.021-0.24,0.057-0.334,0.104
			C1352.175,1097.855,1352.285,1097.82,1352.415,1097.8z M1351.883,1096.541c-0.01-0.188-0.033-0.387-0.068-0.599
			C1351.85,1096.154,1351.872,1096.354,1351.883,1096.541z M1351.631,1036.502c0.009,0.017,0.013,0.038,0.024,0.052
			C1351.645,1036.54,1351.64,1036.52,1351.631,1036.502z M1351.569,1036.37c-0.005-0.017-0.005-0.033-0.007-0.049
			C1351.564,1036.336,1351.564,1036.354,1351.569,1036.37z M1371.803,1174.545c-0.011,0.188-0.033,0.386-0.068,0.598
			C1371.77,1174.931,1371.793,1174.73,1371.803,1174.545z M1465.812,1064.503c0.198,0.031,0.379,0.048,0.543,0.053
			C1466.191,1064.551,1466.012,1064.534,1465.812,1064.503z M1466.426,1064.553c0.139,0.001,0.269-0.004,0.382-0.021
			C1466.693,1064.548,1466.564,1064.554,1466.426,1064.553z M1466.842,1064.521c0.121-0.021,0.232-0.051,0.329-0.092
			C1467.073,1064.472,1466.963,1064.502,1466.842,1064.521z M1467.178,1064.427c0.104-0.044,0.193-0.099,0.271-0.164
			C1467.371,1064.328,1467.281,1064.384,1467.178,1064.427z M1451.429,359.643c-0.002,0.058-0.002,0.117-0.005,0.174
			C1451.427,359.759,1451.426,359.7,1451.429,359.643z M1467.768,1060.202c-0.005-0.081-0.01-0.161-0.014-0.242
			C1467.758,1060.041,1467.763,1060.122,1467.768,1060.202z M1451.355,360.715c-0.008,0.08-0.01,0.166-0.019,0.244
			C1451.347,360.88,1451.349,360.795,1451.355,360.715z M1467.493,1064.22L1467.493,1064.22c0.638-0.602,0.427-1.96,0.304-3.584
			C1467.923,1062.263,1468.131,1063.618,1467.493,1064.22z"/>
		<path fill="#09252E" d="M1119.733,355.543c-0.35,1.148,1.003,0.596,1.68,0.72c25.521,0,51.04,0,76.562,0
			c0.853-0.025,2.089,0.329,1.68-0.96c0-0.319,0-0.64,0-0.96c0.56,0,1.12,0,1.68,0c0-0.64,0-1.279,0-1.92c0-18.479,0-36.96,0-55.44
			c0-0.64,0-1.28,0-1.92c-0.103-0.537-1.183-0.097-1.68-0.24c-0.08,0-0.16,0-0.24,0c-15.68,0-31.359,0-47.04,0
			c-0.715,0.247-1.561-0.359-1.92,0c-0.408,0.409,0.295,1.522,0,2.16c0,7.84,0,15.68,0,23.52c0.147,0.651-0.305,1.905,0.24,2.16
			c0.561,0,1.12,0,1.68,0c0,0.64,0,1.28,0,1.92c-10.8,0-21.6,0-32.399,0c-0.541,0.179-0.094,1.346-0.239,1.92
			c-0.497,0.144-1.577-0.297-1.681,0.24c0,8.56,0,17.12,0,25.68c0,0.641,0,1.28,0,1.92c0.561,0,1.12,0,1.681,0
			C1119.733,354.743,1119.733,355.143,1119.733,355.543z"/>
		<path fill="#09252E" d="M661.333,375.943c0,0.72,0,1.439,0,2.159c0.64,0,1.28,0,1.92,0c10.88,0,21.76,0,32.64,0
			c0,0.641,0,1.28,0,1.921c0,11.84,0,23.68,0,35.52c0.104,0.537,1.184,0.097,1.681,0.24c0,0.56,0,1.12,0,1.68
			c0.179,0.542,1.346,0.094,1.92,0.24c4.24,0,8.479,0,12.72,0c0.646-0.257,1.551,0.369,1.92,0s-0.257-1.274,0-1.92
			c0-2.721,0-5.44,0-8.16c0-0.64,0-1.28,0-1.92c0.561,0,1.12,0,1.68,0c0-0.641,0-1.28,0-1.92c0.561,0,1.12,0,1.681,0
			c0.542-0.18,0.094-1.347,0.239-1.92c0.497-0.144,1.577,0.297,1.681-0.24c0-0.561,0-1.12,0-1.68c0.56,0,1.12,0,1.68,0
			c0.402-0.398,0.191-1.409,0.24-2.16c0-0.641,0-1.28,0-1.92c0.56,0,1.12,0,1.68,0c0.08,0,0.16,0,0.24,0c3.52,0,7.04,0,10.56,0
			c0.541-0.18,0.095-1.347,0.24-1.92c0.498-0.144,1.577,0.297,1.68-0.24c0-4.561,0-9.12,0-13.681c0-1.279,0-2.56,0-3.84
			c0-0.08,0-0.16,0-0.239c0-4.561,0-9.12,0-13.681c0-0.64,0-1.279,0-1.92c-0.104-0.537-1.183-0.097-1.68-0.24c-0.08,0-0.16,0-0.24,0
			c0-0.479,0-0.96,0-1.439c-3.047-0.713-7.751,0.229-10.8-0.48c-0.497-0.143-1.577,0.296-1.68-0.239
			c-0.144-0.497,0.296-1.577-0.24-1.681c-0.497-0.143-1.577,0.297-1.68-0.239c0-0.561,0-1.12,0-1.681c-0.561,0-1.12,0-1.681,0
			c0-0.72,0-1.439,0-2.16c-0.64,0-1.279,0-1.92,0c0-0.56,0-1.12,0-1.68c-0.104-0.537-1.183-0.097-1.68-0.24c0-0.64,0-1.279,0-1.92
			c0-2.64,0-5.28,0-7.92c-0.146-0.574,0.301-1.741-0.24-1.92c0-0.64,0-1.28,0-1.92c-9.789-0.531-20.539-0.103-30.72-0.24
			c0,0.72,0,1.44,0,2.16c-0.64,0-1.28,0-1.92,0c0,4,0,8,0,12c0,0.56,0,1.12,0,1.68c-0.498,0.144-1.577-0.297-1.68,0.24
			c0,0.64,0,1.28,0,1.92c-0.561,0-1.12,0-1.681,0c-0.542,0.179-0.094,1.346-0.239,1.92c-0.561,0-1.12,0-1.681,0
			c0,0.641,0,1.28,0,1.92c-0.56,0-1.119,0-1.68,0c-3.209,0.552-7.434,0.086-11.04,0.24c0,0.561,0,1.12,0,1.68
			c-0.822-0.191-1.344-0.083-1.649,0.24c-0.011,0-0.021,0-0.03,0c0,0.009,0,0.019,0,0.026c-0.331,0.38-0.386,1.038-0.24,1.894
			C661.333,366.823,661.333,371.383,661.333,375.943z"/>
		<path fill="#09252E" d="M1326.373,403.783c0,0.64,0,1.279,0,1.92c0.561,0,1.12,0,1.681,0c0.08,0,0.159,0,0.239,0
			c0,0.64,0,1.28,0,1.92c4.205,0.035,8.621-0.14,12.48,0.24c0,0.56,0,1.12,0,1.68c0.112,0.52,1.547,0.113,1.68,0.24
			c0.46,0.438-0.526,1.146,0.24,1.92c0.561,0,1.12,0,1.68,0c0.146,0.574-0.301,1.741,0.24,1.92c0.497,0.143,1.576-0.297,1.68,0.24
			c0,0.56,0,1.12,0,1.68c0.104,0.537,1.185,0.097,1.682,0.24c0,3.92,0,7.84,0,11.76c0.572,0.146,1.74-0.301,1.92,0.24
			c0,0.56,0,1.12,0,1.68c9.04,0,18.08,0,27.12,0c0.64,0,1.278,0,1.92,0c0-0.64,0-1.28,0-1.92c0.64,0,1.278,0,1.92,0
			c0-0.64,0-1.28,0-1.92c0-3.28,0-6.561,0-9.84c0-0.08,0-0.16,0-0.24c0.56,0,1.12,0,1.68,0c0-0.64,0-1.28,0-1.92
			c0.562,0,1.12,0,1.681,0c0-0.64,0-1.28,0-1.92c0.08,0,0.16,0,0.239,0c0.562,0,1.12,0,1.681,0c0-0.641,0-1.28,0-1.92
			c0-0.08,0-0.16,0-0.24c0.561,0,1.121,0,1.681,0c0-0.56,0-1.12,0-1.68c0.146-0.015,0.284-0.036,0.24-0.24c3.6,0,7.199,0,10.8,0
			c0-0.64,0-1.28,0-1.92c0.561,0,1.12,0,1.68,0c0.08,0,0.16,0,0.24,0c0.32,0,0.641,0,0.96,0c0.943,0.304,0.714-0.566,0.72-1.2
			c0-0.64,0-1.28,0-1.92c0-9.44,0-18.88,0-28.32c-0.058-0.742-1.975,0.375-1.68-0.72c-0.139-0.422,0.29-1.41-0.24-1.44
			c-3.6,0-7.199,0-10.8,0c-0.56,0-1.12,0-1.68,0c0-0.72,0-1.439,0-2.159c-0.642,0-1.28,0-1.921,0c0-0.561,0-1.12,0-1.681
			c-0.617-0.633-1.219,0.129-1.681-0.479c-0.338-0.446,0.433-1.24-0.239-1.681c-0.561,0-1.119,0-1.681,0c0-0.64,0-1.279,0-1.92
			c-0.56,0-1.12,0-1.68,0c0-0.64,0-1.279,0-1.92c0-0.08,0-0.16,0-0.24c0-3.279,0-6.56,0-9.84c-0.642,0-1.28,0-1.92,0
			c0-0.64,0-1.279,0-1.92c-7.179,0-14.985,0-21.841,0c-2.485,0-4.842-0.2-7.199,0.24c0,0.56,0,1.12,0,1.68c-0.641,0-1.28,0-1.92,0
			c0,3.28,0,6.561,0,9.84c0,0.721,0,1.44,0,2.16c-0.562,0-1.12,0-1.682,0c0,0.641,0,1.28,0,1.92c-0.56,0-1.119,0-1.68,0
			c-0.541,0.18-0.094,1.347-0.24,1.92c-0.64,0-1.279,0-1.92,0c0,0.641,0,1.28,0,1.921c-0.497,0.143-1.576-0.297-1.68,0.239
			c0,0.641,0,1.28,0,1.92c-0.562,0-1.12,0-1.681,0c-0.08,0-0.16,0-0.239,0c-3.521,0-7.041,0-10.562,0
			c-0.541,0.18-0.094,1.347-0.239,1.92c-0.479,0-0.96,0-1.439,0c-0.439,2.311-0.24,4.812-0.24,7.2
			C1326.373,388.823,1326.373,396.459,1326.373,403.783z"/>
		<path fill="#09252E" d="M1005.733,395.863c0-0.641,0-1.28,0-1.92c0.176-0.369,1.438,0.462,1.92,0c0.213-0.204,0-2.501,0-3.36
			c0-3.373,0-8.433,0-10.56c0-1.36,0-2.721,0-4.08c0-4.561,0-9.12,0-13.681c0-0.72,0-1.439,0-2.159c-0.641,0-1.28,0-1.92,0
			c0-0.561,0-1.12,0-1.681c-4.24,0-8.48,0-12.721,0c-0.104-0.537-1.184-0.097-1.681-0.24c-0.146-0.573,0.302-1.741-0.239-1.92
			c0-0.64,0-1.279,0-1.92c-0.498-0.143-1.577,0.297-1.681-0.239c0-0.641,0-1.28,0-1.921c-0.497-0.143-1.576,0.296-1.68-0.239
			c0-0.561,0-1.12,0-1.681c-0.641,0-1.28,0-1.921,0c0-0.64,0-1.279,0-1.92c0-2.64,0-5.279,0-7.92c0-0.64,0-1.28,0-1.92
			c-0.64,0-1.279,0-1.92,0c0-0.64,0-1.28,0-1.92c-2.212-0.438-4.614-0.24-6.96-0.24c-5.087,0-10.04,0-14.88,0
			c-2.438,0-4.909-0.198-7.2,0.24c-0.545,0.175-1.873-0.433-1.68,0.479c0,0.48,0,0.961,0,1.44c0,0.64,0,1.28,0,1.92
			c0,2.641,0,5.28,0,7.92c0,0.641,0,1.28,0,1.92c-1.605-0.324-2.246,0.314-1.921,1.92c-0.497,0.144-1.576-0.297-1.68,0.24
			c0,0.641,0,1.28,0,1.92c-0.561,0-1.12,0-1.681,0c-0.542,0.18-0.094,1.347-0.239,1.92c-0.561,0-1.12,0-1.681,0
			c-0.542,0.18-0.094,1.347-0.24,1.92c-0.873-0.073-1.562,0.038-2.159,0.24c-2.24,0-4.479,0-6.721,0
			c-0.603,0.198-2.065-0.466-1.92,0.48c0,0.399,0,0.8,0,1.2c-0.497,0.143-1.577-0.298-1.681,0.239c0,0.561,0,1.12,0,1.681
			c0,0.08,0,0.159,0,0.239c0,4.561,0,9.12,0,13.681c0,0.08,0,0.16,0,0.239c0,0.561,0,1.12,0,1.681c0,0.72,0,1.439,0,2.16
			c0,4.56,0,9.119,0,13.68c0,0.08,0,0.16,0,0.24c0,0.64,0,1.279,0,1.92c0.561,0,1.12,0,1.681,0c0.08,0,0.16,0,0.24,0
			c2.959,0,5.92,0,8.88,0c0.561,0,1.12,0,1.681,0c0.146,0.574-0.303,1.741,0.239,1.92c0.561,0,1.12,0,1.681,0c0,0.72,0,1.439,0,2.16
			c0.08,0,0.159,0,0.239,0c0,0.56,0,1.12,0,1.68c0.561,0,1.12,0,1.681,0c0,0.08,0,0.16,0,0.24c0,0.64,0,1.279,0,1.92
			c0.561,0,1.12,0,1.68,0c0.146,0.574-0.301,1.742,0.24,1.92c0.561,0,1.12,0,1.681,0c0,0.72,0,1.439,0,2.16c0,2.56,0,5.12,0,7.68
			c0,0.08,0,0.16,0,0.24c0,0.56,0,1.12,0,1.68c0.178,0.542,1.346,0.094,1.92,0.24c9.601,0,19.199,0,28.8,0
			c0.573-0.146,1.741,0.301,1.92-0.24c0-0.56,0-1.12,0-1.68c0-0.08,0-0.16,0-0.24c0-2.64,0-5.28,0-7.92c0-0.64,0-1.28,0-1.92
			c0.561,0,1.12,0,1.681,0c0.597-0.921-0.436-2.486,1.92-1.92c0-0.641,0-1.28,0-1.92c0-0.08,0-0.16,0-0.24c0-0.56,0-1.12,0-1.68
			c0.716-0.247,1.561,0.358,1.92,0c0.409-0.409-0.295-1.522,0-2.16c0.561,0,1.12,0,1.681,0c0-0.641,0-1.28,0-1.92
			c3.681,0,7.359,0,11.04,0C1004.613,395.863,1005.174,395.863,1005.733,395.863z"/>
		<path fill="#09252E" d="M967.573,469.062c0-0.64,0-1.279,0-1.92c-0.641,0-1.28,0-1.92,0c0,0.641,0,1.28,0,1.92
			c-0.561,0-1.12,0-1.681,0c0,0.641,0,1.28,0,1.921c0,1.92,0,3.84,0,5.76c-12.08,0-24.159,0-36.239,0c0,0.72,0,1.439,0,2.16
			c-0.561,0-1.12,0-1.681,0c-0.383,4.938-0.341,10.894,0,15.84c0.497,0.143,1.576-0.297,1.681,0.24c0,0.56,0,1.119,0,1.68
			c3.68,0,7.359,0,11.04,0c0.496,0.143,1.575-0.297,1.68,0.24c0,0.56,0,1.12,0,1.68c0.104,0.537,1.183,0.097,1.68,0.24
			c0,0.64,0,1.279,0,1.92c0.642,0,1.28,0,1.921,0c0,0.64,0,1.28,0,1.92c0.561,0,1.12,0,1.681,0c0.146,0.574-0.303,1.741,0.239,1.92
			c0.561,0,1.12,0,1.681,0c0,0.64,0,1.28,0,1.92c0,3.28,0,6.561,0,9.84c0,0.72,0,1.44,0,2.16c0.64,0,1.279,0,1.92,0
			c4.721,0.16,10.08-0.319,14.399,0.24c0,3.2,0,6.399,0,9.6c-4.8,0-9.601,0-14.399,0c-0.561,0-1.12,0-1.681,0
			c-0.542,0.179-0.094,1.347-0.239,1.92c0,3.28,0,6.561,0,9.84c-0.641,0-1.28,0-1.92,0c0,0.641,0,1.28,0,1.921
			c-0.497,0.143-1.577-0.298-1.681,0.239c0,0.641,0,1.28,0,1.92c-0.641,0-1.279,0-1.921,0c0,0.641,0,1.28,0,1.92
			c-0.56,0-1.119,0-1.68,0c0,0.641,0,1.28,0,1.92c0,0.08,0,0.16,0,0.24c0,0.561,0,1.12,0,1.681c-0.641,0-1.279,0-1.92,0
			c-2.96,0-5.92,0-8.88,0c-0.574,0.146-1.741-0.302-1.92,0.239c0,0.641,0,1.28,0,1.92c-0.641,0-1.28,0-1.92,0
			c0,4.561,0,9.12,0,13.681c-4.721,0-9.44,0-14.16,0c0-0.561,0-1.12,0-1.681c0-4,0-8,0-12c0-0.72,0-1.439,0-2.159
			c-0.641,0-1.28,0-1.92,0c-3.04,0-6.08,0-9.12,0c-0.561,0-1.12,0-1.68,0c0-0.641,0-1.28,0-1.921c0-0.64,0-1.279,0-1.92
			c-0.642,0-1.28,0-1.921,0c0-0.64,0-1.279,0-1.92c-0.561,0-1.119,0-1.681,0c-0.295-0.638,0.409-1.751,0-2.159
			c-0.359-0.359-1.204,0.246-1.92,0c0-0.561,0-1.12,0-1.681c-0.104-0.537-1.183-0.097-1.68-0.24c0-0.64,0-1.279,0-1.92
			c0-2.64,0-5.279,0-7.92c-0.146-0.573,0.301-1.741-0.24-1.92c-0.561,0-1.12,0-1.68,0c-0.08,0-0.16,0-0.24,0c-9.6,0-19.2,0-28.8,0
			c-0.562,0-1.12,0-1.681,0c-0.542,0.18-0.095,1.347-0.239,1.92c0,2.641,0,5.28,0,7.92c0,0.641,0,1.28,0,1.92
			c-0.497,0.144-1.577-0.297-1.681,0.24c0,0.561,0,1.12,0,1.681c-0.641,0-1.279,0-1.921,0c0,0.72,0,1.439,0,2.159
			c-0.56,0-1.119,0-1.68,0c0,0.641,0,1.28,0,1.92c0,0.641,0,1.28,0,1.92c-0.573,0.146-1.741-0.301-1.92,0.24c0,0.561,0,1.12,0,1.681
			c-0.561,0-1.12,0-1.681,0c-3.681,0-7.359,0-11.039,0c-0.562,0-1.12,0-1.682,0c0,0.72,0,1.439,0,2.159c0,4.561,0,9.12,0,13.681
			c-4.239,0-8.479,0-12.72,0c0-4.561,0-9.12,0-13.681c0-0.64,0-1.279,0-1.92c-0.56,0-1.12,0-1.68,0
			c-0.35-0.371-1.229-0.211-1.92-0.239c-3.602,0-7.2,0-10.802,0c0-0.641,0-1.28,0-1.921c-0.64,0-1.278,0-1.92,0
			c0-0.64,0-1.279,0-1.92c-0.56,0-1.119,0-1.68,0c0-0.64,0-1.279,0-1.92c0-0.64,0-1.279,0-1.92c-0.349-0.371-1.229-0.211-1.92-0.239
			c0-0.561,0-1.12,0-1.681c-0.362-0.66-1.206,0.155-1.68-0.479c-0.672-0.899,0.546-8.912,0-9.601
			c-0.146-0.573,0.301-1.741-0.24-1.92c-0.561,0-1.12,0-1.68,0c-9.682,0-19.36,0-29.04,0c-0.562,0-1.12,0-1.682,0
			c-0.541,0.18-0.094,1.347-0.239,1.92c0,3.262,0,6.521,0,9.782c0.073-0.096,0.13-0.211,0.178-0.336
			c-0.048,0.125-0.104,0.24-0.178,0.336l0,0c-0.019,0.025-0.043,0.044-0.063,0.067l0,0c-0.07,0.078-0.154,0.142-0.248,0.193
			c0.094-0.053,0.178-0.116,0.248-0.193c-0.521,0.097-1.518-0.285-1.616,0.23c0.192,0.052,0.365,0.081,0.523,0.097
			c-0.159-0.017-0.33-0.045-0.523-0.097c0,0.561,0,1.12,0,1.681c-0.64,0-1.279,0-1.92,0c0,0.72,0,1.439,0,2.159
			c-0.56,0-1.12,0-1.68,0c0,0.641,0,1.28,0,1.92c-0.642,0-1.28,0-1.92,0c0,0.641,0,1.28,0,1.921c0,0.64,0,1.279,0,1.92
			c-0.562,0-1.12,0-1.681,0c-3.041,0-6.08,0-9.12,0c-0.69,0.028-1.57-0.132-1.921,0.239c-0.56,0-1.119,0-1.68,0
			c0,0.641,0,1.28,0,1.92c0,4.561,0,9.12,0,13.681c-4.8,0-9.6,0-14.4,0c0-4.561,0-9.12,0-13.681c0-0.72,0-1.439,0-2.159
			c-0.64,0-1.279,0-1.92,0c-3.04,0-6.08,0-9.12,0c-0.496-0.144-1.576,0.297-1.68-0.24c0-0.48,0-0.96,0-1.44
			c-0.349-0.371-1.229-0.211-1.92-0.239c0-0.641,0-1.28,0-1.921c-0.56,0-1.12,0-1.68,0c-0.146-0.573,0.301-1.74-0.24-1.92
			c-0.497-0.143-1.577,0.296-1.68-0.239c0-0.561,0-1.12,0-1.681c0-0.08,0-0.159,0-0.239c0-0.641,0-1.28,0-1.92
			c-0.498-0.144-1.577,0.296-1.681-0.24c-0.019-3.901,0.116-7.956-0.239-11.521c-0.561,0-1.12,0-1.681,0c-0.64,0-1.279,0-1.92,0
			c-9.04,0-18.08,0-27.12,0c-0.56,0-1.119,0-1.68,0c-0.541,0.18-0.094,1.347-0.24,1.92c0,2.641,0,5.28,0,7.92c0,0.641,0,1.28,0,1.92
			c-0.498,0.144-1.577-0.297-1.68,0.24c0,0.561,0,1.12,0,1.681c-0.64,0-1.28,0-1.92,0c0,0.72,0,1.439,0,2.159
			c-0.561,0-1.12,0-1.68,0c0,0.641,0,1.28,0,1.92c-0.561,0-1.12,0-1.681,0c0,0.641,0,1.28,0,1.92
			c-0.371,0.35-0.211,1.229-0.239,1.921c-0.561,0-1.12,0-1.681,0c-3.04,0-6.08,0-9.12,0c-0.716,0.246-1.561-0.359-1.92,0
			c-0.408,0.408,0.295,1.521,0,2.159c-0.16,4.48,0.319,9.601-0.239,13.681c-5.28,0-10.561,0-15.841,0c-0.64,0-1.279,0-1.92,0
			c0-41.439,0-82.881,0-124.32c0-0.08,0-0.16,0-0.24c0-0.64,0-1.28,0-1.92c-0.56,0-1.12,0-1.68,0c-0.08,0-0.16,0-0.24,0
			c-70,0-140,0-210,0c-0.56,0-1.12,0-1.68,0c-23.04,0-46.08,0-69.12,0c-0.56,0-1.12,0-1.68,0c-45.921,0-91.839,0-137.76,0
			c-0.56,0-1.12,0-1.68,0c-19.92,0-39.84,0-59.76,0c-0.56,0-1.12,0-1.68,0c-0.541,0.179-0.094,1.346-0.24,1.92
			c0,24.08,0,48.16,0,72.24c0,12.08,0,24.16,0,36.24c0,6,0,12,0,18c0,3.04,0,6.08,0,9.12c0.159,2.881-0.319,6.398,0.24,8.88
			c0.56,0,1.12,0,1.68,0c0,0.64,0,1.279,0,1.92c0.56,0,1.12,0,1.68,0c0.542-0.18,0.094-1.347,0.24-1.92c0-0.641,0-1.28,0-1.92
			c0.4,0,0.8,0,1.2,0c0.806,0.247,0.374-0.746,0.48-1.2c0-0.641,0-1.28,0-1.92c0.159-3.521-0.319-7.681,0.24-10.8
			c3.486,0,7.245,0,10.8,0c3.824,0,7.357-0.198,10.8,0.239c0,3.601,0,7.2,0,10.8c0,0.561,0,1.12,0,1.681
			c0.006,0.634-0.224,1.504,0.72,1.2c0.32,0,0.64,0,0.96,0c0,0.64,0,1.279,0,1.92c0.56,0,1.12,0,1.68,0
			c0.146,0.573-0.301,1.74,0.24,1.92c24.08,0,48.16,0,72.24,0c0.542-0.18,0.094-1.347,0.24-1.92c0.56,0,1.12,0,1.68,0
			c18.16,0,36.32,0,54.48,0c0.56,0,1.12,0,1.68,0c0,0.64,0,1.279,0,1.92c0.56,0,1.12,0,1.68,0c12.72,0,25.44,0,38.16,0
			c0.64,0,1.28,0,1.92,0c13.2,0,26.4,0,39.6,0c0.08,0,0.16,0,0.24,0c0.56,0,1.12,0,1.68,0c0-0.641,0-1.28,0-1.92
			c9.68,0,19.36,0,29.04,0c2.4,0,4.8,0,7.2,0s4.8,0,7.2,0c0,0.64,0,1.279,0,1.92c1.84,0,3.68,0,5.52,0c1.841,0,3.681,0,5.521,0
			c1.2,0,2.399,0,3.6,0c0.561,0,1.12,0,1.681,0c0.079,0,0.159,0,0.239,0c25.921,0,51.841,0,77.761,0c0.56,0,1.119,0,1.68,0
			c0-0.641,0-1.28,0-1.92c19.359,0,38.72,0,58.08,0c0,0.64,0,1.279,0,1.92c0.56,0,1.12,0,1.68,0c0.08,0,0.16,0,0.24,0
			c27.2,0,54.398,0,81.6,0c0.854-0.027,2.089,0.329,1.681-0.96c0-0.32,0-0.641,0-0.96c0.56,0,1.119,0,1.68,0
			c0.396-0.107,0.396-1.813,0-1.92c-0.561,0-1.12,0-1.68,0c0-0.641,0-1.28,0-1.92c0.231-0.351,1.452,0.447,1.92,0
			c0.178-0.172,0-2.058,0-2.881c0-2.909,0-7.308,0-9.119c15.099,0,31.151,0,45.84,0c2.104,0,4.362-0.197,6.479,0.239
			c0,3.92,0,7.84,0,11.761c0,0.64,0,1.279,0,1.92c0,0.64,0,1.279,0,1.92c0.641,0,1.28,0,1.919,0c0,0.64,0,1.279,0,1.92
			c0.562,0,1.12,0,1.682,0c27.2,0,54.398,0,81.6,0c0.562,0,1.12,0,1.68,0c0.693-0.107-0.213-1.813,0.48-1.92c0.479,0,0.96,0,1.438,0
			c0-0.641,0-1.28,0-1.92c0-0.721,0-1.44,0-2.16c0-3.92,0-7.84,0-11.76c17.521,0,35.041,0,52.562,0c0,3.92,0,7.84,0,11.76
			c-0.497-0.144-1.576,0.296-1.68-0.24c-0.003-0.638,0.09-1.371-0.24-1.68c-0.562,0-1.12,0-1.68,0c0-0.641,0-1.28,0-1.92
			c0-0.641,0-1.28,0-1.92c-0.498-0.144-1.577,0.297-1.682-0.24c0-0.561,0-1.12,0-1.68c-0.349-0.371-1.229-0.212-1.92-0.24
			c-2.398,0-4.8,0-7.2,0c-1.198,0-2.398,0-3.6,0c-0.402,0.397-0.191,1.409-0.24,2.16c0,1.359,0,2.72,0,4.08c-0.56,0-1.12,0-1.68,0
			c-0.144,0.496,0.297,1.576-0.24,1.68c-0.638,0.002-1.37-0.091-1.68,0.24c0,0.64,0,1.279,0,1.92
			c0.159,3.841-0.319,8.319,0.24,11.76c0,1.28,0,2.56,0,3.84c1.423-0.144,2.139,0.421,3.6,0.24c0.56,0,1.12,0,1.68,0
			c3.682,0,7.36,0,11.04,0c0.562,0,1.12,0,1.682,0c1.461,0.181,2.176-0.384,3.6-0.24c0-1.28,0-2.56,0-3.84c0-0.641,0-1.28,0-1.92
			c0-0.72,0-1.44,0-2.16c0-0.64,0-1.28,0-1.92s0-1.28,0-1.92c0-0.641,0-1.28,0-1.92c0.56,0,1.12,0,1.68,0
			c0.146,0.574-0.301,1.741,0.24,1.92c27.68,0,55.36,0,83.04,0c0.08,0,0.16,0,0.24,0c0.64,0,1.279,0,1.92,0c0-0.641,0-1.28,0-1.92
			c0-0.641,0-1.28,0-1.92c0-0.641,0-1.28,0-1.92c0-36.959,0-73.92,0-110.88C967.667,470.409,968.114,469.242,967.573,469.062z
			 M770.409,537.989c-0.005-0.183-0.013-0.368-0.022-0.561C770.396,537.621,770.404,537.807,770.409,537.989z M770.385,537.401
			c-0.014-0.25-0.028-0.509-0.044-0.77C770.355,536.894,770.371,537.151,770.385,537.401z M770.316,536.161
			c-0.004-0.069-0.007-0.138-0.01-0.207C770.311,536.023,770.312,536.092,770.316,536.161z M770.41,538.617
			c0.006-0.159,0.006-0.324,0.002-0.496C770.416,538.293,770.416,538.458,770.41,538.617z M770.349,539.263
			c-0.021,0.127-0.051,0.245-0.087,0.355C770.298,539.508,770.327,539.39,770.349,539.263z M770.409,538.685
			c-0.008,0.179-0.022,0.346-0.046,0.503C770.387,539.03,770.401,538.863,770.409,538.685z M769.336,540.434
			c-0.099,0.014-0.209,0.016-0.326,0.01C769.127,540.448,769.237,540.448,769.336,540.434z M769.699,540.327
			c-0.083,0.041-0.176,0.07-0.277,0.091C769.521,540.396,769.616,540.368,769.699,540.327z"/>
		<path fill="#09252E" d="M1279.333,476.743c-0.573,0.146-1.741-0.302-1.92,0.24c0,0.64,0,1.279,0,1.92c0,3.279,0,6.56,0,9.84
			c-0.561,0-1.12,0-1.681,0c0.036,0.212,0.06,0.411,0.069,0.598c-0.01-0.187-0.033-0.386-0.069-0.598
			c-0.531,0.176-0.109,1.307-0.235,1.89c-0.002,0.002-0.005,0.004-0.007,0.006c-0.01,0.011-0.021,0.019-0.032,0.029l0,0
			c-0.076,0.079-0.165,0.146-0.271,0.197c0.104-0.052,0.193-0.118,0.271-0.197c-0.509,0.117-1.543-0.291-1.646,0.235
			c0,0.56,0,1.12,0,1.68c-0.716,0.247-1.561-0.359-1.92,0c-0.408,0.409,0.295,1.521,0,2.16c-0.561,0-1.119,0-1.681,0
			c0,0.64,0,1.28,0,1.92c-0.56,0-1.119,0-1.68,0c-0.541,0.179-0.095,1.346-0.24,1.92c-3.601,0-7.199,0-10.8,0
			c-0.646,0.257-1.552-0.369-1.92,0c-0.369,0.369,0.257,1.274,0,1.92c0,0.08,0,0.16,0,0.24c0,3.92,0,7.84,0,11.76
			c-3.601,0-7.2,0-10.801,0c0-11.84,0-23.68,0-35.52c-0.104-0.537-1.183-0.098-1.68-0.24c0.89-2.926-1.779-1.647-3.602-1.92
			c-0.349,0.371-1.229,0.211-1.92,0.24c0,0.56,0,1.119,0,1.68c0,0.08,0,0.16,0,0.24c0,0.64,0,1.279,0,1.92c0,11.2,0,22.399,0,33.6
			c0,0.72,0,1.44,0,2.16c0,0.56,0,1.12,0,1.68c0,0.72,0,1.44,0,2.16c0,21.04,0,42.08,0,63.12c-1.124,0.155-2.874-0.314-3.6,0.24
			c0,0.64,0,1.279,0,1.92c-0.561,0-1.12,0-1.681,0c-0.541,0.179-0.095,1.346-0.239,1.92c0,0.64,0,1.28,0,1.92
			c-0.146,0.854-0.091,1.513,0.239,1.893c0,0.01,0,0.019,0,0.027c0.01,0,0.021,0,0.029,0c0.308,0.323,0.828,0.432,1.65,0.24
			c1.2,0,2.399,0,3.6,0c0,51.999,0,104,0,156c0,0.08,0,0.16,0,0.238c0,0.642,0,1.28,0,1.922c0.562,0,1.12,0,1.681,0
			c0.081,0,0.16,0,0.24,0c1.119,0,2.239,0,3.359,0c0.08,0,0.16,0,0.24,0c0.56,0,1.119,0,1.68,0c0-0.642,0-1.28,0-1.922
			c0-0.078,0-0.158,0-0.238c0-9.2,0-18.4,0-27.602c33.2,0,66.4,0,99.601,0c0.079,0,0.159,0,0.239,0c0.562,0,1.12,0,1.681,0
			c0-0.64,0-1.278,0-1.92c0-0.72,0-1.438,0-2.16c0-0.56,0-1.119,0-1.68c0-12.56,0-25.12,0-37.68c0-0.641,0-1.28,0-1.92
			c-0.104-0.537-1.184-0.098-1.681-0.24c-0.72,0-1.438,0-2.16,0c-0.496,0.143-1.575-0.297-1.68,0.24c0,0.64,0,1.279,0,1.92
			c-4.16,0-8.32,0-12.479,0c-0.08,0-0.159,0-0.239,0c-0.562,0-1.12,0-1.682,0c0,0.64,0,1.278,0,1.92c0,2.64,0,5.28,0,7.92
			c0,0.64,0,1.28,0,1.92c-1.604-0.326-2.244,0.314-1.92,1.92c-0.64,0-1.278,0-1.92,0c0,0.72,0,1.44,0,2.16c-0.56,0-1.12,0-1.68,0
			c0,0.64,0,1.28,0,1.92c-0.562,0-1.12,0-1.68,0c-0.543,0.179-0.096,1.346-0.24,1.92c-0.497,0.143-1.577-0.297-1.682,0.24
			c0,0.56,0,1.12,0,1.68c-0.56,0-1.119,0-1.68,0c-2.479,0-4.96,0-7.439,0c-0.561,0-1.119,0-1.681,0
			c-0.573,0.146-1.741-0.301-1.92,0.24c0,0.56,0,1.12,0,1.68c0,0.08,0,0.16,0,0.24c0,3.92,0,7.84,0,11.76c0,0.641,0,1.28,0,1.92
			c-7.84,0-15.68,0-23.521,0c0-4.56,0-9.12,0-13.68c0-0.08,0-0.16,0-0.24c0-0.56,0-1.12,0-1.68c-0.104-0.537-1.184-0.099-1.681-0.24
			c-0.64,0-1.279,0-1.92,0c-2.399,0-4.8,0-7.2,0c-0.56,0-1.119,0-1.68,0c0-0.64,0-1.28,0-1.92c-0.641,0-1.28,0-1.92,0
			c-0.146-0.574,0.302-1.741-0.24-1.92c-0.561,0-1.119,0-1.68,0c0-0.641,0-1.28,0-1.92c-0.562,0-1.12,0-1.681,0
			c0-0.72,0-1.44,0-2.16c-0.641,0-1.28,0-1.92,0c0-0.56,0-1.12,0-1.68c-0.104-0.537-1.184-0.099-1.681-0.24c0-0.64,0-1.28,0-1.92
			c0-2.641,0-5.28,0-7.92c-0.146-0.574,0.302-1.741-0.239-1.92c-0.562,0-1.12,0-1.681,0c-4.239,0-8.479,0-12.721,0
			c0-7.28,0-14.562,0-21.84c4.24,0,8.48,0,12.721,0c0.561,0,1.119,0,1.681,0c0.541-0.18,0.094-1.347,0.239-1.92
			c0-3.921,0-7.841,0-11.761c0.497-0.143,1.577,0.297,1.681-0.239c0-0.561,0-1.12,0-1.681c0.715-0.247,1.562,0.359,1.92,0
			c0.408-0.409-0.295-1.521,0-2.16c0.561,0,1.12,0,1.681,0c0-0.64,0-1.279,0-1.92c0.561,0,1.119,0,1.68,0
			c0.66-0.912-0.534-2.486,1.92-1.92c3.682,0,7.36,0,11.04,0c0-0.08,0-0.16,0-0.239c0.562,0,1.12,0,1.681,0c0-0.561,0-1.12,0-1.681
			c0-0.08,0-0.16,0-0.24c0-4.56,0-9.119,0-13.68c7.841,0,15.681,0,23.521,0c0,3.92,0,7.84,0,11.76c0,0.641,0,1.28,0,1.92
			c0,0.08,0,0.16,0,0.24c0,0.641,0,1.28,0,1.92c0.641,0,1.28,0,1.92,0c3.601,0,7.2,0,10.8,0c0.562,0,1.12,0,1.682,0
			c0.146,0.574-0.303,1.741,0.24,1.92c0.496,0.144,1.575-0.296,1.68,0.24c0,0.56,0,1.12,0,1.68c0.56,0,1.12,0,1.68,0
			c0,0.721,0,1.44,0,2.16c0.642,0,1.28,0,1.92,0c0,0.641,0,1.28,0,1.92c0.642,0,1.28,0,1.92,0c0,0.641,0,1.28,0,1.92
			c0,3.28,0,6.561,0,9.841c0,0.64,0,1.279,0,1.92c0.562,0,1.12,0,1.682,0c0.08,0,0.159,0,0.239,0c4.159,0,8.319,0,12.479,0
			c0,0.64,0,1.279,0,1.92c1.841,0.08,3.465,0.375,5.521,0.239c0-0.72,0-1.439,0-2.159c0-0.641,0-1.28,0-1.92
			c0-25.761,0-51.521,0-77.28c0-0.561,0-1.12,0-1.681c0-0.08,0-0.159,0-0.239c0-0.641,0-1.28,0-1.92c-0.561,0-1.119,0-1.681,0
			c-0.08,0-0.16,0-0.24,0c-5.358,0-10.72,0-16.079,0c-0.08,0-0.159,0-0.239,0c-0.562,0-1.12,0-1.682,0c0,0.64,0,1.279,0,1.92
			c0,0.08,0,0.159,0,0.239c0,0.641,0,1.28,0,1.92c0,2.561,0,5.12,0,7.681c0,0.08,0,0.16,0,0.24c0,0.64,0,1.279,0,1.92
			c-0.56,0-1.118,0-1.68,0c-0.541,0.179-0.094,1.346-0.24,1.92c-0.56,0-1.119,0-1.68,0c-0.541,0.179-0.094,1.346-0.24,1.92
			c-0.56,0-1.12,0-1.68,0c0,0.64,0,1.28,0,1.92c-0.691,0.028-1.571-0.131-1.92,0.24c0,0.56,0,1.119,0,1.68c-0.562,0-1.12,0-1.682,0
			c-3.521,0.159-7.679-0.319-10.8,0.24c0,0.64,0,1.279,0,1.92c-0.64,0-1.279,0-1.92,0c0,4.56,0,9.12,0,13.68
			c-7.84,0-15.68,0-23.521,0c0-3.92,0-7.84,0-11.76c0-0.641,0-1.28,0-1.92c-0.561,0-1.119,0-1.681,0c0-0.721,0-1.44,0-2.16
			c-3.6,0-7.2,0-10.8,0c-0.08,0-0.16,0-0.24,0c-0.497-0.144-1.576,0.297-1.68-0.24c0-0.56,0-1.12,0-1.68c-0.641,0-1.28,0-1.92,0
			c0-0.641,0-1.28,0-1.92c-0.562,0-1.12,0-1.681,0c-0.146-0.574,0.302-1.741-0.239-1.92c-0.497-0.144-1.577,0.296-1.681-0.24
			c0-0.56,0-1.12,0-1.68c-0.561,0-1.12,0-1.681,0c0-0.641,0-1.28,0-1.92c0-3.28,0-6.561,0-9.841c0-0.72,0-1.439,0-2.159
			c-0.641,0-1.28,0-1.92,0c-4.239,0-8.479,0-12.721,0c0-3.28,0-6.561,0-9.841c4.24,0,8.48,0,12.721,0c0-0.64,0-1.279,0-1.92
			c0.64,0,1.279,0,1.92,0c0-0.64,0-1.279,0-1.92c0-2.72,0-5.439,0-8.16c0.146-0.573-0.301-1.74,0.24-1.92c0.479,0,0.959,0,1.439,0
			c0-0.64,0-1.279,0-1.92c0.64,0,1.279,0,1.92,0c0-0.64,0-1.279,0-1.92c0-0.64,0-1.279,0-1.92c0.497-0.143,1.576,0.297,1.68-0.24
			c0-0.64,0-1.279,0-1.92c0.562,0,1.12,0,1.681,0c0.542-0.179,0.094-1.346,0.24-1.92c0.64,0,1.279,0,1.92,0c3.521,0,7.04,0,10.561,0
			c0.541-0.179,0.095-1.346,0.239-1.92c0.497-0.143,1.577,0.297,1.681-0.24c0-3.92,0-7.84,0-11.76c7.841,0,15.681,0,23.521,0
			c0,3.92,0,7.84,0,11.76c0,0.08,0,0.16,0,0.24c0,0.641,0,1.28,0,1.92c0.641,0,1.28,0,1.92,0c0,0.641,0,1.28,0,1.92
			c3.601,0,7.2,0,10.8,0c0.562,0,1.12,0,1.682,0c-0.146,0.854-0.093,1.511,0.235,1.892c-0.001-0.003,0-0.006-0.001-0.009
			c0.001,0.003,0.001,0.007,0.001,0.01l0,0c0.002,0.009,0.002,0.021,0.004,0.029c0.011,0.003,0.023,0.002,0.034,0.005l0,0
			c0,0,0.003,0,0.004,0c-0.001,0-0.003,0-0.003,0c0.308,0.318,0.827,0.425,1.646,0.233c0,0.561,0,1.12,0,1.681
			c0.102,0.524,1.135,0.117,1.645,0.234c-0.076-0.079-0.165-0.145-0.269-0.196c0.104,0.052,0.191,0.117,0.269,0.196l0,0
			c0.009,0.008,0.018,0.016,0.025,0.022c0.004,0.004,0.01,0.008,0.014,0.012c0.126,0.583-0.297,1.714,0.236,1.891
			c0.036-0.212,0.06-0.412,0.069-0.598c-0.012,0.188-0.033,0.386-0.069,0.598c0.56,0,1.12,0,1.68,0
			c0.146,0.574-0.301,1.741,0.24,1.92c0.562,0,1.12,0,1.68,0c0,0.721,0,1.44,0,2.16c0,2.561,0,5.12,0,7.681c0,0.079,0,0.159,0,0.239
			c0,0.561,0,1.12,0,1.681c0,0.08,0,0.159,0,0.239c0,0.641,0,1.28,0,1.92c0.642,0,1.28,0,1.921,0c4.159,0,8.319,0,12.479,0
			c0.56,0,1.12,0,1.68,0c0.08,0,0.16,0,0.24,0c0.562,0,1.12,0,1.681,0c0.079,0,0.159,0,0.239,0c0.562,0,1.12,0,1.681,0
			c0-0.64,0-1.279,0-1.92c0-0.08,0-0.159,0-0.239c0-12.48,0-24.96,0-37.44c0-0.64,0-1.28,0-1.92c0-0.72,0-1.44,0-2.16
			c0-0.56,0-1.12,0-1.68c0-0.08,0-0.16,0-0.24c0-0.64,0-1.28,0-1.92c-0.561,0-1.119,0-1.681,0c-0.08,0-0.16,0-0.239,0
			c-4.801,0-9.601,0-14.399,0c0-3.92,0-7.84,0-11.76c0-0.08,0-0.16,0-0.24c0-0.56,0-1.12,0-1.68
			c-0.104-0.537-1.183-0.098-1.681-0.24c-0.08,0-0.159,0-0.239,0c-3.602,0-7.2,0-10.802,0c0-0.64,0-1.28,0-1.92
			c-0.56,0-1.118,0-1.68,0c-0.146-0.574,0.302-1.741-0.24-1.92c-0.496-0.144-1.576,0.296-1.68-0.24c0-0.56,0-1.12,0-1.68
			c-0.032-0.688-1.646,0.208-1.68-0.48c0-0.56,0-1.12,0-1.68c-0.642,0-1.28,0-1.92,0c0-0.64,0-1.28,0-1.92c-0.562,0-1.12,0-1.682,0
			c0-3.28,0-6.562,0-9.84c-0.295-0.639,0.409-1.751,0-2.16c-0.359-0.36-1.204,0.246-1.92,0
			C1297.413,476.743,1288.373,476.743,1279.333,476.743z M1275.803,489.376c0.027,0.548-0.063,0.978-0.306,1.257
			C1275.738,490.354,1275.828,489.922,1275.803,489.376z M1274.836,490.974c0.127-0.021,0.239-0.056,0.339-0.104
			C1275.074,490.917,1274.964,490.954,1274.836,490.974z M1274.713,490.98c-0.104,0.009-0.207,0.02-0.328,0.011
			C1274.506,490.999,1274.609,490.99,1274.713,490.98z M1319.107,538.325c-0.006-0.009-0.009-0.023-0.016-0.032
			C1319.1,538.302,1319.102,538.315,1319.107,538.325z M1319.179,538.477c0.001,0.007,0.001,0.016,0.003,0.021
			C1319.18,538.492,1319.18,538.483,1319.179,538.477z M1320.732,540.163c0.012,0.009,0.028,0.012,0.04,0.022
			C1320.762,540.175,1320.744,540.171,1320.732,540.163z M1320.582,540.094c0.012,0.003,0.025,0.003,0.037,0.006
			C1320.607,540.097,1320.593,540.097,1320.582,540.094z M1321.753,541.945c-0.104-0.011-0.208-0.02-0.329-0.012
			C1321.546,541.926,1321.648,541.938,1321.753,541.945z M1321.877,541.952c0.126,0.019,0.235,0.057,0.335,0.103
			C1322.113,542.008,1322.002,541.973,1321.877,541.952z M1322.537,542.293c0.241,0.28,0.333,0.709,0.306,1.258
			C1322.868,543.004,1322.778,542.573,1322.537,542.293z"/>
		<path fill="#09252E" d="M839.174,494.743c0,0.64,0,1.28,0,1.92c4.159,0,8.319,0,12.479,0c0,0.64,0,1.28,0,1.92
			c0.179,0.541,1.346,0.094,1.92,0.24c0,0.56,0,1.12,0,1.68c0.104,0.537,1.183,0.097,1.68,0.24c0.146,0.574-0.301,1.741,0.24,1.92
			c0.561,0,1.12,0,1.681,0c0,0.64,0,1.28,0,1.92c0.561,0,1.119,0,1.68,0c0,3.92,0,7.84,0,11.76c0,0.08,0,0.16,0,0.24
			c0.146,0.574-0.302,1.741,0.24,1.92c0.561,0,1.119,0,1.681,0c9.6,0,19.199,0,28.8,0c0.08,0,0.16,0,0.24,0c0.56,0,1.119,0,1.68,0
			c0.545-0.255,0.092-1.509,0.24-2.16c0-3.28,0-6.56,0-9.84c0.56,0,1.119,0,1.68,0c0-0.64,0-1.28,0-1.92s0-1.28,0-1.92
			c0.561,0,1.12,0,1.681,0c0.541-0.179,0.095-1.346,0.239-1.92c0.497-0.144,1.577,0.296,1.681-0.24c0-0.56,0-1.12,0-1.68
			c0.727-0.246,1.545,0.358,1.92,0c0.408-0.393-0.295-1.534,0-2.16c0.561,0,1.12,0,1.681,0c3.6,0,7.2,0,10.8,0c0-0.64,0-1.28,0-1.92
			c0.542-0.179,0.094-1.347,0.24-1.92c0-4.641,0-9.28,0-13.92c0-0.641,0-1.28,0-1.92c-23.761-0.561-48.561-0.08-72.721-0.24
			c0,0.72,0,1.439,0,2.16c-0.561,0-1.12,0-1.681,0c0,0.64,0,1.279,0,1.92c0,3.92,0,7.84,0,11.76c0,0.08,0,0.16,0,0.24
			c0,0.64,0,1.279,0,1.92c0.561,0,1.12,0,1.681,0C839.014,494.743,839.094,494.743,839.174,494.743z"/>
		<path fill="#09252E" d="M72.613,575.383c0-14.8,0-29.6,0-44.399c0-0.561,0-1.12,0-1.681c0.067-0.627,0.081-1.201-0.72-0.96
			c-0.32,0-0.64,0-0.96,0c0-0.64,0-1.28,0-1.92c-0.56,0-1.12,0-1.68,0c-0.08,0-0.16,0-0.24,0c-8.4,0-16.8,0-25.2,0
			c-0.64,0-1.28,0-1.92,0c0,0.64,0,1.28,0,1.92c-0.56,0-1.12,0-1.68,0c-0.439,2.031-0.24,4.087-0.24,6.24c0,6.457,0,13.151,0,19.44
			c-1.12,0-2.24,0-3.36,0c0-0.641,0-1.28,0-1.921c0-19.119,0-38.239,0-57.359c-0.295-0.64,0.409-1.751,0-2.16
			c-0.359-0.359-1.204,0.247-1.92,0c-9.04,0-18.08,0-27.12,0c-0.716,0.247-1.561-0.359-1.92,0c-0.409,0.409,0.295,1.521,0,2.16
			c0,27.68,0,55.359,0,83.04c0,0.72,0,1.439,0,2.16c0.64,0,1.28,0,1.92,0c20.56,0,41.12,0,61.68,0
			c0.497-0.144,1.577,0.297,1.68-0.24c0-0.641,0-1.28,0-1.92c0.32,0,0.64,0,0.96,0c0.624,0.144,0.864-0.097,0.72-0.721
			C72.613,576.503,72.613,575.943,72.613,575.383z"/>
		<path fill="#09252E" d="M1382.533,983.383c0.497,0.144,1.577-0.297,1.68,0.24c0,0.479,0,0.96,0,1.439
			c0.35,0.371,1.229,0.212,1.92,0.239c0,0.642,0,1.28,0,1.92c0.562,0,1.121,0,1.682,0c0.146,0.574-0.303,1.741,0.239,1.92
			c0.497,0.145,1.576-0.296,1.681,0.24c0,0.561,0,1.12,0,1.68c0,0.08,0,0.16,0,0.24c0,3.92,0,7.84,0,11.76
			c0.497,0.145,1.576-0.296,1.68,0.24c0.143,0.497-0.296,1.577,0.24,1.682c0.56,0,1.12,0,1.68,0c4.24,0,8.48,0,12.721,0
			c0.561,0,1.12,0,1.681,0c4.24,0,8.479,0,12.72,0c0.08,0,0.16,0,0.24,0c0.561,0,1.12,0,1.68,0c0-0.642,0-1.28,0-1.922
			c0-0.72,0-1.438,0-2.158c0-2.562,0-5.12,0-7.682c0-0.08,0-0.16,0-0.239c0-0.561,0-1.119,0-1.681c0.642,0,1.28,0,1.92,0
			c0-0.72,0-1.438,0-2.16c0.562,0,1.12,0,1.682,0c0-0.64,0-1.278,0-1.92c0.56,0,1.12,0,1.68,0c0.541-0.179,0.094-1.346,0.24-1.92
			c0.497-0.143,1.576,0.297,1.68-0.24c0-0.56,0-1.118,0-1.68c0.562,0,1.12,0,1.681,0c0.081,0,0.159,0,0.239,0
			c3.521-0.159,7.681,0.319,10.801-0.24c0-0.64,0-1.278,0-1.92c0.561,0,1.119,0,1.681,0c0.541-0.179,0.094-1.346,0.239-1.92
			c0-9.28,0-18.56,0-27.84c0-0.64,0-1.28,0-1.92c-0.641,0-1.279,0-1.92,0c0-0.64,0-1.28,0-1.92c-3.601,0-7.199,0-10.801,0
			c-0.08,0-0.158,0-0.239,0c-0.497-0.144-1.576,0.297-1.681-0.24c0-0.56,0-1.12,0-1.68c-0.56,0-1.12,0-1.68,0c0-0.72,0-1.44,0-2.16
			c-0.641,0-1.28,0-1.92,0c0-0.56,0-1.12,0-1.68c-0.618-0.634-1.219,0.129-1.682-0.48c-0.338-0.445,0.433-1.239-0.238-1.68
			c-0.562,0-1.12,0-1.682,0c0-0.641,0-1.28,0-1.92c0-2.642,0-5.28,0-7.92c0-0.642,0-1.28,0-1.92c0-0.08,0-0.16,0-0.24
			c0-0.561,0-1.12,0-1.681c-9.789-0.372-21.178-0.419-30.96,0c0,0.561,0,1.119,0,1.681c0,0.08,0,0.16,0,0.24c-0.56,0-1.12,0-1.68,0
			c0,3.92,0,7.84,0,11.76c0,0.64,0,1.28,0,1.92c-0.691,0.028-1.571-0.131-1.92,0.24c0,0.56,0,1.12,0,1.68
			c-0.497,0.144-1.577-0.297-1.682,0.24c0,0.64,0,1.279,0,1.92c-0.56,0-1.118,0-1.68,0c-0.541,0.179-0.094,1.346-0.24,1.92
			c-0.56,0-1.119,0-1.68,0c-3.681,0-7.359,0-11.04,0c0,0.64,0,1.28,0,1.92c-0.497,0.144-1.576-0.297-1.68,0.24
			c0,0.64,0,1.278,0,1.92c0,9.2,0,18.398,0,27.6c0,0.642,0,1.28,0,1.92c0,0.642,0,1.28,0,1.92
			C1373.715,983.562,1378.274,983.322,1382.533,983.383z"/>
		<path fill="#09252E" d="M753.733,393.943c0.146,0.573-0.303,1.74,0.239,1.92c0.561,0,1.12,0,1.681,0c3.04,0,6.08,0,9.12,0
			c0.56,0,1.119,0,1.68,0c0,0.64,0,1.279,0,1.92c-0.146,0.855-0.091,1.514,0.24,1.894c0,0.009,0,0.019,0,0.026
			c0.01,0,0.02,0,0.028,0c0.308,0.323,0.828,0.432,1.65,0.24c0,0.56,0,1.12,0,1.68c0.104,0.537,1.183,0.097,1.681,0.24
			c0.146,0.574-0.302,1.74,0.239,1.92c0.561,0,1.12,0,1.681,0c0,0.64,0,1.28,0,1.92c0,3.28,0,6.56,0,9.84
			c0.104,0.537,1.184,0.097,1.681,0.24c0,0.64,0,1.28,0,1.92c5.2,0,10.399,0,15.6,0c2.562,0,5.12,0,7.681,0
			c2.48-0.159,5.6,0.318,7.681-0.24c0-0.56,0-1.12,0-1.68c0.64,0,1.28,0,1.92,0c0-2.641,0-5.28,0-7.92c0-0.721,0-1.44,0-2.16
			c0-0.64,0-1.28,0-1.92c0.561,0,1.12,0,1.68,0c0-0.641,0-1.28,0-1.92c1.606,0.326,2.246-0.314,1.92-1.92
			c0.498-0.144,1.577,0.297,1.682-0.24c0-0.641,0-1.28,0-1.92c0.64,0,1.279,0,1.92,0c0-0.641,0-1.28,0-1.92c3.6,0,7.199,0,10.8,0
			c0.561,0,1.12,0,1.68,0c0.542-0.18,0.094-1.347,0.24-1.92c0-0.08,0-0.16,0-0.24c0.4,0,0.8,0,1.2,0
			c0.807,0.246,0.374-0.747,0.479-1.2c0-0.56,0-1.12,0-1.68c0-3.601,0-7.2,0-10.8c-0.56,0-1.119,0-1.68,0c0-0.721,0-1.44,0-2.16
			c0-0.561,0-1.12,0-1.681c0.399,0,0.8,0,1.2,0c0.867,0.228,0.335-0.944,0.479-1.439c0-4.8,0-9.601,0-14.4c-0.56,0-1.119,0-1.68,0
			c-0.146-0.014-0.284-0.036-0.24-0.24c0-0.479,0-0.96,0-1.439c-3.68-0.561-8.398-0.081-12.479-0.24
			c-0.18-0.541-1.348-0.094-1.92-0.24c0-0.64,0-1.279,0-1.92c-0.562,0-1.12,0-1.682,0c-0.146-0.573,0.302-1.74-0.239-1.92
			c-0.561,0-1.119,0-1.681,0c0-0.64,0-1.28,0-1.92c-0.442-0.671-1.278,0.178-1.68-0.479c-0.229-0.374,0.149-0.77,0-1.44
			c0-0.08,0-0.16,0-0.24c0-0.64,0-1.279,0-1.92c0-2.64,0-5.28,0-7.92c-0.146-0.574,0.302-1.741-0.24-1.92c-0.56,0-1.119,0-1.68,0
			c0-0.72,0-1.44,0-2.16c-10.24,0-20.479,0-30.721,0c-0.401,0.398-0.19,1.409-0.239,2.16c-0.545,0.175-1.872-0.433-1.681,0.48
			c0,0.479,0,0.96,0,1.439c0,3.28,0,6.561,0,9.84c0,0.08,0,0.16,0,0.24c0,0.56,0,1.12,0,1.68c-0.821-0.191-1.344-0.083-1.649,0.24
			c-0.011,0-0.021,0-0.03,0c-0.002,0.009-0.002,0.021-0.004,0.03l0,0c0,0.002,0,0.004-0.001,0.006
			c0.001-0.002,0.001-0.004,0.001-0.006c-0.327,0.381-0.38,1.037-0.235,1.89c-0.561,0-1.12,0-1.681,0c0,0.641,0,1.28,0,1.92
			c-0.561,0-1.12,0-1.68,0c-0.541,0.18-0.095,1.347-0.24,1.92c-0.497,0.144-1.576-0.297-1.68,0.24c-2.881,0-5.761,0-8.642,0
			c-0.664,0.216-2.253-0.493-2.159,0.48c0,0.399,0,0.8,0,1.199c-0.08,0-0.16,0-0.239,0c-0.497,0.144-1.577-0.297-1.681,0.24
			c0,0.641,0,1.28,0,1.92c0,4.561,0,9.12,0,13.681c0,0.08,0,0.159,0,0.239c0,1.28,0,2.561,0,3.841c0,4.56,0,9.119,0,13.68
			C752.156,394.24,753.236,393.8,753.733,393.943z M770.298,354.05c0.004-0.014,0.004-0.032,0.007-0.046
			C770.302,354.018,770.302,354.036,770.298,354.05z M770.234,354.188c-0.009,0.014-0.013,0.033-0.021,0.047
			C770.223,354.22,770.226,354.201,770.234,354.188z"/>
		<path fill="#09252E" d="M1232.054,407.623c3.606,0.153,7.831-0.312,11.04,0.24c0.561,0,1.119,0,1.681,0c0,0.56,0,1.12,0,1.68
			c0.104,0.537,1.183,0.097,1.68,0.24c0.146,0.574-0.301,1.742,0.24,1.92c0.561,0,1.12,0,1.68,0c0,0.64,0,1.28,0,1.92
			c0.642,0,1.28,0,1.92,0c0,0.64,0,1.28,0,1.92c0,0.08,0,0.16,0,0.24c0,3.279,0,6.56,0,9.84c0,0.64,0,1.28,0,1.92
			c0.498,0.143,1.577-0.297,1.682,0.24c0,0.56,0,1.12,0,1.68c0.64,0,1.279,0,1.92,0c4.16,0,8.318,0,12.479,0c0.722,0,1.44,0,2.16,0
			c4.16,0,8.32,0,12.48,0c0.64,0,1.278,0,1.92,0c0-0.64,0-1.28,0-1.92c0.497-0.143,1.576,0.296,1.68-0.24c0-0.56,0-1.12,0-1.68
			c0-3.28,0-6.561,0-9.84c0-0.08,0-0.16,0-0.24c0-0.64,0-1.28,0-1.92c0.64,0,1.28,0,1.92,0c0-0.64,0-1.28,0-1.92
			c0.562,0,1.12,0,1.681,0c0.542-0.179,0.094-1.346,0.239-1.92c0.497-0.144,1.577,0.297,1.681-0.24c0-0.56,0-1.12,0-1.68
			c0.574-0.146,1.742,0.301,1.921-0.24c3.6,0,7.199,0,10.8,0c0-0.64,0-1.28,0-1.92c0.561,0,1.12,0,1.68,0c0.562,0,1.12,0,1.681,0
			c0.561-4.801,0.081-10.641,0.24-15.84c-0.641,0-1.279,0-1.921,0c0-0.641,0-1.28,0-1.92c0-4,0-8,0-12c0-0.641,0-1.28,0-1.92
			c-0.56,0-1.119,0-1.68,0c-0.146-0.574,0.301-1.741-0.24-1.921c-3.52,0-7.04,0-10.56,0c-0.081,0-0.16,0-0.24,0
			c-0.561,0-1.12,0-1.681,0c0-0.64,0-1.279,0-1.92c0-0.08,0-0.16,0-0.239c0-0.561,0-1.12,0-1.681
			c-0.104-0.537-1.184-0.097-1.681-0.239c-0.146-0.574,0.303-1.741-0.239-1.921c-0.561,0-1.119,0-1.681,0c0-0.64,0-1.279,0-1.92
			c-0.64,0-1.28,0-1.92,0c0-0.64,0-1.279,0-1.92c0-0.08,0-0.16,0-0.24c0-3.199,0-6.399,0-9.6c-0.326-0.784-1.274,0.198-1.68-0.24
			c-0.411-0.444,0.28-1.205,0-1.92c-9.682,0-19.36,0-29.04,0c-0.641,0-1.28,0-1.92,0c0,0.641,0,1.28,0,1.92
			c-0.497,0.144-1.577-0.297-1.682,0.24c0,3.2,0,6.4,0,9.6c0,0.08,0,0.16,0,0.24c0,0.641,0,1.28,0,1.92c-0.64,0-1.279,0-1.92,0
			c0,0.641,0,1.28,0,1.92c-0.56,0-1.119,0-1.68,0c-0.541,0.18-0.094,1.347-0.24,1.921c0,0.64,0,1.279,0,1.92
			c-0.497,0.143-1.576-0.297-1.68,0.239c0,0.641,0,1.28,0,1.92c-0.562,0-1.12,0-1.681,0c-0.08,0-0.16,0-0.239,0
			c-3.602,0-7.2,0-10.801,0c-0.561,0-1.12,0-1.681,0c0,0.641,0,1.28,0,1.921c0,0.64,0,1.279,0,1.92c0,4,0,8,0,12
			c0,0.64,0,1.279,0,1.92c0,4.64,0,9.279,0,13.92c0,0.64,0,1.28,0,1.92c0.561,0,1.12,0,1.681,0
			C1232.054,406.343,1232.054,406.983,1232.054,407.623z"/>
		<path fill="#09252E" d="M1196.054,409.303c0-0.56,0-1.12,0-1.68c-0.641,0-1.28,0-1.921,0c-3.6,0-7.199,0-10.8,0
			c-0.08,0-0.159,0-0.239,0c0-0.64,0-1.28,0-1.92c-0.561,0-1.12,0-1.681,0c0-0.641,0-1.28,0-1.92
			c-0.497-0.144-1.576,0.297-1.681-0.24c0-0.64,0-1.28,0-1.92c-0.64,0-1.279,0-1.92,0c0-0.561,0-1.12,0-1.68
			c-0.361-0.66-1.206,0.154-1.681-0.48c-0.369-0.496,0.001-3.1,0-4.8c0-1.963,0.001-3.701,0-4.8
			c-0.146-0.574,0.302-1.741-0.239-1.92c0-0.641,0-1.28,0-1.92c-0.561,0-1.12,0-1.681,0c-4.32-0.561-9.681-0.081-14.399-0.24
			c-4.801,0.16-10.239-0.319-14.64,0.24c0,0.64,0,1.279,0,1.92c-0.562,0-1.12,0-1.682,0c-0.56,3.439-0.079,7.919-0.239,11.76
			c-0.497,0.143-1.576-0.297-1.681,0.24c0,0.56,0,1.119,0,1.68c-0.716,0.247-1.561-0.36-1.92,0c-0.408,0.409,0.295,1.521,0,2.16
			c-0.56,0-1.12,0-1.68,0c0,0.64,0,1.279,0,1.92c-0.562,0-1.12,0-1.682,0c-0.541,0.179-0.094,1.346-0.238,1.92
			c-0.562,0-1.12,0-1.682,0c-3.04,0-6.08,0-9.12,0c-0.56,0-1.119,0-1.68,0c-0.541,0.179-0.094,1.346-0.24,1.92
			c-0.545,0.175-1.872-0.433-1.68,0.48c0,9.279,0,18.56,0,27.84c0,0.64,0,1.279,0,1.92c0.068,0.649-0.338,1.778,0.72,1.439
			c0.32,0,0.642,0,0.96,0c0.08,0,0.16,0,0.24,0c0.104,0.537,1.183,0.099,1.68,0.24c3.04,0,6.08,0,9.12,0c0.562,0,1.12,0,1.681,0
			c0,0.641,0,1.28,0,1.92c0.641,0,1.279,0,1.921,0c0,0.641,0,1.28,0,1.92c0.56,0,1.12,0,1.68,0c0.146,0.574-0.302,1.741,0.24,1.92
			c0.497,0.144,1.576-0.296,1.68,0.24c0,0.561,0,1.12,0,1.68c0.104,0.537,1.183,0.098,1.681,0.24c0,0.561,0,1.12,0,1.681
			c0,0.079,0,0.159,0,0.239c0,3.28,0,6.561,0,9.84c0.146,0.574-0.302,1.741,0.239,1.921c0.562,0,1.12,0,1.682,0
			c0,0.319,0,0.64,0,0.96c-0.188,0.825,0.133,1.146,0.959,0.96c0.641,0,1.279,0,1.921,0c7.76,0,15.52,0,23.279,0
			c0.641,0,1.279,0,1.92,0c1.005,0.284,1.074-0.365,0.96-1.2c0-0.24,0-0.48,0-0.72c0.561,0,1.12,0,1.681,0
			c0.561-3.441,0.08-7.92,0.239-11.761c0-0.64,0-1.279,0-1.92c0.498-0.143,1.577,0.297,1.681-0.24c0-0.64,0-1.279,0-1.92
			c0.561,0,1.12,0,1.68,0c0.543-0.179,0.095-1.346,0.24-1.92c0.561,0,1.12,0,1.681,0c0-0.64,0-1.279,0-1.92c0.641,0,1.279,0,1.92,0
			c0-0.64,0-1.28,0-1.92c4.16,0,8.319,0,12.479,0c0.641,0,1.28,0,1.92,0c0-0.72,0-1.439,0-2.16c0-9.84,0-19.68,0-29.52
			C1197.701,409.096,1196.086,409.99,1196.054,409.303z"/>
		<path fill="#09252E" d="M842.773,395.863c3.6,0,7.199,0,10.8,0c0.56,0,1.12,0,1.68,0c0.146,0.574-0.301,1.74,0.24,1.92
			c0.561,0,1.12,0,1.681,0c0,0.64,0,1.28,0,1.92c0,0.08,0,0.16,0,0.24c0,0.56,0,1.12,0,1.68c0.561,0,1.119,0,1.68,0
			c0,0.08,0,0.16,0,0.24c0.146,0.574-0.302,1.74,0.24,1.92c0.561,0,1.119,0,1.681,0c0,0.64,0,1.28,0,1.92
			c0.497,0.143,1.575-0.297,1.68,0.24c0,0.64,0,1.279,0,1.92c0,2.56,0,5.12,0,7.68c0,0.08,0,0.16,0,0.24c0,0.64,0,1.28,0,1.92
			c0.641,0,1.28,0,1.92,0c9.681,0,19.36,0,29.04,0c0.641,0,1.28,0,1.92,0c0-0.64,0-1.28,0-1.92c0-0.08,0-0.16,0-0.24
			c0-2.56,0-5.12,0-7.68c0-0.721,0-1.44,0-2.16c0.561,0,1.12,0,1.681,0c0-0.64,0-1.28,0-1.92c0.561,0,1.12,0,1.681,0
			c0-0.641,0-1.28,0-1.92c0.541-0.18,0.094-1.347,0.239-1.92c0.497-0.144,1.576,0.297,1.681-0.24c0-0.641,0-1.28,0-1.92
			c0.56,0,1.12,0,1.68,0c0.542-0.18,0.094-1.347,0.24-1.92c0.561,0,1.12,0,1.68,0c3.04,0,6.08,0,9.12,0c0.561,0,1.12,0,1.681,0
			c0.541-0.18,0.095-1.347,0.239-1.92c0-0.641,0-1.28,0-1.92c0-4,0-8,0-12c0-0.721,0-1.44,0-2.16c0-0.641,0-1.28,0-1.92
			c0-4.641,0-9.28,0-13.921c-0.257-0.646,0.369-1.551,0-1.92c-0.369-0.368-1.274,0.258-1.92,0c0-0.479,0-0.96,0-1.439
			c-3.12-0.561-7.279-0.081-10.8-0.24c-0.146-0.014-0.284-0.036-0.24-0.24c-0.56,0-1.119,0-1.68,0c0-0.64,0-1.279,0-1.92
			c0-0.64,0-1.28,0-1.92c-0.497-0.143-1.576,0.297-1.681-0.24c0-0.56,0-1.12,0-1.68c-0.35-0.371-1.229-0.211-1.92-0.24
			c0-0.56,0-1.12,0-1.68c-0.104-0.537-1.184-0.097-1.681-0.24c0-0.64,0-1.279,0-1.92c0-2.64,0-5.28,0-7.92
			c-0.146-0.574,0.302-1.741-0.239-1.92c-0.561,0-1.12,0-1.681,0c0-0.64,0-1.28,0-1.92c-2.001-0.56-5.038-0.081-7.439-0.24
			c-2.641,0-5.279,0-7.92,0c-5.112,0.087-10.618-0.218-15.359,0.24c0,0.64,0,1.28,0,1.92c-0.541,0.179-0.095,1.346-0.24,1.92
			c0,2.64,0,5.28,0,7.92c0,0.641,0,1.28,0,1.92c-0.497,0.144-1.576-0.296-1.68,0.24c0,0.56,0,1.12,0,1.68c-0.642,0-1.28,0-1.92,0
			c0,0.721,0,1.44,0,2.16c-0.562,0-1.12,0-1.681,0c0,0.641,0,1.28,0,1.92c-0.641,0-1.28,0-1.921,0
			c-0.148,0.651,0.305,1.905-0.239,2.16c-4.08,0-8.159,0-12.239,0c0,0.561,0,1.12,0,1.68c-0.08,0-0.16,0-0.24,0
			c-0.497,0.144-1.576-0.297-1.68,0.24c0,0.561,0,1.12,0,1.68c0,0.08,0,0.16,0,0.24c0,4.561,0,9.12,0,13.681
			c0,0.079,0,0.159,0,0.239c0,0.641,0,1.28,0,1.92c0,0.641,0,1.28,0,1.92c0,4.561,0,9.12,0,13.681c0,0.08,0,0.16,0,0.24
			c0,0.64,0,1.279,0,1.92c0.56,0,1.119,0,1.68,0C842.613,395.863,842.693,395.863,842.773,395.863z"/>
		<path fill="#09252E" d="M717.973,500.743c0.48,0,0.96,0,1.44,0c0-0.641,0-1.28,0-1.92c0-0.08,0-0.16,0-0.24c0-0.64,0-1.28,0-1.92
			c0.56,0,1.12,0,1.68,0c0.08,0,0.16,0,0.24,0c3.6,0,7.2,0,10.8,0c0-0.64,0-1.28,0-1.92c0.561,0,1.12,0,1.68,0
			c0.545-0.255,0.092-1.509,0.24-2.16c0-3.92,0-7.84,0-11.76c-0.146-0.574,0.301-1.741-0.24-1.92
			c-0.146-0.574,0.302-1.741-0.239-1.92c-0.965,0.165-1.37-0.23-2.16-0.24c-22.72,0-45.439,0-68.16,0
			c-0.058,0.742-1.975-0.375-1.68,0.72c0,0.48,0,0.96,0,1.44c-0.541,0.179-0.094,1.346-0.24,1.92c0,4,0,8,0,12
			c0.146,0.573-0.301,1.741,0.24,1.92c0.56,0,1.12,0,1.68,0c0,0.64,0,1.28,0,1.92c3.601,0,7.2,0,10.8,0c0,0.72,0,1.439,0,2.16
			c0.641,0,1.28,0,1.92,0c0,0.56,0,1.12,0,1.68c0.104,0.537,1.184,0.097,1.681,0.24c0.146,0.574-0.302,1.741,0.239,1.92
			c0.561,0,1.12,0,1.681,0c0,0.64,0,1.28,0,1.92c0.56,0,1.12,0,1.68,0c0,0.64,0,1.28,0,1.92c0,3.36,0,6.72,0,10.08
			c0.146,0.574-0.301,1.741,0.24,1.92c0.56,0,1.12,0,1.68,0c4.24,0,8.48,0,12.72,0c0.561,0,1.12,0,1.681,0c4.239,0,8.479,0,12.72,0
			c0.64,0,1.28,0,1.92,0c0-0.64,0-1.28,0-1.92c0.56,0,1.12,0,1.68,0c0.549-2.891,0.087-6.792,0.24-10.08c0-0.64,0-1.28,0-1.92
			c0.561,0,1.12,0,1.68,0c0-0.64,0-1.28,0-1.92c0.561,0,1.12,0,1.681,0C718.188,502.556,717.28,500.85,717.973,500.743z"/>
		<path fill="#09252E" d="M748.453,480.823c0,3.92,0,7.84,0,11.76c0,0.72,0,1.44,0,2.16c0.561,0,1.12,0,1.68,0c0.08,0,0.16,0,0.24,0
			c0,0.64,0,1.28,0,1.92c3.601,0,7.2,0,10.801,0c0.497,0.143,1.576-0.297,1.68,0.24c0,0.56,0,1.12,0,1.68
			c0.35,0.371,1.229,0.211,1.921,0.24c0,0.56,0,1.12,0,1.68c0.104,0.537,1.183,0.097,1.68,0.24c0,0.64,0,1.28,0,1.92s0,1.28,0,1.92
			c0.641,0,1.28,0,1.92,0c0,0.72,0,1.44,0,2.16c0,2.64,0,5.28,0,7.92c0.198,0.602-0.467,2.065,0.479,1.92c0.399,0,0.801,0,1.2,0
			c0.146,0.574-0.302,1.741,0.239,1.92c0.561,0,1.12,0,1.681,0c9.681,0,19.359,0,29.04,0c0.561,0,1.12,0,1.681,0
			c0.541-0.179,0.094-1.346,0.239-1.92c0-3.28,0-6.56,0-9.84c0-0.72,0-1.44,0-2.16c0.561,0,1.12,0,1.681,0c0-0.64,0-1.28,0-1.92
			c0.56,0,1.12,0,1.68,0c0.542-0.179,0.094-1.346,0.24-1.92c0.561,0,1.12,0,1.68,0c0-0.641,0-1.28,0-1.92c0-0.08,0-0.16,0-0.24
			c0-0.64,0-1.28,0-1.92c0.562,0,1.12,0,1.681,0c0.08,0,0.16,0,0.239,0c4.16,0,8.32,0,12.48,0c0-0.64,0-1.28,0-1.92
			c0.08,0,0.159,0,0.239,0c0.561,0,1.12,0,1.681,0c0-0.641,0-1.28,0-1.92c0-3.601,0-7.2,0-10.8c0-0.561,0-1.12,0-1.681
			c-0.146-0.495,0.388-1.667-0.479-1.439c-0.399,0-0.801,0-1.2,0c0-0.641,0-1.28,0-1.92c-0.204-0.006-0.415-0.008-0.62-0.012
			c-0.216-0.024-0.479-0.003-0.736,0.017c0.111-0.009,0.224-0.018,0.334-0.024c-23.369-0.521-47.722-0.062-71.457-0.221
			c-0.401,0.397-0.19,1.409-0.24,2.16c-0.676,0.124-2.028-0.429-1.68,0.72C748.453,480.023,748.453,480.423,748.453,480.823z
			 M822.613,477.703c0.042-0.138,0.057-0.249,0.054-0.341C822.67,477.454,822.655,477.565,822.613,477.703z M822.634,477.243
			c-0.011-0.033-0.016-0.072-0.033-0.099C822.618,477.171,822.623,477.21,822.634,477.243z M822.479,477.047
			c-0.013-0.007-0.021-0.017-0.033-0.021C822.459,477.03,822.467,477.041,822.479,477.047z M821.324,476.997
			c-0.142,0.006-0.276,0.007-0.392-0.014C821.048,477.004,821.184,477.003,821.324,476.997z"/>
		<path fill="#09252E" d="M1081.812,819.223c0.604-0.196,2.066,0.468,1.921-0.479c0-0.562,0-1.12,0-1.682c0-6.851,0-14.235,0-20.88
			c0-2.241,0.197-4.564-0.24-6.72c-0.561,0-1.12,0-1.681,0c0-0.64,0-1.28,0-1.92c-0.179-0.541-1.347-0.094-1.92-0.24
			c-16.239,0-32.479,0-48.72,0c0-2.56,0-5.12,0-7.68c7.84,0,25.096,0.297,25.199-0.24c0-0.56,0-30.8,0-31.438
			c-0.561,0-55.601,0-56.16,0c0,0.64,0,1.278,0,1.92c0,22.398,0,44.8,0,67.198c0,0.642,0,1.28,0,1.922
			c0.03,0.528,1.019,0.102,1.44,0.238c0.594,0.206-0.07,1.672,0.479,1.92c26.562,0,53.12,0,79.682,0
			C1081.812,820.503,1081.812,819.863,1081.812,819.223z"/>
		<path fill="#09252E" d="M1382.533,884.503c0,0.64,0,1.28,0,1.92c0.497,0.144,1.577-0.297,1.68,0.24
			c0.145,0.497-0.296,1.576,0.24,1.68c0.561,0,1.12,0,1.68,0c0,0.642,0,1.28,0,1.92c0.562,0,1.121,0,1.682,0c0,0.722,0,1.44,0,2.16
			c0.64,0,1.279,0,1.92,0c0,0.562,0,1.12,0,1.68c0,0.08,0,0.16,0,0.24c0,2.642,0,5.28,0,7.92c0.197,0.604-0.467,2.066,0.479,1.92
			c0.4,0,0.801,0,1.2,0c0.146,0.574-0.301,1.741,0.24,1.92c0.56,0,1.12,0,1.68,0c4.24,0,8.48,0,12.721,0c0.561,0,1.12,0,1.681,0
			c4.24,0,8.479,0,12.72,0c0.08,0,0.16,0,0.24,0c0.561,0,1.12,0,1.68,0c0-0.64,0-1.278,0-1.92c0-3.278,0-6.56,0-9.84
			c0.642,0,1.28,0,1.92,0c0-0.64,0-1.28,0-1.92c0.498-0.143,1.577,0.297,1.682-0.24c0-0.64,0-1.278,0-1.92c0.56,0,1.12,0,1.68,0
			c0-0.64,0-1.278,0-1.92c0.521,0.058,0.106-1.771,0.24-1.92c0.36-0.403,1.063,0.487,1.68-0.24c0-0.56,0-1.12,0-1.68
			c0.64,0,1.28,0,1.92,0c3.521-0.159,7.681,0.319,10.8-0.24c0-0.64,0-1.278,0-1.92c0.562,0,1.12,0,1.682,0
			c0.438-2.31,0.239-4.811,0.239-7.2c0.001-7.6,0-15.235,0-22.56c-0.08,0-0.159,0-0.239,0c0-0.562,0-1.12,0-1.68
			c-0.562,0-1.12,0-1.682,0c-3.119-0.561-7.278-0.081-10.8-0.24c-0.08,0-0.159,0-0.239,0c0-0.642,0-1.28,0-1.92
			c-0.561,0-1.119,0-1.681,0c0-0.642,0-1.28,0-1.92c-0.56,0-1.12,0-1.68,0c0-0.722,0-1.44,0-2.16c-0.641,0-1.28,0-1.92,0
			c0-0.562,0-1.12,0-1.68c-0.618-0.635-1.22,0.129-1.682-0.48c-0.338-0.446,0.433-1.24-0.239-1.68c-0.561,0-1.119,0-1.681,0
			c0-0.642,0-1.28,0-1.92c0-2.642,0-5.28,0-7.92c0-0.642,0-1.28,0-1.921c0-0.079,0-0.159,0-0.239c0-0.562,0-1.12,0-1.682
			c-9.789-0.372-21.178-0.419-30.96,0c0,0.562,0,1.12,0,1.682c0,0.08,0,0.16,0,0.239c-0.56,0-1.12,0-1.68,0
			c0,3.921,0,7.841,0,11.761c0,0.64,0,1.278,0,1.92c-0.641,0-1.28,0-1.92,0c0,0.64,0,1.279,0,1.92
			c-0.497,0.143-1.577-0.297-1.682,0.24c0,0.64,0,1.278,0,1.92c-0.56,0-1.119,0-1.68,0c-0.541,0.179-0.094,1.346-0.24,1.92
			c-0.56,0-1.119,0-1.68,0c0,0.64,0,1.278,0,1.92c-3.681,0-7.359,0-11.04,0c-0.497,0.143-1.576-0.297-1.681,0.24
			c0,0.56,0,1.118,0,1.68c0,0.08,0,0.16,0,0.24c0,9.198,0,18.398,0,27.6c0,0.64,0,1.28,0,1.92c0,0.642,0,1.28,0,1.92
			C1373.715,884.682,1378.274,884.442,1382.533,884.503z"/>
		<path fill="#09252E" d="M1166.773,951.703c0.64,0,1.279,0,1.92,0c0,0.64,0,1.28,0,1.92c1.84,0,3.68,0,5.52,0
			c0,9.439,0,18.88,0,28.319c0,0.641,0,1.279,0,1.921c-0.114,0.835-0.044,1.483,0.961,1.199c0.239,0,0.479,0,0.721,0
			c0.349,0.371,1.229,0.212,1.92,0.239c0,0.32,0,0.642,0,0.96c-0.285,1.005,0.364,1.075,1.199,0.96c47.438,0,94.881,0,142.319,0
			c1.03,0.23,1.431-0.17,1.2-1.199c0-0.239,0-0.479,0-0.721c0.08,0,0.16,0,0.24,0c0.64,0,1.279,0,1.92,0c0-0.72,0-1.438,0-2.159
			c0-67.918,0-135.842,0-203.761c-0.08,0-0.16,0-0.24,0c0-0.56,0-1.12,0-1.68c-0.691-0.029-1.571,0.131-1.92-0.24
			c-19.28,0-38.561,0-57.84,0c0-3.12,0-6.24,0-9.359c-0.237-0.803,0.609-2.689-0.721-2.399c-0.319,0-0.641,0-0.96,0
			c-0.049-0.751,0.161-1.762-0.239-2.16c-1.2,0-2.4,0-3.601,0c0,0.72,0,1.44,0,2.16c-0.561,0-1.12,0-1.681,0c0,0.64,0,1.28,0,1.92
			c0,3.28,0,6.561,0,9.84c-13.28,0-26.561,0-39.84,0c-6.641,0-13.28,0-19.92,0c-3.36,0-6.721,0-10.08,0
			c-3.2,0.159-7.039-0.318-9.84,0.24c0,0.56,0,1.12,0,1.68c-0.275,0.172-1.691-0.22-1.92,0c-0.42,0.401,0,4.763,0,6
			c0,6.088,0,13.513,0,18c0,7.84,0,15.681,0,23.521c0,10.56,0,21.119,0,31.68c-0.32,0-0.641,0-0.961,0
			c-1.222-0.342-0.552,1.208-0.721,1.92c0,28.4,0,56.8,0,85.2c-1.84,0-3.68,0-5.52,0c0,0.64,0,1.28,0,1.92c-0.562,0-1.12,0-1.681,0
			C1166.458,948.508,1166.93,950.419,1166.773,951.703z"/>
		<path fill="#09252E" d="M1371.493,787.543c0,0.64,0,1.28,0,1.92c3.681,0,7.36,0,11.04,0c0.561,0,1.12,0,1.68,0
			c0.146,0.574-0.301,1.741,0.24,1.92c0.497,0.144,1.577-0.297,1.68,0.24c0,0.56,0,1.12,0,1.68c0.033,0.688,1.648-0.207,1.682,0.48
			c0,0.479,0,0.96,0,1.438c0.349,0.371,1.229,0.212,1.92,0.24c0,0.64,0,1.28,0,1.92c0,3.92,0,7.84,0,11.76
			c0.497,0.145,1.576-0.296,1.68,0.24c0.029,0.691-0.131,1.571,0.24,1.92c10.182-0.139,20.931,0.291,30.72-0.24
			c0-0.64,0-1.278,0-1.92c0-0.64,0-1.278,0-1.92c0-2.64,0-5.278,0-7.92c0-0.64,0-1.28,0-1.92c0.562,0,1.12,0,1.682,0
			c0.541-0.179,0.094-1.346,0.238-1.92c0.498-0.143,1.577,0.297,1.682-0.24c0-0.56,0-1.12,0-1.68c0.64,0,1.28,0,1.92,0
			c0-0.72,0-1.44,0-2.16c0.56,0,1.12,0,1.68,0c0-0.64,0-1.28,0-1.92c0.562,0,1.12,0,1.681,0c0.081,0,0.16,0,0.239,0
			c3.602,0,7.2,0,10.801,0c0-0.64,0-1.28,0-1.92c0.641,0,1.279,0,1.92,0c0-0.64,0-1.28,0-1.92c0-9.28,0-18.561,0-27.84
			c-0.148-0.651,0.305-1.905-0.239-2.16c-0.561,0-1.12,0-1.681,0c0-0.561,0-1.12,0-1.68c-3.12-0.561-7.279-0.081-10.801-0.24
			c-0.079,0-0.159,0-0.239,0c-0.561,0-1.119,0-1.681,0c0-0.641,0-1.28,0-1.92c-0.56,0-1.12,0-1.68,0
			c-0.146-0.574,0.301-1.741-0.24-1.92c0-0.642,0-1.28,0-1.92c-0.497-0.145-1.577,0.296-1.68-0.24c0-0.641,0-1.28,0-1.92
			c-0.497-0.144-1.577,0.296-1.682-0.24c0-0.56,0-1.12,0-1.68c-0.64,0-1.278,0-1.92,0c0-2.562,0-5.12,0-7.681
			c0-0.721,0-1.439,0-2.16c0-0.641,0-1.279,0-1.92c-0.56,0-1.119,0-1.68,0c-0.08,0-0.16,0-0.24,0c-4.24,0-8.479,0-12.72,0
			c-0.561,0-1.12,0-1.68,0c-4.24,0-8.48,0-12.722,0c-0.56,0-1.12,0-1.68,0c-0.541,0.179-0.094,1.347-0.24,1.92
			c-0.56,0-1.12,0-1.68,0c0,3.279,0,6.561,0,9.841c0,0.079,0,0.16,0,0.239c0,0.561,0,1.12,0,1.681c-0.716,0.246-1.562-0.359-1.92,0
			c-0.409,0.408,0.295,1.521,0,2.16c-0.562,0-1.12,0-1.682,0c0,0.64,0,1.279,0,1.92c-0.56,0-1.119,0-1.68,0
			c-0.541,0.179-0.094,1.346-0.24,1.92c-0.56,0-1.119,0-1.68,0c-0.146,0.573,0.302,1.741-0.24,1.92
			c-4.182,0.058-8.654-0.175-12.479,0.24c0,0.56,0,1.119,0,1.68c0,0.08,0,0.16,0,0.24c0,0.64,0,1.279,0,1.92c0,9.2,0,18.399,0,27.6
			c0,0.641,0,1.28,0,1.92C1369.917,787.84,1370.996,787.4,1371.493,787.543z"/>
		<path fill="#09252E" d="M1244.773,1244.503c0,0.562,0,1.12,0,1.681c0,0.079,0,0.159,0,0.239c0,7.84,0,15.681,0,23.521
			c-2.961,0-5.921,0-8.881,0c0-17.521,0-35.039,0-52.561c-0.205-0.995,0.553-2.952-0.72-2.88c-0.399,0-0.801,0-1.2,0
			c0-0.56,0-1.12,0-1.68c-4.32-0.561-9.68-0.081-14.399-0.24c-4.8,0.159-10.239-0.319-14.641,0.24c0,0.56,0,1.12,0,1.68
			c0,0.08,0,0.16,0,0.24c-0.319,0-0.641,0-0.96,0c-1.222-0.342-0.552,1.208-0.721,1.92c-0.438,3.237-0.239,6.508-0.239,9.84
			c-0.002,23.81,0.001,47.79,0,71.28c0.089,0.871-0.438,2.359,0.96,1.92c0.319,0,0.641,0,0.96,0c0,0.64,0,1.28,0,1.92
			c0.104,0.536,1.184,0.098,1.681,0.24c20.64,0,41.279,0,61.92,0c0.561,0,1.12,0,1.68,0c0.642,0,1.28,0,1.92,0
			c0-0.721,0-1.44,0-2.16c0-17.76,0-35.521,0-53.28c0-0.72,0-1.438,0-2.16c-0.64,0-1.278,0-1.92,0c-7.84,0-15.68,0-23.52,0
			C1246.119,1244.409,1244.952,1243.962,1244.773,1244.503z"/>
	</g>
</g>
<rect x="72.315" y="297.465" fill="#09252E" width="1393.561" height="448.532"/>
<rect x="1003.407" y="717.007" fill="#09252E" width="468.034" height="468.047"/>
<rect x="996.551" y="699.516" fill="#09252E" width="72" height="129"/>
<polygon fill="#09252E" points="1275.218,1305.516 1201.301,1304.933 1201.551,1166.683 1275.218,1166.516 "/>
<rect x="0.247" y="432.25" fill="#09252E" width="109.65" height="314.076"/>
<rect x="610.646" y="288.792" fill="#09252E" width="848.957" height="24.7"/>
<path fill="#144D60" d="M661.223,286.901c0,4.64,0.067,17.089,0.091,19.871c0.56,0,13.986,0.03,14.547,0.03
	c0.661,0.907,4.599,7.136,5.279,8.16c0,1.863,0.007,12.916,0.007,13.477c0.917,0,32.233,0.204,32.874,0.204c0-0.64,0-13.279,0-13.92
	c1.234-1.258,5.859-6.319,7.199-7.92c0.561,0,13.439,0.051,14.302,0.054c-0.003-1.064,0.061-12.484,0.061-19.969
	c5.44,0,10.919,0.016,16.359,0.016c0,3.76,0.067,19.274,0.079,19.885c1.099-0.001,13.76,0.015,14.318,0.015
	c0.441,0.625,5.16,7.625,5.521,8.16c0,3.84,0.107,11.168,0.107,13.731c1.531,0,31.595-0.178,34.428-0.198
	c0-0.561,0.023-9.773,0.023-13.773c0.645-0.893,4.561-6.727,5.28-7.92c0.56,0,15.809,0.018,16.368,0.018
	c-0.006-0.656-0.048-15.309-0.048-19.948c4.239,0,8.479,0.016,12.719,0.016c0,4.64,0.001,13.356,0.001,17.996c0,0.641,0,1.28,0,1.92
	c0.56,0,13.84,0,14.398,0c0.49,0.693,5.49,6.193,7.2,7.92c0,0.641,0,13.28,0,13.92c0.642,0,1.28,0,1.92,0
	c9.682,0,21.211-0.031,30.892-0.031c0.104-1.875,0.083-13.104,0.068-13.889c0.535-0.569,6.521-7.194,7.2-7.92
	c0.55,0,11.92,0,12.48,0c0.011-2.838-0.03-15.93-0.021-19.932c2.93,0,14.959-0.019,18.281,0c0,4.56-0.021,19.292-0.021,19.932
	c0.562,0,11.92,0,12.48,0c0.947,0.976,5.447,5.851,7.439,8.16c0,0.561,0,12.88,0,13.44c1.477,0,32,0.239,32.641,0.239
	c0-0.64,0-13.279,0-13.92c0.56,0,7.2-7.279,7.2-7.92c0.64,0,9.118,0,12.72,0c-0.053-1.963,0.037-14.836,0.135-19.9
	c4.8,0,11.595,0.083,16.396,0.083c0,4.64,0,15.61,0,20.25c0.918,0.042,14.106,0,14.667,0c0.751,0.875,6.084,6.833,6.723,7.486
	c0,0.641,0.011,12.109-0.014,13.556c1.791,0,12.052,0,16.292,0c0,2.56,0.042,5.484,0.042,8.045c-4.801,0-15.733-0.045-16.293-0.045
	c-0.089,3.544-0.027,15.246-0.027,15.886c-1.16,1.052-4.285,4.552-5.521,6c-2.452-0.011-11.697,0.052-14.577,0.052
	c-0.063,1.563,0.02,34.311,0.062,37.5c0.561,0,11.985,0.017,12.625,0.017c1.938,2.255,5.604,7.838,7.41,9.952
	c-0.035,3.47-0.004,11.253-0.004,11.813c4.514-0.009,11.511-0.052,16.303-0.01c0,3.92,0.021,8.037,0.021,11.957
	c-4.24,0-15.682,0-16.32,0c0,3.264,0,11.12,0,11.76c-0.535,0.637-6.785,9.293-7.2,9.84c-3.6,0-13.541-0.016-14.021-0.016
	c-0.095,4.078-0.22,11.375-0.378,15.854c-4.32,0-21.467,0.146-25.44,0.24c0,0.64,0.036,5.174,0.036,5.654
	c2.599,0,67.675,0.155,68.875,0.155c0.045-1.387-0.032-163.583-0.032-186.062c45.841,0,92.081,0.016,137.922,0.016
	c-0.001,19.538,0.06,68.656,0.068,71.484c-34.8,0-105.877,0.069-107.261,0.073c0,0.64-0.01,6.999-0.01,7.639c0.642,0,10.24,0,14.4,0
	c0,37.52,0.237,113.603,0.24,114.24c3.035,0.08,89.027-0.06,92.41-0.045c-0.007-2.639-0.012-4.834-0.012-5.476
	c-0.64,0-58.72,0-87.119,0c0-36.241,0-72.479,0-108.72c30.16,0,92.651-0.149,94.006-0.181c0.021-1.073,0.024-55.16,0.024-79
	c6.722,0,13.53,0,20.25,0c0,3.92-0.041,17.34-0.041,17.98c0.562,0,11.921,0,12.48,0c1.118,1.271,5.91,6.437,7.438,7.92
	c0,0.641,0,13.04,0,13.681c0.532,0,32.324-0.019,34.32,0c0-0.641,0-13.04,0-13.681c1.818-1.733,5.859-6.066,7.439-7.92
	c0.561,0,11.921,0,12.479,0c0-0.64-0.025-14.045-0.025-17.965c7.28,0,14.597-0.031,21.875-0.031c0,4-0.01,17.356-0.01,17.996
	c0.562,0,13.761,0,14.4,0c1.266,1.301,5.641,6.301,7.2,8.16c0,0.56,0,12.96,0,13.68c0.64,0,29.688,0.02,32.847,0.023
	c0-3.28,0.033-13.303,0.033-13.943c1.028-1.149,6.217-6.869,7.199-7.92c0.557,0,13.912-0.074,14.393-0.074
	c0.03-3.5,0.022-13.951,0.03-17.922c9.602,0,19.15,0.094,28.75,0.094c0,3.92,0.025,16.817,0.043,17.912
	c0.561,0,9.104-0.009,12.704-0.009c0.731,0.822,6.253,6.926,7.2,7.92c0,0.641-0.051,9.729,0.011,13.922
	c0.543,0,16.502-0.025,20.184-0.025c0,7.84,0.016,15.707,0.016,23.547c-3.681,0-19.055-0.002-20.203,0
	c0,0.56-0.006,13.276-0.006,13.917c-0.552,0.792-4.822,7.229-5.28,7.92c-0.561,0-14,0-14.641,0c0,0.64,0.078,35.169,0.078,35.809
	c3.6-0.013,14.002-0.049,14.562-0.049c0.479,0.591,4.188,4.591,5.28,5.76c0,0.641-0.01,15.312-0.01,15.872
	c0.64,0,16.606-0.021,20.208-0.021c0.007,0.663-0.067,2.9-0.083,4.479c-31.919,0-102.689-0.125-103.25-0.125
	c-0.094,3.071-0.146,279.875-0.146,280.515c0.641,0,71.271-0.14,103.271-0.14c0,104.162,0.219,208.511,0.219,312.672
	c-3.601,0-16.619-0.016-20.219-0.016c0,0.598,0.01,15.004,0.01,15.563c-0.416,0.422-5.291,5.594-7.2,7.92c-3.601,0-12.08,0-12.721,0
	c0,0.721-0.15,24.16-0.15,34.08c2.474-0.027,11.875-0.031,14.791,0c0.553,0.875,3.803,5.53,5.28,7.44
	c0,0.078,0.085,10.773,0.084,14.152c0.562,0,15.366-0.006,20.172,0c0,9.842,0,19.676,0,29.516c-4.239,0-16.024-0.078-20.265-0.078
	c0,0.64,0.009,15.289,0.009,15.931c-0.916,0.883-4.271,4.381-5.291,5.633c-0.561,0-10.463,0.022-14.608,0.031
	c0,0.627,0.078,24.11,0.078,28.03c-19.841,0-39.802-0.016-59.642-0.016c0-3.92,0.017-27.033,0.017-27.672
	c-3.602,0-9.113-0.008-12.714-0.008c-0.599-0.556-6.266-5.223-7.199-6c0-0.642,0.017-15.371,0.017-15.931
	c-4.8,0-11.537,0.091-16.337,0.091c0-7.921,0-15.841,0-23.761c3.76,0,15.674,0.17,16.233,0.17c0.007-3.452,0.062-9.655,0.087-13.852
	c1.226-3.336,5.476-12.961,6.018-13.898c0.56,0,11.397-0.042,11.958-0.042c0.004-3.566,0.042-22.457,0.024-27.818
	c-3.602,0-7.2,0-10.801,0c-1.817-2.045-6.062-6.826-7.161-7.89c0-0.639-0.043-8.86,0-13.75c-9.682,0-34.038,0.039-34.6,0.039
	c0,0.593,0,13.041,0,13.681c-2.339,2.155-5.275,5.469-7.199,7.92c-3.601,0-10.059,0.045-12.701,0.049
	c0,0.561-0.02,9.951-0.02,13.871c-6.64,0-23.047,0.065-23.605,0.065c-0.008,1.816,0.087,104.175,0.087,104.814c-5.44,0-17.44,0-18,0
	c0.101,2.645,0.017,3.503,0.017,4.144c5.439,0,18.145-0.042,23.584-0.042c0,41.521,0.084,91.188,0.084,132.709
	c-24.16,0-54.174-0.125-78.334-0.125c0-41.521,0.125-91.104,0.125-132.625c11.604-0.157,37.546-0.084,38.042-0.084
	c0-1.278-0.078-2.696-0.078-3.977c-0.56,0-26.479,0-37.92,0c0-0.642-0.003-105.312-0.003-156.272
	c1.747,0.103-57.996,0.032-85.197,0.032c0-21.76,0.156-42.824,0.156-73.199c-22.5,0-13.916,0-32.557,0
	c0-11.28-0.068-68.771-0.068-69.333c-3.983-0.046-51.947-0.027-72.411-0.027c0-15.119,0-30.24,0-45.359c23.521,0,71.681,0,72.24,0
	c-0.037-2.154,0.004-5.389,0.004-6.029c-0.55,0-86.812,0.095-90.411,0.095c0-26.961,0-53.978,0-80.938
	c14.706,0.002,57.52,0.094,58.079,0.094c0.016-2.722,0.166-24.166,0.168-29.86c25.2,0,50.399,0,75.601,0
	c0,6.77-0.02,26.909-0.02,29.611c23.5,0.007,70.416-0.025,72.917,0.007c0-50.72,1.584-228.579,1.584-229.299
	c-3.002-0.048-205.922-0.238-206.481-0.238c-0.051,1.437-0.27,94.481-0.27,102.78c-92.954,0-872.198,0.18-920.131,0.18
	c0-4.815-0.012-28.692,0.039-29.658c16.24,0,51.961-0.103,52.521-0.103c0-0.64,0.02-99.987,0-100.836c-0.417-0.021-4.042,0-5.25,0
	c-0.212,0-0.242,92.83-0.188,94.688c-13.76,0-27.844-0.021-41.604-0.021c0-15.84-0.114-90.983-0.156-94.692
	c-0.56,0-4.295,0.005-4.615,0.005c-0.167,17.75-0.338,91.104-0.333,94.667c-23.44,0-51.394,0.203-74.833,0.203
	c0-1.28,0.234-133.067,0.234-152.188c21.68,0,46.992,0,68.672,0c0,2.561-0.031,15.362-0.031,15.922
	c0.56,0,54.295,0.083,58.286,0.083c-0.111-2.992-0.181-25.189-0.181-35.67c124.396,0,248.81,0,373.2,0
	c0.56,0,142.882,0.052,143.049,0.052c0-0.561,0.231-120.128,0.212-122.896C649.361,286.917,655.302,286.901,661.223,286.901z
	 M813.62,395.842c3.522,0,13.922-0.064,14.322-0.064c-0.005-1.438,0.125-36.877,0.125-37.313
	c-3.532-0.053-13.563-0.021-14.447-0.062c-0.386-0.375-6.504-5.38-7.24-6.125c-0.082-0.083-0.05-14.456-0.062-15.875
	c-1.487-0.019-31.727-0.061-34.417,0c0,0.479-0.04,15.2-0.04,15.761c-1.502,1.656-4.96,5.989-5.46,6.489
	c-0.792,0-13.291,0.042-14.333,0.083c-0.041,1-0.042,36.094-0.083,36.583c1.26-0.021,13.68,0.021,14.238,0.021
	c0.72,1.188,4.656,7.063,5.638,8.423c0,0.641-0.017,11.812,0.02,12.483c2.027,0.015,31.563,0.031,34.563,0.031
	c0-0.561-0.022-11.875-0.022-12.516C807.63,402.464,812.067,397.651,813.62,395.842z M1152.275,295.089
	c0,0.787-0.021,28.662-0.021,29.302c-10.8,0-30.511-0.007-31.104,0.012c0.029,2.669-0.063,27.188-0.034,31.781
	c0,0.075,79.579-0.011,80.139-0.011c0-0.607-0.035-60.49-0.035-61.13C1200.859,295.047,1167.906,295.089,1152.275,295.089z
	 M714.219,337.74c-0.458,0-32.438-0.018-33.079-0.018c0,4,0,8,0,12c-0.473,0.664-4.932,7.436-5.327,7.978
	c-0.561,0-13.673,0.016-14.625,0.021c0,0.498,0.032,18.882,0.032,19.604c0.641,0,23.681,0,34.561,0
	c0,0.637-0.009,37.146,0.032,39.563c4.239,0,13.968,0.042,18.207,0.042c0.01-1.13,0.021-11.422,0.021-12.062
	c0.584-0.766,6.458-8.729,7.178-9.784c0.561,0,13.165-0.02,14.508-0.02c0-1.345-0.107-34.86-0.107-35.5
	c-3.391-0.084-13.198-0.026-14.434-0.043c-0.872-1.209-6.363-9.507-6.947-10.375C714.25,346.505,714.219,338.379,714.219,337.74z
	 M862.442,336.089c0,0.64-0.104,13.513-0.104,14.153c-0.991,1.128-5.991,6.565-7.438,8.16c-4.08,0-10.086,0.083-14.166,0.083
	c0,0.56,0.006,36.717,0.006,37.356c0.56,0,13.84,0,14.398,0c0.637,0.894,6.303,8.936,7.2,10.08c0,0.641,0,11.12,0,11.76
	c0.641,0,32.24,0,32.88,0c0-0.64,0-11.279,0-12c1.516-2.03,5.933-7.863,7.2-9.84c0.561,0,11.92,0,12.479,0
	c0-3.022-0.082-36.96-0.082-37.439c-3.834-0.083-13.758-0.239-14.317-0.239c-2.183-3.344-3.433-5.761-5.28-7.92
	c0-0.641,0.035-12.403-0.027-14.215C894.632,336.026,867.43,335.959,862.442,336.089z M953.061,350.242
	c-2.017,2.255-6.482,6.566-7.439,7.92c-0.874-0.074-11.577-0.037-12.394-0.003c0,0.56-0.088,37.043-0.088,37.683
	c0.55,0,11.921,0,12.48,0c1.114,1.727,5.614,7.727,7.439,9.84c0,0.721,0,11.2,0,11.761c3.259,0.021,31.176-0.021,32.641,0
	c0-0.561,0-11.12,0-11.761c1.68-2.218,6.305-8.53,7.2-9.84c3.68,0,12.159,0,12.72,0c0-0.64,0.01-36.721,0.01-37.439
	c-0.64,0-8.49,0-12.729,0c-0.428-0.532-6.458-7.282-7.2-8.16c0-0.641-0.008-13.044-0.008-13.685c-0.641,0-31.26,0.017-32.625,0
	C953.067,337.038,953.061,349.602,953.061,350.242z M1250.172,350.255c0,0.64,0.008,13.268,0.008,13.907
	c-0.716,1.01-4.611,6.468-5.52,7.92c-0.562,0-13.84,0-14.4,0c0,0.64,0.017,34.804,0.017,35.444c3.876,0.027,14.002,0,14.562,0
	c1.125,1.405,4,4.655,5.342,6.075c0,0.641-0.028,15.303-0.028,15.862c0.64,0,33.775-0.062,34.417-0.062
	c0-0.641-0.067-15.16-0.067-15.8c1.234-1.866,2.823-4.422,4.025-5.981c0.688,0.062,17.253,0,17.812,0
	c0.052-4.864,0.063-35.031,0.063-35.635c-0.561,0-15.821,0.097-16.382,0.097c-0.447-0.634-4.979-7.243-5.521-7.92
	c0-0.641,0.007-12.843,0.008-13.938C1274.827,350.224,1250.812,350.255,1250.172,350.255z M1347.884,350.235
	c-0.02,3.188-0.022,13.207-0.022,13.927c-1.56,1.656-5.477,5.989-7.2,7.92c-0.562,0-8.96,0-12.479,0c-0.004,2.486,0,34.88,0,35.52
	c4.204,0.035,8.413,0.078,12.407,0.127c1.045,1.21,6.5,7.256,7.272,8.032c0,3.92,0.02,13.143,0.02,13.702
	c9.04,0,32.255-0.062,32.896-0.062c0-0.641-0.035-13.8-0.035-13.879c0.676-0.762,6.863-7.527,7.2-7.921c3.6,0,7.108,0.05,10.71,0.05
	c0-0.641,0.061-25.924,0.083-35.417c-3.551,0.029-10.233-0.153-10.793-0.153c-0.979-1.157-5.76-6.608-7.2-7.92
	c0-0.641-0.064-13.354-0.064-13.886C1373.498,350.276,1351.134,350.235,1347.884,350.235z M1145.061,386.002
	c-0.014,1.149-0.034,9.993-0.034,13.743c-1.345,1.031-7.438,6.438-9.085,7.856c-0.562,0-13.137-0.013-13.696-0.013
	c-0.028,1.769-0.026,31.793-0.011,33.813c0.319,0,13.146,0.041,13.707,0.041c1.376,1.709,5.71,6.376,7.198,7.92
	c0,0.56,0.007,11.595-0.021,13.665c3.027-0.007,31.113-0.017,32.938,0c-0.094-1.438-0.037-13.024-0.037-13.665
	c1.226-1.46,6.193-6.773,7.2-7.92c4.16,0,13.822-0.01,14.462-0.01c0-0.72,0-33.368,0-33.905c-0.641,0-14.621,0.075-14.701,0.075
	c-0.549-0.622-6.346-6.997-7.221-7.872c0.021-0.625,0.021-13.088,0.021-13.729C1175.22,386.002,1149.609,385.964,1145.061,386.002z
	 M157.938,587.599c0.001,0.066,5.375,0,5.703,0.031c0.063-0.547,0.118-13.936,0.047-17.442c3.486,0,18.917,0,22.208,0
	c0,3.545-0.021,16.88,0,17.457c24.08,0,500.773-1.5,501.333-1.5c-0.011-0.594,0-14.416-0.058-16.344
	c15.099,0,50.183,0.053,52.308,0.178c0.084,4.666,0.168,17.035,0.168,17.625c0.561,0,87.937-0.084,88.416-0.084
	c0-0.64-0.039-13.32-0.041-17.625c17.521,0,35.039-0.054,52.559-0.054c0,3.554,0,18.4,0,17.76c-1.08-0.019,86.48,0,87.12,0
	c0-0.64,0.112-112.751,0.112-110.831c-12.064,0-41.254,0-41.813,0c-0.003,0.432-0.062,19.854-0.042,20.125
	c0.458,0,13.792,0,14.382-0.014c0.66,0.827,6.682,7.182,7.2,7.68c0,0.641,0,13.2,0,13.921c0.64,0,12.037-0.007,16.304,0.008
	c0,3.2,0.018,6.632,0.018,9.832c-4.893,0.012-15.738,0.012-16.298,0.012c-0.03,0.793-0.022,8.468-0.022,11.749
	c-0.648,0.501-7.2,9.28-7.2,9.84c-0.64,0-11.599-0.025-14.559-0.025c-0.006,0.927-0.047,11.438-0.081,15.865c-4.72,0-9.44,0-14.16,0
	c0-0.56,0-15.119,0-15.84c-0.64,0-12.16,0-12.72,0c-0.398-0.542-6.789-8.995-7.424-9.775c0-0.641-0.021-11.258-0.018-11.824
	c-0.543,0-31.966-0.009-32.524-0.009c0,0.615-0.083,11.208-0.114,11.769c-0.364,0.418-6.927,9.46-7.2,9.84c-0.56,0-13.84,0-14.399,0
	c0,0.721,0,11.28,0,15.84c-4.239,0-8.479,0-12.721,0c0-4.56-0.045-15.164-0.045-15.803c-0.091,0.002-10.354-0.029-14.354-0.037
	c-0.552-0.62-6.591-9.189-7.113-9.995c-0.517-0.793-0.288-10.259-0.313-11.5c-0.56,0-32.095-0.114-32.654-0.114
	c0.009,0.533,0.002,8.488,0.002,11.77c-0.273,0.356-6.599,9.019-7.17,9.835c-0.562,0-13.882-0.005-14.442-0.005
	c0,0.641,0.012,11.29,0.012,15.85c-4.8,0-9.6,0-14.399,0c0-4.56,0-15.119,0-15.84c-0.641,0-12.21,0.037-12.596-0.01
	c-0.049-0.38-7.47-9.604-7.573-10.141c-0.02-3.901,0.01-11.125,0.009-11.449c-0.561,0-32.033,0.043-32.593,0.043
	c-0.005,0.246-0.031,11.391-0.031,12.031c-0.223,0.271-7.073,9.375-7.216,9.525c-0.561,0-12.814-0.119-12.722-0.072
	c0.125,0.062-0.042,11.806-0.03,15.922c-5.28,0-17.328-0.009-17.967-0.009c0-41.439,0-82.881,0-124.32c0-0.08,0-0.16,0-0.24
	c0-0.64,0-1.28,0-1.92c-0.561,0-1.12,0-1.681,0c-0.08,0-0.16,0-0.24,0c-70,0-140,0-210,0c-0.56,0-1.119,0-1.68,0
	c-23.04,0-46.08,0-69.12,0c-0.56,0-1.12,0-1.68,0c-45.921,0-91.839,0-137.76,0c-0.56,0-1.12,0-1.68,0c-19.92,0-60.88,0-61.44,0
	C157.399,439.46,157.925,586.796,157.938,587.599z M1237.46,475.042c0,0.56,0,272.24,0,272.881c0.562,0,6.64,0,7.2,0
	c0-0.641,0-20.561,0-29.762c33.199,0,100.96,0,101.52,0c0-0.64,0.053-39.644,0.037-43.396c-4.037,0-19.396-0.044-19.957-0.044
	c0,0.642,0,11.121,0,11.761c-1.75,1.806-7,7.534-9.12,9.84c-0.56,0-10.581,0.005-12.713,0.008c0,0.561-0.007,15.213-0.007,15.832
	c-7.84,0-15.68,0-23.52,0c0-4.56-0.018-15.314-0.018-15.875c-1.35-0.025-11.902,0.035-12.464,0.035
	c-0.828-0.951-8.078-8.849-9.12-9.841c0-0.639,0.012-10.838,0.001-11.735c-0.561,0-10.399-0.023-14.641-0.023
	c0-7.28,0-14.56,0-21.84c4.239,0,14.08-0.012,14.641-0.012c-0.01-1.699-0.001-9.748-0.001-13.668c2.095-2.051,5.97-5.551,8.88-7.92
	c3.682,0,12.218-0.006,12.763-0.006c0-0.56-0.041-11.273-0.041-15.834c7.84,0,15.68,0,23.52,0c0,3.92,0,7.841,0,11.761
	c0,0.64,0,1.279,0,1.92c0,0.08,0,0.16,0,0.239c0,0.641,0,1.28,0,1.921c0.641,0,1.28,0,1.92,0c3.602,0,11.92,0,12.48,0
	c0.776,0.88,6.459,6.886,7.438,7.92c0,0.64,0,13.04,0,13.68c0.562,0,16.08,0.024,20.042-0.033c0-0.72-0.122-82.367-0.122-83.007
	c-0.56,0-19.358,0-19.92,0c0,0.64,0,13.28,0,13.92c-0.771,0.702-6.49,6.671-7.438,7.68c-0.562,0-13.816,0.054-14.457,0.054
	c0,4.56,0.057,11.227,0.057,15.786c-7.84,0-15.68,0-23.52,0c0-3.92,0.053-15.19,0.053-15.83c-0.562,0-12.991,0.019-14.194,0
	c-0.978-1.052-6.75-6.939-7.459-7.689c0-0.64,0-13.2,0-13.92c-0.64,0-10.399,0-14.64,0c0-3.28,0-6.561,0-9.84
	c4.24,0,14.251-0.027,14.891-0.027c0-0.64-0.042-11.708-0.011-13.893c1.469-1.899,5.178-7.107,6.96-9.841
	c0.64,0,10.864,0.003,14.385,0.003c0.009-1.537,0.016-10.003,0.016-13.923c7.841,0,15.681,0,23.521,0
	c0,3.92,0.007,15.207,0.007,15.819c3.602,0,13.833,0.021,14.395,0.021c1.479,1.666,6.751,7.25,7.438,7.92c0,0.72,0,13.279,0,13.92
	c0.642,0,16.24,0,16.32,0c0.561,0,3.04,0,3.6,0c0-0.641,0-46.881,0-47.521c-0.56,0-11.52,0-16.319,0
	c0-3.92-0.038-13.343-0.038-13.903c-0.978-0.015-9.081-0.017-12.683-0.017c-0.963-1.025-8.088-9.046-8.88-9.84
	c0-3.28,0.002-9.268,0.041-11.79c-9.04,0-26.75,0-31.001,0.029c0,0.64,0,8.479,0,11.76c-1.155,1.117-7.655,8.21-9.12,9.84
	c-3.6,0-9.122-0.004-12.723-0.004c-0.017,1.246,0.003,10.004,0.003,13.924c-3.6,0-7.2,0-10.8,0c0-11.84,0.021-25.621,0.021-37.461
	C1241.221,475.021,1240.013,475.021,1237.46,475.042z M733.625,476.833c-1.21-0.003-47.765-0.111-70.485-0.111
	c-0.052,0.673,0,19.28,0,19.92c3.601,0,7.2,0,10.801,0c0.706,0.797,6.415,7.088,7.199,7.921c0,0.64,0.027,12.764,0.032,13.942
	c0.561,0,32.194,0.017,32.828,0.017c0-0.641,0.02-13.319,0.02-13.959c0.355-0.624,4.752-7.271,5.271-7.979c0.56,0,13.767,0,14.271,0
	C733.562,495.615,733.604,479.893,733.625,476.833z M822.74,476.962c-23.615-0.003-72.99-0.065-73.553-0.065
	c0,0.625-0.031,19.078-0.031,19.719c3.601,0,12.557-0.018,13.5-0.017c0.656,1.017,6.74,9.132,7.281,9.923
	c0,0.72,0.055,10.897,0.062,12c0.561,0,32.222-0.063,32.781-0.063c0.014-0.898,0.039-13.177,0.039-13.896
	c0.68-0.916,4.455-6.537,5.305-7.916c0.561,0,10.402,0,14.562,0C822.688,496.006,822.74,477.602,822.74,476.962z M837.188,476.562
	c0,0.641,0,19.443,0,20.084c4.159,0,10.192-0.005,14.354-0.005c0.444,0.535,7.079,7.65,7.396,7.974
	c0,3.92,0.031,12.781,0.044,13.867c0.56,0,31.96,0.069,32.52,0.069c0.063-0.594,0.094-8.655,0.12-12.069
	c0.849-1.181,5.599-7.742,7.2-9.841c0.56,0,8.88,0,12.479,0c0-0.64,0.055-19.48,0.055-20.12
	C909.635,476.552,837.748,476.562,837.188,476.562z M5.625,492.662c-0.01,0.003-0.085,86.54-0.085,87.26
	c0.64,0,66.89-0.01,67.21-0.01c0-1.406-0.313-52.752-0.313-53.313c1.5-0.188-30.688-0.062-32.438-0.188
	c0,0.917-0.016,21.766-0.094,27.75c-1.12,0-2.661,0-3.781,0c0-0.64-0.375-62.75-0.125-61.375
	C26.96,492.787,14.665,492.662,5.625,492.662z M1389.634,732.058c-0.03,1.27-0.014,13.146-0.014,13.705
	c-1.403,1.545-5.694,6.128-7.44,7.92c-4.182,0.058-8.361,0.01-12.421,0.083c0,0.56-0.083,35.109-0.083,35.75
	c3.019-0.017,13.864-0.072,14.424-0.072c1.784,1.864,4.284,4.697,5.521,6c0,0.639-0.027,11.902-0.027,15.822
	c3.708,0.042,22.688-0.034,32.708-0.082c0-0.641-0.041-13.183-0.041-13.82c2.499-2.68,5.624-6.139,7.2-7.92
	c0.561,0,13.993-0.01,14.633-0.01c0-0.641,0.041-35.263,0.041-35.791c-4.337-0.073-14.113,0.041-14.674,0.041
	c-1.742-2.582-5.159-7.291-7.2-9.841c0-2.561,0-11.121,0-11.762C1421.7,732.081,1390.193,732.058,1389.634,732.058z
	 M1000.113,819.339c1.889-0.029,56.627,0.031,83.188,0.031c0-0.642-0.079-29.197,0-32.063c-0.56,0-36.001-0.024-52.24-0.024
	c0-2.562,0-5.121,0-7.681c7.841,0,20.72-0.161,25.179-0.106c0-0.562,0.021-30.935,0.021-31.572c-0.56,0-55.6,0-56.16,0
	C1000.1,748.562,1000.113,818.698,1000.113,819.339z M1177.7,777.683c0,0.56,0,197.98,0.184,209.667
	c47.341,0,146.058-2.066,146.696-2.066c0-0.722-0.24-207.041-0.24-207.601C1323.648,777.653,1187.884,777.517,1177.7,777.683z
	 M1389.62,842.722c-1.735,1.711-4.86,5.211-7.2,7.92c-3.68,0-9.021-0.001-12.701-0.001c-0.036,1.999,0,33.07,0,33.709
	c4.853,0.066,8.442,0.071,12.701,0.133c1.423,1.783,4.798,5.533,7.2,7.92c0,0.561,0.024,12.445-0.007,13.678
	c0.56,0,32.087,0.002,32.646,0.002c0-0.639,0-8.479,0-11.76c1.708-2.265,5.666-7.599,7.2-9.84c0.64,0,13.947-0.05,14.508-0.05
	c-0.018-2.389-0.041-33.272-0.041-33.834c-0.561,0-12.707,0.043-12.787,0.043c-2.38-2.792-6.588-7.542-8.88-9.84
	c0-0.641,0-13.119,0-13.68c-9.75-0.023-21.458,0.102-32.625,0.061C1389.635,827.743,1389.62,842.081,1389.62,842.722z
	 M1389.62,941.604c-0.569,0.627-5.054,5.424-5.521,6c-0.56,0-10.7,0.038-14.382,0.038c0,0.64-0.018,34.841-0.018,35.48
	c4.809,0.02,12.052-0.024,14.434,0.062c0.604,0.604,4.479,4.916,5.486,6.18c0,0.559-0.007,11.649-0.007,15.569
	c0.91,0.017,32.087,0.029,32.646,0.029c0-0.641,0-13.119,0-13.68c1.416-1.443,6.26-6.976,7.2-7.92c0.562,0,14.03,0.008,14.591,0.008
	c0.034-2.457,0.156-35.394,0.156-36.031c-0.641,0-12.656,0.031-14.747,0.023c-1.784-2.056-6.034-6.639-7.2-7.681
	c0-0.641,0-13.12,0-13.682c-10.417-0.026-22.542,0.016-32.631,0.025C1389.629,926.587,1389.62,940.962,1389.62,941.604z
	 M1204.82,1212.802c0,0.562-0.146,88.365-0.146,89.006c2.668,0.019,66.704,0.035,67.344,0.035c0-0.721,0-56.881,0-57.602
	c-0.64,0-25.577-0.045-27.344,0.004c0,0.561-0.016,17.836-0.016,25.676c-2.96,0-5.92,0-8.88,0c0-17.52,0.021-56.615,0.021-57.176
	C1231.554,1212.688,1209.426,1212.745,1204.82,1212.802z"/>
<rect id="UKCARM66MR02" x="1115.718" y="1018.891" fill="#09252E" width="85.54" height="166.292"/>
<rect id="UKCARM66MR01" x="1003.266" y="945.759" fill="#09252E" width="112.949" height="239.398"/>
<rect id="UKCARM66MR3" x="1003.386" y="876.308" fill="#09252E" width="80.125" height="70.918"/>
</svg>
